<svg xmlns="http://www.w3.org/2000/svg" id="Capa_1" data-name="Capa 1" viewBox="0 0 471 451"><defs><style>.cls-1{fill:#069;stroke:#069;}.cls-1,.cls-19,.cls-2,.cls-20,.cls-21,.cls-23{stroke-miterlimit:10;}.cls-2{fill:#f2d459;}.cls-19,.cls-2,.cls-21,.cls-23{stroke:#c96;stroke-width:0.25px;}.cls-3{fill:#d36f60;}.cls-23,.cls-4{fill:#f7d3b9;}.cls-5{fill:#cc6360;}.cls-6{fill:#eda88b;}.cls-7{fill:#e7a88e;}.cls-8{fill:#e8a78c;}.cls-9{fill:#e7a48d;}.cls-10{fill:#eca88a;}.cls-11{fill:#e7a48c;}.cls-12{fill:#deab96;}.cls-13{fill:#e1a790;}.cls-14{fill:#dfa78d;}.cls-15{fill:#e6a487;}.cls-16{fill:#d5a78e;}.cls-17{fill:#d3a78f;}.cls-18{fill:#d5a790;}.cls-19{fill:#f3d356;}.cls-20{fill:#f5d3b6;stroke:#c99;}.cls-21{fill:#fceabd;}.cls-22{fill:#ec7f4b;}.cls-24{fill:#cd9765;}.cls-25{font-size:18px;font-family:CharisSIL, Charis SIL;}</style></defs><path d="M-.27-.14v451h471v-451zM461 421.85a19.5 19.5 0 0 1-19.5 19.5H29a19.5 19.5 0 0 1-19.51-19.5v-393A19.5 19.5 0 0 1 29 9.36h412.51A19.5 19.5 0 0 1 461 28.87z" class="cls-1"/><path d="M214 215.08c8-.47 13.65-.47 25 1.89 12.3 2.56 18.83 7.53 23.07 12.24s7.54 11.79 5.18 19.79-6.59 10.83-8.47 14.13-1.42 4.24 2.82 4.24 3.77 1.41 2.36 3.29-2.83 6.6-1.42 9 2.94 5.65 8.07 0a128.61 128.61 0 0 0 8.39-10.42c1.88-2.35 3.76 1.41 3.29 4.24s-1.88 11.77-5.18 18.84-9.89 21.66-11.3 25.43-7.53 25.43-7.06 31.08 3.29 26.84 6.12 39.09 5.65 26.84 5.65 26.84h-22.39s-7.25-21.71-8.19-29.46-1.41-13.39-2.36-24.7-2.35-17.42-6.12-20.25c-3.55-2.66-5.17-3.16-14.13-3.29-5.67-.09-8.47-.94-20.25-4.24-8.47-2.83-16-8.48-21.66-10.36s-12.25-4.71-19.78-6.12-21.66-2.36-24-17.43 5.18-23.55 9.42-29.67 4.71-9.89 3.77-15.54-5.28-14.4-2.83-19.31c1.89-3.77 9-5.65 13.19-1.41 3.14 3.14.47 14.6.47 17.42s1.17 8.72 4.24 5.65c3.29-3.29 3.77-5.18 5.65-4.71s7.53-1.88 7.53-1.88 3.21-4.06 7.54 1.88c3.77 5.19 6.12 9 9 8s.94-2.35 1.41-4.71 3.85.28 5.18.94c1.88.95 4.71 1.89 3.3-3.29s-6.13-8.95-11.31-13.66-6.68-15.39 3.77-19.31c7.47-2.82 16.81-3.92 22.03-4.23z" class="cls-2"/><path d="M178.72 213.67c5.77-3.85 10.3-7.06 26.84-7.06a214.26 214.26 0 0 1 36.26 2.82c4.71.94 17.9 4.24 23.08 8.95a45.37 45.37 0 0 1 9 11.3c1.41 2.36 5.18 4.71 5.18-.94 0-7.06-.95-12.72-6.6-18.84s-15.07-11.3-15.07-11.3L193.79 184s-17.9-3.3-18.37-3.3h-15.55l-14.59 6.13-1.41 2.35s.47 10.83-1 16.48c-1.08 4.34-4.23 8-4.23 14.6 0 5.18 1.41 7.54 5.65 9 5.52 1.84 6.74 2.11 10.36-.47 3.29-2.36 1.41-6.59 1.41-12.25 0-4.23 0-6.43 3.3-5.65 3.17.75 2.82 1.89 3.29 3.3.34 1 1.35 1.17 2.36.47s7.53-1.88 7.53-1.88.74 1.64.95 2.35a18.73 18.73 0 0 0 .47 2.36c.25.61.62.89.94.47 1.46-1.96 2.4-3.35 3.82-4.29z" class="cls-2"/><path d="M201.79 111.47s21.67 1.42 28.73 2.36c6.68.89 15.54 3.77 18.37 5.65s8 5.65 8.94 9.89a144.07 144.07 0 0 0 4.71 16c1.89 4.71 7.54 9 12.72 12.25s10.36 6.12 14.6 11.77a41.75 41.75 0 0 1 8.48 20.25c1.41 8.95 2.35 21.66 1.88 29.67s-1.88 18.84-2.36 19.31-1.41.94-1.41-2.36-1.45-14.11-9.45-20.71-14.6-9.89-26.37-13.65a237.74 237.74 0 0 0-32-7.54c-10.37-1.88-29.2-5.18-35.33-6.59s-22.13-4.24-26.37-4.71-7.06-.94-11.77.94-11.3 6.59-14.6 7.06-8.95 1.42-12.25 0-3-3.54-1.88-6.12c1.88-4.24 1.41-3.77 1.41-7.53s0-6.6 4.24-11.78 17.43-17.89 18.37-19.31 8.48-8 13.66-16c2.63-4.07 8.33-13.35 13.65-16 5.66-2.85 9.43-3.79 24.03-2.85z" class="cls-3"/><path d="M119.38 182.12a2.63 2.63 0 0 0 2.35 1.88c1.41 0 1.88-.94 1.88-2.83a47.46 47.46 0 0 1 .48-8 19.49 19.49 0 0 1 3.29-7.07 39.39 39.39 0 0 1 3.77-4.23 13.69 13.69 0 0 0 2.83-4.24c.47-1.42.47-2.83-.95-2.36a13 13 0 0 0-3.76 2.36 42.35 42.35 0 0 0-3.77 4.24 46.62 46.62 0 0 0-3.3 4.7 23.86 23.86 0 0 0-2.35 5.69c-.47 2.32-1.42 7.03-.47 9.86zM148.1 143l4.71-5.65s3.3-4.24 4.24-5.18 3.77-4.71 4.24-5.18.47-2.83-1.88-1.89a15 15 0 0 0-4.71 3.3c-.47.47-2.83 3.29-3.77 4.24s-3.77 4.71-4.71 5.65-2.35 2.82-3.3 3.77a32.32 32.32 0 0 0-3.76 5.18c-.42 1-1.89 2.82 0 3.29a3.41 3.41 0 0 0 3.76-.94c.95-.91 5.18-6.59 5.18-6.59z" class="cls-2"/><path d="M235.7 148.21a14.6 14.6 0 0 1 5.18.94 53.39 53.39 0 0 1 9 4.24c.55.37 4.24 2.82 5.18 3.29s3.77 2.36 3.77.95c0-1.94-4.24-5.18-5.66-6.13a81.8 81.8 0 0 0-8.94-4.7c-1.42-.48-6.13-2.36-7.54-2.83a32.93 32.93 0 0 1-4.71-1.88c-1.88-1-3.29-1.89-5.65-1.89s-4.6.44-4.24 1.89c.47 1.88 2.83 4.23 6.6 5.18a27.12 27.12 0 0 0 7.01.94zM218.27 167.05s13.46 5.54 17.43 7.53c3.77 1.88 10.36 4.24 14.13 5.65 2.25.85 8 1.89 11.3 1.42 2.84-.41 9.42-3.3 9.42-4.71s-.47-2.83-2.81-1.9a51 51 0 0 1-5.2 1.9c-3.29.94-7.53.94-17.13-2.55a100.05 100.05 0 0 1-19.13-10.17 127.62 127.62 0 0 0-14.13-8.48c-2.82-1.41-7.76-3.87-9.77-5s-7.74-2.52-9.54-1.13-2.82 6.12.47 8c4 2.3 9.89 3.76 12.72 4.71s12.24 4.73 12.24 4.73zM295 212.73s1.41 2.82 1.41.47-1.41-7.54-1.88-9.42c-.36-1.45-1.89-8-2.83-9.89-.76-1.52-3.29-8-4.24-9.42s-1.88-3.3-3.29-3.3-1.78 1.38-1.42 2.83a29.51 29.51 0 0 0 2.36 5.65c.94 1.88 2.35 4.24 2.82 5.18a61.89 61.89 0 0 1 3.3 7.54l1.89 5.65c.51 1.41 1.88 4.71 1.88 4.71zM288.45 209s.94 1.41 1.41.47-.47-3.3-.94-4.71-1.42-4.24-1.89-5.18-1.41-3.3-2.35-4.24c-1.2-1.2-3.3-1.41-4.24-.47a2.91 2.91 0 0 0-.47 3.3 6.44 6.44 0 0 0 2.35 2.35 25.61 25.61 0 0 1 3.3 2.36 9.13 9.13 0 0 1 1.41 2.82 30 30 0 0 0 1.42 3.3z" class="cls-4"/><path d="M165.06 214.61v12.72s.47 2.82 1.88.47 4.24-7.54 4.24-7.54 1.47-2.44 1.88-3.29c.69-1.42.95-2.39 1.42-6.13s-.47-7.54-.47-8.54c0-1.35-.47-3.7-2.36-2.76-2.1 1.05-1.88 2.83-1.88 5.18a13.91 13.91 0 0 1-.94 4.71 14.83 14.83 0 0 1-1.42 2.83 9.6 9.6 0 0 1-2.35 2.35M171.18 254.17a6.27 6.27 0 0 0 1.41-3.3 13.63 13.63 0 0 0 0-4.71 10.92 10.92 0 0 0-1.88-5.18c-.94-1.41-.94-3.76-1.41-4.71s-1.42-2.82-2.36-2.35-1.41 2.35-1.41 3.77a14 14 0 0 1-.94 4.71 9.74 9.74 0 0 0-.94 2.82c0 .47-.48.94.94 1.89s2.35 1.41 2.35 2.35-.47 2.36-.47 2.83.75 1.41.94 2.35.94 2.83 1.89 1.89c.47-.48 1.41-1.89 1.88-2.36z" class="cls-5"/><path d="M322.82 264.06s2.36-1.41 2.36-3.3 0-4.23-.94-4.71-1.89-.94-.94-1.41 1.88.47 2.35.94a3.62 3.62 0 0 1 .94 2.36 11.77 11.77 0 0 1-.47 3.77c-.47 1.41-1.88 3.76-2.35 3.76s-.95-1.41-.95-1.41z" class="cls-6"/><path d="M304.76 265.47c-.3-.47-1.72-1.41-2.19-2.35a4.34 4.34 0 0 1-.47-3.3 4 4 0 0 1 1.42-2.35 8.36 8.36 0 0 1 1.88-1.42l-1.88-.47a3.68 3.68 0 0 0-1.64 1.33 4.58 4.58 0 0 0-1.19 3.38c0 1.89 0 2.36.47 3.3a6.49 6.49 0 0 0 1.41 1.88l.95.95c.48.47 1.24-.95 1.24-.95z" class="cls-7"/><path d="M323.3 290.9a7.4 7.4 0 0 1 3.76 6.6 18 18 0 0 1-1.41 4.71c-.47.94-1.41-.38-.94-1.6s1.1-2.32.78-3.89-1.25-4.15-2.67-4.51.48-1.31.48-1.31z" class="cls-8"/><path d="M303.52 292.79a8.44 8.44 0 0 0-1.89 3.29 10.79 10.79 0 0 0 .47 5.66c.64 1.64 1.42 3.29 1.42 3.29s2.35.47 1.41-1.41a15.45 15.45 0 0 1-1.41-3.3 7.88 7.88 0 0 1 0-4.71c.47-1.41.47-1.41.94-1.88s-.94-.94-.94-.94z" class="cls-9"/><path d="M327.06 328.11a17.8 17.8 0 0 1 2.36 2.82 9.25 9.25 0 0 1 .47 3.3c0 1.41 0 4.24-.94 5.18s-1.42 0-1.42-.47 1-2.35 1-3.77a8 8 0 0 0-.47-3.29c-.54-1.61-.95-2.36-1.89-2.83s.89-.94.89-.94z" class="cls-10"/><path d="M308.7 333.29a7.39 7.39 0 0 0-1.48 2 5.22 5.22 0 0 0 .06 3.65 6.49 6.49 0 0 0 1.42 1.88c.74.75.94 1.42.47 1.42s-1.16-.21-2.36-1.42a4.27 4.27 0 0 1-1.41-3.29 5.82 5.82 0 0 1 .94-3.3c.94-1.41 1.41-1.41 1.41-1.41z" class="cls-11"/><path d="M333.66 361.55a5.29 5.29 0 0 1 1.88 2.35 9.57 9.57 0 0 1 0 3.77c-.15.84-.47 2.82-.94 3.29s-1.39.87-.94-.47a16 16 0 0 0 .47-4.71 9.34 9.34 0 0 0-.92-2.92.94.94 0 0 1 .45-1.31z" class="cls-12"/><path d="M313.41 365.78a3.31 3.31 0 0 0-1 1.89 14.73 14.73 0 0 0 0 2.82 4.45 4.45 0 0 0 1.42 2.36l.94.94a1.8 1.8 0 0 1-1.7.29c-1.13-.29-2.07-2.64-2.07-3.59a12.66 12.66 0 0 1 0-2.82c.21-.85 1-2.54 1.7-2.45s.71.56.71.56z" class="cls-13"/><path d="M339.78 389.8a6.7 6.7 0 0 1 1.88.94 5.43 5.43 0 0 1 1.42 3.3 15.93 15.93 0 0 1-.48 4.24 5.54 5.54 0 0 1-.94 1.88 1 1 0 0 1-.94-.94c-.05-.78.7-2.09.94-3.29a4.89 4.89 0 0 0-.47-3.3 5.56 5.56 0 0 0-2.82-2.36c-.48 0 1.41-.47 1.41-.47z" class="cls-14"/><path d="M321.88 402.52a8.11 8.11 0 0 1-1.88-1.41 6.39 6.39 0 0 1-1.65-2.55 9.36 9.36 0 0 1 0-3.58c.24-.94-1.18-.47-1.18-.47s-.47.47-.47 2.36a7.28 7.28 0 0 0 .94 3.76c.48.95 2.36 1.89 2.83 2.36s1.41-.47 1.41-.47z" class="cls-15"/><path d="M117.49 186.83s-2.55-7.09-2-11.79a27.16 27.16 0 0 1 7.52-16.9c8.12-9 18-18.88 21.78-24.06s13.21-17.38 16.75-22.35 11.05-14.38 10.11-21-1.72-15 .08-21.63 6-15.57 8.4-20.28 8.65-17.43 8.65-17.43h-3.67s-8.49 15.93-10.5 20-5.73 12.22-6.46 16.61a50.84 50.84 0 0 0 .38 17.15c1.24 6.07-3.64 16.43-9.44 24s-15.22 19.94-20.4 25.75-10.84 13.34-16 18.52-9.42 10.36-9.89 18.37.32 12.24 1.58 15.07 5 6.56 3.11-.03z" class="cls-16"/><path d="M316.7 414.29s-7.23-28.27-8.56-35.56-5.94-33.67-6.7-39.79-2.93-34.75-2.78-44.45-.8-33.26.62-42.2 4.27-36.43 4-44.12 1.16-24.64 2.1-27.47 3.55-5.2 2-5.66-3.86-.93-4.11 6.13-1.64 7-1.42 15.26.79 14-.44 25.27-5 36.2-5 46.34 0 32.28 1.41 50.18 4.72 38 6.37 48.89 6.92 29.65 8.52 38.18 2.07 9.47 2.07 9.47z" class="cls-17"/><path d="M360 414.29s-12.73-33.46-15.3-47.81-7.24-48.16-8-61.4-4.11-52.29-1.67-65.51c3.3-17.89 7.53-25.43 1.88-47.09-3.6-13.82-10.36-17.43-15.07-28.61-2.82-8.6-3.87-21 .42-28.68S310 118 307.22 120.85c-2.29 4.75-1.32 10.16-5.34 10.52s-13 1.77-7.31-8.59c5.65-5.65 5.91-9-3.41-11.83s-12.6-1.83-34.74-4.66-35-3.84-43.42-17-6-29.78-3.89-34.41 9.71-23.48 9.71-23.48l-9.71.36S198 59.67 201.79 70s9 26.84 12.72 30.61 30.14 16.49 51.33 14.6 24.36.87 23.72 1.61-4 5.8-3.72 8.93 3.55 10.18 6.84 11.6 12.25 2.35 14.6-2.36 2.36-8 2.83-8 4.61 1.21 5.36 4.84-.92 9.06-.79 17.18a61 61 0 0 0 6.26 24.6 109.48 109.48 0 0 0 9.42 13.66s7.06 15.54 4.71 33.43-5.18 14.6-4.71 34.85 2.64 45.51 4.24 63.58 7.53 54.63 9.89 61.69 9.54 32 11.83 33.44 3.68.03 3.68.03z" class="cls-18"/><path d="M163.65 120.89c.47-.47 9.45-6.89 11-8.11 3.24-2.64 4.61-3.33 11.17-4.13 11.23-1.38 28.26.94 30.61.94s23.24 3.2 27.63 4.9 14.88 7.85 15.52 10.42 3.42 11.09 3.91 13.88 4.45 11 9.89 15.07c5.65 4.24 21.66 13.66 27.31 18.37 4.61 3.83 11.94 13.4 15.07 17.42 3.3 4.24 9.89 6.59 11.77 5.65 2.7-1.35 2.83-5.18 2.83-8 0-2.41-3.06-8.16-7.54-15.07-5.18-8-6.86-15.5-6.49-23.06a58.23 58.23 0 0 1 2.26-14.62c.47-1.88.94-3.77-2.36-5.65-3.86-2.21-4.24-4.24-5.65-4.24-1.88 0-1.88 2.83-2.83 5.65s-2.12 4.9-5.18 6.12c-2.35.95-6.12.48-8.94-1.88s-4.71-4.71-5.18-6.12a6.87 6.87 0 0 1 .94-5.18c.94-1.42 3.29-3.3 3.77-5.65.2-1-1-3.3-6.13-4.24s-9.42-.94-13.18-1.41-10.84-1-15.54-1.42-13.66-1.88-18.84-2.82-15.54-3.77-19.78-6.6c-3.62-2.41-9.13-9.71-11.78-15.54-2.35-5.18-5.18-11.77-4.71-20.25s1.42-13.18 3.77-18.84c2-4.86 7.07-14.6 7.07-14.6l-19.78-.47-8.95 17.9c-.94 1.88-3.77 8.95-5.18 12.71s-3.3 8.48-2.83 14.6.47 13.66 0 16a19.42 19.42 0 0 1-3.76 8c-1.89 2.36-4.24 5.65-5.66 7.54s-3.76 4.71-5.18 6.59-2.82 4.71-2.35 6.12 3.3.02 3.3.02z" class="cls-19"/><path d="M320.94 414.29h26.84s-3.29-4.71-3.29-8 .47-5.18-.94-6.13-7.54-1.41-10.36-.94-5.21 1.58-7.07 1.89c-2.82.47-7.09 1-7.53 2.35s-.47 4.24 2.35 10.83zM329 393.57a9.35 9.35 0 0 1 6.12-2.83c3.3 0 5.18 0 5.18-.94a8.59 8.59 0 0 0-1.41-5.18c-1.42-1.88-1.42-6.12-1.42-7.53a12.92 12.92 0 0 0-.94-5.65c-.94-1.89-5.18-2.36-6.59-1.89s-3.77 2.83-6.12 3.3-6.13 0-7.54 0-4.24.47-3.3 3.77 2.83 5.65 3.3 7.06a9.69 9.69 0 0 1 0 5.18c-.47 1.41-.47 4.24.47 5.65s4.71 1.42 6.6.94 3.71 0 5.65-1.88zM320.94 364.84a39.59 39.59 0 0 1 6.12-1.41c3.77-.47 5.18.47 6.6-.94s1.41-3.3.47-5.18-3.3-4.24-2.83-7.07a40.7 40.7 0 0 0 .47-7.06 4.21 4.21 0 0 0-4.24-4.24c-2.82 0-5.65.94-8.47.94a40.69 40.69 0 0 0-8 .47c-1.88.47-4.24 1.89-3.77 6.13s1 4.71 1.89 6.59a10.16 10.16 0 0 1 .94 5.18c0 1.88-.47 5.65.94 7.06a5.7 5.7 0 0 0 6.12 1.42 22.72 22.72 0 0 0 3.76-1.89zM317.17 330.93a8.48 8.48 0 0 1 4.71-1.41c2.83 0 5.65.47 6.13-.94a17.15 17.15 0 0 0 0-8.61 23.24 23.24 0 0 1-.48-9.76c.48-2.82.48-6.12-.47-7.53s-3.76-2.36-7.06-.94a13.72 13.72 0 0 1-6.59 1.41 31.22 31.22 0 0 1-6.6-.47c-1.88-.47-5.65.47-4.24 6.12s2 6.63 2.36 8.48a20.4 20.4 0 0 1-.47 7.53 12.94 12.94 0 0 0 0 6.12c.5 1.42 1 3.3 4.74 2.83a26.62 26.62 0 0 0 7.97-2.83zM308.23 294.2a49.52 49.52 0 0 1 8.94-1.41c3.3 0 5 .47 6 0s2.44-3.3 2-7.07c-.41-3.3-1.41-6.59-1.41-9.42a32.79 32.79 0 0 1 1.41-8c.47-1.88-.94-4.71-2.83-5.18s-5.18.47-7.53 1.88c-2.59 1.55-6.12.94-8.95.47s-5.18.95-5.18 4.71 1.88 6.12 2.35 8a11.78 11.78 0 0 1 0 7.06c-.8 2.41-1.41 4.71-.94 6.13.77 2.28.91 3.77 6.14 2.83zM321.88 255.58s5.18.47 4.24-4.24a100.81 100.81 0 0 1-1.88-15.07 76.3 76.3 0 0 1 2-14.32c.82-2.63 2.24-8.75 2.71-11.11s-.47-5.18-2.36-6.12-5.18-1.88-8.47 3.3a38.1 38.1 0 0 0-5.19 12.71 95.19 95.19 0 0 1-3.29 10.84c-1.41 3.76-2.83 6.59-4.24 9.89s-2.83 5.18-3.3 8-.47 6.59 2.83 7.07 5.18-.95 8.48-.95z" class="cls-20"/><path d="M282.84 152.58c.47.47 2.35 2.83 4.24 2.83s2.82-1.41 4.23-1.88 4.24-.48 3.77-2.83 0-5.65-1.88-7.53-4.24-2.83-5.65-5.66-1.89-5.18-2.83-7.06-1.41-4.24-4.71-4.71-7.06-.94-9.42 3.3-2.35 3.29-3.29 6.12-1.42 5.18.47 6.59 5.18 1.89 6.59 2.36 4.24 1.41 5.18 3.76a17 17 0 0 0 3.3 4.71zM203.31 104.72s3.76-.47 5.18-2.82.47-6.13-.47-8-5.18-6.12-6.6-8a9.6 9.6 0 0 1-1.88-7.53 6.91 6.91 0 0 0-4.24-7.07 8.24 8.24 0 0 0-8 1c-2.35 1.88-3.76 4.24-3.29 7.06a27.28 27.28 0 0 0 2.43 8.4c1.34 2.43 1.34 5.26.86 8.08s-2.82 6.13 2.36 8 13.65.88 13.65.88z" class="cls-21"/><ellipse cx="271.3" cy="361.76" class="cls-22" rx="10.13" ry="2.83" transform="rotate(-3.71 271.552 362.082)"/><path d="M212.85 186.7a172 172 0 0 0 18.15 3.93c3.71.46 9.66 1.81 15.11 1.81s8.15-.6 9.06-1.21c.56-.37 3.62-2.08 0-2.11s-6.65.3-10.27 0c-5.5-.46-6.65-2.12-14.2-3.33s-10.63-1.95-16-3.92a148.69 148.69 0 0 1-18.74-8.77c-3-1.51-6.91-1.2-7.38 0s-1.38 3.33 3.76 5.74 16.53 6.86 20.51 7.86z" class="cls-4"/><path d="m288 413.82 20.17.94s-4.62-20.25-6-27.31-4.24-29.2-4.71-32.5-1.41-12.71-8.47-12.24-8 7.53-7.54 13.66a116.13 116.13 0 0 0 4.73 22.36c1.86 5.42 4.22 19.08 3.75 24.26a82.55 82.55 0 0 1-1.93 10.83z" class="cls-23"/><path d="M320.94 235.74a.75.75 0 0 0 0-1.5.75.75 0 0 0 0 1.5zM323.34 226a.75.75 0 0 0 0-1.5.75.75 0 0 0 0 1.5zM326 216.3a.75.75 0 0 0 0-1.5.75.75 0 0 0 0 1.5zM325 208.27a.75.75 0 0 0 0-1.5.75.75 0 0 0 0 1.5zM320.38 208.41a.75.75 0 0 0 0-1.5.75.75 0 0 0 0 1.5zM317.56 213.2a.75.75 0 0 0 0-1.5.75.75 0 0 0 0 1.5zM316.86 221.65a.75.75 0 0 0 0-1.5.75.75 0 0 0 0 1.5zM306.3 253.77a.75.75 0 0 0 0-1.5.75.75 0 0 0 0 1.5zM310.66 253.91a.75.75 0 0 0 0-1.5.75.75 0 0 0 0 1.5zM318.27 254.47a.75.75 0 0 0 0-1.5.75.75 0 0 0 0 1.5zM324.09 253.44v-.28a.57.57 0 0 0-.07-.29.49.49 0 0 0-.15-.24.54.54 0 0 0-.24-.16.49.49 0 0 0-.29-.06h-.2a.7.7 0 0 0-.33.2l-.12.15a.7.7 0 0 0-.1.38v.28a.58.58 0 0 0 .06.29.54.54 0 0 0 .16.24.61.61 0 0 0 .24.15.57.57 0 0 0 .29.07h.2a.79.79 0 0 0 .33-.19l.12-.15a.86.86 0 0 0 .1-.38zM322.44 249.17l.28-.42a.49.49 0 0 0 .09-.28.51.51 0 0 0 0-.3.55.55 0 0 0-.13-.25.7.7 0 0 0-.22-.2l-.17-.07a.68.68 0 0 0-.4 0l-.18.07a.78.78 0 0 0-.27.27l-.28.43a.44.44 0 0 0-.09.27.61.61 0 0 0 0 .3.51.51 0 0 0 .14.26.55.55 0 0 0 .21.19l.18.08a.86.86 0 0 0 .39 0l.18-.08a.64.64 0 0 0 .27-.27zM322.35 241.65a.75.75 0 0 0 0-1.5.75.75 0 0 0 0 1.5zM317.14 244.47a.75.75 0 0 0 0-1.5.75.75 0 0 0 0 1.5zM306.44 249.68a.75.75 0 0 0 0-1.5.75.75 0 0 0 0 1.5zM308.27 244.33a.75.75 0 0 0 0-1.5.75.75 0 0 0 0 1.5zM312.07 236.58a.75.75 0 0 0 0-1.5.75.75 0 0 0 0 1.5zM312.07 230.1a.75.75 0 0 0 0-1.5.75.75 0 0 0 0 1.5zM315.31 227.29a.75.75 0 0 0 0-1.5.75.75 0 0 0 0 1.5zM322.63 222.78a.75.75 0 0 0 0-1.5.75.75 0 0 0 0 1.5zM323.34 213.2a.75.75 0 0 0 0-1.5.75.75 0 0 0 0 1.5zM326 212.36a.75.75 0 0 0 0-1.5.75.75 0 0 0 0 1.5zM322.21 217a.75.75 0 0 0 0-1.5.75.75 0 0 0 0 1.5zM316 217.71a.75.75 0 0 0 0-1.5.75.75 0 0 0 0 1.5zM319.11 225.6a.75.75 0 0 0 0-1.5.75.75 0 0 0 0 1.5zM321.93 229.26a.75.75 0 0 0 0-1.5.75.75 0 0 0 0 1.5zM317 232.22a.75.75 0 0 0 0-1.5.75.75 0 0 0 0 1.5zM317 238.41a.75.75 0 0 0 0-1.5.75.75 0 0 0 0 1.5zM313.62 243.34a.75.75 0 0 0 0-1.5.75.75 0 0 0 0 1.5zM313.9 250.1a.75.75 0 0 0 0-1.5.75.75 0 0 0 0 1.5zM317.42 250.39a.75.75 0 0 0 0-1.5.75.75 0 0 0 0 1.5zM319.39 246.86a.75.75 0 0 0 0-1.5.75.75 0 0 0 0 1.5zM319.11 241.37a.75.75 0 0 0 0-1.5.75.75 0 0 0 0 1.5zM314.32 241.23a.75.75 0 0 0 0-1.5.75.75 0 0 0 0 1.5zM311.22 240.38a.75.75 0 0 0 0-1.5.75.75 0 0 0 0 1.5zM310.38 245.6a.75.75 0 0 0 0-1.5.75.75 0 0 0 0 1.5zM305.25 269.53a.75.75 0 0 0 0-1.5.75.75 0 0 0 0 1.5zM308.64 270.53a.75.75 0 0 0 0-1.5.75.75 0 0 0 0 1.5zM307.64 275.51a.75.75 0 0 0 0-1.5.75.75 0 0 0 0 1.5zM306.25 288.66a.75.75 0 0 0 0-1.5.75.75 0 0 0 0 1.5zM321.78 289.45a.75.75 0 0 0 0-1.5.75.75 0 0 0 0 1.5zM321.38 283.08a.75.75 0 0 0 0-1.5.75.75 0 0 0 0 1.5zM317.8 277.9a.75.75 0 0 0 0-1.5.75.75 0 0 0 0 1.5zM321 268.14a.75.75 0 0 0 0-1.5.75.75 0 0 0 0 1.5zM320.39 272.92a.75.75 0 0 0 0-1.5.75.75 0 0 0 0 1.5zM314 269.93a.75.75 0 0 0 0-1.5.75.75 0 0 0 0 1.5zM312 275.51a.75.75 0 0 0 0-1.5.75.75 0 0 0 0 1.5zM307.64 281.68a.75.75 0 0 0 0-1.5.75.75 0 0 0 0 1.5zM310.83 288.66a.75.75 0 0 0 0-1.5.75.75 0 0 0 0 1.5zM306.64 291.44a.75.75 0 0 0 0-1.5.75.75 0 0 0 0 1.5zM313.22 291.84a.75.75 0 0 0 0-1.5.75.75 0 0 0 0 1.5zM318.55 288.7v-.2a.59.59 0 0 0-.07-.29.63.63 0 0 0-.39-.39.59.59 0 0 0-.29-.07h-.2a.78.78 0 0 0-.33.19l-.12.16a.69.69 0 0 0-.1.37v.2a.77.77 0 0 0 .22.53.54.54 0 0 0 .24.16.49.49 0 0 0 .29.06h.2a.7.7 0 0 0 .33-.2l.12-.15a.83.83 0 0 0 .1-.38zM317.2 284.47a.75.75 0 0 0 0-1.5.75.75 0 0 0 0 1.5zM312.22 282.48a.75.75 0 0 0 0-1.5.75.75 0 0 0 0 1.5zM307.84 285.07a.75.75 0 0 0 0-1.5.75.75 0 0 0 0 1.5zM311.82 278.1a.75.75 0 0 0 0-1.5.75.75 0 0 0 0 1.5zM322.18 308.38a.75.75 0 0 0 0-1.5.75.75 0 0 0 0 1.5zM325.17 319.53a.75.75 0 0 0 0-1.5.75.75 0 0 0 0 1.5zM325.17 327.1a.75.75 0 0 0 0-1.5.75.75 0 0 0 0 1.5zM315.41 326.7a.75.75 0 0 0 0-1.5.75.75 0 0 0 0 1.5zM311.42 331.08a.75.75 0 0 0 0-1.5.75.75 0 0 0 0 1.5zM307.64 327.9a.75.75 0 0 0 0-1.5.75.75 0 0 0 0 1.5zM308.24 321.32a.75.75 0 0 0 0-1.5.75.75 0 0 0 0 1.5zM305.85 313.55a.75.75 0 0 0 0-1.5.75.75 0 0 0 0 1.5zM306.05 307.38a.75.75 0 0 0 0-1.5.75.75 0 0 0 0 1.5zM310.63 307.58a.75.75 0 0 0 0-1.5.75.75 0 0 0 0 1.5zM315.21 307.78a.75.75 0 0 0 0-1.5.75.75 0 0 0 0 1.5zM322.78 305.39a.75.75 0 0 0 0-1.5.75.75 0 0 0 0 1.5zM319.79 312.56a.75.75 0 0 0 0-1.5.75.75 0 0 0 0 1.5zM313.22 314a.75.75 0 0 0 0-1.5.75.75 0 0 0 0 1.5zM316.6 318.14a.75.75 0 0 0 0-1.5.75.75 0 0 0 0 1.5zM322.38 315.75a.75.75 0 0 0 0-1.5.75.75 0 0 0 0 1.5zM324 310.37a.75.75 0 0 0 0-1.5.75.75 0 0 0 0 1.5zM320 327.1a.75.75 0 0 0 0-1.5.75.75 0 0 0 0 1.5zM320 320.33a.75.75 0 0 0 0-1.5.75.75 0 0 0 0 1.5zM313.81 322.52a.75.75 0 0 0 0-1.5.75.75 0 0 0 0 1.5zM310.43 316.34a.75.75 0 0 0 0-1.5.75.75 0 0 0 0 1.5zM312.42 344.43a.75.75 0 0 0 0-1.5.75.75 0 0 0 0 1.5zM312.82 348a.75.75 0 0 0 0-1.5.75.75 0 0 0 0 1.5zM313 357.58a.75.75 0 0 0 0-1.5.75.75 0 0 0 0 1.5zM315.21 363.15h.2a.49.49 0 0 0 .29-.06.54.54 0 0 0 .24-.16.55.55 0 0 0 .15-.24.57.57 0 0 0 .07-.29v-.2a.79.79 0 0 0-.19-.33l-.15-.11a.76.76 0 0 0-.38-.11h-.2a.59.59 0 0 0-.29.07.61.61 0 0 0-.24.15.63.63 0 0 0-.16.24.72.72 0 0 0-.06.29v.2a.69.69 0 0 0 .19.33l.15.12a.72.72 0 0 0 .38.1zM331 361.56a.75.75 0 0 0 0-1.5.75.75 0 0 0 0 1.5zM328.89 356.89l-.2-.2a.61.61 0 0 0-.24-.15.59.59 0 0 0-.29-.07.57.57 0 0 0-.29.07.49.49 0 0 0-.24.15l-.12.16a.69.69 0 0 0-.1.37v.2a.7.7 0 0 0 .2.33l.2.2a.45.45 0 0 0 .24.16.48.48 0 0 0 .29.06.45.45 0 0 0 .28-.06.51.51 0 0 0 .25-.16l.11-.15a.73.73 0 0 0 .11-.38v-.2a.92.92 0 0 0-.19-.33zM327.36 349.21a.75.75 0 0 0 0-1.5.75.75 0 0 0 0 1.5zM327.76 343.83a.75.75 0 0 0 0-1.5.75.75 0 0 0 0 1.5zM319.39 343.43a.75.75 0 0 0 0-1.5.75.75 0 0 0 0 1.5zM319 350.8a.75.75 0 0 0 0-1.5.75.75 0 0 0 0 1.5zM313.62 353a.75.75 0 0 0 0-1.5.75.75 0 0 0 0 1.5zM317.6 358.77a.75.75 0 0 0 0-1.5.75.75 0 0 0 0 1.5zM321.18 361.56a.75.75 0 0 0 0-1.5.75.75 0 0 0 0 1.5zM323.18 355.58a.75.75 0 0 0 0-1.5.75.75 0 0 0 0 1.5zM322.58 348.21a.75.75 0 0 0 0-1.5.75.75 0 0 0 0 1.5zM317.2 347a.75.75 0 0 0 0-1.5.75.75 0 0 0 0 1.5zM325.17 353a.75.75 0 0 0 0-1.5.75.75 0 0 0 0 1.5zM332.54 375.3a.75.75 0 0 0 0-1.5.75.75 0 0 0 0 1.5zM333.73 382.87a.75.75 0 0 0 0-1.5.75.75 0 0 0 0 1.5zM330.35 389.25a.75.75 0 0 0 0-1.5.75.75 0 0 0 0 1.5zM320.39 393.63a.75.75 0 0 0 0-1.5.75.75 0 0 0 0 1.5zM319.39 389.45a.75.75 0 0 0 0-1.5.75.75 0 0 0 0 1.5zM319.19 381.08a.75.75 0 0 0 0-1.5.75.75 0 0 0 0 1.5zM315.61 376.5a.75.75 0 0 0 0-1.5.75.75 0 0 0 0 1.5zM325.17 376.3a.75.75 0 0 0 0-1.5.75.75 0 0 0 0 1.5zM326.16 380.88a.75.75 0 0 0 0-1.5.75.75 0 0 0 0 1.5zM323.58 388.25a.75.75 0 0 0 0-1.5.75.75 0 0 0 0 1.5zM323.38 392.43a.75.75 0 0 0 0-1.5.75.75 0 0 0 0 1.5zM336.92 389.84a.75.75 0 0 0 0-1.5.75.75 0 0 0 0 1.5zM328.36 383.67a.75.75 0 0 0 0-1.5.75.75 0 0 0 0 1.5zM322.58 384.86a.75.75 0 0 0 0-1.5.75.75 0 0 0 0 1.5zM322.18 378.69a.75.75 0 0 0 0-1.5.75.75 0 0 0 0 1.5zM319.59 376.3a.75.75 0 0 0 0-1.5.75.75 0 0 0 0 1.5zM331.74 378.89a.75.75 0 0 0 0-1.5.75.75 0 0 0 0 1.5zM332.54 387.06a.75.75 0 0 0 0-1.5.75.75 0 0 0 0 1.5zM340.71 402.39a.75.75 0 0 0 0-1.5.75.75 0 0 0 0 1.5zM342.3 409a.75.75 0 0 0 0-1.5.75.75 0 0 0 0 1.5zM340.71 412.75a.75.75 0 0 0 0-1.5.75.75 0 0 0 0 1.5zM333.53 412.35a.75.75 0 0 0 0-1.5.75.75 0 0 0 0 1.5zM324.57 412.35a.75.75 0 0 0 0-1.5.75.75 0 0 0 0 1.5zM322.91 407.89l-.2-.2a.54.54 0 0 0-.24-.16.73.73 0 0 0-.58 0 .54.54 0 0 0-.24.16l-.12.15a.8.8 0 0 0-.1.38v.2a.79.79 0 0 0 .19.33l.2.2a.61.61 0 0 0 .24.15.64.64 0 0 0 .58 0 .61.61 0 0 0 .24-.15l.12-.16a.69.69 0 0 0 .1-.37v-.2a.69.69 0 0 0-.19-.33zM322.58 405.38a.75.75 0 0 0 0-1.5.75.75 0 0 0 0 1.5zM328.55 404.58h.2a.48.48 0 0 0 .29-.06.74.74 0 0 0 .4-.4.48.48 0 0 0 .06-.29v-.2a.82.82 0 0 0-.2-.33l-.15-.11a.7.7 0 0 0-.38-.11h-.2a.55.55 0 0 0-.28.07.6.6 0 0 0-.4.4.53.53 0 0 0-.07.28v.2a.78.78 0 0 0 .19.33l.16.12a.69.69 0 0 0 .37.1zM334.13 403.59a.75.75 0 0 0 0-1.5.75.75 0 0 0 0 1.5zM336.32 406.18a.75.75 0 0 0 0-1.5.75.75 0 0 0 0 1.5zM328.36 408.57a.75.75 0 0 0 0-1.5.75.75 0 0 0 0 1.5zM328.16 412.15a.75.75 0 0 0 0-1.5.75.75 0 0 0 0 1.5zM333.53 409a.75.75 0 0 0 0-1.5.75.75 0 0 0 0 1.5zM319.26 218.41a.38.38 0 0 0 0-.75.38.38 0 0 0 0 .75zM320.19 210.55a.38.38 0 0 0 0-.75.38.38 0 0 0 0 .75zM323.27 210.55a.38.38 0 0 0 0-.75.38.38 0 0 0 0 .75zM325 218.1a.38.38 0 0 0 0-.75.38.38 0 0 0 0 .75zM319.26 222.57a.38.38 0 0 0 0-.75.38.38 0 0 0 0 .75zM314.18 225.19a.38.38 0 0 0 0-.75.38.38 0 0 0 0 .75zM321.27 232.74a.38.38 0 0 0 0-.75.38.38 0 0 0 0 .75zM316.65 235.82a.38.38 0 0 0 0-.75.38.38 0 0 0 0 .75zM311.87 233.05a.38.38 0 0 0 0-.75.38.38 0 0 0 0 .75zM309.1 240.44a.38.38 0 0 0 0-.75.38.38 0 0 0 0 .75zM311.56 245.37a.38.38 0 0 0 0-.75.38.38 0 0 0 0 .75zM309.71 250.3a.38.38 0 0 0 0-.75.38.38 0 0 0 0 .75zM313.56 253.69a.38.38 0 0 0 0-.75.38.38 0 0 0 0 .75zM315.88 247.07a.38.38 0 0 0 0-.75.38.38 0 0 0 0 .75zM321 244.29a.38.38 0 0 0 0-.75.38.38 0 0 0 0 .75zM323.89 246.91a.38.38 0 0 0 0-.75.38.38 0 0 0 0 .75zM321.27 252.46a.38.38 0 0 0 0-.75.38.38 0 0 0 0 .75zM322 270.33a.38.38 0 0 0 0-.75.38.38 0 0 0 0 .75zM317.88 270.64a.38.38 0 0 0 0-.75.38.38 0 0 0 0 .75zM317.57 268a.38.38 0 0 0 0-.75.38.38 0 0 0 0 .75zM311.25 268.48a.38.38 0 0 0 0-.75.38.38 0 0 0 0 .75zM311.41 272a.38.38 0 0 0 0-.75.38.38 0 0 0 0 .75zM306 272.18a.38.38 0 0 0 0-.75.38.38 0 0 0 0 .75zM306.32 278a.38.38 0 0 0 0-.75.38.38 0 0 0 0 .75zM304.94 284a.38.38 0 0 0 0-.75.38.38 0 0 0 0 .75zM310.64 285.58a.38.38 0 0 0 0-.75.38.38 0 0 0 0 .75zM310.48 279.88a.38.38 0 0 0 0-.75.38.38 0 0 0 0 .75zM316 279.26a.38.38 0 0 0 0-.75.38.38 0 0 0 0 .75zM321 279.88a.38.38 0 0 0 0-.75.38.38 0 0 0 0 .75zM320.65 275.72a.38.38 0 0 0 0-.75.38.38 0 0 0 0 .75zM316.65 274.33a.38.38 0 0 0 0-.75.38.38 0 0 0 0 .75zM314.8 287.28a.38.38 0 0 0 0-.75.38.38 0 0 0 0 .75zM321.27 287a.38.38 0 0 0 0-.75.38.38 0 0 0 0 .75zM319.88 290.82a.38.38 0 0 0 0-.75.38.38 0 0 0 0 .75zM318.65 281.11a.38.38 0 0 0 0-.75.38.38 0 0 0 0 .75zM325.89 306.84a.38.38 0 0 0 0-.75.38.38 0 0 0 0 .75zM319 305.61a.38.38 0 0 0 0-.75.38.38 0 0 0 0 .75zM318.34 309.77a.38.38 0 0 0 0-.75.38.38 0 0 0 0 .75zM315.72 313.31a.38.38 0 0 0 0-.75.38.38 0 0 0 0 .75zM312.33 310.85a.38.38 0 0 0 0-.75.38.38 0 0 0 0 .75zM307.4 310.23a.38.38 0 0 0 0-.75.38.38 0 0 0 0 .75zM310 312.7a.38.38 0 0 0 0-.75.38.38 0 0 0 0 .75zM307.4 316.55a.38.38 0 0 0 0-.75.38.38 0 0 0 0 .75zM311.41 319.94a.38.38 0 0 0 0-.75.38.38 0 0 0 0 .75zM307.71 324.1a.38.38 0 0 0 0-.75.38.38 0 0 0 0 .75zM307.4 330.11a.38.38 0 0 0 0-.75.38.38 0 0 0 0 .75zM311.56 328.1a.38.38 0 0 0 0-.75.38.38 0 0 0 0 .75zM311.25 324.71a.38.38 0 0 0 0-.75.38.38 0 0 0 0 .75zM322 324.1a.38.38 0 0 0 0-.75.38.38 0 0 0 0 .75zM317.26 329a.38.38 0 0 0 0-.75.38.38 0 0 0 0 .75zM318.19 324.87a.38.38 0 0 0 0-.75.38.38 0 0 0 0 .75zM320 316.7a.38.38 0 0 0 0-.75.38.38 0 0 0 0 .75zM324 321.63a.38.38 0 0 0 0-.75.38.38 0 0 0 0 .75zM326.81 324.87a.38.38 0 0 0 0-.75.38.38 0 0 0 0 .75zM324.81 313.93a.38.38 0 0 0 0-.75.38.38 0 0 0 0 .75zM329.59 346a.38.38 0 0 0 0-.75.38.38 0 0 0 0 .75zM324.81 346.13a.38.38 0 0 0 0-.75.38.38 0 0 0 0 .75zM323.27 342.89a.38.38 0 0 0 0-.75.38.38 0 0 0 0 .75zM321.42 345.67a.38.38 0 0 0 0-.75.38.38 0 0 0 0 .75zM315.57 344a.38.38 0 0 0 0-.75.38.38 0 0 0 0 .75zM310 347.21a.38.38 0 0 0 0-.75.38.38 0 0 0 0 .75zM311.56 350.75a.38.38 0 0 0 0-.75.38.38 0 0 0 0 .75zM318 353.83a.38.38 0 0 0 0-.75.38.38 0 0 0 0 .75zM327.12 361.38a.38.38 0 0 0 0-.75.38.38 0 0 0 0 .75zM323.42 362.46a.38.38 0 0 0 0-.75.38.38 0 0 0 0 .75zM319.11 364.46a.38.38 0 0 0 0-.75.38.38 0 0 0 0 .75zM313 362a.38.38 0 0 0 0-.75.38.38 0 0 0 0 .75zM315.88 360.76a.38.38 0 0 0 0-.75.38.38 0 0 0 0 .75zM321.58 358.76a.38.38 0 0 0 0-.75.38.38 0 0 0 0 .75zM328.51 354.91a.38.38 0 0 0 0-.75.38.38 0 0 0 0 .75zM328.82 351.06a.38.38 0 0 0 0-.75.38.38 0 0 0 0 .75zM331.13 358.3a.38.38 0 0 0 0-.75.38.38 0 0 0 0 .75zM322.19 352.75a.38.38 0 0 0 0-.75.38.38 0 0 0 0 .75zM319.42 347.21a.38.38 0 0 0 0-.75.38.38 0 0 0 0 .75zM316.18 350.6a.38.38 0 0 0 0-.75.38.38 0 0 0 0 .75zM331.9 373.24a.38.38 0 0 0 0-.75.38.38 0 0 0 0 .75zM329.74 374.48a.38.38 0 0 0 0-.75.38.38 0 0 0 0 .75zM335.29 379.41a.38.38 0 0 0 0-.75.38.38 0 0 0 0 .75zM337 386.19a.38.38 0 0 0 0-.75.38.38 0 0 0 0 .75zM330.36 390.19a.38.38 0 0 0 0-.75.38.38 0 0 0 0 .75zM327.28 388a.38.38 0 0 0 0-.75.38.38 0 0 0 0 .75zM330.82 384a.38.38 0 0 0 0-.75.38.38 0 0 0 0 .75zM330.05 380.64a.38.38 0 0 0 0-.75.38.38 0 0 0 0 .75zM328.66 376.79a.38.38 0 0 0 0-.75.38.38 0 0 0 0 .75zM324.19 380a.38.38 0 0 0 0-.75.38.38 0 0 0 0 .75zM320.5 383.57a.38.38 0 0 0 0-.75.38.38 0 0 0 0 .75zM316.49 378.94a.38.38 0 0 0 0-.75.38.38 0 0 0 0 .75zM325.74 385.57a.38.38 0 0 0 0-.75.38.38 0 0 0 0 .75zM325 383a.38.38 0 0 0 0-.75.38.38 0 0 0 0 .75zM327.43 391.89a.38.38 0 0 0 0-.75.38.38 0 0 0 0 .75zM322.35 390.19a.38.38 0 0 0 0-.75.38.38 0 0 0 0 .75zM318.65 392a.38.38 0 0 0 0-.75.38.38 0 0 0 0 .75zM341.45 405.44a.38.38 0 0 0 0-.75.38.38 0 0 0 0 .75zM339.29 409a.38.38 0 0 0 0-.75.38.38 0 0 0 0 .75zM337.29 411.91a.38.38 0 0 0 0-.75.38.38 0 0 0 0 .75zM345 412.84a.38.38 0 0 0 0-.75.38.38 0 0 0 0 .75zM337.6 403a.38.38 0 0 0 0-.75.38.38 0 0 0 0 .75zM332.05 407.29a.38.38 0 0 0 0-.75.38.38 0 0 0 0 .75zM331.59 403.13a.38.38 0 0 0 0-.75.38.38 0 0 0 0 .75zM325.89 404.83a.38.38 0 0 0 0-.75.38.38 0 0 0 0 .75zM325.43 408.52a.38.38 0 0 0 0-.75.38.38 0 0 0 0 .75zM321.42 411.61a.38.38 0 0 0 0-.75.38.38 0 0 0 0 .75zM330.67 412.53a.38.38 0 0 0 0-.75.38.38 0 0 0 0 .75zM330.36 409.91a.38.38 0 0 0 0-.75.38.38 0 0 0 0 .75zM335.9 409.45a.38.38 0 0 0 0-.75.38.38 0 0 0 0 .75zM339.6 406.52a.38.38 0 0 0 0-.75.38.38 0 0 0 0 .75zM323 189.54a.75.75 0 0 0 0-1.5.75.75 0 0 0 0 1.5zM327.6 188.8a.75.75 0 0 0 0-1.5.75.75 0 0 0 0 1.5zM320.74 178.75a.75.75 0 0 0 0-1.5.75.75 0 0 0 0 1.5zM316.57 170.17a.75.75 0 0 0 0-1.5.75.75 0 0 0 0 1.5zM313.14 158.41a.75.75 0 0 0 0-1.5.75.75 0 0 0 0 1.5zM312.89 142.23a.75.75 0 0 0 0-1.5.75.75 0 0 0 0 1.5zM313.14 130.46a.75.75 0 0 0 0-1.5.75.75 0 0 0 0 1.5zM314.61 133.4a.75.75 0 0 0 0-1.5.75.75 0 0 0 0 1.5zM305.79 143.94a.75.75 0 0 0 0-1.5.75.75 0 0 0 0 1.5zM302.35 158.9a.75.75 0 0 0 0-1.5.75.75 0 0 0 0 1.5zM312.4 181.2a.75.75 0 0 0 0-1.5.75.75 0 0 0 0 1.5zM316.57 185.86a.75.75 0 0 0 0-1.5.75.75 0 0 0 0 1.5zM325.4 183.66a.75.75 0 0 0 0-1.5.75.75 0 0 0 0 1.5zM311.18 173.61a.75.75 0 0 0 0-1.5.75.75 0 0 0 0 1.5zM309 165.52a.75.75 0 0 0 0-1.5.75.75 0 0 0 0 1.5zM300.64 169.19a.75.75 0 0 0 0-1.5.75.75 0 0 0 0 1.5zM291.08 162.33a.75.75 0 0 0 0-1.5.75.75 0 0 0 0 1.5zM298.19 150.07a.75.75 0 0 0 0-1.5.75.75 0 0 0 0 1.5zM295.25 141.74a.75.75 0 0 0 0-1.5.75.75 0 0 0 0 1.5zM310 150.56a.75.75 0 0 0 0-1.5.75.75 0 0 0 0 1.5zM287.65 158.65a.75.75 0 0 0 0-1.5.75.75 0 0 0 0 1.5zM277.6 155.22a.75.75 0 0 0 0-1.5.75.75 0 0 0 0 1.5zM265.34 134.38a.75.75 0 0 0 0-1.5.75.75 0 0 0 0 1.5zM269.26 122.13a.75.75 0 0 0 0-1.5.75.75 0 0 0 0 1.5zM287.16 118a.75.75 0 0 0 0-1.5.75.75 0 0 0 0 1.5zM280.29 118.21a.75.75 0 0 0 0-1.5.75.75 0 0 0 0 1.5zM285.2 124.58a.75.75 0 0 0 0-1.5.75.75 0 0 0 0 1.5zM289.12 135.12a.75.75 0 0 0 0-1.5.75.75 0 0 0 0 1.5zM301.13 140.51a.75.75 0 0 0 0-1.5.75.75 0 0 0 0 1.5zM267.55 116.49a.75.75 0 0 0 0-1.5.75.75 0 0 0 0 1.5zM255.54 115.51a.75.75 0 0 0 0-1.5.75.75 0 0 0 0 1.5zM260.44 121.39a.75.75 0 0 0 0-1.5.75.75 0 0 0 0 1.5zM263.87 130.46a.75.75 0 0 0 0-1.5.75.75 0 0 0 0 1.5zM262.89 116.25a.75.75 0 0 0 0-1.5.75.75 0 0 0 0 1.5zM246.22 112.81a.75.75 0 0 0 0-1.5.75.75 0 0 0 0 1.5zM237.64 111.59a.75.75 0 0 0 0-1.5.75.75 0 0 0 0 1.5zM221.46 109.14a.75.75 0 0 0 0-1.5.75.75 0 0 0 0 1.5zM215.33 103a.75.75 0 0 0 0-1.5.75.75 0 0 0 0 1.5zM210.19 104.23a.75.75 0 0 0 0-1.5.75.75 0 0 0 0 1.5zM198.67 107.67a.75.75 0 0 0 0-1.5.75.75 0 0 0 0 1.5zM180.28 106a.75.75 0 0 0 0-1.5.75.75 0 0 0 0 1.5zM166.8 116.25a.75.75 0 0 0 0-1.5.75.75 0 0 0 0 1.5zM167.78 110.61a.75.75 0 0 0 0-1.5.75.75 0 0 0 0 1.5zM171.21 111.59a.75.75 0 0 0 0-1.5.75.75 0 0 0 0 1.5zM172.68 106a.75.75 0 0 0 0-1.5.75.75 0 0 0 0 1.5zM181.26 99.09a.75.75 0 0 0 0-1.5.75.75 0 0 0 0 1.5zM180.53 88.79a.75.75 0 0 0 0-1.5.75.75 0 0 0 0 1.5zM179.55 72.37a.75.75 0 0 0 0-1.5.75.75 0 0 0 0 1.5zM184 62.32a.75.75 0 0 0 0-1.5.75.75 0 0 0 0 1.5zM187.39 53a.75.75 0 0 0 0-1.5.75.75 0 0 0 0 1.5zM191.07 46.63a.75.75 0 0 0 0-1.5.75.75 0 0 0 0 1.5zM200.38 35.35a.75.75 0 0 0 0-1.5.75.75 0 0 0 0 1.5zM204.06 39a.75.75 0 0 0 0-1.5.75.75 0 0 0 0 1.5zM199.4 51a.75.75 0 0 0 0-1.5.75.75 0 0 0 0 1.5zM199.4 65a.75.75 0 0 0 0-1.5.75.75 0 0 0 0 1.5zM202.83 82.66a.75.75 0 0 0 0-1.5.75.75 0 0 0 0 1.5zM201.12 73.84a.75.75 0 0 0 0-1.5.75.75 0 0 0 0 1.5zM195.23 69.67a.75.75 0 0 0 0-1.5.75.75 0 0 0 0 1.5zM187.39 68.69a.75.75 0 0 0 0-1.5.75.75 0 0 0 0 1.5zM190.58 61.09a.75.75 0 0 0 0-1.5.75.75 0 0 0 0 1.5zM198.18 58.89a.75.75 0 0 0 0-1.5.75.75 0 0 0 0 1.5zM202.1 45.16a.75.75 0 0 0 0-1.5.75.75 0 0 0 0 1.5zM197.44 41.24a.75.75 0 0 0 0-1.5.75.75 0 0 0 0 1.5zM194.74 38.05a.75.75 0 0 0 0-1.5.75.75 0 0 0 0 1.5zM193.76 54.23a.75.75 0 0 0 0-1.5.75.75 0 0 0 0 1.5zM195.72 47.36a.75.75 0 0 0 0-1.5.75.75 0 0 0 0 1.5zM207 89a.75.75 0 0 0 0-1.5.75.75 0 0 0 0 1.5zM211.17 97.62a.75.75 0 0 0 0-1.5.75.75 0 0 0 0 1.5zM227.59 108.4a.75.75 0 0 0 0-1.5.75.75 0 0 0 0 1.5zM265.59 125.32a.75.75 0 0 0 0-1.5.75.75 0 0 0 0 1.5zM275.39 123.35a.75.75 0 0 0 0-1.5.75.75 0 0 0 0 1.5zM295.49 156.69a.75.75 0 0 0 0-1.5.75.75 0 0 0 0 1.5zM319.76 183.77a.38.38 0 0 0 0-.75.38.38 0 0 0 0 .75zM318.29 180.34a.38.38 0 0 0 0-.75.38.38 0 0 0 0 .75zM320.25 172.49a.38.38 0 0 0 0-.75.38.38 0 0 0 0 .75zM314.12 176.66a.38.38 0 0 0 0-.75.38.38 0 0 0 0 .75zM307.52 173.82l-.24-.25a.42.42 0 0 0-.12-.08.4.4 0 0 0-.15 0 .32.32 0 0 0-.14 0 .25.25 0 0 0-.12.08l-.06.08a.3.3 0 0 0-.05.19v.1a.39.39 0 0 0 .1.16l.24.25a.37.37 0 0 0 .12.07.28.28 0 0 0 .15 0 .23.23 0 0 0 .14 0 .24.24 0 0 0 .12-.07l.06-.08a.41.41 0 0 0 .05-.19V174a.34.34 0 0 0-.1-.16zM305.54 161.22a.38.38 0 0 0 0-.75.38.38 0 0 0 0 .75zM297.7 165.14a.38.38 0 0 0 0-.75.38.38 0 0 0 0 .75zM303.58 153.62a.38.38 0 0 0 0-.75.38.38 0 0 0 0 .75zM302.11 148.47a.38.38 0 0 0 0-.75.38.38 0 0 0 0 .75zM307.75 138.67a.38.38 0 0 0 0-.75.38.38 0 0 0 0 .75zM310.2 131.31a.38.38 0 0 0 0-.75.38.38 0 0 0 0 .75zM313.88 137.2a.38.38 0 0 0 0-.75.38.38 0 0 0 0 .75zM313.14 147.49a.38.38 0 0 0 0-.75.38.38 0 0 0 0 .75zM312.4 154.6a.38.38 0 0 0 0-.75.38.38 0 0 0 0 .75zM309.46 157.05a.38.38 0 0 0 0-.75.38.38 0 0 0 0 .75zM298.92 145.53a.38.38 0 0 0 0-.75.38.38 0 0 0 0 .75zM293.53 138.67a.38.38 0 0 0 0-.75.38.38 0 0 0 0 .75zM286.18 129.11a.38.38 0 0 0 0-.75.38.38 0 0 0 0 .75zM287.4 122.24a.38.38 0 0 0 0-.75.38.38 0 0 0 0 .75zM281.27 120.28a.38.38 0 0 0 0-.75.38.38 0 0 0 0 .75zM279.56 123.71a.38.38 0 0 0 0-.75.38.38 0 0 0 0 .75zM275.39 117.1a.38.38 0 0 0 0-.75.38.38 0 0 0 0 .75zM266.81 119.55a.38.38 0 0 0 0-.75.38.38 0 0 0 0 .75zM268.77 126.66a.38.38 0 0 0 0-.75.38.38 0 0 0 0 .75zM267.79 145.29a.38.38 0 0 0 0-.75.38.38 0 0 0 0 .75zM275.15 148a.38.38 0 0 0 0-.75.38.38 0 0 0 0 .75zM279.56 152.64a.38.38 0 0 0 0-.75.38.38 0 0 0 0 .75zM283.48 158.28a.38.38 0 0 0 0-.75.38.38 0 0 0 0 .75zM272.69 149.94a.38.38 0 0 0 0-.75.38.38 0 0 0 0 .75zM262.64 125.92a.38.38 0 0 0 0-.75.38.38 0 0 0 0 .75zM258.23 118.08a.38.38 0 0 0 0-.75.38.38 0 0 0 0 .75zM251.37 115.87a.38.38 0 0 0 0-.75.38.38 0 0 0 0 .75zM240.34 111.21a.38.38 0 0 0 0-.75.38.38 0 0 0 0 .75zM232.25 110.72a.38.38 0 0 0 0-.75.38.38 0 0 0 0 .75zM223.42 107.29a.38.38 0 0 0 0-.75.38.38 0 0 0 0 .75zM214.6 108a.38.38 0 0 0 0-.75.38.38 0 0 0 0 .75zM206.26 107.29a.38.38 0 0 0 0-.75.38.38 0 0 0 0 .75zM211.9 100.92a.38.38 0 0 0 0-.75.38.38 0 0 0 0 .75zM209 93.56a.38.38 0 0 0 0-.75.38.38 0 0 0 0 .75zM204.3 86a.38.38 0 0 0 0-.75.38.38 0 0 0 0 .75zM202.34 77.88a.38.38 0 0 0 0-.75.38.38 0 0 0 0 .75zM198.67 69.54a.38.38 0 0 0 0-.75.38.38 0 0 0 0 .75zM195 65.62a.38.38 0 0 0 0-.75.38.38 0 0 0 0 .75zM201.36 61.21a.38.38 0 0 0 0-.75.38.38 0 0 0 0 .75zM201.12 54.83a.38.38 0 0 0 0-.75.38.38 0 0 0 0 .75zM203.32 49.69a.38.38 0 0 0 0-.75.38.38 0 0 0 0 .75zM206.26 44.54a.38.38 0 0 0 0-.75.38.38 0 0 0 0 .75zM210.43 36.2a.38.38 0 0 0 0-.75.38.38 0 0 0 0 .75zM204.3 35.22a.38.38 0 0 0 0-.75.38.38 0 0 0 0 .75zM199.4 39.15a.38.38 0 0 0 0-.75.38.38 0 0 0 0 .75zM197.19 35.47a.38.38 0 0 0 0-.75.38.38 0 0 0 0 .75zM193.27 42.58a.38.38 0 0 0 0-.75.38.38 0 0 0 0 .75zM193 50.42a.38.38 0 0 0 0-.75.38.38 0 0 0 0 .75zM189.11 56.3a.38.38 0 0 0 0-.75.38.38 0 0 0 0 .75zM185.43 57.53a.38.38 0 0 0 0-.75.38.38 0 0 0 0 .75zM186.41 63.9a.38.38 0 0 0 0-.75.38.38 0 0 0 0 .75zM181.51 66.84a.38.38 0 0 0 0-.75.38.38 0 0 0 0 .75zM182.73 73.71a.38.38 0 0 0 0-.75.38.38 0 0 0 0 .75zM179.79 79.1a.38.38 0 0 0 0-.75.38.38 0 0 0 0 .75zM183.2 88.31l.25.24a.25.25 0 0 0 .12.08.32.32 0 0 0 .14 0 .4.4 0 0 0 .15 0 .42.42 0 0 0 .12-.08l.06-.07a.45.45 0 0 0 .05-.19v-.1A.35.35 0 0 0 184 88l-.25-.24a.2.2 0 0 0-.12-.08.17.17 0 0 0-.14 0 .21.21 0 0 0-.15 0 .28.28 0 0 0-.12.08l-.06.07a.41.41 0 0 0 0 .19v.1a.4.4 0 0 0 .09.17zM187.88 106.56a.38.38 0 0 0 0-.75.38.38 0 0 0 0 .75zM183.71 105.33a.38.38 0 0 0 0-.75.38.38 0 0 0 0 .75zM177.83 108.76a.38.38 0 0 0 0-.75.38.38 0 0 0 0 .75zM161.65 119.55a.38.38 0 0 0 0-.75.38.38 0 0 0 0 .75zM166.06 113.91a.38.38 0 0 0 0-.75.38.38 0 0 0 0 .75zM169.5 115.13a.38.38 0 0 0 0-.75.38.38 0 0 0 0 .75zM173.17 108.76a.38.38 0 0 0 0-.75.38.38 0 0 0 0 .75zM177.83 102.63a.38.38 0 0 0 0-.75.38.38 0 0 0 0 .75zM175.38 101.65a.38.38 0 0 0 0-.75.38.38 0 0 0 0 .75zM179.3 95a.38.38 0 0 0 0-.75.38.38 0 0 0 0 .75zM184 93.07a.38.38 0 0 0 0-.75.38.38 0 0 0 0 .75zM184.69 99.45a.38.38 0 0 0 0-.75.38.38 0 0 0 0 .75zM182.73 82.78a.38.38 0 0 0 0-.75.38.38 0 0 0 0 .75zM182 80.08a.38.38 0 0 0 0-.75.38.38 0 0 0 0 .75zM180.53 84.74a.38.38 0 0 0 0-.75.38.38 0 0 0 0 .75zM233.47 109a.38.38 0 0 0 0-.75.38.38 0 0 0 0 .75zM222.44 105.57a.38.38 0 0 0 0-.75.38.38 0 0 0 0 .75zM217.54 106.8a.38.38 0 0 0 0-.75.38.38 0 0 0 0 .75zM319.62 230.73a.75.75 0 0 0 0-1.5.75.75 0 0 0 0 1.5zM272.69 114.89a.38.38 0 0 0 0-.75.38.38 0 0 0 0 .75z" class="cls-24"/><text class="cls-25" transform="translate(79.83 103.84)">l</text><text class="cls-25" transform="translate(322.83 91.84)">ɭ</text><text class="cls-25" transform="translate(378.83 307.84)">ʎ</text><text class="cls-25" transform="translate(134.83 367.84)">ʟ</text></svg>