<?xml version="1.0" encoding="UTF-8"?>
<svg xmlns="http://www.w3.org/2000/svg" version="1.1" viewBox="0 0 1207.7 230">
  <defs>
    <style>
      .cls-1 {
        fill: #ec6770;
      }

      .cls-2 {
        fill: #18311d;
      }

      .cls-3 {
        fill: #7f8080;
      }

      .cls-4 {
        fill: #e50a34;
      }

      .cls-5 {
        fill: #8f9738;
      }
    </style>
  </defs>
  <!-- Generator: Adobe Illustrator 28.6.0, SVG Export Plug-In . SVG Version: 1.2.0 Build 709)  -->
  <g>
    <g id="Layer_1">
      <path class="cls-2" d="M112.6,195.5c-65.6,0-82.2-41.8-82.2-81.6,0-57.1,31-86.2,83.9-86.2s42.1,6.7,42.1,6.7c0,0-.5,5.1-.5,17.6s.5,18.5.5,18.5c-10-14.3-18.2-22.6-39.7-22.6s-50.4,20.1-50.4,64.9,13.2,62.4,49.4,62.4,30.7-8.8,40.7-23.1c0,0-.5,7.4-.5,20.1s.5,16.6.5,16.6c0,0-15.3,6.7-43.8,6.7Z"/>
      <path class="cls-2" d="M282.9,185.8l-.5,8.1h-86c-12.5,0-17.8.2-17.8.2l2.1-3.9c4.6-8.8,5.8-10.4,5.8-79.7s-.9-68.2-5.8-77.4l-2.1-3.9s5.1.2,17.6.2h83.9s-.2,4.4-.2,14.5.5,16.2.5,16.6c-.2-.2-1.6-2.3-8.1-6.2-5.5-3.2-14.5-5.1-25.4-5.1h-27v52.2h21.5c10.9,0,19.9-1.2,25.4-4.4,6-3.5,7.9-5.6,8.3-6,0,.2-.7,6.7-.7,20.6s.7,19.9.7,20.3c-.2-.2-1.8-2.3-8.3-6.2-5.5-3.2-14.6-4.4-25.4-4.4h-21.5v52.4h24.7c28.6,0,32.3-6.7,40.9-19.2,0,0-1.2,9.1-2.6,31.3Z"/>
      <path class="cls-2" d="M406.5,185.8l-.5,8.1h-78c-12.5,0-17.8.2-17.8.2l2.1-3.9c4.6-8.8,5.8-10.4,5.8-79.7s-.9-68.2-5.8-77.4l-2.1-3.9s6.9.5,25.2.5,24.7-.5,24.7-.5l-2.3,3.9c-5.1,8.8-6.2,12.5-6.2,70.5v70.2h16.6c28.6,0,32.3-6.7,40.9-19.2,0,0-1.2,9-2.6,31.2Z"/>
      <path class="cls-2" d="M525,185.8l-.5,8.1h-78.1c-12.5,0-17.8.2-17.8.2l2.1-3.9c4.6-8.8,5.8-10.4,5.8-79.7s-.9-68.2-5.8-77.4l-2.1-3.9s6.9.5,25.2.5,24.7-.5,24.7-.5l-2.3,3.9c-5.1,8.8-6.2,12.5-6.2,70.5v70.2h16.6c28.6,0,32.3-6.7,40.9-19.2,0,0-1.1,9-2.5,31.2Z"/>
      <path class="cls-5" d="M622.6,57.2c-10.6,0-13.2-6.8-13.2-13.2,0-9.2,5-13.9,13.5-13.9s6.8,1.1,6.8,1.1c0,0,0,.8,0,2.8s0,3,0,3c-1.6-2.3-3-3.6-6.4-3.6s-8.1,3.2-8.1,10.5,2.1,10.1,8,10.1,5-1.4,6.6-3.7c0,0,0,1.2,0,3.2s0,2.7,0,2.7c-2.4.7-4.8,1.1-7.2,1Z"/>
      <path class="cls-5" d="M650.1,55.6v1.3h-16.9l.3-.6c.7-1.4.9-1.7.9-12.9s-.2-11-.9-12.5l-.3-.6h16.3v2.4c0,1.8,0,2.6,0,2.7-.4-.4-.8-.7-1.3-1-1.3-.6-2.7-.9-4.1-.8h-4.4v8.4h3.4c1.4,0,2.8,0,4.1-.7.5-.3.9-.6,1.3-1,0,0,0,1.1,0,3.3s0,3.2,0,3.3c-.4-.4-.8-.7-1.3-1-1.3-.6-2.7-.8-4.1-.7h-3.5v8.5h4c4.6,0,5.2-1.1,6.6-3.1.2,0,0,1.5-.2,5Z"/>
      <path class="cls-5" d="M677.7,31c-.7,1.3-.9,1.7-.9,12.8v13.2c-1,0-1.9,0-2.9,0-2.2,0-3.7,0-3.7,0l-9.6-19.1c-.4-.9-.7-1.8-1-2.7v8.6c0,10.9.2,11,.9,12.5l.3.6s-1,0-3.2,0-3.2,0-3.2,0l.3-.6c.7-1.3.9-1.7.9-12.9s-.2-11-.9-12.5l-.3-.6s1.2.1,4.1.1,3.7-.1,3.7-.1l9.4,19c.5.9.9,1.9,1.1,2.9v-8.8c0-10.8-.2-11-.9-12.5l-.3-.6s1,.1,3.2.1,3.2-.1,3.2-.1l-.2.7Z"/>
      <path class="cls-5" d="M701,35.5c-.4-.4-.8-.7-1.3-1-1.3-.7-2.6-1-4.1-.9h-2.2v10.3c0,10.9.2,11,.9,12.5l.3.6s-1.2,0-4,0-4,0-4,0l.3-.6c.8-1.4.9-1.7.9-12.9v-10h-2.2c-1.4,0-2.8.3-4.1.9-.5.3-1,.6-1.3,1,0-.9,0-1.8,0-2.7v-2.4h20.7v5.2Z"/>
      <path class="cls-5" d="M722.9,57.2c-2.9,0-4.1-1-5.8-4l-2.3-3.8c-1.9-3.2-2.3-4-4-4h-.6c0,9.2.2,9.5.9,11l.3.6s-1.2,0-3.8,0-3.9,0-3.9,0l.3-.6c.7-1.4.9-1.7.9-12.9s-.2-11-.9-12.5l-.3-.6s1.3.1,3.1.1,3.7-.1,5-.1c5.2,0,10.9.3,10.9,6.8s-3.1,7.2-7.8,7.2c2.9.4,4.1,1.8,5.8,4.9l1.9,3.6c1.1,2,1.9,3.2,3.3,3.8,0,0-.5.5-3,.5ZM711.8,33.3c-1,0-1.6,0-1.6,0v9.1h1.8c.7,0,1.4,0,2.1-.2,1.7-.4,3-1.8,3-4.5,0-3.9-2.2-4.5-5.3-4.5h0Z"/>
      <path class="cls-5" d="M739.2,57.5c-8,0-12.2-5-12.2-13.2s2.2-14.1,12.2-14.1,12.2,5,12.2,13.2c0,5.5-2.2,14.1-12.2,14.1ZM739.2,33.5c-3.8,0-6.4,3-6.4,10.4s2.5,10.2,6.4,10.2,6.4-2.9,6.4-10.5-2.4-10.2-6.4-10.1h0Z"/>
      <path class="cls-5" d="M772.6,57c-1.5,0-3.8,0-5.1,0-2.2,0-3.4,0-3.4,0l.3-.6c.8-1.4.9-1.7.9-12.9s-.2-11-.9-12.5l-.3-.6s1.2.1,3.3.1,3.9-.1,5.5-.1c5.1,0,14.8.4,14.8,12.8,0,13.5-9.6,13.8-15.1,13.8ZM773,33.5c-1.3,0-2.2,0-2.2,0v20.3c.7,0,1.5,0,2.2,0,5.2,0,9-2.3,9-10.3,0-7.8-3.6-10.2-9-10.2Z"/>
      <path class="cls-5" d="M808.5,55.6v1.3h-16.9l.3-.6c.7-1.4.9-1.7.9-12.9s-.2-11-.9-12.5l-.3-.6h16.3v2.4c0,1.8,0,2.6,0,2.7-.4-.4-.8-.7-1.3-1-1.3-.6-2.7-.9-4.1-.8h-4.4v8.4h3.5c1.4,0,2.8,0,4.1-.7.5-.3.9-.6,1.3-1,0,0,0,1.1,0,3.3s0,3.2,0,3.3c-.4-.4-.8-.7-1.3-1-1.3-.6-2.7-.8-4.1-.7h-3.5v8.5h4c4.6,0,5.2-1.1,6.6-3.1.1,0,0,1.5-.3,5Z"/>
      <path class="cls-5" d="M626.7,100.4v1.3h-16.9l.3-.6c.8-1.4.9-1.7.9-12.9s-.2-11-.9-12.5l-.3-.6h16.3v2.3c0,1.6,0,2.6,0,2.7-.4-.4-.8-.7-1.3-1-1.3-.6-2.7-.9-4.1-.8h-4.4v8.4h3.5c1.4,0,2.8,0,4.1-.7.5-.3.9-.6,1.3-1,0,0,0,1.2,0,3.5s0,3.2,0,3.3c-.4-.4-.8-.7-1.3-1-1.3-.6-2.7-.8-4.1-.7h-3.5v8.4h4c4.6,0,5.2-1.1,6.6-3.1.1-.1,0,1.4-.3,5Z"/>
      <path class="cls-5" d="M637.5,101.9c-4.6,0-6.9-1.1-6.9-1.1,0,0,0-.9,0-2.7s0-3.3,0-3.3c1.4,2,3.1,3.8,6.6,3.8s4.9-.5,4.9-3.3-1.2-2.9-3-3.9l-3.1-1.9c-2.8-1.6-5.3-3.5-5.3-7.5s2.9-7.1,9.1-7.1c2.2,0,4.4.3,6.4,1.1,0,0,0,.9,0,2.8s0,3.1,0,3.1c-1.5-2.2-3.2-3.7-6.2-3.7s-4.3.4-4.3,3,1.3,2.7,3.4,3.9l2.6,1.6c3.1,1.8,5.5,3.5,5.5,7.8s-4.2,7.4-9.7,7.4Z"/>
      <path class="cls-5" d="M669.7,80.2c-.4-.4-.8-.7-1.3-1-1.2-.7-2.6-1-4.1-.9h-2.2v10.3c0,10.8.2,11,.9,12.5l.3.6s-1.2,0-4,0-4,0-4,0l.3-.6c.8-1.4.9-1.7.9-12.9v-10h-2.2c-1.4,0-2.8.3-4.1.9-.5.3-1,.6-1.3,1,0-.9,0-1.8,0-2.7v-2.3h20.4v2.3c0,1.6.3,2.7.3,2.8Z"/>
      <path class="cls-5" d="M695.3,75.7c-.7,1.3-.9,1.7-.9,11v2.7c0,4.5,0,7-1.6,9.1-1.6,2.2-4.2,3.6-8.8,3.6s-6.9-.9-8.7-3.1c-1.6-1.9-2-3.9-2-8.3v-3c0-10-.2-10.5-.9-12l-.3-.6s1.2,0,4,0,4,0,4,0l-.3.6c-.7,1.3-.9,1.7-.9,11v5.3c0,1.1,0,2.2.3,3.2.6,2.2,2.1,3.5,5.2,3.5s4.7-1.3,5.3-3.6c.2-1,.3-2,.3-3v-3.9c0-10.8-.2-11-.9-12.5l-.3-.6s1.1,0,3.6,0,3.5,0,3.5,0l-.6.6Z"/>
      <path class="cls-5" d="M708.4,101.7c-1.5,0-3.8,0-5.1,0-2.2,0-3.4,0-3.4,0l.3-.6c.8-1.4.9-1.7.9-12.9s-.2-11-.9-12.5l-.3-.6s1.2,0,3.3,0,3.9,0,5.5,0c5.1,0,14.8.4,14.8,12.8s-9.6,13.8-15.1,13.8ZM708.8,78.2c-1.3,0-2.2,0-2.2,0v20.2c.7,0,1.5,0,2.2,0,5.2,0,8.9-2.3,8.9-10.3s-3.5-10.1-8.9-10.1Z"/>
      <path class="cls-5" d="M731.5,101.6c-2.8,0-4,0-4,0l.3-.6c.7-1.4.9-1.7.9-12.9s-.2-11-.9-12.5l-.3-.6s1.1,0,4,0,4,0,4,0l-.3.6c-.8,1.4-.9,1.7-.9,12.9s.2,11,.9,12.5l.3.6s-1.2,0-4,0Z"/>
      <path class="cls-5" d="M751.7,102.2c-8,0-12.2-5-12.2-13.2s2.2-14.1,12.2-14.1,12.2,5,12.2,13.2-2.2,14.1-12.2,14.1ZM751.7,78.2c-3.8,0-6.4,3-6.4,10.4s2.5,10.3,6.4,10.3,6.4-2.9,6.4-10.5-2.5-10.3-6.4-10.2h0Z"/>
      <path class="cls-5" d="M774.3,101.9c-4.6,0-6.9-1.1-6.9-1.1,0,0,0-.9,0-2.7s0-3.3,0-3.3c1.4,2,3.1,3.8,6.6,3.8s4.9-.5,4.9-3.3-1.2-2.9-2.9-3.9l-3.1-1.9c-2.8-1.6-5.3-3.5-5.3-7.5s2.9-7.1,9.1-7.1c2.2,0,4.4.3,6.4,1.1,0,0,0,.9,0,2.8s0,3.1,0,3.1c-1.5-2.2-3.2-3.7-6.2-3.7s-4.3.4-4.3,3,1.3,2.7,3.4,3.9l2.7,1.6c3.1,1.8,5.4,3.5,5.4,7.8,0,5.7-4.2,7.4-9.8,7.4Z"/>
      <path class="cls-5" d="M625.4,145.1v1.3h-15.6l.3-.6c.8-1.4.9-1.7.9-12.9s-.2-11-.9-12.5l-.3-.6s1.1,0,4.1,0,4,0,4,0l-.4.6c-.8,1.4-1,2-1,11.4v11.4h2.7c4.6,0,5.2-1.1,6.6-3.1,0,0-.2,1.4-.4,5Z"/>
      <path class="cls-5" d="M633,146.3c-2.8,0-4,.1-4,.1l.3-.6c.8-1.4.9-1.7.9-12.9s-.2-11-.9-12.5l-.3-.6s1.1,0,4,0,4,0,4,0l-.3.6c-.8,1.4-.9,1.7-.9,12.9s.2,11,.9,12.5l.3.6s-1.3-.1-4-.1Z"/>
      <path class="cls-5" d="M664.8,120.5c-.7,1.3-.9,1.7-.9,12.9v13.1c-1-.1-1.9-.1-2.9-.1-2.2,0-3.7.1-3.7.1l-9.6-19.1c-.4-.9-.8-1.8-1-2.7v8.6c0,10.8.2,11,.9,12.5l.3.6s-1-.1-3.2-.1-3.2.1-3.2.1l.3-.6c.7-1.3.9-1.7.9-12.9s-.2-11-.9-12.5l-.3-.6s1.2,0,4.1,0,3.7,0,3.7,0l9.4,19c.5.9.9,1.9,1.1,2.9v-8.7c0-10.8-.2-11-.9-12.5l-.3-.6s1,0,3.2,0,3.2,0,3.2,0l-.2.6Z"/>
      <path class="cls-5" d="M691.3,134.7c-.7,1.3-.9,1.9-.9,10.6v.2c-2.4.8-4.9,1.2-7.5,1.1-9.8,0-14-5.7-14-13s5.2-14,14.3-14,7.2,1.1,7.2,1.1c0,.9,0,1.9,0,2.8,0,1.8,0,3,0,3-1.7-2.4-3.3-3.6-6.8-3.6s-8.9,2.1-8.9,10.5,1.9,10,8.3,10,1.5,0,2.2-.1c0-6-.2-7.3-.9-8.6l-.4-.6s1.2.1,3.9.1,3.9-.1,3.9-.1l-.4.6Z"/>
      <path class="cls-5" d="M718.7,120.5c-.7,1.3-.9,1.7-.9,11v2.7c0,4.5,0,7.1-1.6,9.1-1.6,2.2-4.2,3.6-8.8,3.6s-6.9-.9-8.7-3.1c-1.6-1.9-2-3.9-2-8.3v-3c0-10-.2-10.5-.9-12l-.3-.6s1.2,0,4,0,4,0,4,0l-.3.6c-.7,1.3-.9,1.7-.9,11v5.2c0,1.1,0,2.2.3,3.2.6,2.2,2.1,3.5,5.2,3.5s4.7-1.3,5.3-3.6c.2-1,.3-2,.3-3v-3.8c0-10.8,0-11-.9-12.5l-.3-.6s1.1,0,3.6,0,3.5,0,3.5,0l-.6.6ZM703.8,117.9c-1.2.2-2.3-.7-2.5-1.9v-.4c0-1.4.9-2.3,2.7-2.3s2.6.9,2.6,2.3-1,2.3-2.8,2.3ZM711.4,117.9c-1.2.2-2.3-.7-2.5-1.9v-.4c0-1.4.9-2.3,2.7-2.3s2.6.9,2.6,2.3-1,2.3-2.8,2.3Z"/>
      <path class="cls-5" d="M727.3,146.3c-2.8,0-4,.1-4,.1l.3-.6c.8-1.4.9-1.7.9-12.9s-.2-11-.9-12.5l-.3-.6s1.1,0,4,0,4,0,4,0l-.3.6c-.8,1.4-.9,1.7-.9,12.9s0,11,.9,12.5l.3.6c0,0-1.3-.1-4-.1ZM727.9,112.3h5s-.5,1.5-3.2,3.6c-1.4,1.1-3,1.9-4.7,2.3l2.9-5.9Z"/>
      <path class="cls-5" d="M742.2,146.6c-4.6,0-6.9-1.1-6.9-1.1,0,0,0-.9,0-2.7s0-3.3,0-3.3c1.4,2,3.1,3.8,6.6,3.8s4.9-.5,4.9-3.3-1.2-2.9-2.9-3.9l-3.2-1.9c-2.8-1.6-5.3-3.5-5.3-7.5s2.9-7.1,9.1-7.1c2.2,0,4.4.3,6.4,1.1,0,0,0,.9,0,2.8s0,3.1,0,3.1c-1.5-2.2-3.2-3.7-6.2-3.7s-4.3.4-4.3,3,1.3,2.7,3.4,3.9l2.7,1.6c3.1,1.8,5.4,3.5,5.4,7.8s-4.2,7.4-9.7,7.4Z"/>
      <path class="cls-5" d="M774.4,124.9c-.4-.4-.8-.7-1.3-1-1.3-.7-2.6-1-4.1-.9h-2.2v10.3c0,10.8.2,11,.9,12.5l.3.6s-1.2-.1-4-.1-4,.1-4,.1l.3-.6c.7-1.4.9-1.7.9-12.9v-10h-2.1c-1.4,0-2.8.3-4.1.9-.5.3-1,.6-1.3,1,0-.9,0-1.8,0-2.7v-2.3h20.3v2.3c.2,1.9.3,2.8.3,2.8Z"/>
      <path class="cls-5" d="M781.1,146.3c-2.8,0-4,.1-4,.1l.3-.6c.7-1.4.9-1.7.9-12.9s-.2-11-.9-12.5l-.3-.6s1.1,0,4,0,4,0,4,0l-.3.6c-.7,1.4-.9,1.7-.9,12.9s.2,11,.9,12.5l.3.6s-1.2-.1-4-.1Z"/>
      <path class="cls-5" d="M802.3,146.6c-10.6,0-13.3-6.7-13.3-13.1,0-9.2,5-13.9,13.5-13.9s6.8,1.1,6.8,1.1c0,0,0,.8,0,2.8s0,3,0,3c-1.6-2.3-3-3.7-6.4-3.7s-8.1,3.2-8.1,10.5,2.1,10.1,8,10.1,5-1.4,6.6-3.7c0,0,0,1.2,0,3.2s0,2.7,0,2.7c-2.3.8-4.7,1.1-7.1,1Z"/>
      <path class="cls-5" d="M824.7,146.9c-8,0-12.2-5-12.2-13.2s2.2-14.1,12.2-14.1,12.2,5,12.2,13.2-2.3,14.1-12.2,14.1ZM824.7,122.9c-3.8,0-6.4,2.9-6.4,10.4s2.5,10.3,6.4,10.3,6.4-3,6.4-10.5c-.1-7.4-2.5-10.3-6.4-10.2h0Z"/>
      <path class="cls-5" d="M847.3,146.6c-4.6,0-6.9-1.1-6.9-1.1,0,0,0-.9,0-2.7s0-3.3,0-3.3c1.4,2,3.1,3.8,6.6,3.8s4.9-.5,4.9-3.3-1.2-2.9-3-3.9l-3.2-1.9c-2.8-1.6-5.3-3.5-5.3-7.5s2.9-7.1,9.1-7.1c2.2,0,4.4.3,6.4,1.1,0,0,0,.9,0,2.8s0,3.1,0,3.1c-1.5-2.2-3.2-3.7-6.2-3.7s-4.3.4-4.3,3,1.3,2.7,3.4,3.9l2.6,1.6c3.1,1.8,5.5,3.5,5.5,7.8.1,5.7-4.1,7.4-9.6,7.4Z"/>
      <path class="cls-5" d="M886.1,127.4l-4.4,8c0,8,.2,8.9.9,10.4l.3.6s-1.2-.1-4-.1-4,.1-4,.1l.3-.6c.7-1.3.9-2.4.9-9.5l-4.8-9c-3.3-6.2-3.5-6.5-4.8-7.5,0,0,1.4,0,4.7,0s4.6,0,4.6,0c-.5.4-.8,1.1-.9,1.8,0,1,.2,1.4,1.9,5l2.6,5.4,2.5-5.4c1.7-3.6,1.8-4,1.8-5s-.3-1.3-.9-1.8c0,0,1.6,0,4,0s4,0,4,0c-1,.9-1.4,1.4-4.7,7.6Z"/>
      <path class="cls-5" d="M625.4,189.8v1.3h-15.6l.3-.6c.8-1.4.9-1.7.9-12.9s-.2-11-.9-12.5l-.3-.6s1.1.1,4.1.1,4-.1,4-.1l-.4.6c-.8,1.4-1,2-1,11.4v11.3h2.7c4.6,0,5.2-1.1,6.6-3.1,0,.1-.2,1.5-.4,5.1Z"/>
      <path class="cls-5" d="M633,191.1c-2.8,0-4,.1-4,.1l.3-.6c.8-1.4.9-1.7.9-12.9s-.2-11-.9-12.5l-.3-.6s1.1.1,4,.1,4-.1,4-.1l-.3.6c-.8,1.4-.9,1.7-.9,12.9s.2,11,.9,12.5l.3.6s-1.3-.1-4-.1Z"/>
      <path class="cls-5" d="M660.1,169.6c-.4-.4-.8-.7-1.3-1-1.3-.7-2.6-1-4.1-.9h-2.2v10.3c0,10.9.2,11,.9,12.5l.3.6s-1.2-.1-4-.1-4,.1-4,.1l.3-.6c.8-1.4.9-1.7.9-12.9v-10h-2.2c-1.4,0-2.8.3-4.1.9-.5.3-1,.6-1.3,1,0-.9,0-1.8,0-2.7v-2.4h20.4v2.4c.2,1.9.3,2.8.3,2.8Z"/>
      <path class="cls-5" d="M679.6,189.8v1.3h-16.9l.3-.6c.8-1.4.9-1.7.9-12.9s-.2-11-.9-12.5l-.3-.6h16.3v2.4c0,1.8,0,2.6,0,2.7-.4-.4-.8-.7-1.3-1-1.3-.6-2.7-.9-4.1-.8h-4.4v8.4h3.5c1.4.1,2.8-.1,4.1-.7.5-.3.9-.6,1.3-1,0,0,0,1.1,0,3.3s0,3.2,0,3.3c-.4-.4-.8-.7-1.3-1-1.3-.6-2.7-.8-4.1-.7h-3.5v8.5h4c4.6,0,5.2-1.1,6.6-3.1.1,0,0,1.4-.3,5Z"/>
      <path class="cls-5" d="M703.2,191.3c-2.9,0-4.1-1-5.8-4l-2.3-3.8c-1.9-3.2-2.3-4-4-4h-.6c0,9.2.2,9.5.9,11l.3.6s-1.2-.1-3.8-.1-3.9.1-3.9.1l.3-.6c.7-1.4.9-1.7.9-12.9s-.2-11-.9-12.5l-.3-.6s1.3.1,3.1.1,3.7-.1,5-.1c5.2,0,10.9.3,10.9,6.8s-3.1,7.1-7.8,7.2c2.9.4,4.1,1.8,5.8,4.9l1.9,3.6c1.1,2,1.9,3.2,3.3,3.8,0,0-.5.5-3,.5ZM692.1,167.4c-1,0-1.6.1-1.6.1v9.1h1.8c.7,0,1.4-.1,2.1-.2,1.7-.4,3-1.8,3-4.5,0-3.8-2.2-4.5-5.3-4.5Z"/>
      <path class="cls-5" d="M726.2,191.1c-2.5,0-4.4.1-4.4.1.8-.5,1.2-1.4,1.2-2.4-.2-1.9-.6-3.8-1.2-5.6l-.5-1.9h-7.9l-.5,1.9c-.6,1.8-1,3.7-1.2,5.6,0,.9.4,1.8,1.2,2.4,0,0-1.5-.1-3.8-.1s-3.7.1-3.7.1c1.4-1.3,2.1-3.6,3.6-8.8l4.6-15.5c.2-.4.2-.9.3-1.4,0-.3,0-.6-.3-.8h9.4c-.2.2-.2.5-.2.8,0,.5,0,.9.2,1.4l4.2,15.5c1.4,5.2,2.1,7.5,3.5,8.8,0-.1-1.9-.1-4.5-.1ZM718,169c-.4-1.6-.6-2.5-.7-2.7,0,.2-.3,1-.7,2.7l-2.4,9.1h6.2l-2.4-9.1Z"/>
      <path class="cls-5" d="M752.1,191.3c-2.9,0-4.1-1-5.8-4l-2.3-3.8c-1.9-3.2-2.3-4-4-4h-.6c0,9.2.2,9.5.9,11l.3.6s-1.2-.1-3.8-.1-3.9.1-3.9.1l.3-.6c.7-1.4.9-1.7.9-12.9s-.2-11-.9-12.5l-.3-.6s1.3.1,3.1.1,3.7-.1,5-.1c5.2,0,10.9.3,10.9,6.8s-3.1,7.1-7.8,7.2c2.9.4,4.1,1.8,5.8,4.9l1.9,3.6c1.1,2,1.9,3.2,3.3,3.8,0,0-.5.5-3,.5ZM741,167.4c-1,0-1.6.1-1.6.1v9.1h1.8c.7,0,1.5-.1,2.2-.2,1.7-.4,3-1.8,3-4.5-.1-3.8-2.3-4.5-5.4-4.5Z"/>
      <path class="cls-5" d="M760.7,191.1c-2.8,0-4,.1-4,.1l.3-.6c.7-1.4.9-1.7.9-12.9s-.2-11-.9-12.5l-.3-.6s1.1.1,4,.1,4-.1,4-.1l-.3.6c-.8,1.4-.9,1.7-.9,12.9s.2,11,.9,12.5l.3.6s-1.2-.1-4-.1Z"/>
      <path class="cls-5" d="M780.9,191.6c-8,0-12.2-5-12.2-13.2s2.2-14.1,12.2-14.1,12.2,5,12.2,13.2c0,5.6-2.2,14.1-12.2,14.1ZM780.9,167.6c-3.8,0-6.4,2.9-6.4,10.4s2.5,10.3,6.4,10.3,6.4-2.9,6.4-10.5-2.4-10.2-6.4-10.2h0Z"/>
      <path class="cls-5" d="M803.6,191.4c-4.6,0-6.9-1.1-6.9-1.1,0,0,0-.9,0-2.7s0-3.3,0-3.3c1.4,2.1,3.1,3.8,6.6,3.8s4.9-.5,4.9-3.3-1.2-2.9-2.9-3.9l-3.2-1.9c-2.8-1.6-5.3-3.5-5.3-7.5s2.9-7.1,9.1-7.1c2.2-.1,4.4.3,6.4,1.1,0,0,0,.9,0,2.8s0,3.1,0,3.1c-1.5-2.2-3.2-3.7-6.2-3.7s-4.3.4-4.3,3,1.3,2.7,3.4,3.9l2.7,1.6c3.1,1.8,5.4,3.5,5.4,7.8s-4.2,7.4-9.7,7.4Z"/>
      <rect class="cls-3" x="572.6" y="14.6" width="4.2" height="200.8"/>
      <rect class="cls-3" x="916.4" y="14.6" width="4.2" height="200.8"/>
      <g>
        <path class="cls-4" d="M1046.9,168.2h-2.6c0-.3-.1-.6-.2-1-.1,0-.2,0-.3.2-1.5,1.7-4.3,1.3-5.7.3-1.8-1.3-2.6-3.6-2-6,.6-2.5,2.6-4,5.2-3.9.9,0,1.7.3,2.3.9.1.1.3.2.6.5v-8h2.7c.2.7.3,15.6,0,17ZM1041.6,166.1c1.6,0,2.9-1.2,2.9-2.9,0-1.7-1.3-2.9-2.9-2.9-1.6,0-2.8,1.3-2.9,2.9,0,1.7,1.2,3,2.8,3Z"/>
        <path class="cls-4" d="M1109.2,168.2h-2.5c0-.3-.1-.6-.2-1-.1,0-.2,0-.3.1-1.6,1.9-5.1,1.5-6.8-.6-1.6-2-1.6-5.1-.1-7.1,1.2-1.6,3.4-2.4,5.3-1.7.6.2,1.2.7,1.9,1.1.1-.8,0-1.7,0-2.5,0-.9,0-1.8,0-2.7s0-1.7,0-2.7c.9-.1,1.8,0,2.6,0,.2.7.3,15.7,0,17ZM1103.9,166.1c1.7,0,2.9-1.2,2.9-2.9,0-1.7-1.2-2.9-2.9-2.9-1.6,0-2.8,1.2-2.9,2.9,0,1.7,1.2,3,2.8,3Z"/>
        <path class="cls-4" d="M997.3,151.2h2.6c.2,1.9,0,3.7,0,5.6,0,1.9,0,3.8,0,5.7v5.7h-2.6c0-.3-.2-.6-.3-.9,0,0-.2,0-.2,0-2.5,2.1-6.1,1.3-7.5-1.7-.7-1.5-.7-3.1-.1-4.7.8-2.3,3-3.5,5.4-3.2.9.1,1.7.6,2.5,1.4,0-.5,0-.8,0-1.1,0-2,0-4,0-5.9,0-.3,0-.7,0-1.1ZM994.7,166.1c1.6,0,2.9-1.3,2.8-3,0-1.6-1.3-2.9-2.8-2.9-1.6,0-2.9,1.3-2.9,2.9,0,1.7,1.3,2.9,2.9,2.9Z"/>
        <path class="cls-4" d="M953.2,158.8h5.3v2.5h-5.1c-.2.8-.3,3.2,0,4.4h5.4v2.5h-8.5v-15.5h8.5v2.5h-5.5v3.6Z"/>
        <path class="cls-4" d="M1093,159.2c0-.3.1-.6.2-.9h2.6c.2.7.2,8.8,0,10h-2.6c0-.3-.1-.6-.2-.9,0,0-.2,0-.3,0-1.5,1.9-5.1,1.5-6.8-.7-1.5-2-1.5-5.2,0-7.1,1.7-2,4.6-2.3,6.6-.7,0,0,.2.1.4.2ZM1090.5,166.1c1.6,0,2.9-1.3,2.9-3,0-1.6-1.3-2.9-2.8-2.9-1.6,0-2.9,1.3-2.9,2.9,0,1.7,1.3,2.9,2.9,2.9Z"/>
        <path class="cls-4" d="M1155.3,168.6c-.5,0-1,0-1.6-.2-2.7-.6-4.3-2.8-4.1-5.7.1-2.6,2.2-4.7,4.9-4.9.9,0,1.9,0,2.8.2,2.4.6,4,2.9,3.9,5.5-.2,2.5-2,4.6-4.5,4.9-.4,0-.8,0-1.4.1ZM1158.3,163.3c0-1.7-1.2-3-2.8-3-1.6,0-2.9,1.3-3,2.9,0,1.6,1.2,2.9,2.9,3,1.7,0,2.9-1.2,2.9-2.9Z"/>
        <path class="cls-4" d="M1013.9,157.8c.6.1,1.4.2,2,.4,2.4.7,3.8,2.9,3.7,5.6-.2,2.4-2,4.4-4.4,4.7-1.2.2-2.4.2-3.5-.2-2.3-.7-3.8-2.9-3.7-5.2,0-2.5,1.7-4.5,4-5,.6-.1,1.3-.2,1.9-.3ZM1013.7,166.1c1.7,0,2.9-1.2,3-2.9,0-1.6-1.3-3-2.9-3-1.6,0-2.9,1.2-2.9,2.9,0,1.7,1.2,2.9,2.9,2.9Z"/>
        <path class="cls-4" d="M1059.8,163.7c-1.3,0-2.5,0-3.8,0s-2.5,0-3.7,0c0,1.3.4,2.2,1.4,2.6,1.2.5,2.3.2,3.6-1.1.7.1,1.5.3,2.5.4-.7,1.7-1.9,2.6-3.5,2.9-1,.2-2,.2-2.9,0-2.1-.4-3.7-2.2-3.9-4.4,0-.8,0-1.7.2-2.5.5-1.9,1.7-3.2,3.7-3.6,1.1-.2,2.2-.2,3.2,0,1.8.5,3.1,2.2,3.3,4.3,0,.4,0,.8,0,1.3ZM1057.1,161.8c-.3-1.3-1.2-2.1-2.4-2-1.2,0-2.1.8-2.3,2h4.7Z"/>
        <path class="cls-4" d="M1163.6,158.2h2.5c0,.3,0,.6.2,1,.2-.1.4-.2.5-.4,1.4-1.2,2.9-1.3,4.5-.6.9.4,1.5,1.1,1.7,2,0,.3.2.6.2.9,0,2.3,0,4.5,0,6.8,0,0,0,.1-.1.2h-2.6c0-.3,0-.6,0-.8,0-1.5,0-3,0-4.5,0-.3,0-.7,0-1-.2-1-.7-1.5-1.5-1.6-1.1-.2-1.9.2-2.3,1.2-.2.6-.3,1.2-.3,1.8,0,1.3,0,2.6,0,3.9,0,.3,0,.7,0,1.1h-2.6c-.2-.8-.2-9,0-10Z"/>
        <path class="cls-4" d="M1112.2,158.2h2.7c0,.4,0,.7,0,1,0,1.7,0,3.3,0,5,0,.9.4,1.6,1.3,1.9,1.4.5,2.8-.4,2.8-1.9,0-1.6,0-3.3,0-4.9,0-.3,0-.7,0-1.1h2.7c0,.3,0,.6,0,.9,0,1.7,0,3.4,0,5.2,0,2.3-1.2,3.6-3.2,4.1-1.4.3-2.7.3-4.1-.2-1.6-.6-2.5-1.7-2.5-3.4,0-2,0-4.1,0-6.1,0-.1,0-.2,0-.5Z"/>
        <path class="cls-4" d="M1069.9,155.2h-3.5v-2.5h9.9v2.4c-1.1.3-2.3,0-3.5.2v12.9c-1,0-1.9,0-2.9,0,0-.4,0-.8,0-1.1,0-3.5,0-7.1,0-10.6,0-.4,0-.8,0-1.3Z"/>
        <path class="cls-4" d="M979.6,158.2c0,.4,0,.7,0,1.1,0,1.6,0,3.3,0,4.9,0,1.6,1.4,2.4,2.9,1.9.8-.3,1.2-.8,1.2-1.7,0-1.1,0-2.2,0-3.3,0-1,0-1.9,0-2.9h2.7c0,.3,0,.6,0,.8,0,1.8,0,3.6,0,5.4,0,2.2-1,3.4-3.1,4-1.5.4-2.9.3-4.3-.3-1.3-.5-2.2-1.5-2.2-2.8-.1-2.3,0-4.6,0-7h2.8Z"/>
        <path class="cls-4" d="M1020.8,166.9c.5-.5.9-1,1.4-1.6.3.2.6.4.9.6.6.4,1.3.6,2,.4.5-.2.9-.5.9-1,0-.5-.3-.8-.7-1-.3-.2-.7-.3-1.1-.4-.5-.2-1-.4-1.5-.7-1-.7-1.4-1.6-1.2-2.8.2-1.3.9-2.1,2.2-2.4,1.6-.4,3.2-.2,4.7.9-.5.5-.9,1-1.3,1.5-.3-.1-.5-.3-.8-.4-.5,0-1-.2-1.5,0-.6.1-.8.9-.3,1.3.2.2.6.3.9.4.6.2,1.2.4,1.8.7,1.9.8,1.9,2.6,1.5,3.8-.3.9-.9,1.5-1.7,1.9-1.9,1-4.6.5-6.1-1.2Z"/>
        <path class="cls-4" d="M967.8,158.9c-.4.5-.8,1-1.2,1.4-.7-.2-1.3-.4-2-.4-.6,0-.9.3-1,.7,0,.5.3.8.7.9.3.1.5.2.8.3.4.2.9.3,1.3.5,2,.9,2.5,3.3,1,5-.1.1-.3.3-.4.4-1.7,1.5-5.5,1.1-6.7-.8.4-.5.9-1,1.3-1.5.6.3,1.1.7,1.6.9.5.2,1,.2,1.5,0,.4-.2.7-.5.7-1,0-.4-.2-.7-.6-.9-.4-.2-.8-.3-1.1-.5-.5-.3-1.1-.5-1.6-.8-.9-.7-1.3-1.6-1.1-2.8.2-1.2.9-2,2-2.3,1.6-.5,3.4-.2,4.8.9Z"/>
        <path class="cls-4" d="M1132.4,161c-2.1-1-3.6-.9-4.6.2-.9,1-.9,2.6-.1,3.7.9,1.3,2.3,1.4,4.7.5,0,.8,0,1.5,0,2.2,0,.2-.3.4-.5.5-2.7,1.1-7.1,0-7.6-4.2-.5-4.5,3.3-7.1,7.4-5.8.5.2.8.4.7.9,0,.6,0,1.2,0,1.9Z"/>
        <path class="cls-4" d="M1142.2,167.9c-2.2,1.2-5.2.7-6.8-1.2-1.6-1.9-1.7-5,0-7,1.6-1.9,4.5-2.5,6.9-1.3v2.5c-.3-.2-.6-.3-.9-.4-1.7-.7-3.4,0-4.1,1.4-.5,1.1-.3,2.5.6,3.3,1,1,2.1,1.1,3.4.6.3-.1.6-.3,1-.5v2.5Z"/>
        <path class="cls-4" d="M975.2,160.4c-.6,0-1.2,0-1.9.1v7.6c-1,.2-1.8,0-2.8.1v-7.7c-.4,0-.7-.1-1.1-.2v-2.2c.3,0,.6-.1,1.1-.2v-3.3h2.8v3.3c.7,0,1.3.1,1.9.2v2.2Z"/>
        <path class="cls-4" d="M1077.1,168.2v-10h2.6c0,.3.1.7.2,1.2,1.1-1.3,2.3-1.9,4.1-1.3-.1.8-.2,1.6-.3,2.4-.4,0-.6-.1-.9-.2-1.5-.2-2.8.6-2.9,2.2-.1,1.5,0,2.9,0,4.4,0,.4,0,.8,0,1.3h-2.7Z"/>
        <path class="cls-4" d="M1005.6,168.2h-2.6v-10h2.6c.2.7.3,8.7,0,10Z"/>
        <path class="cls-4" d="M1144.6,168.2v-10h2.6v10h-2.6Z"/>
        <path class="cls-4" d="M1145.8,152.1c.9,0,1.7.8,1.7,1.7,0,.9-.8,1.6-1.7,1.7-.9,0-1.7-.7-1.7-1.6,0-.9.7-1.7,1.6-1.8Z"/>
        <path class="cls-4" d="M1006,153.8c0,.9-.7,1.7-1.6,1.7-.9,0-1.7-.7-1.7-1.7,0-.9.8-1.7,1.7-1.7.9,0,1.6.8,1.6,1.7Z"/>
        <path class="cls-4" d="M1156.7,151.9c.7.4,1.3.8,2,1.3-1.2,1.1-2.3,2.1-3.5,3.1-.4-.3-.8-.6-1.3-.9.9-1.2,1.8-2.3,2.7-3.5Z"/>
      </g>
      <g>
        <path class="cls-4" d="M1114.1,188.9c.2-.4.4-.7.5-.9,1.1-2.5,2.2-5,3.3-7.4.3-.7.6-.9,1.3-.8.3,0,.6,0,1,0,.8,4.8,1.5,9.6,2.3,14.4h-2.8c-.5-2.9-.8-5.7-1.3-8.6h-.2c-1.3,2.8-2.5,5.7-3.8,8.5h-.9c-1.2-2.9-2.3-5.7-3.5-8.6,0,0-.1,0-.2,0-.5,2.8-1,5.6-1.5,8.5h-2.8c.9-4.8,1.8-9.5,2.8-14.3h2c1.2,3,2.5,6,3.8,9.2Z"/>
        <path class="cls-4" d="M1049.2,185.3c0-.4.1-.6.2-.9.3,0,.5,0,.7,0,.5,0,1.1,0,1.6,0,0,.3,0,.5,0,.7,0,3,0,6,0,8.9,0,.4,0,.8-.1,1.2-.4,1.8-1.5,2.9-3.2,3.3-1.3.3-2.6.3-3.8-.2-1.5-.5-2.6-1.9-2.7-3.5h2.6c0,.1.1.2.2.4.6,1,1.5,1.5,2.7,1.2,1.1-.2,1.7-.9,1.8-2.1,0-.5,0-1,0-1.6-.1,0-.2,0-.3.1-1.5,1.8-4.3,1.3-5.6.1-2.1-1.9-2.3-5.5-.4-7.6,1.6-1.7,4.3-1.8,6.3,0ZM1049.5,189c0-1.5-1.2-2.7-2.7-2.7-1.5,0-2.6,1.1-2.6,2.7,0,1.5,1.2,2.7,2.7,2.7,1.5,0,2.6-1.2,2.6-2.7Z"/>
        <path class="cls-4" d="M1084.3,178.2h2.5c0,5.2,0,10.4-.1,15.7-.8,0-1.6,0-2.5,0,0-.3,0-.6-.1-.9-.1,0-.2,0-.3.1-1.5,1.8-4.6,1.3-6.1-.4-1.7-1.9-1.7-5.1,0-6.9,1.2-1.3,3.1-1.9,4.7-1.3.6.2,1.1.6,1.7,1,.2-.7,0-1.5,0-2.3,0-.8,0-1.7,0-2.5s0-1.6,0-2.5ZM1079.2,189.2c0,1.5,1.2,2.7,2.7,2.7,1.5,0,2.7-1.2,2.6-2.8,0-1.5-1.1-2.6-2.6-2.7-1.5,0-2.7,1.1-2.7,2.7Z"/>
        <path class="cls-4" d="M979.4,178.8h7.8c0,.8,0,1.5,0,2.3h-5.1c0,1.1,0,2.2,0,3.3,1.6,0,3.2,0,4.9,0v2.3c-1.6,0-3.2,0-4.9,0v4.1c1.7,0,3.4,0,5.1,0v2.3c-2.6,0-5.2,0-7.8,0-.2-.6-.2-13.1,0-14.3Z"/>
        <path class="cls-4" d="M1010.8,179.5c0,1,0,2,0,3.1-1.4-1.1-2.8-1.7-4.5-1.4-1.1.2-2.1.8-2.8,1.8-1.5,2-1.4,4.9.2,6.6.9,1,2.1,1.5,3.4,1.6,1.3,0,2.5-.4,3.6-1.4,0,1.1,0,2,0,2.9,0,.2-.3.4-.5.5-1.4.6-2.9.7-4.4.4-3.6-.6-6-3.5-6.1-7.1,0-1.1,0-2.1.4-3.1,1.1-2.8,3.1-4.4,6.2-4.7,1.2-.1,2.4,0,3.6.4.3.1.6.3,1,.4Z"/>
        <path class="cls-4" d="M1064.4,194.2c-.6-.1-1.2-.2-1.9-.3-2.2-.7-3.6-2.8-3.4-5.1.2-2.3,1.8-4.1,4.1-4.5,1.1-.2,2.1-.2,3.2.2,2.2.7,3.6,2.6,3.5,4.9,0,2.3-1.6,4.1-3.8,4.6-.5.1-1,.1-1.6.2ZM1067.2,189.1c0-1.5-1.2-2.7-2.7-2.7-1.5,0-2.7,1.2-2.7,2.7,0,1.5,1.2,2.7,2.7,2.7,1.5,0,2.7-1.2,2.7-2.7Z"/>
        <path class="cls-4" d="M1167.2,194.9c-.6-.1-1.3-.2-1.9-.4-2.2-.7-3.5-2.7-3.4-5,.1-2.3,1.7-4.2,4-4.6,1.1-.2,2.2-.2,3.3.2,2.2.7,3.5,2.6,3.4,4.9,0,2.2-1.5,4-3.6,4.6-.6.1-1.2.2-1.8.3ZM1164.6,189.8c0,1.5,1.2,2.7,2.7,2.7,1.5,0,2.7-1.2,2.7-2.7,0-1.5-1.2-2.7-2.7-2.7-1.5,0-2.7,1.1-2.7,2.7Z"/>
        <path class="cls-4" d="M1018.2,193.8c-2.2,0-3.9-.7-4.9-2.5-1.7-2.8-.3-7.1,3.8-7.5,1-.1,1.9,0,2.9.2,2.1.7,3.5,2.6,3.4,4.9,0,2.3-1.6,4.2-3.8,4.6-.5.1-1.1.2-1.4.2ZM1020.6,188.9c0-1.5-1.1-2.7-2.6-2.7-1.5,0-2.7,1.2-2.7,2.7,0,1.5,1.2,2.7,2.7,2.8,1.5,0,2.7-1.2,2.7-2.7Z"/>
        <path class="cls-4" d="M1098.7,189.8h-6.9c-.1,1,.3,1.9,1.1,2.3,1.1.5,2.2.2,3.4-.9.7.1,1.4.2,2.3.4-.2.4-.3.7-.5,1-2.1,2.9-7.2,2.4-8.6-.8-.8-1.7-.7-3.5.3-5.1,1-1.7,2.7-2.3,4.6-2.2,2.9.2,4.6,2.3,4.3,5.4ZM1091.9,188c.8.2,3.7.2,4.3,0-.2-1.2-1.1-1.9-2.3-1.8-1.1,0-1.9.8-2,1.8Z"/>
        <path class="cls-4" d="M1134,190c-2.3,0-4.6,0-6.8,0-.2,1.2.4,2.2,1.5,2.5.9.2,1.9.1,2.5-.6.3-.4.7-.5,1.2-.4.5.1,1,.2,1.6.3-.1.3-.2.5-.3.7-.2.3-.4.6-.7.9-1.6,1.4-3.5,1.6-5.5,1-1.8-.6-2.9-2-3.1-3.9,0-.8,0-1.5.2-2.3.5-2.1,2.2-3.4,4.6-3.4,3.5,0,5.1,2.4,4.9,5.4ZM1131.5,188.3c0-1.2-.9-1.9-2.1-2-1.2,0-2.1.7-2.2,1.9,1.4,0,2.9,0,4.3,0Z"/>
        <path class="cls-4" d="M1039.8,189.4c-2.3,0-4.6,0-6.9,0,0,1.2.4,2,1.3,2.4,1.1.5,2.1.2,3.3-1,.7.1,1.4.2,2.2.4,0,.2-.1.4-.2.6-.6,1.1-1.6,1.8-2.8,2.1-1,.3-2.1.3-3.1,0-1.8-.5-2.9-1.6-3.4-3.4-.3-1.1-.2-2.1.1-3.1.7-2.2,2.5-3.4,5-3.2,3,.2,4.7,2.3,4.4,5.4ZM1033,187.7c1.5,0,2.9,0,4.3,0-.2-1.3-1.1-1.9-2.2-1.9-1.1,0-1.9.7-2.1,1.9Z"/>
        <path class="cls-4" d="M960,188.8h-6.9c-.2,1.2.4,2.2,1.5,2.4.9.2,1.9.1,2.5-.6.4-.4.7-.4,1.2-.4.5,0,1,.2,1.6.3-.4,1-.9,1.7-1.7,2.1-1.9,1-3.9,1.1-5.7,0-1.9-1.2-2.4-3-2.1-5.1.3-2,1.4-3.3,3.3-3.9,1.1-.3,2.2-.3,3.2,0,1.8.5,2.7,1.8,3,3.6,0,.5,0,1,.1,1.6ZM957.5,187.1c-.2-1.3-1.1-2-2.3-1.9-1.1,0-1.9.8-1.9,1.9,1.4,0,2.8,0,4.3,0Z"/>
        <path class="cls-4" d="M962.2,183.8h2.5c0,.3,0,.6.1,1,.2-.2.4-.3.6-.5,1.2-1,3.1-1.1,4.4-.3.8.5,1.2,1.3,1.3,2.2,0,.8,0,1.5,0,2.3,0,1.2,0,2.4,0,3.5,0,.3,0,.6,0,1h-2.4c0-.3,0-.6,0-.8,0-1.3,0-2.5,0-3.8,0-.4,0-.8,0-1.2-.1-.9-.6-1.4-1.4-1.5-.8-.2-1.7.2-2,.9-.2.5-.4,1.1-.4,1.6,0,1.4,0,2.8,0,4.3,0,.2,0,.3,0,.6h-2.5c0-3.1,0-6.1,0-9.3Z"/>
        <path class="cls-4" d="M1135.7,184.9c.8,0,1.7,0,2.5,0,.4,0,.7.2.9.5.5.7,1,1.3,1.6,2,.6-.7,1.1-1.3,1.6-1.9.3-.4.6-.5,1-.5.8,0,1.6,0,2.4,0,0,0,0,0,0,.1,0,0,0,0,0,0-1.1,1.3-2.2,2.7-3.4,4.1,1.4,1.6,2.8,3.3,4.3,5.1-1.2,0-2.1,0-3,0-.2,0-.5-.3-.7-.5-.7-.9-1.5-1.8-2.2-2.7-.2.3-.4.5-.6.7-.2.3-.5.5-.7.8-.5.6-1,1.1-1.5,1.7,0,0-.2,0-.2,0-.9,0-1.9,0-3,0,1.5-1.8,3-3.3,4.4-5.1-1.1-1.4-2.3-2.7-3.4-4.1,0,0,0-.1.1-.2Z"/>
        <path class="cls-4" d="M1160.3,185.3v2.4c-.4-.2-.7-.3-.9-.4-1.7-.7-3.4.1-3.8,1.8-.5,2,1.2,3.8,3.3,3.4.4-.1.9-.3,1.4-.5,0,.7,0,1.4,0,2,0,.2-.2.4-.4.4-2.6,1.1-6.6,0-7-3.9-.3-2.4.8-4.5,2.9-5.3,1.5-.6,3-.5,4.5.2Z"/>
        <path class="cls-4" d="M1027.9,193.5h-2.3c-.2-.7-.1-14.6,0-15.7h2.3c.2.7.1,14.6,0,15.7Z"/>
        <path class="cls-4" d="M989.9,177.6h2.4c0,5.2,0,10.4-.1,15.6-.6.2-1.3.2-2.3,0-.2-.6-.2-14.6,0-15.7Z"/>
        <path class="cls-4" d="M1148.1,194.3c0-3.1,0-6.1,0-9.2.8-.2,1.6,0,2.5,0,0,3.1,0,6.1,0,9.3h-2.5Z"/>
        <path class="cls-4" d="M1054.4,193.7c0-3.1,0-6.2,0-9.3h2.3c.2.6.2,7.8,0,9.3-.8.1-1.5,0-2.4,0Z"/>
        <path class="cls-4" d="M1151,181c0,.9-.8,1.5-1.6,1.5-.9,0-1.5-.7-1.4-1.6,0-.9.7-1.5,1.6-1.5.8,0,1.5.7,1.5,1.6Z"/>
        <path class="cls-4" d="M1057.3,180.4c0,.9-.7,1.6-1.6,1.5-.8,0-1.5-.7-1.5-1.5,0-.8.7-1.5,1.5-1.5.9,0,1.6.7,1.6,1.5Z"/>
        <path class="cls-4" d="M1130.8,179.1c.6.4,1.2.8,1.9,1.2-1.1,1-2.1,1.9-3.2,2.8-.4-.3-.8-.5-1.2-.8.9-1.1,1.7-2.1,2.5-3.2Z"/>
      </g>
      <g>
        <path class="cls-1" d="M950.6,95.5c-.1-.6-.3-1.2-.3-1.8,0-18.6,0-37.2,0-55.7,0-.6.4-.9.9-.9.1,0,.3,0,.4,0,14.7,0,29.5,0,44.2,0,0,0,.2,0,.3,0,.6,0,.9.3.9.9,0,.6-.3.9-.9.9-.1,0-.2,0-.3,0-14.4,0-28.8,0-43.2,0s-.3,0-.5,0v45.3s0,0,0,0c0-.1.1-.3.2-.4,1.3-2.4,2.7-4.8,4.7-6.7,2.3-2.1,4.7-4.1,7.7-5.2,2.9-1.1,6-1.7,9.1-1.6,11.3.2,20.6,8.2,22.5,18.9.3,1.4.4,2.8.4,4.2,0,6.8.1,13.7,0,20.5-.2,9.1-4.5,15.9-12.5,20.4-3.8,2.1-7.8,2.9-12.1,2.6-9.1-.5-17-6.3-20.4-14.7,0-.1-.1-.2-.2-.3,0,0,0-.1-.1-.2-.2-.4-.3-.8-.5-1.2,0,0,0,0,0,0,0-.1,0-.2.2-.4,0,0-.1,0-.2,0,0-.5-.2-.9-.3-1.4-.3-1.7-.4-3.4-.4-5.1,0-.4.3-.7.7-.7.5,0,.9.1.9.6,0,.3,0,.7,0,1,.2,5.2,2.1,9.8,5.6,13.6,3.5,3.8,7.8,6,12.9,6.8,9,1.3,18-3.3,22.2-11.4.5-1.1.9-2.2,1.4-3.3,0,0,0-.2,0-.2-.3.8-.6,1.5-1,2.3-3,5.9-7.7,9.6-14.2,10.8-6.5,1.2-12.3-.5-17.2-5-3.3-3.1-5.3-6.9-5.9-11.4-.1-.9-.2-1.8-.2-2.8,0-1.1-.6-1.9-1.6-2.4-1-.4-2-.4-2.9.3-.2.2-.4.4-.7.8,0-.3,0-.5,0-.7.8-3.2,3.5-5.5,6.8-5.9,4.4-.5,8.3,2.3,9,6.7.1.9,0,1.7.2,2.6.5,4.5,2.6,7.9,6.3,10.4,5.6,3.7,12.9,3.1,17.8-1.5,2.9-2.7,4.4-6,4.4-10,0-6.9,0-13.8,0-20.8,0-3.6-1.3-6.8-3.7-9.5-2.4-2.6-5.3-4.1-8.8-4.5-7.1-.9-13.9,3.6-15.7,10.6-.3,1.1-.5,2.3-.5,3.4,0,4.7-3.7,8.3-8.4,8.2-3.4,0-6.5-2.5-7.4-5.7,0,0,0-.2,0-.3,0,.2.2.4.3.5,1.1,2.4,3.8,3.9,6.5,3.5,2.7-.3,5-2.5,5.3-5.1.1-1.1.1-2.3.3-3.4.6-3.5,2.1-6.6,4.6-9.1,3.8-3.6,8.3-5.1,13.5-4.4,5.5.7,9.5,3.6,12.2,8.4,0,.1.1.2.2.4,0-.1,0-.2,0-.3-1-2.1-2.3-3.9-3.9-5.5-4.3-4-9.5-5.5-15.3-4.7-4.9.7-8.6,3.3-11.6,7-2.4,3-3.4,6.6-3.4,10.4,0,1.4-.5,2.6-1.6,3.5-1.9,1.7-5.4,1.6-6.9-1.2,0,0,0-.2-.2-.3,0,0,0,.1,0,.2ZM950.5,111.9s0,0,.1,0c0,0,0-.1.1-.2,1-2,3-2.9,5.1-2.4,2.1.5,3.4,2.2,3.5,4.4,0,.9,0,1.9.2,2.8,1.6,9.7,10.7,16.1,20.4,14.6,5.9-.9,10.3-4.2,13.2-9.4.3-.5.5-.9.7-1.4-.1,0-.1,0-.2.1-.9,1.7-2,3.3-3.4,4.6-4,3.6-8.7,5-14,4.2-3.6-.6-6.6-2.2-9.1-4.9-2.3-2.5-3.7-5.4-4.2-8.7-.1-1-.1-2-.2-2.9-.3-2.6-2.2-4.7-4.8-5.3-2.5-.6-5.2.5-6.6,2.7-.4.5-.6,1.2-.9,1.7ZM993.9,86.5c0,0,0,0,0,0,0,0,0-.1,0-.2-1.2-3.2-3-6-5.5-8.3-5.2-4.7-11.3-6.7-18.3-5.6-3.2.5-6.3,1.7-8.9,3.6-4,3-6.9,6.7-8.3,11.5-.6,1.9-.8,3.9-.9,5.9,0,.6-.3.9-.9.8-.2,0-.4,0-.7-.2,0,.2.1.4.2.6.6,1.1,1.8,1.7,3,1.4,1.2-.3,2-1.4,2.1-2.7,0-1.3.2-2.7.4-4,.8-3.9,2.7-7.3,5.6-10,4.7-4.5,10.4-6.4,16.8-5.4,6.7,1.1,11.6,4.8,14.7,10.8.3.5.5,1.1.7,1.7Z"/>
        <path class="cls-1" d="M1023,121.8c-.2-.6-.4-1.2-.5-1.8-.5-2.3-.7-4.5-.7-6.9,0-17.6,0-35.3,0-52.9,0-2.2.2-4.3.7-6.4,0-.5.2-.9.3-1.4,0-.2.2-.3.3-.5,0-.2.2-.4.2-.7,0-.1.1-.2.1-.3,1.4-3.8,3.6-7.2,6.6-10,6.5-6,14.1-8.4,22.8-7.1,6.2.9,11.4,3.8,15.6,8.4,4.7,5.1,7.1,11.2,7.1,18.1,0,17.7,0,35.5,0,53.2,0,1.1,0,2.2-.2,3.3-.8,5.9-3.2,11-7.4,15.2-7,6.9-15.4,9.6-25,7.5-9.3-2-15.7-7.6-19.4-16.4,0-.2-.2-.3-.2-.5-.1-.3-.2-.6-.3-.9ZM1066,55.9c0-.1,0-.2,0-.3-.4-1.8-1-3.5-1.9-5.2-3.9-7-9.9-10.9-17.9-11.5-3.9-.3-7.7.5-11.1,2.4-7.4,4.1-11.6,10.4-11.6,18.9-.2,17.7,0,35.4,0,53,0,1,0,2,.2,3,.7,5,2.9,9.3,6.6,12.8,5.6,5.1,12.2,6.9,19.6,5.3,9.1-2,16.6-10,16.7-20.8,0-17.6,0-35.2,0-52.8,0-1.4-.1-2.9-.5-4.3,0-.2,0-.4,0-.6h0ZM1023.7,50.6s0,0,0,0c0-.1.1-.2.2-.3,1.3-2.7,3-5.1,5.2-7.1,5.5-5,12-7,19.3-5.9,5.1.7,9.5,3,13,6.7,4.4,4.5,6.7,9.9,6.7,16.1,0,17.8,0,35.7,0,53.5,0,1,0,1.9-.2,2.9-.8,5.4-3,10-7,13.7-5.9,5.6-12.9,7.6-20.8,6-7.9-1.7-13.4-6.5-16.7-13.9,0-.1-.1-.3-.2-.4,0,.2,0,.3,0,.4,1.4,3.6,3.5,6.8,6.4,9.4,5.9,5.4,12.8,7.6,20.7,6.5,5.7-.8,10.5-3.4,14.5-7.5,4.6-4.9,6.9-10.8,6.9-17.5,0-17.6,0-35.2,0-52.7,0-1.1,0-2.2-.2-3.3-.8-5.9-3.3-10.9-7.6-14.9-6.1-5.7-13.4-8-21.6-6.5-8.3,1.4-14.3,6.1-18.2,13.5-.2.5-.4.9-.6,1.4Z"/>
        <path class="cls-1" d="M950.7,35.5c.8-2.9,3.6-5.3,6.6-5.6.5,0,1,0,1.5,0,14.8,0,29.6,0,44.4,0,4,0,7.3,2.7,8.1,6.6.9,4.3-2,8.6-6.3,9.4-.6.1-1.2.2-1.8.2-12,0-24.1,0-36.1,0h-.6v20.6c.5-.2.9-.4,1.3-.7,4.7-2.3,9.7-3.2,14.9-2.9,13.2.8,24.5,10.2,27.6,23,.6,2.4.9,4.8.9,7.3,0,6.7,0,13.4,0,20.1,0,8-2.7,15-8.1,20.9-4.6,5-10.4,8.2-17.1,9.2-9.3,1.5-17.6-.7-24.9-6.7-4.6-3.8-7.7-8.6-9.5-14.4,0,0,0,0,0-.2,0,.1,0,.2.1.4,2.6,7.5,7.4,13,14.5,16.6,3.4,1.8,7.1,2.7,11,2.9,8.3.4,15.5-2.2,21.5-7.8,4.9-4.6,7.8-10.2,8.7-16.8.2-1.2.3-2.5.3-3.7,0-6.7,0-13.5,0-20.2,0-7.6-2.5-14.1-7.7-19.7-4.4-4.7-9.7-7.5-16-8.6-7.4-1.3-14.3.3-20.7,4.2-.1,0-.3.2-.4.2v-25.5h.6c12.6,0,25.3,0,37.9,0,3.5,0,6.3-2.6,6.5-6.2.1-3.1-2.4-6.1-5.4-6.4-.4,0-.7,0-1.1,0-14.8,0-29.7,0-44.5,0-2.2,0-4,1-5.4,2.7-.2.2-.3.4-.4.6-.1.2-.2.4-.3.6Z"/>
        <path class="cls-1" d="M951.5,121.5c0,0,0,.1.1.2,0,.2,0,.3.1.5,3.4,8.5,9.5,13.9,18.4,15.8,8.5,1.8,16-.4,22.4-6.2,4.4-4,6.9-9,7.7-14.9.1-1.1.2-2.2.2-3.3,0-6.8,0-13.5,0-20.3,0-6.5-2.3-12.1-6.7-16.9-3.8-4.1-8.5-6.7-14-7.7-4.3-.8-8.5-.4-12.6,1.1-1.5.5-2.9,1-4.3,1.8-1.3.7-2.5,1.6-3.6,2.5-1.2,1.1-2.4,2.3-3.5,3.4,0,0-.1.1-.2.3v-37.2h.5c13.8,0,27.6,0,41.4,0,1.1,0,2-.4,2.6-1.4,1-1.7-.2-3.9-2.2-4-.2,0-.3,0-.5,0-14.7,0-29.5,0-44.2,0-.3,0-.6,0-.9,0-.8.1-1.4.5-1.8,1.2.3-.8.7-1.4,1.3-1.9.8-.6,1.7-1,2.7-1,15.1,0,30.1,0,45.2,0,2,0,3.7,1.3,4.2,3.2.5,2.1-.3,4.1-2.1,5.1-.7.4-1.4.5-2.2.5-13.3,0-26.5,0-39.8,0-.2,0-.4,0-.6,0v31c.1,0,.2-.2.3-.2,3.9-3.4,8.5-5.4,13.6-6.2,5.4-.8,10.7,0,15.6,2.3,7.8,3.8,12.7,10,14.7,18.4.4,1.8.6,3.7.6,5.5,0,6.8,0,13.6,0,20.5,0,5.8-1.7,11.1-5.2,15.8-4.2,5.6-9.8,9.2-16.8,10.4-8.8,1.5-16.6-.7-23.3-6.7-3.4-3-5.7-6.8-7.2-11.1,0-.2,0-.3,0-.5Z"/>
        <path class="cls-1" d="M1023,121.8c.1.3.2.6.3.9,0,.2,0,.3.1.5,1.7,4.5,4.2,8.4,7.8,11.6,6.9,6.1,15,8.4,24.1,6.9,6.2-1,11.5-3.9,15.8-8.5,5.3-5.6,7.9-12.3,7.9-19.9,0-17.6,0-35.2,0-52.8,0-1.5-.1-3-.3-4.5-1-6.6-4-12.2-8.9-16.7-7.3-6.6-15.9-9.1-25.5-7-10.3,2.3-17.2,8.7-21,18.5,0,.1,0,.3,0,.4,0,.2-.2.5-.2.7,0-.2,0-.4,0-.6,1.4-4.4,3.6-8.3,6.8-11.7,4.2-4.5,9.2-7.6,15.2-8.9,10.3-2.4,19.5-.1,27.5,6.8,5.1,4.5,8.3,10.2,9.6,16.9.4,1.9.6,3.8.6,5.7,0,17.8,0,35.6,0,53.4,0,6.9-2.2,13.2-6.5,18.6-4.6,5.9-10.7,9.7-18.1,11.1-8,1.6-15.6,0-22.5-4.4-6.2-4-10.4-9.5-12.6-16.6,0-.2,0-.4,0-.6Z"/>
        <path class="cls-1" d="M1065.8,55.2c-.8-2.7-2.2-5-4.1-7.1-3-3.2-6.6-5.1-10.9-5.6-5.6-.6-10.5,1-14.6,4.9-2.9,2.8-4.6,6.3-5.2,10.3-.1.8-.2,1.7-.2,2.6,0,17.7,0,35.5,0,53.2,0,8.5,6,15.9,14.3,17.6,6.1,1.2,11.3-.5,15.9-4.6,1.9-1.7,3.3-3.8,4.3-6.1,0,0,0,0,.1-.1,0,.1,0,.2-.1.3-2.9,6.8-7.9,11-15.1,12.3-6.4,1.1-12.1-.7-16.8-5.1-3.4-3.2-5.4-7.1-6-11.7-.1-1-.2-1.9-.2-2.9,0-17.5,0-35,0-52.5,0-5.2,1.7-9.8,5.3-13.7,3.3-3.5,7.3-5.6,12.1-6.2,9.8-1.2,19,5.1,21.5,14.7,0,.1,0,.3,0,.4,0,0,0,0,0,0,0,0,0,0-.1.2,0-.2,0-.3,0-.5,0-.1,0-.3,0-.4Z"/>
        <path class="cls-1" d="M1065.8,55.2c0,.1,0,.3,0,.4,0-.1-.1-.2-.2-.3-2.1-5.1-5.9-8.3-11.4-9.1-7.9-1.2-15,4.2-16.2,12-.1.8-.2,1.5-.2,2.3,0,17.6,0,35.3,0,52.9,0,3.9,1.3,7.3,4.1,10.2,2.4,2.4,5.2,3.8,8.6,4.2,4,.5,7.7-.6,10.8-3.2,1.8-1.5,3.2-3.4,4.1-5.5,0-.1.1-.3.2-.4-.2.5-.3.9-.6,1.4-2.5,5.1-6.5,8.3-12,9.3-9,1.6-17.1-4.6-18.6-13.1-.2-1-.2-2.1-.2-3.1,0-17.4,0-34.9,0-52.3,0-4.6,1.5-8.5,4.8-11.8,3-3,6.6-4.5,10.9-4.7,7.1-.3,13.4,4.2,15.7,10.6,0,.1.1.2.2.4Z"/>
      </g>
      <g>
        <g>
          <path class="cls-4" d="M1143.8,137.3c0-.9.1-2,.6-3,.3-.7.8-1.4,1.3-1.9,1.5-1.5,3.9-1.4,5.4,0,.7.6,1.2,1.4,1.4,2.3.6,1.9.6,3.8,0,5.6-.2.6-.5,1.2-.8,1.7-1.7,2.4-5,2.4-6.7,0-1-1.3-1.2-2.9-1.2-4.7ZM1145.9,137.6c.2.9.3,1.9.6,2.8.3.8.9,1.5,1.8,1.6,1,0,1.6-.7,1.9-1.5.7-1.8.7-3.7,0-5.6-.3-.8-.9-1.5-1.9-1.5-1,0-1.6.7-1.8,1.6-.3.9-.4,1.8-.6,2.7Z"/>
          <path class="cls-4" d="M1102.6,143.9c-.7-.3-1.2-.6-1.8-.9.9-1.2,1.8-2.3,2.7-3.6-.4,0-.5,0-.6,0-1.8.2-3.2-.5-3.9-1.9-.7-1.5-.5-3.5.6-4.7,1.2-1.4,2.8-1.6,4.4-1.4,2.7.4,4.1,2.7,3.4,5.3-.1.5-.3,1.1-.7,1.5-1.3,1.9-2.7,3.8-4.2,5.7ZM1103.1,137.7c1.3,0,2.2-.9,2.3-2.2,0-1.3-.9-2.3-2.3-2.3-1.3,0-2.2,1-2.2,2.3,0,1.3.9,2.2,2.2,2.2Z"/>
          <path class="cls-4" d="M1142,141.6v1.9c-2.8,0-5.5,0-8.4,0,.3-.4.5-.7.7-.9,1.4-1.7,2.9-3.3,4.3-5,.6-.7,1.1-1.5,1.1-2.5,0-.9-.5-1.6-1.4-1.8-.8-.2-1.7.1-2.1.9-.2.3-.3.6-.4,1h-2.2c.2-2.7,2.3-4.3,5-3.8,2.8.5,4.2,3.1,2.9,5.7-.4.8-1,1.5-1.6,2.2-.6.7-1.3,1.4-2,2.2,0,0,0,.2,0,.2h4Z"/>
          <path class="cls-4" d="M1156.4,135.2h-2.1c0-2,1.4-3.7,3.5-3.8.5,0,1.1,0,1.7.1,2.5.5,3.7,2.9,2.7,5.2-.4.8-1,1.6-1.5,2.3-.7.8-1.4,1.6-2.2,2.5.7.3,1.4.1,2.1.2.6,0,1.3,0,2,0v1.9h-8.3c.2-.3.3-.5.4-.6,1.4-1.6,2.8-3.3,4.2-4.9.4-.4.7-.9,1-1.5.2-.4.3-.9.3-1.3,0-.9-.5-1.6-1.4-1.8-.8-.2-1.7.1-2.1.9-.2.3-.3.6-.4,1Z"/>
          <path class="cls-4" d="M1124.7,139.4c.5,0,.9.1,1.3.2v1.6c-.4,0-.8.1-1.3.2,0,.7,0,1.4-.1,2.1h-2c0-.7,0-1.4-.1-2.2h-5.7c-.3-.6-.2-1,0-1.4,1.8-2.6,3.6-5.2,5.4-7.9.2-.3.4-.5.8-.5.5,0,.9,0,1.5,0,.1,2.6,0,5.2,0,7.8ZM1122.5,135.2c0,0-.1,0-.2,0-.9,1.4-1.9,2.7-2.9,4.3,1.1.1,2.1,0,3.1,0v-4.2Z"/>
          <path class="cls-4" d="M1171.9,131.6v7.8c.5,0,.9.2,1.4.2v1.6c-.4,0-.8,0-1.3.1,0,.7,0,1.4-.1,2.1h-2c0-.7,0-1.4-.2-2.2h-5.6c-.3-.6-.2-1.1.2-1.5,1.7-2.5,3.5-5,5.2-7.6.3-.4.6-.6,1.1-.6.4,0,.8,0,1.3,0ZM1169.7,139.5v-4.3c0,0-.1,0-.2,0-.9,1.4-1.9,2.8-2.9,4.3,1.1.2,2,.1,3.1.1Z"/>
          <path class="cls-4" d="M1114.3,133.6h-5.5v-1.8c.7-.3,7.8-.3,9,0-2.3,4.1-4.7,8.1-7.1,12.1-.6-.3-1.2-.5-1.9-.9,1.8-3.2,3.6-6.2,5.5-9.5Z"/>
          <path class="cls-4" d="M1095.7,143.5h-2.2v-9.8c-.6,0-1.1-.1-1.7-.2v-1.8c1.3-.1,2.5,0,3.8,0v11.8Z"/>
          <path class="cls-4" d="M1127.5,140.3c0-.3,0-.5,0-.7,0-.3,0-.6,0-1.1,1.6,0,3,0,4.6,0v1.8h-4.5Z"/>
        </g>
        <g>
          <path class="cls-1" d="M1107.8,107.8v-2.4h3.2v18.5h-3.2v-2.5c-.2.2-.3.3-.4.4-3.3,3.8-9.2,3.2-12.2.3-1.8-1.8-2.6-4-2.8-6.4-.2-2.1,0-4.1,1-6,1.6-3.2,4.8-5,8.5-4.8,2.2.1,4.1,1,5.6,2.7,0,0,.1.1.2.2,0,0,0,0,.1,0ZM1108,114.4c0-.4-.1-1.2-.3-1.9-.6-2.5-2.8-4.3-5.3-4.6-2.5-.3-4.8,1-5.9,3.2-.9,1.8-1,3.8-.6,5.7,1,4.4,5.7,6.3,9.3,3.8,2-1.4,2.7-3.5,2.8-6.3Z"/>
          <path class="cls-1" d="M1146.9,124.6c-5.6,0-9.9-4.1-9.9-9.7,0-5.8,4.1-9.9,9.9-9.9,5.7,0,9.9,4.1,9.9,9.8,0,5.6-4.2,9.8-9.8,9.8ZM1146.9,121.7c3.1,0,5.6-1.9,6.3-4.9.2-1,.3-2.1.2-3.2-.6-5.6-6.4-7.1-10-4.8-2.3,1.4-3.1,3.7-3,6.2,0,3.9,2.8,6.7,6.5,6.7Z"/>
          <path class="cls-1" d="M1117.1,105.5h3.2v2c.3-.3.5-.5.7-.7,2.6-2.6,7.5-2.4,9.7.3.9,1.1,1.3,2.3,1.3,3.6,0,4.3,0,8.7,0,13,0,0,0,.1,0,.2h-3.2v-.6c0-3.5,0-7.1,0-10.6,0-.6,0-1.2-.1-1.8-.4-2.2-2.2-3.4-4.5-3-1.9.3-3.2,1.6-3.6,3.7-.1.7-.2,1.5-.2,2.2,0,3.2,0,6.4,0,9.6v.6h-3.2v-18.5Z"/>
          <path class="cls-1" d="M1160.3,119.8c.9-.4,1.8-.8,2.7-1.1.4.6.7,1.2,1.1,1.7.8,1.1,2,1.5,3.3,1.3,1.2-.1,2.2-1,2.4-2.2.3-1.3-.1-2.3-1.3-3-1-.6-2.1-1-3.2-1.5-.5-.2-.9-.5-1.4-.7-2.4-1.3-3-3.2-2.2-6,.6-1.9,2-2.8,3.9-3.2,2.6-.5,5,.6,6.2,2.9,0,0,0,.2.2.4-.9.5-1.7.9-2.5,1.4-.3-.4-.5-.8-.9-1.1-.7-.7-1.6-.9-2.6-.6-.8.2-1.3.8-1.4,1.6-.1.8,0,1.6.9,2,.7.4,1.5.7,2.2,1.1,1,.5,2,1,3,1.5,4,2.2,2.8,7.6.1,9.3-3.1,2-8.8,1.5-10.5-3.7Z"/>
          <path class="cls-1" d="M1119.3,101.7c-.6-.5-1.2-1-1.8-1.4,1-2.7,3.4-3.8,6-2.8.6.2,1.3.6,1.9.9.3.2.7.3,1,.4,1.1.3,1.7,0,2.4-.9.2-.3.4-.6.6-.9.6.5,1.1.9,1.6,1.3,0,0,.1.3,0,.5-.8,1.6-2.7,3.5-5.5,2.5-.7-.3-1.4-.6-2.1-.9-.4-.2-.8-.3-1.2-.5-.8-.3-1.5-.1-2.1.5-.3.4-.6.8-1,1.2Z"/>
        </g>
      </g>
    </g>
  </g>
</svg>