<?xml version="1.0" encoding="utf-8"?>
<!-- Generator: Adobe Illustrator 25.2.0, SVG Export Plug-In . SVG Version: 6.00 Build 0)  -->
<svg version="1.1" id="Layer_1" xmlns="http://www.w3.org/2000/svg" xmlns:xlink="http://www.w3.org/1999/xlink" x="0px" y="0px"
	 viewBox="0 0 240 80.8" style="enable-background:new 0 0 240 80.8;" xml:space="preserve">
<style type="text/css">
	.st0{fill-rule:evenodd;clip-rule:evenodd;fill:#5E002B;}
	.st1{fill:#5E002B;}
</style>
<polygon class="st0" points="20,10.5 49,10.5 49,13 22.6,13 22.6,68.5 49,68.5 49,71 20,71 "/>
<path class="st0" d="M25.1,15.6v23.9H49V15.6H25.1z M44,34.3c0,0.1-1.7,1.9-7.2,1.9c-4.5,0.2-8.3-3.2-8.5-7.7c0-0.2,0-0.5,0-0.7
	c0-5,3.6-9.1,8.7-9.1c4.5,0,5.8,1.9,6.5,1.9c0.2,0,0.3-0.2,0.6-0.2s0.3,0.4,0.3,2c0,0.7,0.1,1.2,0.1,1.6s0,0.5-0.2,0.5
	s-0.5-0.6-0.6-0.8c-1.5-2.6-3.2-4.2-6.3-4.2c-4.7,0-7,3.1-7,7.7c0,4.2,2.4,8.5,7,8.5c3.8,0,6.1-2.4,6.5-3.6c0-0.2,0.2-0.3,0.3-0.3
	s0.2,0.2,0.2,0.3L44,34.3z"/>
<path class="st0" d="M25.1,42v23.9H49V42H25.1z M45.7,62c-0.4,0-1.2-0.1-2.1-0.1c-0.7,0-1.4,0.1-2,0.1c-0.2,0-0.2-0.1-0.2-0.2
	c0-0.7,1.4-0.2,1.4-1.8l-0.2-8.7c0-0.6-0.1-0.9-0.2-0.9s-0.3,0.2-0.6,0.7L37,60.5c-0.1,0.2-0.5,1.1-0.7,1.1S36,61.2,35.9,61l-4.8-10
	c0-0.3-0.2-0.3-0.2-0.3s-0.2,0.1-0.2,0.3l-0.2,8c-0.1,2.9,2,2,2,2.8c0,0.2-0.2,0.2-0.6,0.2s-1.3-0.1-2-0.1c-1.2,0-1.5,0.1-1.9,0.1
	c-0.2,0-0.2-0.1-0.2-0.3c0-0.8,1.4,0.2,1.6-2.2c0.3-3.7,0.5-6.1,0.5-8.5c0-5.3-2.1-4-2.1-4.8c0-0.2,0.2-0.2,0.4-0.2
	c0.4,0,0.8,0.1,1.2,0.1s0.8-0.1,1.2-0.1s0.4,0.4,0.5,0.6L36.4,58c0.2,0.5,0.3,0.7,0.5,0.7s0.3-0.5,0.7-1.2l5.3-10.8
	c0.1-0.2,0.3-0.8,0.6-0.8s0.9,0.1,1,0.1c0.5,0,0.7-0.1,1.1-0.1c0.1,0,0.2,0.1,0.2,0.3l0,0c0,0.7-1.8-0.2-1.7,2.4l0.3,11.2
	c0,1.8,1.8,1.1,1.8,1.8C46.2,62,45.9,62,45.7,62L45.7,62z"/>
<path class="st1" d="M64.9,25.9c0,0.9,0,0.9,1,0.9h3c2.9,0,2.1-2.2,2.8-2.2c0.2,0,0.3,0.3,0.3,0.5c0,1-0.1,1.9-0.1,2.8
	c0,0.7,0.1,1.4,0.1,2.2c0,0.2-0.1,0.4-0.3,0.4c-0.9,0,0.1-2.5-2.2-2.5h-4.1c-0.4,0-0.5,0.3-0.5,0.9v5.9c0,1.1,0.1,1.6,2.1,1.6
	c6.4,0,7.3-2.9,7.7-2.9c0.2,0,0.2,0.3,0.2,0.3c-0.1,1-0.6,2-1.4,2.7c-0.7,0.8-1.7,1.1-2.7,0.9c-2.1,0-4.2-0.1-6.3-0.1
	c-1.1,0-2.3,0.1-3.4,0.1c-0.2,0-0.4-0.1-0.4-0.3s0.3-0.3,1.2-0.7c0.7-0.3,0.8-1.1,0.8-2.4V21.3c0-1.2,0-2.6-1.5-2.8
	c-0.2,0-0.8-0.1-0.8-0.4s0.2-0.3,1-0.3c5.2,0,6.7,0.1,7.8,0.1c0.6,0,3.1-0.1,4-0.1c0.2,0,0.3,0.3,0.3,0.6c0,3.1-0.4,3.3-0.6,3.3
	c-0.7,0-0.2-1.3-0.7-2s-2.2-0.8-3.6-0.8h-1.9c-1.9,0-1.9,0.1-1.9,1.8L64.9,25.9L64.9,25.9z"/>
<path class="st1" d="M80.6,34.3V35c0,1,0.1,1.5,2,1.5c6,0,6.9-2.7,7.2-2.7c0.2,0,0.2,0.3,0.2,0.3c-0.1,1-0.6,1.9-1.3,2.5
	c-0.6,0.7-1.6,1.1-2.6,0.9c-2,0-4-0.1-6-0.1c-1,0-2.1,0.1-3.2,0.1c-0.2,0-0.4,0-0.4-0.3s0.3-0.3,1.1-0.7s0.7-1.1,0.7-2.3V21
	c0-1.4-2.2-1.2-2.2-1.7c0-0.3,0.2-0.3,0.5-0.3c0.6,0,1.4,0.1,2.6,0.1c1.5,0,2.1-0.1,2.5-0.1s0.5,0,0.5,0.4c0,0.6-1.9,0-1.9,2.2
	L80.6,34.3z"/>
<path class="st1" d="M108.9,17.5c5.2,0,6.7,2.2,7.5,2.2c0.2,0,0.4-0.3,0.7-0.3s0.3,0.5,0.4,2.2c0,0.8,0.1,1.4,0.1,1.9
	s-0.1,0.5-0.3,0.5s-0.5-0.7-0.6-0.9c-1.7-3-3.7-4.8-7.3-4.8c-5.4,0-8,3.6-8,8.8c0,4.9,2.8,9.8,8.1,9.8c4.4,0,7.1-2.8,7.5-4.1
	c0-0.2,0.2-0.3,0.4-0.4c0.2,0,0.3,0.1,0.3,0.3l-0.6,2.8c0,0.1-2,2.2-8.2,2.2c-5.1,0.2-9.5-3.7-9.8-8.9c0-0.3,0-0.6,0-0.9
	C98.9,22.2,103,17.5,108.9,17.5z"/>
<path class="st1" d="M119.6,28.1c-0.1-5.1,4-9.4,9.2-9.4c0.1,0,0.3,0,0.4,0c5-0.2,9.2,3.8,9.4,8.8c0,0.2,0,0.4,0,0.5
	c0,5.9-4,9.7-9.9,9.7C123,37.7,119.6,33.7,119.6,28.1z M121.5,27.3c0,4.9,3.2,9.6,8.3,9.6c3.8,0,6.9-3.1,6.9-8s-3.2-9.5-8.3-9.5
	C124,19.5,121.5,23.2,121.5,27.3z"/>
<path class="st1" d="M144.6,34.3V35c0,1,0.1,1.5,2,1.5c6,0,6.9-2.7,7.2-2.7c0.2,0,0.2,0.3,0.2,0.3c-0.1,1-0.6,1.9-1.3,2.5
	c-0.6,0.7-1.6,1.1-2.6,0.9c-2,0-4-0.1-5.9-0.1c-1,0-2.1,0.1-3.2,0.1c-0.2,0-0.4,0-0.4-0.3s0.3-0.3,1.1-0.7c0.7-0.3,0.7-1.1,0.7-2.3
	V21c0-1.4-2.2-1.2-2.2-1.7c0-0.3,0.2-0.3,0.5-0.3c0.5,0,1.4,0.1,2.6,0.1c1.5,0,2.1-0.1,2.5-0.1s0.5,0,0.5,0.4c0,0.6-1.9,0-1.9,2.2
	L144.6,34.3z"/>
<path class="st1" d="M159.8,26.6c0,0.9,0,0.9,1,0.9h2.8c2.7,0,2-2.1,2.6-2.1c0.2,0,0.3,0.3,0.3,0.5c0,0.9-0.1,1.8-0.1,2.7
	c0,0.7,0.1,1.3,0.1,2c0,0.2-0.1,0.4-0.3,0.4c-0.8,0,0.1-2.3-2.1-2.3h-3.9c-0.4,0-0.5,0.3-0.5,0.8V35c0,1,0.1,1.5,2,1.5
	c6,0,6.9-2.7,7.2-2.7c0.2,0,0.2,0.3,0.2,0.3c-0.1,1-0.6,1.9-1.3,2.5c-0.6,0.7-1.6,1.1-2.6,0.9c-2,0-4-0.1-5.9-0.1
	c-1,0-2.1,0.1-3.2,0.1c-0.2,0-0.4,0-0.4-0.3s0.3-0.3,1.1-0.7c0.7-0.3,0.7-1.1,0.7-2.3v-12c0-1.2,0-2.5-1.4-2.7
	c-0.2,0-0.8-0.1-0.8-0.4s0.1-0.3,0.9-0.3c4.9,0,6.3,0.1,7.4,0.1c0.5,0,2.9-0.1,3.7-0.1c0.2,0,0.3,0.3,0.3,0.6c0,2.9-0.4,3.1-0.5,3.1
	c-0.6,0-0.2-1.2-0.6-1.9s-2.1-0.8-3.3-0.8h-1.8c-1.8,0-1.8,0.1-1.8,1.7L159.8,26.6z"/>
<path class="st1" d="M188.8,27.7c0.5,0,0.7,0,0.7,0.2c0,0.6-1.3,0-1.3,1.7V35c-2.7,0.8-3.4,2.7-8,2.7c-5.8,0-9.3-3.6-9.3-9.4
	c-0.1-5.2,3.9-9.5,9.1-9.6c0.2,0,0.4,0,0.7,0c4.5,0,5.8,1.8,6.5,1.8c0.3,0,0.4-0.5,0.7-0.5s0.3,0.3,0.3,0.6l0.3,3.5
	c0,0.2,0,0.5-0.3,0.5c-0.7,0-1.9-5.1-8-5.1c-4.7,0-7,4-7,8.3c0,4.7,2.6,9.1,7.7,9.1c2.4,0,5.4-1.2,5.4-3.4v-4.1
	c0-1.3-2.3-0.7-2.3-1.4c0-0.3,0.4-0.3,0.6-0.3H188.8z"/>
<path class="st1" d="M194.3,21.2c0-1.9-2.1-1.4-2.1-2c0-0.2,0.1-0.3,0.3-0.3c1,0,1.9,0.1,2.9,0.1c0.8,0,1.6-0.1,2.4-0.1
	c0.4,0,0.5,0,0.5,0.3c0,0.6-1.9,0-1.9,2v14.1c0,1.8,2.3,1.2,2.3,2c0,0.2-0.1,0.3-0.5,0.3c-0.6,0-1.7-0.1-2.8-0.1
	c-1.6,0-2.1,0.1-2.5,0.1s-0.6-0.1-0.6-0.4c0-0.8,2,0.1,2-2.5L194.3,21.2z"/>
<path class="st1" d="M201,28.1c-0.1-5.1,4-9.4,9.2-9.4c0.1,0,0.3,0,0.4,0c5-0.2,9.2,3.7,9.4,8.8c0,0.2,0,0.4,0,0.6
	c0,5.9-4,9.7-9.9,9.7C204.5,37.7,201,33.7,201,28.1z M202.9,27.3c0,4.9,3.2,9.6,8.3,9.6c3.8,0,6.9-3.1,6.9-8s-3.2-9.5-8.3-9.5
	C205.4,19.5,202.9,23.2,202.9,27.3L202.9,27.3z"/>
<path class="st1" d="M62.8,49c0-2.7-2.2-1.9-2.2-2.6c0-0.2,0.2-0.3,0.4-0.3c0.8,0,1.6,0.1,2.4,0.1c1.7,0,3.5-0.1,5.7-0.1
	c4.7,0,9.3,3.6,9.3,8.5c0,6.1-2.9,10.4-10.2,10.4c-1.3,0-2.7-0.1-4-0.1l-3,0.1C61,65.1,61,65,61,64.8c0-0.6,1.9,0,1.9-2.5L62.8,49z
	 M64.9,61.2V62c0,0.4,0,0.8,0.2,1.1c0.9,0.9,2.9,1.2,4.1,1.2c3.7,0,7.3-2,7.3-8.2c0-6-3.9-9.3-8.9-9.3c-2.5,0-2.6,0.4-2.6,1.7
	L64.9,61.2L64.9,61.2z"/>
<path class="st1" d="M84.3,54c0,0.9,0,0.9,1,0.9h2.8c2.8,0,2-2.1,2.7-2.1c0.2,0,0.3,0.3,0.3,0.5c0,0.9,0,1.8,0,2.7
	c0,0.7,0,1.4,0,2.1c0,0.2-0.1,0.4-0.3,0.4c-0.8,0,0.1-2.3-2.1-2.3h-3.9c-0.4,0-0.5,0.3-0.5,0.8v5.6c0,1.1,0.1,1.5,2,1.5
	c6.1,0,7-2.8,7.3-2.8c0.2,0,0.2,0.3,0.2,0.3c-0.1,1-0.6,1.9-1.3,2.6c-0.6,0.7-1.6,1.1-2.6,0.9c-2,0-4-0.1-6-0.1
	c-1.1,0-2.2,0.1-3.2,0.1c-0.2,0-0.4-0.1-0.4-0.3s0.3-0.3,1.2-0.7s0.7-1.1,0.7-2.3V49.6c0-1.2,0-2.5-1.4-2.7
	c-0.2-0.1-0.8-0.1-0.8-0.4s0.2-0.3,0.9-0.3c5,0,6.4,0.1,7.5,0.1c0.5,0,3-0.1,3.8-0.1c0.2,0,0.3,0.3,0.3,0.6c0,3-0.4,3.2-0.5,3.2
	c-0.6,0-0.2-1.3-0.6-1.9s-2.1-0.8-3.4-0.8h-1.8c-1.8,0-1.8,0.1-1.8,1.7L84.3,54z"/>
<path class="st1" d="M127.3,62.3c0,2.5,2.3,1.4,2.3,2.5c0,0.3-0.4,0.3-0.7,0.3c-0.6,0-1.6-0.1-2.8-0.1c-0.9,0-1.9,0.1-2.6,0.1
	c-0.3,0-0.3-0.2-0.3-0.3c0-0.9,1.9-0.2,1.8-2.5l-0.3-11.6c0-0.7-0.2-1.2-0.3-1.2s-0.5,0.3-0.8,0.9L117.5,63
	c-0.1,0.3-0.6,1.5-0.9,1.5s-0.5-0.7-0.6-0.9l-6.3-13.3c-0.1-0.2-0.2-0.3-0.3-0.3s-0.2,0.2-0.2,0.4L108.8,61
	c-0.1,3.9,2.7,2.7,2.7,3.7c0,0.3-0.3,0.3-0.7,0.3s-1.8,0-2.6,0c-1.5,0-2,0.1-2.6,0.1c-0.2,0-0.3-0.2-0.3-0.3c0-1,1.9,0.2,2.1-2.9
	c0.3-4.9,0.7-8,0.7-11.2c0-7-2.8-5.3-2.8-6.4c0-0.3,0.2-0.3,0.5-0.3c0.5,0,1.1,0.1,1.6,0.1s1.1-0.1,1.6-0.1s0.5,0.5,0.6,0.8l7,15.2
	c0.3,0.7,0.4,0.9,0.7,0.9s0.4-0.7,0.9-1.6l7.1-14.3c0.2-0.3,0.4-1,0.8-1s1.2,0.1,1.4,0.1c0.7,0,0.9-0.1,1.4-0.1
	c0.2,0,0.3,0.2,0.3,0.4c0,0.9-2.3-0.3-2.2,3.2L127.3,62.3z"/>
<path class="st1" d="M136.6,53.4c0,1,0,1,1.1,1h3c2.9,0,2.1-2.2,2.8-2.2c0.2,0,0.3,0.3,0.3,0.5c0,1-0.1,1.9-0.1,2.8
	c0,0.7,0.1,1.4,0.1,2.2c0,0.2-0.1,0.4-0.3,0.4c-0.9,0,0.1-2.5-2.2-2.5h-4.1c-0.4,0-0.5,0.3-0.5,0.9v5.9c0,1.1,0.1,1.6,2.1,1.6
	c6.4,0,7.4-2.9,7.7-2.9c0.2,0,0.2,0.3,0.2,0.3c-0.1,1-0.6,2-1.4,2.7c-0.7,0.8-1.7,1.2-2.7,1c-2.1,0-4.2-0.1-6.3-0.1
	c-1.1,0-2.3,0.1-3.4,0.1c-0.3,0-0.4-0.1-0.4-0.3s0.3-0.3,1.2-0.7c0.7-0.3,0.8-1.2,0.8-2.4V48.8c0-1.3,0-2.6-1.5-2.8
	c-0.2-0.1-0.8-0.1-0.8-0.5s0.2-0.3,1-0.3c5.2,0,6.7,0.1,7.9,0.1c0.6,0,3.1-0.1,4-0.1c0.2,0,0.3,0.3,0.3,0.6c0,3.1-0.4,3.3-0.6,3.3
	c-0.7,0-0.2-1.3-0.7-2s-2.2-0.8-3.6-0.8h-1.9c-1.9,0-1.9,0.1-1.9,1.8L136.6,53.4z M138.4,44.1l2.8-2.8c0.2-0.3,0.5-0.5,0.9-0.5
	s0.7,0.4,0.7,0.8c0,0.5-0.8,0.9-1.2,1.1l-2.4,1.3L138.4,44.1z"/>
<path class="st1" d="M157.2,52.2c0.4,0.6,0.6,1,0.7,1s0.4-0.4,0.8-1.1l2.5-3.6c0.4-0.5,0.7-1.2,0.9-1.8c0-0.8-1.5-0.6-1.5-1.2
	c0-0.2,0.2-0.2,0.4-0.2c0.7,0,0.7,0.1,2.6,0.1c0.7,0,1.4,0,2.1-0.1c0.2,0,0.2,0.2,0.2,0.3c0,0.6-1.1,0-2.7,2.2l-4.2,6
	c-0.1,0.1-0.2,0.3-0.2,0.5c0.1,0.3,0.2,0.5,0.3,0.7l4.8,7.7c1.5,2.3,2.5,1.2,2.5,2.1c0,0.3-0.3,0.3-0.5,0.3c-0.4,0-1.4-0.1-2.5-0.1
	s-2.1,0.1-2.5,0.1s-0.4-0.1-0.4-0.3c0-0.6,1.2-0.5,1.2-1.2c0-0.4-0.1-0.6-0.6-1.4l-3.5-5.5c-0.1-0.1-0.2-0.3-0.3-0.3
	s-0.2,0.1-0.4,0.3l-3,4.6c-0.6,0.7-1,1.4-1.2,2.2c0,1,1.8,0.6,1.8,1.3c0,0.2-0.2,0.3-0.4,0.3c-0.7,0-1.5-0.1-2.7-0.1
	c-0.8,0-1.6,0.1-2.4,0.1c-0.2,0-0.3-0.1-0.3-0.2c0-0.6,1.6-0.4,2.6-1.7l5.1-7.4c0.1-0.1,0.2-0.3,0.3-0.5c0-0.2-0.1-0.4-0.3-0.6
	l-4.4-6.5c-2.1-3.1-3.4-1.9-3.4-2.6c0-0.2,0.1-0.3,0.3-0.3l0,0c0.6,0,0.6,0.1,3.1,0.1c0.9,0,1.8-0.1,2.6-0.1c0.2,0,0.5,0.1,0.5,0.4
	s-1.2,0.2-1.2,1.1c0,0.3,0.4,0.9,1.4,2.5L157.2,52.2z"/>
<path class="st1" d="M171.8,47.6c0-2.1-2.2-1.5-2.2-2.1c0-0.2,0-0.3,0.3-0.3c1,0,2,0.1,3.1,0.1c0.9,0,1.7-0.1,2.6-0.1
	c0.4,0,0.5,0.1,0.5,0.3c0,0.7-2,0-2,2.1v15.1c0,1.9,2.5,1.3,2.5,2.1c0,0.2-0.1,0.3-0.6,0.3c-0.6,0-1.8-0.1-3-0.1
	c-1.7,0-2.3,0.1-2.7,0.1s-0.6-0.1-0.6-0.4c0-0.8,2.2,0.1,2.2-2.7L171.8,47.6z"/>
<path class="st1" d="M189,44.9c5.2,0,6.7,2.2,7.5,2.2c0.2,0,0.4-0.3,0.7-0.3s0.3,0.4,0.4,2.2c0,0.8,0.1,1.5,0.1,1.9
	s-0.1,0.6-0.3,0.6s-0.5-0.7-0.6-0.9c-1.7-3-3.7-4.9-7.3-4.9c-5.4,0-8,3.6-8,8.9c0,4.9,2.8,9.8,8.1,9.8c4.4,0,7.1-2.8,7.5-4.1
	c0-0.2,0.2-0.3,0.4-0.4c0.1,0,0.2,0.2,0.2,0.3L197,63c0,0.1-2,2.2-8.3,2.2c-5.2,0.2-9.5-3.8-9.7-8.9c0-0.3,0-0.6,0-0.8
	C179,49.7,183.1,44.9,189,44.9z"/>
<path class="st1" d="M199.8,55c-0.1-5.5,4.3-10,9.8-10.1c0.2,0,0.3,0,0.5,0c5.4-0.2,9.8,4,10,9.4c0,0.2,0,0.4,0,0.5
	c0,6.3-4.3,10.4-10.5,10.4C203.5,65.3,199.8,61,199.8,55z M201.8,54.2c0,5.2,3.4,10.2,8.9,10.2c4.1,0,7.3-3.3,7.3-8.5
	s-3.4-10.1-8.8-10.1C204.5,45.9,201.8,49.8,201.8,54.2L201.8,54.2z"/>
</svg>
