<svg xmlns="http://www.w3.org/2000/svg" id="Capa_1" x="0" y="0" enable-background="new 0 0 267.7 303.2" version="1.1" viewBox="0 0 267.7 303.2" xml:space="preserve"><style>.st0{enable-background:new    ;}
	.st1{fill:#FF9900;}</style><g class="st0"><path d="M166.4 48.5c0 4.1-1 7.3-3.1 9.7-2.1 2.4-4.1 3.9-6.2 4.6L135.4 50c-4.2 2-7.2 4.3-9 7.1-1.9 2.8-2.8 7.2-2.8 13.2 0 3.8.4 8.7 1.1 14.5 3 23.6 6 47.2 9 70.9 3 23.6 6 47.3 9 70.9.3 2.3.5 4.8.5 7.6 0 12.5-3.8 22.8-11.4 31.1-7.6 8.3-18.3 12.4-32.1 12.4-7.7 0-13.3-1.2-16.8-3.5s-5.2-5.1-5.2-8.5c0-4.1 1-7.3 3.1-9.8s4.1-4 6-4.8l22.1 12.9c4.2-2 7.2-4.4 9-7.3 1.9-2.9 2.8-7.4 2.8-13.3 0-3.8-.4-8.6-1.1-14.3l-15-116.8h-36V182c0 9.9 1.7 16.9 5 21.1 3.3 4.1 8.3 6.2 15 6.2 3.6 0 7-.5 10.1-1.5s5.5-1.9 7.1-2.8v10c-3.3 1.8-8.2 3.6-14.5 5.5-6.3 1.9-12.7 2.8-19.2 2.8-9.4 0-16.2-2.2-20.4-6.7-4.3-4.4-6.4-11.6-6.4-21.4v-83h-16V104l17.1-8 11.2-26.5h11v30.3h34.2l-1.5-12.6c-.3-2.4-.5-5-.5-7.8 0-8.2 1.7-15.6 5.2-22.2 3.5-6.5 8.5-11.7 15-15.5 6.5-3.8 14.3-5.7 23.4-5.7 7.7 0 13.3 1.2 16.7 3.7s5.3 5.4 5.3 8.8zM237.1 49.5c0 6.3-1.6 11.5-4.7 15.3-3.1 3.9-6.7 6.9-10.8 9-4.1 2.2-7.6 3.9-10.6 5.2v36c0 .6.4 1.2 1.3 1.8.9.6 1.6 1 2.1 1.2l8.5.9v5.7h-39.1v-5.7l8.3-.9c.7-.2 1.5-.5 2.4-1.2.9-.6 1.3-1.2 1.3-1.8V77.5c3.4-1.1 7-2.8 10.9-5.1 3.8-2.3 7.1-5.2 9.8-8.8 2.7-3.6 4-7.8 4-12.7 0-6.6-1.9-11.9-5.8-15.8-3.9-3.9-8-5.8-12.4-5.7-1.6 0-3.4.2-5.4.6-2 .4-3.8 1.1-5.3 2.2l-4.5 14.2c-2.6 1.5-4.9 2.3-7 2.3-3.3 0-5.5-.9-6.8-2.7-1.3-1.8-2-3.7-2-5.9 0-2.4 1.3-5 4-7.7s6.3-5 10.9-6.9 9.9-2.9 15.9-2.9c6.3 0 12.2 1.1 17.5 3.3 5.3 2.2 9.5 5.3 12.7 9.3 3.2 4.1 4.8 8.8 4.8 14.3z" class="st1"/></g></svg>