<?xml version="1.0" encoding="utf-8"?>
<!-- Generator: Adobe Illustrator 26.0.3, SVG Export Plug-In . SVG Version: 6.00 Build 0)  -->
<svg version="1.1" id="Capa_1" xmlns="http://www.w3.org/2000/svg" xmlns:xlink="http://www.w3.org/1999/xlink" x="0px" y="0px"
	 viewBox="0 0 267.7 303.2" style="enable-background:new 0 0 267.7 303.2;" xml:space="preserve">
<style type="text/css">
	.st0{enable-background:new    ;}
	.st1{fill:#FF00CC;}
</style>
<g class="st0">
	<path class="st1" d="M163.9,271.8h-60.5v-9.4l14.8-1.3c1.5-0.2,2.7-0.7,3.7-1.6c1-0.9,1.5-2.1,1.5-3.7v-45.2
		c-4.6,2.3-10.2,4.5-16.8,6.6c-6.6,2.1-12.6,3.2-18.2,3.2c-10.3,0-19.1-2.7-26.4-8.2c-7.4-5.5-13-12.7-17-21.9c-4-9.1-6-19.2-6-30.3
		c0-20.4,6.3-36.6,19-48.5c12.7-11.9,30.4-17.8,53.2-17.8c4.6,0,10.3,0.4,17.2,1.1c6.9,0.7,13,1.7,18.2,2.9v158
		c0,1.5,0.5,2.7,1.5,3.6c1,0.9,2.3,1.4,3.7,1.6l12.1,1.3V271.8z M123.4,202.1v-94c-2.3-0.5-4.9-1.1-7.8-1.8c-2.9-0.7-6.1-1-9.4-1
		c-13.7,0-24.1,4.6-31.3,13.9S64,140.8,64,156.1c0,8.5,1.3,16.6,3.8,24.2s6.6,13.7,12.2,18.4c5.6,4.7,12.8,7,21.8,7
		c3.1,0,6.8-0.4,11-1.2C117.1,203.8,120.6,203,123.4,202.1z"/>
	<path class="st1" d="M238.2,46.6c0,6.3-1.6,11.5-4.7,15.3c-3.1,3.9-6.7,6.9-10.8,9c-4.1,2.2-7.6,3.9-10.6,5.2v36
		c0,0.6,0.4,1.2,1.3,1.8c0.9,0.6,1.6,1,2.1,1.2l8.5,0.9v5.7H185V116l8.3-0.9c0.7-0.2,1.5-0.5,2.4-1.2c0.9-0.6,1.3-1.2,1.3-1.8V74.7
		c3.4-1.1,7-2.8,10.9-5.1c3.8-2.3,7.1-5.2,9.8-8.8c2.7-3.6,4-7.8,4-12.7c0-6.6-1.9-11.9-5.8-15.8c-3.9-3.9-8-5.8-12.4-5.7
		c-1.6,0-3.4,0.2-5.4,0.6c-2,0.4-3.8,1.1-5.3,2.2l-4.5,14.2c-2.6,1.5-4.9,2.3-7,2.3c-3.3,0-5.5-0.9-6.8-2.7c-1.3-1.8-2-3.7-2-5.9
		c0-2.4,1.3-5,4-7.7s6.3-5,10.9-6.9s9.9-2.9,15.9-2.9c6.3,0,12.2,1.1,17.5,3.3c5.3,2.2,9.5,5.3,12.7,9.3
		C236.6,36.5,238.2,41.2,238.2,46.6z"/>
</g>
</svg>
