<?xml version="1.0" encoding="utf-8"?>
<!-- Generator: Adobe Illustrator 26.0.3, SVG Export Plug-In . SVG Version: 6.00 Build 0)  -->
<svg version="1.1" id="Capa_1" xmlns="http://www.w3.org/2000/svg" xmlns:xlink="http://www.w3.org/1999/xlink" x="0px" y="0px"
	 viewBox="0 0 267.7 303.2" style="enable-background:new 0 0 267.7 303.2;" xml:space="preserve">
<style type="text/css">
	.st0{enable-background:new    ;}
	.st1{fill:#336699;}
</style>
<g class="st0">
	<path class="st1" d="M161.8,244.2h-40v-9.8l-31.2-47H76.6v40.8c0,3.4,1.7,5.2,5.2,5.5l10.7,0.7v9.8H35.8v-9.8l12.2-0.7
		c3.5-0.2,5.2-2.1,5.2-5.5V78H34.4v-8.3l32-9.6h10.3v120.2h5l36.7-41.5c0.7-0.8,0.8-1.7,0.3-2.7c-0.4-1-1.2-1.5-2.4-1.6l-10.3-1
		v-9.8h48.6v9.8l-16,1.7l-33.1,35.3l43.1,62.5l13.2,1.5V244.2z"/>
	<path class="st1" d="M235.1,73.5c0,6.3-1.6,11.5-4.7,15.3c-3.1,3.9-6.7,6.9-10.8,9c-4.1,2.2-7.6,3.9-10.6,5.2v36
		c0,0.6,0.4,1.2,1.3,1.8c0.9,0.6,1.6,1,2.1,1.2l8.5,0.9v5.7h-39.1v-5.7l8.3-0.9c0.7-0.2,1.5-0.5,2.4-1.2c0.9-0.6,1.3-1.2,1.3-1.8
		v-37.5c3.4-1.1,7-2.8,10.9-5.1c3.8-2.3,7.1-5.2,9.8-8.8c2.7-3.6,4-7.8,4-12.7c0-6.6-1.9-11.9-5.8-15.8c-3.9-3.9-8-5.8-12.4-5.7
		c-1.6,0-3.4,0.2-5.4,0.6c-2,0.4-3.8,1.1-5.3,2.2l-4.5,14.2c-2.6,1.5-4.9,2.3-7,2.3c-3.3,0-5.5-0.9-6.8-2.7c-1.3-1.8-2-3.7-2-5.9
		c0-2.4,1.3-5,4-7.7s6.3-5,10.9-6.9s9.9-2.9,15.9-2.9c6.3,0,12.2,1.1,17.5,3.3c5.3,2.2,9.5,5.3,12.7,9.3
		C233.5,63.3,235.1,68,235.1,73.5z"/>
</g>
</svg>
