<?xml version="1.0" encoding="utf-8"?>
<!-- Generator: Adobe Illustrator 26.0.3, SVG Export Plug-In . SVG Version: 6.00 Build 0)  -->
<svg version="1.1" id="Capa_1" xmlns="http://www.w3.org/2000/svg" xmlns:xlink="http://www.w3.org/1999/xlink" x="0px" y="0px"
	 viewBox="0 0 267.7 303.2" style="enable-background:new 0 0 267.7 303.2;" xml:space="preserve">
<style type="text/css">
	.st0{enable-background:new    ;}
	.st1{fill:#000033;}
</style>
<g class="st0">
	<path class="st1" d="M161.7,163.2c0,13.1-2.5,24.5-7.6,34.3c-5,9.8-12.3,17.3-21.7,22.7c-9.4,5.4-20.8,8.1-33.9,8.1
		c-3.7,0-7.4-0.2-11.1-0.7s-7.4-1-11.1-1.6v37.2c0,1.5,0.5,2.8,1.6,3.7c1.1,0.9,2.4,1.4,3.9,1.6l14.8,1.6v9.6H35.7V270l12-1.6
		c3.5-0.4,5.2-2.2,5.2-5.2V122.5H35.7v-8.2l30.8-9.5h9.8v12.5c5.7-4.4,11.8-8.1,18.4-11c6.6-3,13-4.5,19.3-4.5
		c8.6,0,16.5,2.5,23.7,7.6c7.2,5.1,13,12.2,17.4,21.4C159.5,140,161.7,150.8,161.7,163.2z M136.7,166.8c0-8.6-1.3-16.5-4-23.7
		c-2.6-7.2-6.6-12.9-11.7-17.3c-5.2-4.4-11.6-6.5-19.2-6.5c-4.2,0-8.6,0.8-13.2,2.3c-4.6,1.5-8.7,3.3-12.3,5.1v86.1
		c6.8,2.6,13.6,3.9,20.3,3.9c9.2,0,16.7-2.4,22.6-7.1c5.9-4.7,10.3-10.9,13.2-18.5C135.2,183.5,136.7,175.4,136.7,166.8z"/>
	<path class="st1" d="M240.9,54.5c0,6.3-1.6,11.5-4.7,15.3c-3.1,3.9-6.7,6.9-10.8,9c-4.1,2.2-7.6,3.9-10.6,5.2v36
		c0,0.6,0.4,1.2,1.3,1.8c0.9,0.6,1.6,1,2.1,1.2l8.5,0.9v5.7h-39.1v-5.7l8.3-0.9c0.7-0.2,1.5-0.5,2.4-1.2c0.9-0.6,1.3-1.2,1.3-1.8
		V82.5c3.4-1.1,7-2.8,10.9-5.1c3.8-2.3,7.1-5.2,9.8-8.8c2.7-3.6,4-7.8,4-12.7c0-6.6-1.9-11.9-5.8-15.8c-3.9-3.9-8-5.8-12.4-5.7
		c-1.6,0-3.4,0.2-5.4,0.6c-2,0.4-3.8,1.1-5.3,2.2L191,51.4c-2.6,1.5-4.9,2.3-7,2.3c-3.3,0-5.5-0.9-6.8-2.7c-1.3-1.8-2-3.7-2-5.9
		c0-2.4,1.3-5,4-7.7c2.6-2.7,6.3-5,10.9-6.9s9.9-2.9,15.9-2.9c6.3,0,12.2,1.1,17.5,3.3c5.3,2.2,9.5,5.3,12.7,9.3
		C239.3,44.3,240.9,49,240.9,54.5z"/>
</g>
</svg>
