<?xml version="1.0" encoding="utf-8"?>
<!-- Generator: Adobe Illustrator 26.0.3, SVG Export Plug-In . SVG Version: 6.00 Build 0)  -->
<svg version="1.1" id="Capa_1" xmlns="http://www.w3.org/2000/svg" xmlns:xlink="http://www.w3.org/1999/xlink" x="0px" y="0px"
	 viewBox="0 0 267.7 303.2" style="enable-background:new 0 0 267.7 303.2;" xml:space="preserve">
<style type="text/css">
	.st0{enable-background:new    ;}
	.st1{fill:#CCCC00;}
</style>
<g class="st0">
	<path class="st1" d="M133.1,156.5h-13.1l-2-17.5c-1.8-1.4-4.4-2.7-7.9-3.9c-3.5-1.2-7.2-1.8-11.1-1.8c-6.8,0-11.9,1.6-15.3,4.7
		c-3.3,3.1-5,7.1-5,12c0,3.7,0.9,6.9,2.6,9.5c1.7,2.6,4.6,5.1,8.7,7.6c4.1,2.5,9.6,5.4,16.6,8.6c8.7,4,15.9,8.4,21.6,13.2
		c5.7,4.8,8.5,11.3,8.5,19.5c0,12.3-4.2,21.9-12.7,28.9c-8.5,7-20.1,10.4-35,10.4c-7.7,0-14.7-0.8-21.2-2.4c-6.5-1.6-11-2.9-13.5-4
		v-33.2h12.7l3.1,21.2c2.5,1.6,5.6,3.2,9.3,4.7c3.7,1.5,8,2.3,12.9,2.3c7.2,0,12.7-2,16.6-6c3.9-4,5.9-8.5,5.9-13.4
		c0-6.5-2.7-11.6-8-15.3c-5.3-3.7-12.8-7.9-22.5-12.5c-9.1-4.4-16.1-8.9-20.9-13.5c-4.8-4.6-7.3-10.7-7.3-18.2
		c0-11.1,3.9-20,11.7-26.5c7.8-6.5,18.9-9.8,33.3-9.8c7.3,0,13.9,0.7,19.6,2c5.7,1.3,9.9,2.6,12.4,3.7V156.5z"/>
	<path class="st1" d="M216,74c0,6.3-1.6,11.5-4.7,15.3c-3.1,3.9-6.7,6.9-10.8,9c-4.1,2.2-7.6,3.9-10.6,5.2v36c0,0.6,0.4,1.2,1.3,1.8
		c0.9,0.6,1.6,1,2.1,1.2l8.5,0.9v5.7h-39.1v-5.7l8.3-0.9c0.7-0.2,1.5-0.5,2.4-1.2c0.9-0.6,1.3-1.2,1.3-1.8v-37.5
		c3.4-1.1,7-2.8,10.9-5.1c3.8-2.3,7.1-5.2,9.8-8.8c2.7-3.6,4-7.8,4-12.7c0-6.6-1.9-11.9-5.8-15.8s-8-5.8-12.4-5.7
		c-1.6,0-3.4,0.2-5.4,0.6c-2,0.4-3.8,1.1-5.3,2.2L166.1,71c-2.6,1.5-4.9,2.3-7,2.3c-3.3,0-5.5-0.9-6.8-2.7c-1.3-1.8-2-3.7-2-5.9
		c0-2.4,1.3-5,4-7.7c2.6-2.7,6.3-5,10.9-6.9s9.9-2.9,15.9-2.9c6.3,0,12.2,1.1,17.5,3.3c5.3,2.2,9.5,5.3,12.7,9.3
		C214.4,63.8,216,68.6,216,74z"/>
</g>
</svg>
