<svg xmlns="http://www.w3.org/2000/svg" id="Capa_1" x="0" y="0" enable-background="new 0 0 267.7 303.2" version="1.1" viewBox="0 0 267.7 303.2" xml:space="preserve"><style>.st0{enable-background:new    ;}
	.st1{fill:#777777;}</style><g class="st0"><path d="M169 213.9c0 12.3-4.2 21.9-12.7 28.9s-20.1 10.4-35 10.4c-6.7 0-13-.7-19-2s-10.6-2.5-13.7-3.5c-3 1.3-6.5 2.5-10.3 3.7-3.9 1.2-7.9 1.8-12.1 1.8-9.4 0-16.2-2.2-20.4-6.7-4.3-4.4-6.4-11.6-6.4-21.4v-83h-16V134l17.1-8.1 11.2-26.5h11v30.3h24.2v12.5H62.5V212c0 9.9 1 17.1 3.1 21.5s6.4 6.7 13.1 6.7c3.2 0 5.7-.5 7.7-1.5v-25h12.8l2.9 21.2c2.5 1.6 5.7 3.2 9.4 4.7s8.1 2.3 12.9 2.3c7.1 0 12.6-2 16.5-6 3.9-4 5.9-8.5 5.9-13.4 0-4.8-1.4-8.8-4.2-12-2.8-3.2-6.5-6-10.9-8.4-4.5-2.4-9.2-4.7-14.2-6.9s-9.7-4.7-14.2-7.4-8.1-6.1-10.9-10c-2.8-3.9-4.2-8.9-4.2-14.8 0-11.1 3.9-20 11.7-26.5 7.8-6.5 18.9-9.8 33.2-9.8 7.4 0 14 .7 19.7 2 5.7 1.3 9.9 2.6 12.4 3.7v29.5h-13.1l-2-17.5c-1.8-1.4-4.4-2.7-7.9-3.9-3.5-1.2-7.2-1.8-11.1-1.8-6.9 0-12 1.6-15.3 4.7s-4.9 7.1-4.9 12c0 4.6 1.4 8.5 4.2 11.6 2.8 3.1 6.4 5.8 10.8 8.1s9.1 4.5 14 6.7 9.6 4.6 14 7.3 8 6.1 10.8 10c2.9 3.9 4.3 8.9 4.3 14.8zM248.4 79.4c0 6.3-1.6 11.5-4.7 15.3-3.1 3.9-6.7 6.9-10.8 9-4.1 2.2-7.6 3.9-10.6 5.2v36c0 .6.4 1.2 1.3 1.8.9.6 1.6 1 2.1 1.2l8.5.9v5.7h-39.1v-5.7l8.3-.9c.7-.2 1.5-.5 2.4-1.2.9-.6 1.3-1.2 1.3-1.8v-37.5c3.4-1.1 7-2.8 10.9-5.1 3.8-2.3 7.1-5.2 9.8-8.8 2.7-3.6 4-7.8 4-12.7 0-6.6-1.9-11.9-5.8-15.8-3.9-3.9-8-5.8-12.4-5.7-1.6 0-3.4.2-5.4.6-2 .4-3.8 1.1-5.3 2.2l-4.5 14.2c-2.6 1.5-4.9 2.3-7 2.3-3.3 0-5.5-.9-6.8-2.7-1.3-1.8-2-3.7-2-5.9 0-2.4 1.3-5 4-7.7s6.3-5 10.9-6.9 9.9-2.9 15.9-2.9c6.3 0 12.2 1.1 17.5 3.3 5.3 2.2 9.5 5.3 12.7 9.3 3.3 4.1 4.8 8.8 4.8 14.3z" class="st1"/></g></svg>