<?xml version="1.0" encoding="utf-8"?>
<!-- Generator: Adobe Illustrator 26.0.3, SVG Export Plug-In . SVG Version: 6.00 Build 0)  -->
<svg version="1.1" id="Capa_1" xmlns="http://www.w3.org/2000/svg" xmlns:xlink="http://www.w3.org/1999/xlink" x="0px" y="0px"
	 viewBox="0 0 267.7 303.2" style="enable-background:new 0 0 267.7 303.2;" xml:space="preserve">
<style type="text/css">
	.st0{enable-background:new    ;}
	.st1{fill:#005500;}
</style>
<g class="st0">
	<path class="st1" d="M134.7,238c-6.3,2.8-11.9,4.8-17,6.2c-5.1,1.4-10.6,2.1-16.7,2.1c-9.4,0-16.2-2.2-20.4-6.7
		c-4.3-4.4-6.4-11.6-6.4-21.4v-83h-16v-8.2l17.1-8.1l11.2-26.5h11v30.3h35.3v12.5H97.5v69.8c0,9.9,1.7,16.9,5,21.1
		c3.3,4.1,8.3,6.2,15,6.2c4.9,0,10.6-1.4,17.2-4.3V238z"/>
	<path class="st1" d="M207.1,72.5c0,6.3-1.6,11.5-4.7,15.3c-3.1,3.9-6.7,6.9-10.8,9c-4.1,2.2-7.6,3.9-10.6,5.2v36
		c0,0.6,0.4,1.2,1.3,1.8c0.9,0.6,1.6,1,2.1,1.2l8.5,0.9v5.7h-39.1v-5.7l8.3-0.9c0.7-0.2,1.5-0.5,2.4-1.2c0.9-0.6,1.3-1.2,1.3-1.8
		v-37.5c3.4-1.1,7-2.8,10.9-5.1c3.8-2.3,7.1-5.2,9.8-8.8c2.7-3.6,4-7.8,4-12.7c0-6.6-1.9-11.9-5.8-15.8c-3.9-3.9-8-5.8-12.4-5.7
		c-1.6,0-3.4,0.2-5.4,0.6c-2,0.4-3.8,1.1-5.3,2.2l-4.5,14.2c-2.6,1.5-4.9,2.3-7,2.3c-3.3,0-5.5-0.9-6.8-2.7c-1.3-1.8-2-3.7-2-5.9
		c0-2.4,1.3-5,4-7.7s6.3-5,10.9-6.9s9.9-2.9,15.9-2.9c6.3,0,12.2,1.1,17.5,3.3c5.3,2.2,9.5,5.3,12.7,9.3
		C205.5,62.3,207.1,67,207.1,72.5z"/>
</g>
</svg>
