<?xml version="1.0" encoding="utf-8"?>
<!-- Generator: Adobe Illustrator 26.0.3, SVG Export Plug-In . SVG Version: 6.00 Build 0)  -->
<svg version="1.1" id="Capa_1" xmlns="http://www.w3.org/2000/svg" xmlns:xlink="http://www.w3.org/1999/xlink" x="0px" y="0px"
	 viewBox="0 0 267.7 303.2" style="enable-background:new 0 0 267.7 303.2;" xml:space="preserve">
<style type="text/css">
	.st0{enable-background:new    ;}
	.st1{fill:#FF9900;}
</style>
<g class="st0">
	<path class="st1" d="M166.4,48.5c0,4.1-1,7.3-3.1,9.7c-2.1,2.4-4.1,3.9-6.2,4.6l-21.7-12.8c-4.2,2-7.2,4.3-9,7.1
		c-1.9,2.8-2.8,7.2-2.8,13.2c0,3.8,0.4,8.7,1.1,14.5c3,23.6,6,47.2,9,70.9c3,23.6,6,47.3,9,70.9c0.3,2.3,0.5,4.8,0.5,7.6
		c0,12.5-3.8,22.8-11.4,31.1c-7.6,8.3-18.3,12.4-32.1,12.4c-7.7,0-13.3-1.2-16.8-3.5c-3.5-2.3-5.2-5.1-5.2-8.5c0-4.1,1-7.3,3.1-9.8
		s4.1-4,6-4.8l22.1,12.9c4.2-2,7.2-4.4,9-7.3c1.9-2.9,2.8-7.4,2.8-13.3c0-3.8-0.4-8.6-1.1-14.3l-15-116.8h-36V182
		c0,9.9,1.7,16.9,5,21.1c3.3,4.1,8.3,6.2,15,6.2c3.6,0,7-0.5,10.1-1.5s5.5-1.9,7.1-2.8v10c-3.3,1.8-8.2,3.6-14.5,5.5
		c-6.3,1.9-12.7,2.8-19.2,2.8c-9.4,0-16.2-2.2-20.4-6.7c-4.3-4.4-6.4-11.6-6.4-21.4v-83h-16V104L46.4,96l11.2-26.5h11v30.3h34.2
		l-1.5-12.6c-0.3-2.4-0.5-5-0.5-7.8c0-8.2,1.7-15.6,5.2-22.2c3.5-6.5,8.5-11.7,15-15.5c6.5-3.8,14.3-5.7,23.4-5.7
		c7.7,0,13.3,1.2,16.7,3.7S166.4,45.1,166.4,48.5z"/>
	<path class="st1" d="M237.1,49.5c0,6.3-1.6,11.5-4.7,15.3c-3.1,3.9-6.7,6.9-10.8,9C217.5,76,214,77.7,211,79v36
		c0,0.6,0.4,1.2,1.3,1.8c0.9,0.6,1.6,1,2.1,1.2l8.5,0.9v5.7h-39.1v-5.7l8.3-0.9c0.7-0.2,1.5-0.5,2.4-1.2c0.9-0.6,1.3-1.2,1.3-1.8
		V77.5c3.4-1.1,7-2.8,10.9-5.1c3.8-2.3,7.1-5.2,9.8-8.8c2.7-3.6,4-7.8,4-12.7c0-6.6-1.9-11.9-5.8-15.8c-3.9-3.9-8-5.8-12.4-5.7
		c-1.6,0-3.4,0.2-5.4,0.6c-2,0.4-3.8,1.1-5.3,2.2l-4.5,14.2c-2.6,1.5-4.9,2.3-7,2.3c-3.3,0-5.5-0.9-6.8-2.7c-1.3-1.8-2-3.7-2-5.9
		c0-2.4,1.3-5,4-7.7s6.3-5,10.9-6.9s9.9-2.9,15.9-2.9c6.3,0,12.2,1.1,17.5,3.3c5.3,2.2,9.5,5.3,12.7,9.3
		C235.5,39.3,237.1,44,237.1,49.5z"/>
</g>
</svg>
