<?xml version="1.0" encoding="utf-8"?>
<!-- Generator: Adobe Illustrator 26.0.3, SVG Export Plug-In . SVG Version: 6.00 Build 0)  -->
<svg version="1.1" id="Capa_1" xmlns="http://www.w3.org/2000/svg" xmlns:xlink="http://www.w3.org/1999/xlink" x="0px" y="0px"
	 viewBox="0 0 267.7 303.2" style="enable-background:new 0 0 267.7 303.2;" xml:space="preserve">
<style type="text/css">
	.st0{enable-background:new    ;}
	.st1{fill:#777777;}
</style>
<g class="st0">
	<path class="st1" d="M169,213.9c0,12.3-4.2,21.9-12.7,28.9c-8.5,7-20.1,10.4-35,10.4c-6.7,0-13-0.7-19-2c-6-1.3-10.6-2.5-13.7-3.5
		c-3,1.3-6.5,2.5-10.3,3.7c-3.9,1.2-7.9,1.8-12.1,1.8c-9.4,0-16.2-2.2-20.4-6.7c-4.3-4.4-6.4-11.6-6.4-21.4v-83h-16V134l17.1-8.1
		l11.2-26.5h11v30.3h24.2v12.5H62.5V212c0,9.9,1,17.1,3.1,21.5s6.4,6.7,13.1,6.7c3.2,0,5.7-0.5,7.7-1.5v-25h12.8l2.9,21.2
		c2.5,1.6,5.7,3.2,9.4,4.7c3.7,1.5,8.1,2.3,12.9,2.3c7.1,0,12.6-2,16.5-6c3.9-4,5.9-8.5,5.9-13.4c0-4.8-1.4-8.8-4.2-12
		c-2.8-3.2-6.5-6-10.9-8.4c-4.5-2.4-9.2-4.7-14.2-6.9s-9.7-4.7-14.2-7.4c-4.5-2.7-8.1-6.1-10.9-10c-2.8-3.9-4.2-8.9-4.2-14.8
		c0-11.1,3.9-20,11.7-26.5c7.8-6.5,18.9-9.8,33.2-9.8c7.4,0,14,0.7,19.7,2c5.7,1.3,9.9,2.6,12.4,3.7v29.5h-13.1l-2-17.5
		c-1.8-1.4-4.4-2.7-7.9-3.9c-3.5-1.2-7.2-1.8-11.1-1.8c-6.9,0-12,1.6-15.3,4.7s-4.9,7.1-4.9,12c0,4.6,1.4,8.5,4.2,11.6
		c2.8,3.1,6.4,5.8,10.8,8.1c4.4,2.3,9.1,4.5,14,6.7c4.9,2.2,9.6,4.6,14,7.3s8,6.1,10.8,10C167.6,203,169,208,169,213.9z"/>
	<path class="st1" d="M248.4,79.4c0,6.3-1.6,11.5-4.7,15.3c-3.1,3.9-6.7,6.9-10.8,9c-4.1,2.2-7.6,3.9-10.6,5.2v36
		c0,0.6,0.4,1.2,1.3,1.8c0.9,0.6,1.6,1,2.1,1.2l8.5,0.9v5.7h-39.1v-5.7l8.3-0.9c0.7-0.2,1.5-0.5,2.4-1.2c0.9-0.6,1.3-1.2,1.3-1.8
		v-37.5c3.4-1.1,7-2.8,10.9-5.1c3.8-2.3,7.1-5.2,9.8-8.8c2.7-3.6,4-7.8,4-12.7c0-6.6-1.9-11.9-5.8-15.8c-3.9-3.9-8-5.8-12.4-5.7
		c-1.6,0-3.4,0.2-5.4,0.6c-2,0.4-3.8,1.1-5.3,2.2l-4.5,14.2c-2.6,1.5-4.9,2.3-7,2.3c-3.3,0-5.5-0.9-6.8-2.7c-1.3-1.8-2-3.7-2-5.9
		c0-2.4,1.3-5,4-7.7s6.3-5,10.9-6.9s9.9-2.9,15.9-2.9c6.3,0,12.2,1.1,17.5,3.3c5.3,2.2,9.5,5.3,12.7,9.3
		C246.9,69.2,248.4,73.9,248.4,79.4z"/>
</g>
</svg>
