<svg xmlns="http://www.w3.org/2000/svg" id="Capa_1" x="0" y="0" enable-background="new 0 0 267.7 303.2" version="1.1" viewBox="0 0 267.7 303.2" xml:space="preserve"><style>.st0{enable-background:new    ;}
	.st1{fill:#FF00CC;}</style><g class="st0"><path d="M163.9 271.8h-60.5v-9.4l14.8-1.3c1.5-.2 2.7-.7 3.7-1.6 1-.9 1.5-2.1 1.5-3.7v-45.2c-4.6 2.3-10.2 4.5-16.8 6.6-6.6 2.1-12.6 3.2-18.2 3.2-10.3 0-19.1-2.7-26.4-8.2-7.4-5.5-13-12.7-17-21.9-4-9.1-6-19.2-6-30.3 0-20.4 6.3-36.6 19-48.5 12.7-11.9 30.4-17.8 53.2-17.8 4.6 0 10.3.4 17.2 1.1 6.9.7 13 1.7 18.2 2.9v158c0 1.5.5 2.7 1.5 3.6 1 .9 2.3 1.4 3.7 1.6l12.1 1.3v9.6zm-40.5-69.7v-94c-2.3-.5-4.9-1.1-7.8-1.8-2.9-.7-6.1-1-9.4-1-13.7 0-24.1 4.6-31.3 13.9S64 140.8 64 156.1c0 8.5 1.3 16.6 3.8 24.2S74.4 194 80 198.7c5.6 4.7 12.8 7 21.8 7 3.1 0 6.8-.4 11-1.2 4.3-.7 7.8-1.5 10.6-2.4zM238.2 46.6c0 6.3-1.6 11.5-4.7 15.3-3.1 3.9-6.7 6.9-10.8 9-4.1 2.2-7.6 3.9-10.6 5.2v36c0 .6.4 1.2 1.3 1.8.9.6 1.6 1 2.1 1.2l8.5.9v5.7h-39V116l8.3-.9c.7-.2 1.5-.5 2.4-1.2.9-.6 1.3-1.2 1.3-1.8V74.7c3.4-1.1 7-2.8 10.9-5.1 3.8-2.3 7.1-5.2 9.8-8.8 2.7-3.6 4-7.8 4-12.7 0-6.6-1.9-11.9-5.8-15.8-3.9-3.9-8-5.8-12.4-5.7-1.6 0-3.4.2-5.4.6-2 .4-3.8 1.1-5.3 2.2l-4.5 14.2c-2.6 1.5-4.9 2.3-7 2.3-3.3 0-5.5-.9-6.8-2.7-1.3-1.8-2-3.7-2-5.9 0-2.4 1.3-5 4-7.7s6.3-5 10.9-6.9 9.9-2.9 15.9-2.9c6.3 0 12.2 1.1 17.5 3.3 5.3 2.2 9.5 5.3 12.7 9.3 3.1 4.1 4.7 8.8 4.7 14.2z" class="st1"/></g></svg>