<?xml version="1.0" encoding="utf-8"?>
<!-- Generator: Adobe Illustrator 25.0.1, SVG Export Plug-In . SVG Version: 6.00 Build 0)  -->
<svg version="1.1" id="Capa_1" xmlns="http://www.w3.org/2000/svg" xmlns:xlink="http://www.w3.org/1999/xlink" x="0px" y="0px"
	 viewBox="0 0 331 491" style="enable-background:new 0 0 331 491;" xml:space="preserve">
<style type="text/css">
	.st0{fill:#007EAB;}
	.st1{fill:#FFFFFF;}
	.st2{fill:#007EAB;stroke:#007EAB;stroke-width:0.25;stroke-miterlimit:10;}
</style>
<g>
	<path class="st0" d="M152.8,339.34l-5.13,0.49c-0.62,0.03-1.17,0.25-1.63,0.64c-0.46,0.39-0.69,0.92-0.69,1.58v22.54
		c-4.04,1.58-7.83,2.76-11.37,3.55c-3.53,0.79-7.55,1.18-12.06,1.18c-6.74,0-12.77-1.48-18.1-4.44s-9.54-7.11-12.62-12.45
		c-3.09-5.34-4.64-11.6-4.64-18.76c0-7.3,1.56-13.59,4.69-18.86c3.12-5.28,7.41-9.35,12.85-12.21c5.44-2.86,11.65-4.29,18.62-4.29
		c4.41,0,8.32,0.33,11.74,0.99c3.42,0.66,7.08,1.64,11,2.96v17.46h-7.89l-2.02-10.9c-0.07-0.36-0.28-0.77-0.64-1.23
		c-0.36-0.46-0.76-0.76-1.18-0.89c-1.55-0.59-3-1.03-4.36-1.31c-1.36-0.28-2.33-0.42-2.89-0.42c-4.41,0-8.15,0.79-11.24,2.37
		c-3.09,1.58-5.59,3.72-7.5,6.41c-1.91,2.7-3.3,5.73-4.19,9.1s-1.33,6.85-1.33,10.43c0,8.68,2.13,15.59,6.39,20.74
		s10.35,7.72,18.27,7.72c0.46,0,1.03,0.03,1.7,0.07c0.67,0.05,1.62,0.02,2.84-0.07v-19.68c0-0.66-0.23-1.19-0.69-1.6
		c-0.46-0.41-1-0.62-1.63-0.62l-6.76-0.49v-5.18h30.48V339.34z"/>
	<path class="st0" d="M215.43,367.7h-20.32v-5.57c-1.91,1.38-3.64,2.52-5.2,3.4c-1.56,0.89-3.29,1.68-5.18,2.37s-3.76,1.04-5.6,1.04
		c-5.75,0-9.68-1.45-11.79-4.36c-2.1-2.91-3.16-6.95-3.16-12.11v-26.09h-6.56v-4.14l14.84-5.03h5.28v31.32
		c0,1.64,0.18,3.33,0.54,5.06c0.36,1.73,1.19,3.18,2.49,4.36s3.38,1.78,6.24,1.78c2.14,0,4.83-0.58,8.09-1.73v-31.61h-6.36v-4.14
		l14.75-5.03h5.13v43.1c0,0.62,0.24,1.16,0.72,1.6c0.48,0.44,1.03,0.7,1.65,0.76l4.44,0.3V367.7z"/>
	<path class="st0" d="M248.47,367.7H221v-4.73l4.64-0.3c0.59-0.07,1.11-0.32,1.55-0.76c0.44-0.44,0.67-0.98,0.67-1.6v-33.93h-6.46
		v-4.14l14.75-5.03h5.13v43.1c0,0.62,0.24,1.16,0.72,1.6c0.48,0.44,1.01,0.7,1.6,0.76l4.88,0.3V367.7z M250.99,298.9
		c0,0.66-0.25,1.43-0.76,2.32s-1.13,1.53-1.85,1.92L232,312.07h-7.05l13.81-15.29c1.15-1.25,2.16-2.1,3.03-2.54
		c0.87-0.44,1.98-0.67,3.33-0.67c2.17,0,3.69,0.58,4.56,1.75C250.55,296.49,250.99,297.69,250.99,298.9z"/>
	<path class="st0" d="M305.53,367.7h-18.79l-1.33-5.03c-1.25,0.89-2.84,1.82-4.76,2.79c-1.92,0.97-4,1.79-6.21,2.47
		c-2.22,0.67-4.41,1.01-6.58,1.01c-3.65,0-6.76-1.18-9.35-3.55s-3.87-5.54-3.87-9.52c0-2.27,0.33-4.28,0.99-6.04
		c0.66-1.76,2-3.39,4.04-4.88c2.04-1.5,5.12-2.94,9.25-4.34c4.12-1.4,9.66-2.87,16.59-4.41c0-0.56,0.01-1.22,0.02-2
		s0.04-1.42,0.07-1.95c0.03-1.28-0.18-2.65-0.64-4.09c-0.46-1.45-1.37-2.69-2.74-3.72c-1.37-1.04-3.4-1.55-6.09-1.55
		c-1.02,0-1.91,0.05-2.66,0.15c-0.76,0.1-1.32,0.18-1.68,0.25v9.57h-10.41c-0.99,0.13-1.99-0.06-3.01-0.57
		c-1.02-0.51-1.53-1.52-1.53-3.03c0-1.87,0.66-3.55,1.97-5.03c1.31-1.48,3.06-2.75,5.25-3.8c2.19-1.05,4.61-1.85,7.27-2.39
		c2.66-0.54,5.33-0.81,7.99-0.81c3.88,0,7.28,0.42,10.21,1.26c2.93,0.84,5.21,2.48,6.85,4.93c1.64,2.45,2.47,6.11,2.47,10.97v25.94
		c0,0.62,0.21,1.16,0.64,1.6c0.43,0.44,0.95,0.7,1.58,0.76l4.44,0.3V367.7z M285.41,358.33v-16.67c-4.34,0.86-7.7,1.78-10.08,2.76
		c-2.38,0.99-4.04,2.16-4.98,3.53c-0.94,1.36-1.41,3.07-1.41,5.1c0,2.07,0.67,3.84,2.02,5.3c1.35,1.46,3.07,2.19,5.18,2.19
		c1.58,0,3.25-0.25,5.03-0.76S284.36,358.79,285.41,358.33z"/>
	<path class="st0" d="M128.93,399.92c0,1.88-0.33,3.44-1,4.71s-1.55,2.26-2.66,3c-1.11,0.74-2.35,1.26-3.72,1.58
		c-1.37,0.32-2.75,0.47-4.16,0.47c-0.42,0-0.86,0-1.32,0c-0.47,0-0.99-0.03-1.58-0.09v7.48c0,0.29,0.09,0.51,0.28,0.68
		c0.19,0.17,0.42,0.26,0.69,0.29l2.77,0.24v2.23h-13.47v-2.23l2.43-0.24c0.26-0.03,0.49-0.12,0.7-0.29
		c0.21-0.17,0.31-0.39,0.31-0.68v-22.64c0-0.29-0.1-0.52-0.31-0.69c-0.21-0.17-0.44-0.27-0.7-0.3l-2.56-0.21v-2.23h12.33
		c1.49,0,2.94,0.11,4.36,0.32s2.7,0.63,3.85,1.24c1.15,0.61,2.06,1.51,2.74,2.7C128.59,396.42,128.93,397.98,128.93,399.92z
		 M122.36,400.13c0-2.05-0.49-3.64-1.48-4.77s-2.29-1.7-3.91-1.7c-0.09,0-0.33,0-0.74,0s-0.98,0-1.73,0v13.28
		c0.33,0.01,0.56,0.03,0.7,0.03c0.14,0.01,0.3,0.01,0.48,0.01c2.03-0.03,3.66-0.55,4.87-1.57
		C121.75,404.4,122.36,402.64,122.36,400.13z"/>
	<path class="st0" d="M149.1,405.97h-2.99c-0.19-0.29-0.5-0.65-0.93-1.1c-0.44-0.44-1.08-0.67-1.92-0.67c-0.62,0-1.18,0.09-1.7,0.27
		s-0.9,0.35-1.16,0.53v12.33c0,0.26,0.09,0.49,0.27,0.69c0.18,0.2,0.41,0.31,0.7,0.32l2.81,0.13v2.06h-12.59v-2.06l1.93-0.13
		c0.27-0.03,0.5-0.14,0.69-0.33c0.19-0.19,0.28-0.42,0.28-0.68v-14.8h-3.2v-1.8l6.81-2.23h2.3v4.66c0.27-0.34,0.64-0.78,1.1-1.3
		c0.46-0.52,0.97-1.04,1.53-1.56s1.12-0.95,1.7-1.29c0.57-0.34,1.11-0.52,1.61-0.52c0.5,0,1.02,0.08,1.57,0.25
		c0.54,0.17,0.95,0.35,1.2,0.55V405.97z"/>
	<path class="st0" d="M173.14,420.5h-8.19l-0.58-2.19c-0.54,0.39-1.24,0.79-2.07,1.21s-1.74,0.78-2.71,1.07
		c-0.97,0.29-1.92,0.44-2.87,0.44c-1.59,0-2.95-0.52-4.07-1.55c-1.12-1.03-1.69-2.41-1.69-4.15c0-0.99,0.14-1.87,0.43-2.63
		c0.29-0.77,0.87-1.48,1.76-2.13c0.89-0.65,2.23-1.28,4.03-1.89c1.8-0.61,4.21-1.25,7.23-1.92c0-0.24,0-0.53,0.01-0.87
		c0.01-0.34,0.02-0.62,0.03-0.85c0.01-0.56-0.08-1.15-0.28-1.78c-0.2-0.63-0.6-1.17-1.19-1.62c-0.59-0.45-1.48-0.68-2.65-0.68
		c-0.44,0-0.83,0.02-1.16,0.06c-0.33,0.04-0.57,0.08-0.73,0.11v4.17h-4.53c-0.43,0.06-0.87-0.03-1.31-0.25
		c-0.44-0.22-0.67-0.66-0.67-1.32c0-0.82,0.29-1.55,0.86-2.19c0.57-0.64,1.34-1.2,2.29-1.65c0.95-0.46,2.01-0.81,3.17-1.04
		s2.32-0.35,3.48-0.35c1.69,0,3.17,0.18,4.45,0.55c1.27,0.37,2.27,1.08,2.99,2.15c0.72,1.07,1.07,2.66,1.07,4.78v11.3
		c0,0.27,0.09,0.5,0.28,0.7c0.19,0.19,0.42,0.3,0.69,0.33l1.93,0.13V420.5z M168.46,390.53c0,0.29-0.11,0.62-0.33,1.01
		c-0.22,0.39-0.49,0.67-0.81,0.84l-7.13,3.89h-3.07l6.02-6.66c0.5-0.54,0.94-0.91,1.32-1.11c0.38-0.19,0.86-0.29,1.45-0.29
		c0.95,0,1.61,0.25,1.99,0.76C168.27,389.48,168.46,390,168.46,390.53z M164.38,416.42v-7.26c-1.89,0.37-3.36,0.77-4.39,1.2
		c-1.04,0.43-1.76,0.94-2.17,1.54s-0.61,1.34-0.61,2.22c0,0.9,0.29,1.67,0.88,2.31c0.59,0.64,1.34,0.96,2.26,0.96
		c0.69,0,1.42-0.11,2.19-0.33S163.92,416.62,164.38,416.42z"/>
	<path class="st0" d="M194.63,418.56c-0.5,0.27-1.17,0.61-2.02,1c-0.85,0.39-1.83,0.74-2.95,1.03c-1.12,0.29-2.36,0.44-3.71,0.44
		c-2.28,0-4.21-0.5-5.79-1.5c-1.58-1-2.79-2.33-3.61-3.97c-0.82-1.65-1.24-3.43-1.24-5.35c0-2.32,0.51-4.36,1.53-6.12
		c1.02-1.76,2.38-3.13,4.1-4.11s3.62-1.47,5.71-1.47c2.31,0,4.15,0.46,5.53,1.36c1.38,0.91,2.07,2.07,2.07,3.47
		c0,0.99-0.34,1.79-1.01,2.4c-0.67,0.61-1.52,0.91-2.54,0.91c-0.64,0-1.16-0.1-1.54-0.29c-0.38-0.19-0.71-0.4-0.98-0.63v-4.94
		c-0.16-0.03-0.3-0.04-0.42-0.04c-0.12,0-0.26,0-0.42,0c-0.89,0-1.76,0.3-2.62,0.91s-1.57,1.52-2.13,2.73s-0.84,2.72-0.84,4.54
		c0,2.58,0.59,4.63,1.78,6.14c1.19,1.52,2.82,2.28,4.9,2.28c0.9,0,1.79-0.15,2.65-0.45c0.87-0.3,1.62-0.63,2.27-0.98
		s1.06-0.6,1.25-0.74V418.56z"/>
	<path class="st0" d="M212.31,419.53c-0.75,0.32-1.78,0.64-3.1,0.99c-1.33,0.34-2.64,0.52-3.94,0.52c-1.95,0-3.32-0.44-4.12-1.32
		c-0.8-0.88-1.2-2.25-1.2-4.09v-13.77h-2.9v-1.76l3.39-2.02l2.36-4.68h3.05v5.65h6.1v2.81h-6.1v11.97c0,1.4,0.31,2.39,0.92,2.96
		c0.62,0.57,1.51,0.86,2.69,0.86c0.5,0,1.02-0.04,1.57-0.11c0.54-0.07,0.97-0.14,1.29-0.19V419.53z"/>
	<path class="st0" d="M225.87,420.5H213.9v-2.06l2.02-0.13c0.26-0.03,0.48-0.14,0.68-0.33s0.29-0.43,0.29-0.7v-14.78h-2.81v-1.8
		l6.42-2.19h2.23v18.78c0,0.27,0.1,0.5,0.31,0.7c0.21,0.19,0.44,0.3,0.7,0.33l2.13,0.13V420.5z M223.35,391.32
		c0,0.95-0.34,1.75-1.01,2.43c-0.67,0.67-1.48,1.01-2.43,1.01s-1.75-0.34-2.41-1.01c-0.66-0.67-0.99-1.48-0.99-2.43
		s0.33-1.75,0.99-2.41c0.66-0.66,1.46-0.99,2.41-0.99s1.75,0.33,2.43,0.99C223.02,389.58,223.35,390.38,223.35,391.32z"/>
	<path class="st0" d="M247.87,418.56c-0.5,0.27-1.17,0.61-2.02,1c-0.85,0.39-1.83,0.74-2.95,1.03c-1.12,0.29-2.36,0.44-3.71,0.44
		c-2.28,0-4.21-0.5-5.79-1.5c-1.58-1-2.79-2.33-3.61-3.97c-0.82-1.65-1.24-3.43-1.24-5.35c0-2.32,0.51-4.36,1.53-6.12
		c1.02-1.76,2.38-3.13,4.1-4.11s3.62-1.47,5.71-1.47c2.31,0,4.15,0.46,5.53,1.36c1.38,0.91,2.07,2.07,2.07,3.47
		c0,0.99-0.34,1.79-1.01,2.4c-0.67,0.61-1.52,0.91-2.54,0.91c-0.64,0-1.16-0.1-1.54-0.29c-0.38-0.19-0.71-0.4-0.98-0.63v-4.94
		c-0.16-0.03-0.3-0.04-0.42-0.04c-0.12,0-0.26,0-0.42,0c-0.89,0-1.76,0.3-2.62,0.91s-1.57,1.52-2.13,2.73s-0.84,2.72-0.84,4.54
		c0,2.58,0.59,4.63,1.78,6.14c1.19,1.52,2.82,2.28,4.9,2.28c0.9,0,1.79-0.15,2.65-0.45c0.87-0.3,1.62-0.63,2.27-0.98
		s1.06-0.6,1.25-0.74V418.56z"/>
	<path class="st0" d="M272.81,420.5h-8.19l-0.58-2.19c-0.54,0.39-1.24,0.79-2.07,1.21s-1.74,0.78-2.71,1.07
		c-0.97,0.29-1.92,0.44-2.87,0.44c-1.59,0-2.95-0.52-4.07-1.55c-1.12-1.03-1.69-2.41-1.69-4.15c0-0.99,0.14-1.87,0.43-2.63
		c0.29-0.77,0.87-1.48,1.76-2.13c0.89-0.65,2.23-1.28,4.03-1.89c1.8-0.61,4.21-1.25,7.23-1.92c0-0.24,0-0.53,0.01-0.87
		c0.01-0.34,0.02-0.62,0.03-0.85c0.01-0.56-0.08-1.15-0.28-1.78c-0.2-0.63-0.6-1.17-1.19-1.62c-0.59-0.45-1.48-0.68-2.65-0.68
		c-0.44,0-0.83,0.02-1.16,0.06c-0.33,0.04-0.57,0.08-0.73,0.11v4.17h-4.53c-0.43,0.06-0.87-0.03-1.31-0.25
		c-0.44-0.22-0.67-0.66-0.67-1.32c0-0.82,0.29-1.55,0.86-2.19c0.57-0.64,1.33-1.2,2.29-1.65c0.95-0.46,2.01-0.81,3.17-1.04
		s2.32-0.35,3.48-0.35c1.69,0,3.17,0.18,4.45,0.55c1.27,0.37,2.27,1.08,2.99,2.15c0.72,1.07,1.07,2.66,1.07,4.78v11.3
		c0,0.27,0.09,0.5,0.28,0.7c0.19,0.19,0.42,0.3,0.69,0.33l1.93,0.13V420.5z M264.04,416.42v-7.26c-1.89,0.37-3.36,0.77-4.39,1.2
		c-1.04,0.43-1.76,0.94-2.17,1.54s-0.61,1.34-0.61,2.22c0,0.9,0.29,1.67,0.88,2.31c0.59,0.64,1.34,0.96,2.26,0.96
		c0.69,0,1.42-0.11,2.19-0.33S263.59,416.62,264.04,416.42z"/>
	<path class="st0" d="M99.89,473.3h-8.66v-2.56c-0.57,0.42-1.24,0.86-1.99,1.34c-0.75,0.48-1.55,0.89-2.4,1.24
		c-0.85,0.34-1.7,0.52-2.58,0.52c-1.79,0-3.33-0.47-4.62-1.41c-1.29-0.94-2.28-2.22-2.96-3.85c-0.69-1.62-1.03-3.47-1.03-5.53
		c0-2.52,0.49-4.65,1.48-6.4c0.99-1.75,2.35-3.08,4.08-3.99c1.73-0.91,3.7-1.36,5.91-1.36c0.62,0,1.32,0.06,2.12,0.18
		c0.79,0.12,1.46,0.24,1.99,0.35v-7.09h-3.27v-1.8l6.85-2.21h2.26v29.35c0,0.27,0.09,0.5,0.28,0.7c0.19,0.19,0.42,0.3,0.69,0.33
		l1.85,0.13V473.3z M91.24,468.94v-14.2c-0.39-0.17-0.88-0.35-1.49-0.53c-0.61-0.18-1.16-0.27-1.64-0.27
		c-1.36,0-2.49,0.36-3.37,1.08c-0.89,0.72-1.55,1.69-1.99,2.91c-0.44,1.22-0.66,2.59-0.66,4.1c0,2.31,0.48,4.17,1.43,5.6
		c0.95,1.43,2.38,2.14,4.29,2.14c0.59,0,1.21-0.09,1.86-0.28C90.31,469.31,90.83,469.12,91.24,468.94z"/>
	<path class="st0" d="M122.95,471.24c-1.55,0.87-3.02,1.53-4.4,1.96c-1.39,0.43-3.02,0.64-4.88,0.64c-2.49,0-4.57-0.49-6.23-1.48
		c-1.66-0.99-2.91-2.31-3.74-3.97c-0.83-1.66-1.25-3.51-1.25-5.54c0-2.22,0.46-4.2,1.38-5.94c0.92-1.74,2.21-3.11,3.87-4.1
		c1.66-1,3.61-1.49,5.84-1.49c2.31,0,4.15,0.48,5.52,1.44c1.38,0.96,2.37,2.21,2.98,3.74c0.61,1.53,0.91,3.15,0.91,4.86v1.05h-14.44
		c0,2.39,0.59,4.29,1.77,5.69c1.18,1.4,2.85,2.11,5.02,2.11c1.48,0,2.79-0.21,3.94-0.62c1.15-0.42,2.39-1.03,3.71-1.85V471.24z
		 M116.65,459.91v-0.97c0-1.4-0.28-2.6-0.83-3.58c-0.55-0.98-1.48-1.47-2.78-1.47c-1.07,0-1.93,0.31-2.56,0.92
		c-0.63,0.62-1.08,1.39-1.35,2.31c-0.27,0.92-0.41,1.85-0.41,2.78H116.65z"/>
	<path class="st0" d="M160.61,451.3h-3.18l-0.62-4c-0.04-0.23-0.13-0.43-0.27-0.59c-0.14-0.16-0.3-0.25-0.5-0.25h-7.97v10.83h5.46
		c0.2,0,0.37-0.1,0.52-0.29c0.14-0.19,0.22-0.36,0.24-0.5l0.43-3.01h2.73v10.4h-2.73l-0.43-3.01c-0.01-0.16-0.1-0.33-0.26-0.5
		c-0.16-0.18-0.32-0.27-0.49-0.27h-5.46v9.75c0,0.29,0.09,0.51,0.28,0.68c0.19,0.17,0.42,0.26,0.69,0.29l2.86,0.24v2.23h-13.51
		v-2.23l2.38-0.24c0.26-0.03,0.49-0.12,0.7-0.29c0.21-0.16,0.31-0.39,0.31-0.68v-22.64c0-0.29-0.1-0.52-0.31-0.69
		c-0.21-0.17-0.44-0.27-0.7-0.3l-2.51-0.21v-2.23h22.37V451.3z"/>
	<path class="st0" d="M186.13,462.68c0,2.19-0.46,4.12-1.39,5.8s-2.25,2.99-3.99,3.93c-1.73,0.95-3.82,1.42-6.25,1.42
		c-2.22,0-4.18-0.45-5.89-1.35c-1.7-0.9-3.03-2.19-3.99-3.86c-0.95-1.67-1.43-3.66-1.43-5.98c0-2.41,0.49-4.45,1.48-6.14
		c0.99-1.69,2.36-2.98,4.1-3.87c1.75-0.89,3.75-1.33,6.02-1.33c2.42,0,4.47,0.48,6.16,1.45c1.68,0.97,2.96,2.31,3.85,4.02
		C185.69,458.48,186.13,460.45,186.13,462.68z M179.56,462.64c0-0.93-0.07-1.91-0.2-2.93c-0.14-1.02-0.38-1.98-0.74-2.88
		c-0.36-0.89-0.86-1.62-1.49-2.18c-0.64-0.56-1.46-0.84-2.48-0.84c-0.99,0-1.8,0.27-2.43,0.81c-0.63,0.54-1.12,1.24-1.47,2.11
		c-0.35,0.87-0.59,1.8-0.73,2.81c-0.14,1.01-0.2,1.99-0.2,2.93s0.06,1.93,0.19,2.96s0.37,2,0.71,2.9s0.84,1.63,1.48,2.19
		s1.48,0.84,2.49,0.84c1,0,1.82-0.26,2.46-0.79c0.64-0.53,1.13-1.23,1.48-2.09c0.35-0.87,0.59-1.81,0.73-2.83
		C179.49,464.63,179.56,463.63,179.56,462.64z"/>
	<path class="st0" d="M213.4,473.3h-10.83v-2.06l1.63-0.13c0.27-0.03,0.5-0.14,0.69-0.33c0.19-0.19,0.28-0.43,0.28-0.7v-10.33
		c0-1.12-0.27-2.13-0.82-3.04c-0.54-0.91-1.48-1.36-2.79-1.36c-0.87,0-1.7,0.06-2.47,0.19s-1.35,0.26-1.74,0.39v14.16
		c0,0.27,0.1,0.5,0.3,0.7c0.2,0.19,0.44,0.3,0.71,0.33l1.31,0.13v2.06H188.9v-2.06l1.57-0.13c0.27-0.03,0.5-0.14,0.69-0.33
		c0.19-0.19,0.28-0.43,0.28-0.7v-14.74h-3.03v-1.8l6.64-2.23h2.3v2.69c0.56-0.39,1.26-0.79,2.12-1.2c0.85-0.42,1.77-0.77,2.74-1.05
		c0.97-0.29,1.92-0.43,2.84-0.43c1.69,0,2.96,0.37,3.82,1.12c0.86,0.75,1.44,1.7,1.73,2.87c0.29,1.17,0.44,2.39,0.44,3.66v11.13
		c0,0.27,0.1,0.5,0.3,0.7c0.2,0.19,0.44,0.3,0.71,0.33l1.35,0.13V473.3z"/>
	<path class="st0" d="M236.9,471.24c-1.55,0.87-3.02,1.53-4.4,1.96c-1.39,0.43-3.02,0.64-4.88,0.64c-2.49,0-4.57-0.49-6.23-1.48
		c-1.66-0.99-2.91-2.31-3.74-3.97c-0.83-1.66-1.25-3.51-1.25-5.54c0-2.22,0.46-4.2,1.38-5.94c0.92-1.74,2.21-3.11,3.87-4.1
		c1.66-1,3.61-1.49,5.84-1.49c2.31,0,4.15,0.48,5.52,1.44c1.38,0.96,2.37,2.21,2.98,3.74c0.61,1.53,0.91,3.15,0.91,4.86v1.05h-14.44
		c0,2.39,0.59,4.29,1.77,5.69c1.18,1.4,2.85,2.11,5.02,2.11c1.48,0,2.79-0.21,3.94-0.62c1.15-0.42,2.39-1.03,3.71-1.85V471.24z
		 M230.6,459.91v-0.97c0-1.4-0.28-2.6-0.83-3.58c-0.55-0.98-1.48-1.47-2.78-1.47c-1.07,0-1.93,0.31-2.56,0.92
		c-0.63,0.62-1.08,1.39-1.35,2.31c-0.27,0.92-0.41,1.85-0.41,2.78H230.6z M234.32,443.33c0,0.29-0.11,0.62-0.33,1.01
		c-0.22,0.39-0.49,0.67-0.81,0.84l-7.13,3.89h-3.07l6.02-6.66c0.5-0.54,0.94-0.91,1.32-1.11c0.38-0.19,0.86-0.29,1.45-0.29
		c0.95,0,1.61,0.25,1.99,0.76C234.13,442.28,234.32,442.8,234.32,443.33z"/>
	<path class="st0" d="M254.58,472.33c-0.75,0.32-1.78,0.64-3.1,0.99c-1.33,0.34-2.64,0.52-3.94,0.52c-1.95,0-3.32-0.44-4.12-1.32
		c-0.8-0.88-1.2-2.25-1.2-4.09v-13.77h-2.9v-1.76l3.39-2.02l2.36-4.68h3.05v5.65h6.1v2.81h-6.1v11.97c0,1.4,0.31,2.39,0.92,2.96
		c0.62,0.57,1.51,0.86,2.69,0.86c0.5,0,1.02-0.04,1.57-0.11c0.54-0.07,0.97-0.14,1.29-0.19V472.33z"/>
	<path class="st0" d="M268.14,473.3h-11.97v-2.06l2.02-0.13c0.26-0.03,0.48-0.14,0.68-0.33s0.29-0.43,0.29-0.7v-14.78h-2.81v-1.8
		l6.42-2.19H265v18.78c0,0.27,0.1,0.5,0.31,0.7c0.21,0.19,0.44,0.3,0.7,0.33l2.13,0.13V473.3z M265.62,444.12
		c0,0.95-0.34,1.75-1.01,2.43c-0.67,0.67-1.48,1.01-2.43,1.01s-1.75-0.34-2.41-1.01c-0.66-0.67-0.99-1.48-0.99-2.43
		s0.33-1.75,0.99-2.41c0.66-0.66,1.46-0.99,2.41-0.99s1.75,0.33,2.43,0.99C265.29,442.38,265.62,443.18,265.62,444.12z"/>
	<path class="st0" d="M290.14,471.36c-0.5,0.27-1.17,0.61-2.02,1c-0.85,0.39-1.83,0.74-2.95,1.03c-1.12,0.29-2.36,0.44-3.71,0.44
		c-2.28,0-4.21-0.5-5.79-1.5c-1.58-1-2.79-2.33-3.61-3.97c-0.82-1.65-1.24-3.43-1.24-5.35c0-2.32,0.51-4.36,1.53-6.12
		c1.02-1.76,2.38-3.13,4.1-4.11c1.72-0.98,3.62-1.47,5.71-1.47c2.31,0,4.15,0.46,5.53,1.36c1.38,0.91,2.07,2.07,2.07,3.47
		c0,0.99-0.34,1.79-1.01,2.4c-0.67,0.61-1.52,0.91-2.54,0.91c-0.64,0-1.16-0.1-1.54-0.29c-0.38-0.19-0.71-0.4-0.98-0.63v-4.94
		c-0.16-0.03-0.3-0.04-0.42-0.04c-0.12,0-0.26,0-0.42,0c-0.89,0-1.76,0.3-2.62,0.91c-0.86,0.61-1.57,1.52-2.13,2.73
		c-0.56,1.21-0.84,2.73-0.84,4.54c0,2.58,0.59,4.63,1.78,6.14c1.19,1.52,2.82,2.28,4.9,2.28c0.9,0,1.79-0.15,2.65-0.45
		c0.87-0.3,1.62-0.63,2.27-0.98c0.64-0.35,1.06-0.6,1.25-0.74V471.36z"/>
	<path class="st0" d="M315.08,473.3h-8.19l-0.58-2.19c-0.54,0.39-1.24,0.79-2.07,1.21c-0.84,0.42-1.74,0.78-2.71,1.07
		c-0.97,0.29-1.92,0.44-2.87,0.44c-1.59,0-2.95-0.52-4.07-1.55c-1.12-1.03-1.69-2.41-1.69-4.15c0-0.99,0.14-1.87,0.43-2.63
		c0.29-0.77,0.87-1.47,1.76-2.13c0.89-0.65,2.23-1.28,4.03-1.89c1.8-0.61,4.21-1.25,7.23-1.92c0-0.24,0-0.53,0.01-0.87
		c0.01-0.34,0.02-0.62,0.03-0.85c0.01-0.56-0.08-1.15-0.28-1.78c-0.2-0.63-0.6-1.17-1.19-1.62c-0.59-0.45-1.48-0.68-2.65-0.68
		c-0.44,0-0.83,0.02-1.16,0.06c-0.33,0.04-0.57,0.08-0.73,0.11v4.17h-4.53c-0.43,0.06-0.87-0.02-1.31-0.25
		c-0.44-0.22-0.67-0.66-0.67-1.32c0-0.82,0.29-1.55,0.86-2.19c0.57-0.64,1.33-1.2,2.29-1.65c0.95-0.46,2.01-0.81,3.17-1.04
		s2.32-0.35,3.48-0.35c1.69,0,3.17,0.18,4.45,0.55c1.27,0.37,2.27,1.08,2.99,2.15c0.72,1.07,1.07,2.66,1.07,4.78v11.3
		c0,0.27,0.09,0.5,0.28,0.7c0.19,0.19,0.42,0.3,0.69,0.33l1.93,0.13V473.3z M306.32,469.22v-7.26c-1.89,0.37-3.36,0.77-4.39,1.2
		c-1.04,0.43-1.76,0.94-2.17,1.54c-0.41,0.59-0.61,1.34-0.61,2.22c0,0.9,0.29,1.67,0.88,2.31c0.59,0.64,1.34,0.96,2.26,0.96
		c0.69,0,1.42-0.11,2.19-0.33C305.24,469.63,305.86,469.42,306.32,469.22z"/>
</g>
<g>
	<path class="st0" d="M274.89,138.32c0,38.96-0.15,76.64,0.12,114.31c0.05,7.47-2.78,9.23-9.81,9.14
		c-13.53-0.18-27.26-0.55-40.54,1.53c-9.3,1.46-18.2,6.4-26.84,10.69c-3.96,1.97-6.17,2.74-10.38,0.02
		c-14.71-9.5-30.69-15.25-48.7-14.17c-9.46,0.57-18.98,0.1-28.84,0.1c0-18.89-0.12-36.42,0.04-53.95
		c0.12-12.33,0.57-24.65,0.99-36.97c0.21-6.11-2.13-10.18-8.51-10.85c-6.63-0.69-9.72,3.26-10.33,9.24
		c-0.5,4.98-0.39,10.03-0.46,15.06c-0.39,26.9-0.75,53.8-1.15,80.69c-0.17,11.46,1.71,13.51,13.41,13.84
		c11.81,0.33,23.62,0.4,35.43,0.75c16.44,0.49,31.21,5.53,43.89,16.3c8.12,6.89,10.53,6.66,18.38-0.1
		c10.7-9.2,23.35-13.99,37.33-14.47c14.32-0.49,28.66-0.12,43-0.18c8.85-0.03,11.76-2.8,11.88-11.62
		c0.64-45.28,1.23-90.56,1.8-135.84c0.11-8.81-3.63-13.42-12.38-13.4c-18.57,0.04-37.28-0.38-55.65,1.76
		c-9.66,1.12-18.64,7.51-28.14,10.94c-2.97,1.07-7.44,1.54-9.85,0.06c-16.46-10.1-34.1-15.21-53.42-14.49
		c-7.58,0.28-12.69,4.08-12.91,9.77c-0.22,5.8,4.51,9.86,12.5,9.94c15.19,0.14,30.9,0.21,42.6,11.09c11.82,11,20.94,9.72,32.48-0.31
		c5.63-4.9,14.37-7.78,21.99-8.5C246.94,137.37,261.25,138.32,274.89,138.32z"/>
	<path class="st0" d="M77.65,15.02c9.73-0.01,21.02-0.56,30.65,0.43c14.47,1.5,25,9.46,31.39,22.71c6.27,13,5.44,26.9,3.78,40.4
		c-1.74,14.14-8.65,25.88-22.53,32.07c-4.69,2.09-12.21,2.98-13.47,6.3c-1.56,4.1,2.35,10.11,3.37,15.39
		c1.08,5.57,1.08,12.61-8.51,12.09c-3.62-0.19-8.94-2.29-11.9-4.39c-4.64-3.29-8.9-7.23-13.59-10.5
		c-10.16-7.08-18.83-15.27-33.36-15.77c-14.53-0.49-26.32-11-29.81-25.73c-2.71-11.47-1.89-23.85-2.05-35.83
		c-0.19-14.63,14.79-33.39,29.15-35.4C53.01,15.1,77.65,15.02,77.65,15.02z M97.69,96.32c10.17,0.3,18.83-1.88,23.8-11.73
		c0.97-1.93,1.87-4.11,1.98-6.21c0.42-7.77,0.61-15.56,0.68-23.34c0.1-11.19-8.43-19.91-19.59-20.06
		c-17.02-0.23-34.04-0.39-51.07-0.5c-13.07-0.09-19.9,5.76-21.12,18.72c-0.75,7.89-0.61,15.86-0.88,23.8
		c-0.34,10.01,6.33,17.49,16.81,18.28c12.27,0.92,23.4,2.91,32.56,13.95c0.22,0.26,0.63,0.15,0.7-0.18
		C83.79,97.93,86.49,95.99,97.69,96.32z"/>
	<path class="st0" d="M124.79,163c-4.99,5.05-0.69,13.01,6.88,13.36c13.05,0.61,25.23,3.93,36.84,9.73
		c6.28,3.14,10.96,0.14,13.6-5.08c2.79-5.52-1-9.64-5.63-12.02c-11.25-5.78-22.81-10.83-35.94-10.18
		C133.56,158.57,128.31,159.43,124.79,163z"/>
	<path class="st0" d="M136.59,188.3c-8.08-0.12-14.35,3.82-14.44,8.6c-0.13,7.01,5.01,9.28,10.67,10.41
		c7.53,1.51,15.18,2.37,22.67,4.04c3.53,0.79,6.85,2.68,10.16,4.28c6.37,3.08,12.33,2.02,14.97-2.82c3.01-5.52,1.18-9.52-5.69-13.68
		C162.67,191.7,148.99,189.67,136.59,188.3z"/>
	<path class="st0" d="M211.92,199.69c-6.92,2.68-9.14,8.89-6.34,13.58c3.58,5.98,9.65,5.58,14.57,3.21
		c9.66-4.65,19.47-7.45,30.22-7.1c2.18,0.07,4.43-0.74,6.58-1.39c4.61-1.39,6.67-4.24,6.7-9.42c0.04-5.78-3.85-7.12-7.77-8.51
		c-2.04-0.72-4.47-0.33-6.73-0.44C248.98,189.04,223.89,195.06,211.92,199.69z"/>
	<path class="st0" d="M134.75,219.35c-6.54-0.7-11.76,0.94-12.88,8.19c-0.84,5.47,4.29,8.59,12.21,10.23
		c11.56,2.4,23.07,5.41,34.21,9.27c6.2,2.15,9.71,0.07,12.52-4.46c3-4.86,0.2-8.79-3.72-11.38
		C164.27,222.72,149.79,219.84,134.75,219.35z"/>
	<path class="st0" d="M213.88,168.21c-4.46,1.62-9.08,4.41-8.77,10.81c0.31,6.53,6.95,10.03,13.2,8.06
		c11.26-3.54,22.73-6.71,34.34-8.71c8.14-1.4,11.44-3.02,11.29-9.64c-0.15-6.61-3.2-8.89-11.85-8.79c-1.75,0.02-3.5,0.15-5.26,0.23
		C246.64,159.53,224.48,164.37,213.88,168.21z"/>
	<path class="st0" d="M204.38,237.91c0.27,7.98,6.25,12.55,11.61,10.12c12.45-5.64,25.2-8.94,39-8.92
		c5.83,0.01,8.41-4.91,8.14-10.57c-0.25-5.25-3.86-7.32-8.64-7.58c-16.1-0.87-31.38,2.18-45.26,10.53
		C206.66,233.06,204.58,235.64,204.38,237.91z"/>
	<path class="st1" d="M48.31,95.28C37.83,94.49,31.16,87.01,31.5,77c0.27-7.94,0.13-15.91,0.88-23.8
		c1.22-12.96,8.05-18.8,21.12-18.72c17.02,0.11,34.04,0.28,51.07,0.5c11.16,0.15,19.69,8.87,19.59,20.06
		c-0.07,7.78-0.26,15.57-0.68,23.34c-0.11,2.11-1.01,4.29-1.98,6.21c-4.97,9.84-13.63,12.02-23.8,11.73
		c-11.48-0.34-14.02,1.7-16.29,13.56C72.14,98.27,60.82,96.22,48.31,95.28z"/>
	<g>
		<path class="st2" d="M59.9,58.18c0,0.96-0.22,1.89-0.66,2.81s-1.05,1.73-1.82,2.46c-0.78,0.73-1.67,1.31-2.69,1.74
			s-2.1,0.64-3.25,0.64c-1.3,0-2.47-0.21-3.52-0.64s-1.88-0.96-2.49-1.6s-0.92-1.3-0.92-1.96c0-0.56,0.12-0.99,0.35-1.3
			s0.52-0.52,0.86-0.64s0.66-0.18,0.97-0.18c0.27,0,0.52,0.04,0.73,0.12s0.4,0.16,0.56,0.24l1,3.35c0.31,0.09,0.74,0.22,1.3,0.41
			c0.55,0.19,1.03,0.28,1.43,0.28c0.57,0,1.08-0.18,1.54-0.55s0.85-0.84,1.19-1.42s0.59-1.2,0.76-1.86s0.26-1.28,0.26-1.87
			c0-1.14-0.25-2.07-0.75-2.79s-1.33-1.08-2.49-1.08c-0.53,0-0.92,0.08-1.17,0.23l-0.81-0.78l4.56-6.12h-6.21
			c-0.15,0-0.28,0.07-0.4,0.21s-0.19,0.28-0.21,0.42l-0.21,2.67h-2.12v-6.71h13.37v1.38l-5.46,7.22c1.23,0,2.32,0.26,3.27,0.79
			s1.69,1.2,2.23,2.01S59.9,57.33,59.9,58.18z"/>
	</g>
	<g>
		<path class="st2" d="M80.38,76.25c0,1.04-0.18,1.91-0.53,2.64s-0.79,1.32-1.31,1.79s-1.04,0.84-1.57,1.11
			c-0.52,0.27-1.14,0.51-1.84,0.73v6.27c0,0.41,0.22,0.63,0.66,0.66l1.92,0.16v1.55h-9.18v-1.55l1.92-0.16
			c0.44-0.03,0.66-0.25,0.66-0.66v-6.72c0.7-0.26,1.31-0.54,1.82-0.83c0.51-0.29,1.03-0.66,1.54-1.12s0.95-1.01,1.3-1.66
			s0.53-1.4,0.53-2.26c0-0.57-0.09-1.15-0.29-1.74c-0.19-0.59-0.48-1.09-0.88-1.49c-0.39-0.41-0.91-0.61-1.54-0.61
			c-0.3,0-0.55,0.02-0.73,0.05s-0.4,0.12-0.64,0.27l-1.04,2.56c-0.54,0.18-0.98,0.26-1.33,0.26c-0.33,0-0.69-0.1-1.07-0.31
			s-0.57-0.64-0.57-1.28c0-0.87,0.28-1.55,0.83-2.04s1.25-0.83,2.07-1.03c0.82-0.2,1.64-0.29,2.45-0.29c1.31,0,2.48,0.23,3.5,0.7
			s1.83,1.13,2.42,1.98C80.09,74.09,80.38,75.09,80.38,76.25z"/>
	</g>
	<g>
		<path class="st2" d="M105.5,50.23c0,0.6-0.21,1.09-0.63,1.49s-0.83,0.67-1.23,0.81l-2.58-2.75c-0.26,0.12-0.47,0.3-0.63,0.55
			s-0.23,0.7-0.23,1.34c0,0.29,0.04,0.85,0.13,1.67s0.2,1.81,0.34,2.96s0.3,2.38,0.48,3.69s0.35,2.61,0.52,3.9s0.33,2.49,0.47,3.59
			s0.26,2.01,0.34,2.74s0.13,1.18,0.13,1.35c0,1.01-0.24,1.91-0.71,2.7s-1.14,1.42-2.01,1.88s-1.9,0.68-3.09,0.68
			c-0.66,0-1.25-0.13-1.76-0.4s-0.9-0.59-1.18-0.98c-0.28-0.39-0.42-0.78-0.42-1.17c0-0.61,0.21-1.11,0.63-1.5S94.9,72.12,95.3,72
			l2.61,2.77c0.25-0.13,0.46-0.31,0.61-0.56c0.15-0.25,0.23-0.69,0.23-1.33c0-0.29-0.04-0.85-0.13-1.68s-0.21-1.81-0.35-2.97
			s-0.31-2.38-0.48-3.69c-0.17-1.31-0.34-2.61-0.51-3.9s-0.33-2.49-0.48-3.6s-0.26-2.02-0.35-2.75s-0.13-1.18-0.13-1.35
			c0-1.52,0.52-2.78,1.57-3.76s2.47-1.48,4.26-1.48c0.67,0,1.26,0.13,1.77,0.39c0.5,0.26,0.89,0.58,1.17,0.97
			C105.36,49.45,105.5,49.84,105.5,50.23z"/>
	</g>
</g>
</svg>
