<svg xmlns="http://www.w3.org/2000/svg" id="Capa_1" x="0" y="0" enable-background="new 0 0 331 491" version="1.1" viewBox="0 0 331 491" xml:space="preserve"><style>.st0{fill:#007EAB;}
	.st1{fill:#FFFFFF;}
	.st2{fill:#007EAB;stroke:#007EAB;stroke-width:0.25;stroke-miterlimit:10;}</style><path d="m152.8 339.34-5.13.49c-.62.03-1.17.25-1.63.64-.46.39-.69.92-.69 1.58v22.54c-4.04 1.58-7.83 2.76-11.37 3.55-3.53.79-7.55 1.18-12.06 1.18-6.74 0-12.77-1.48-18.1-4.44s-9.54-7.11-12.62-12.45c-3.09-5.34-4.64-11.6-4.64-18.76 0-7.3 1.56-13.59 4.69-18.86 3.12-5.28 7.41-9.35 12.85-12.21 5.44-2.86 11.65-4.29 18.62-4.29 4.41 0 8.32.33 11.74.99 3.42.66 7.08 1.64 11 2.96v17.46h-7.89l-2.02-10.9c-.07-.36-.28-.77-.64-1.23-.36-.46-.76-.76-1.18-.89-1.55-.59-3-1.03-4.36-1.31-1.36-.28-2.33-.42-2.89-.42-4.41 0-8.15.79-11.24 2.37s-5.59 3.72-7.5 6.41c-1.91 2.7-3.3 5.73-4.19 9.1s-1.33 6.85-1.33 10.43c0 8.68 2.13 15.59 6.39 20.74s10.35 7.72 18.27 7.72c.46 0 1.03.03 1.7.07.67.05 1.62.02 2.84-.07v-19.68c0-.66-.23-1.19-.69-1.6-.46-.41-1-.62-1.63-.62l-6.76-.49v-5.18h30.48v5.17zM215.43 367.7h-20.32v-5.57c-1.91 1.38-3.64 2.52-5.2 3.4-1.56.89-3.29 1.68-5.18 2.37s-3.76 1.04-5.6 1.04c-5.75 0-9.68-1.45-11.79-4.36-2.1-2.91-3.16-6.95-3.16-12.11v-26.09h-6.56v-4.14l14.84-5.03h5.28v31.32c0 1.64.18 3.33.54 5.06.36 1.73 1.19 3.18 2.49 4.36s3.38 1.78 6.24 1.78c2.14 0 4.83-.58 8.09-1.73v-31.61h-6.36v-4.14l14.75-5.03h5.13v43.1c0 .62.24 1.16.72 1.6.48.44 1.03.7 1.65.76l4.44.3v4.72zM248.47 367.7H221v-4.73l4.64-.3c.59-.07 1.11-.32 1.55-.76.44-.44.67-.98.67-1.6v-33.93h-6.46v-4.14l14.75-5.03h5.13v43.1c0 .62.24 1.16.72 1.6.48.44 1.01.7 1.6.76l4.88.3v4.73zm2.52-68.8c0 .66-.25 1.43-.76 2.32s-1.13 1.53-1.85 1.92L232 312.07h-7.05l13.81-15.29c1.15-1.25 2.16-2.1 3.03-2.54.87-.44 1.98-.67 3.33-.67 2.17 0 3.69.58 4.56 1.75.87 1.17 1.31 2.37 1.31 3.58zM305.53 367.7h-18.79l-1.33-5.03c-1.25.89-2.84 1.82-4.76 2.79s-4 1.79-6.21 2.47c-2.22.67-4.41 1.01-6.58 1.01-3.65 0-6.76-1.18-9.35-3.55s-3.87-5.54-3.87-9.52c0-2.27.33-4.28.99-6.04.66-1.76 2-3.39 4.04-4.88 2.04-1.5 5.12-2.94 9.25-4.34 4.12-1.4 9.66-2.87 16.59-4.41 0-.56.01-1.22.02-2s.04-1.42.07-1.95c.03-1.28-.18-2.65-.64-4.09-.46-1.45-1.37-2.69-2.74-3.72-1.37-1.04-3.4-1.55-6.09-1.55-1.02 0-1.91.05-2.66.15-.76.1-1.32.18-1.68.25v9.57h-10.41c-.99.13-1.99-.06-3.01-.57-1.02-.51-1.53-1.52-1.53-3.03 0-1.87.66-3.55 1.97-5.03 1.31-1.48 3.06-2.75 5.25-3.8 2.19-1.05 4.61-1.85 7.27-2.39 2.66-.54 5.33-.81 7.99-.81 3.88 0 7.28.42 10.21 1.26 2.93.84 5.21 2.48 6.85 4.93 1.64 2.45 2.47 6.11 2.47 10.97v25.94c0 .62.21 1.16.64 1.6.43.44.95.7 1.58.76l4.44.3v4.71zm-20.12-9.37v-16.67c-4.34.86-7.7 1.78-10.08 2.76-2.38.99-4.04 2.16-4.98 3.53-.94 1.36-1.41 3.07-1.41 5.1 0 2.07.67 3.84 2.02 5.3s3.07 2.19 5.18 2.19c1.58 0 3.25-.25 5.03-.76s3.19-.99 4.24-1.45zM128.93 399.92c0 1.88-.33 3.44-1 4.71s-1.55 2.26-2.66 3c-1.11.74-2.35 1.26-3.72 1.58-1.37.32-2.75.47-4.16.47h-1.32c-.47 0-.99-.03-1.58-.09v7.48c0 .29.09.51.28.68.19.17.42.26.69.29l2.77.24v2.23h-13.47v-2.23l2.43-.24c.26-.03.49-.12.7-.29.21-.17.31-.39.31-.68v-22.64c0-.29-.1-.52-.31-.69a1.33 1.33 0 0 0-.7-.3l-2.56-.21V391h12.33c1.49 0 2.94.11 4.36.32s2.7.63 3.85 1.24 2.06 1.51 2.74 2.7c.68 1.16 1.02 2.72 1.02 4.66zm-6.57.21c0-2.05-.49-3.64-1.48-4.77s-2.29-1.7-3.91-1.7H114.5v13.28c.33.01.56.03.7.03.14.01.3.01.48.01 2.03-.03 3.66-.55 4.87-1.57 1.2-1.01 1.81-2.77 1.81-5.28zM149.1 405.97h-2.99c-.19-.29-.5-.65-.93-1.1-.44-.44-1.08-.67-1.92-.67-.62 0-1.18.09-1.7.27s-.9.35-1.16.53v12.33c0 .26.09.49.27.69.18.2.41.31.7.32l2.81.13v2.06h-12.59v-2.06l1.93-.13c.27-.03.5-.14.69-.33.19-.19.28-.42.28-.68v-14.8h-3.2v-1.8l6.81-2.23h2.3v4.66c.27-.34.64-.78 1.1-1.3.46-.52.97-1.04 1.53-1.56s1.12-.95 1.7-1.29c.57-.34 1.11-.52 1.61-.52s1.02.08 1.57.25c.54.17.95.35 1.2.55v6.68zM173.14 420.5h-8.19l-.58-2.19c-.54.39-1.24.79-2.07 1.21s-1.74.78-2.71 1.07c-.97.29-1.92.44-2.87.44-1.59 0-2.95-.52-4.07-1.55s-1.69-2.41-1.69-4.15c0-.99.14-1.87.43-2.63.29-.77.87-1.48 1.76-2.13.89-.65 2.23-1.28 4.03-1.89 1.8-.61 4.21-1.25 7.23-1.92 0-.24 0-.53.01-.87.01-.34.02-.62.03-.85.01-.56-.08-1.15-.28-1.78-.2-.63-.6-1.17-1.19-1.62-.59-.45-1.48-.68-2.65-.68a9.817 9.817 0 0 0-1.89.17v4.17h-4.53c-.43.06-.87-.03-1.31-.25-.44-.22-.67-.66-.67-1.32 0-.82.29-1.55.86-2.19.57-.64 1.34-1.2 2.29-1.65.95-.46 2.01-.81 3.17-1.04s2.32-.35 3.48-.35c1.69 0 3.17.18 4.45.55 1.27.37 2.27 1.08 2.99 2.15.72 1.07 1.07 2.66 1.07 4.78v11.3c0 .27.09.5.28.7.19.19.42.3.69.33l1.93.13v2.06zm-4.68-29.97c0 .29-.11.62-.33 1.01-.22.39-.49.67-.81.84l-7.13 3.89h-3.07l6.02-6.66c.5-.54.94-.91 1.32-1.11.38-.19.86-.29 1.45-.29.95 0 1.61.25 1.99.76.37.51.56 1.03.56 1.56zm-4.08 25.89v-7.26c-1.89.37-3.36.77-4.39 1.2-1.04.43-1.76.94-2.17 1.54s-.61 1.34-.61 2.22c0 .9.29 1.67.88 2.31.59.64 1.34.96 2.26.96.69 0 1.42-.11 2.19-.33s1.38-.44 1.84-.64zM194.63 418.56c-.5.27-1.17.61-2.02 1-.85.39-1.83.74-2.95 1.03-1.12.29-2.36.44-3.71.44-2.28 0-4.21-.5-5.79-1.5s-2.79-2.33-3.61-3.97c-.82-1.65-1.24-3.43-1.24-5.35 0-2.32.51-4.36 1.53-6.12 1.02-1.76 2.38-3.13 4.1-4.11s3.62-1.47 5.71-1.47c2.31 0 4.15.46 5.53 1.36 1.38.91 2.07 2.07 2.07 3.47 0 .99-.34 1.79-1.01 2.4-.67.61-1.52.91-2.54.91-.64 0-1.16-.1-1.54-.29-.38-.19-.71-.4-.98-.63v-4.94c-.16-.03-.3-.04-.42-.04h-.42c-.89 0-1.76.3-2.62.91s-1.57 1.52-2.13 2.73-.84 2.72-.84 4.54c0 2.58.59 4.63 1.78 6.14 1.19 1.52 2.82 2.28 4.9 2.28.9 0 1.79-.15 2.65-.45.87-.3 1.62-.63 2.27-.98s1.06-.6 1.25-.74v3.38zM212.31 419.53c-.75.32-1.78.64-3.1.99-1.33.34-2.64.52-3.94.52-1.95 0-3.32-.44-4.12-1.32-.8-.88-1.2-2.25-1.2-4.09v-13.77h-2.9v-1.76l3.39-2.02 2.36-4.68h3.05v5.65h6.1v2.81h-6.1v11.97c0 1.4.31 2.39.92 2.96.62.57 1.51.86 2.69.86.5 0 1.02-.04 1.57-.11.54-.07.97-.14 1.29-.19v2.18zM225.87 420.5H213.9v-2.06l2.02-.13c.26-.03.48-.14.68-.33s.29-.43.29-.7V402.5h-2.81v-1.8l6.42-2.19h2.23v18.78c0 .27.1.5.31.7.21.19.44.3.7.33l2.13.13v2.05zm-2.52-29.18c0 .95-.34 1.75-1.01 2.43-.67.67-1.48 1.01-2.43 1.01s-1.75-.34-2.41-1.01c-.66-.67-.99-1.48-.99-2.43s.33-1.75.99-2.41c.66-.66 1.46-.99 2.41-.99s1.75.33 2.43.99c.68.67 1.01 1.47 1.01 2.41zM247.87 418.56c-.5.27-1.17.61-2.02 1-.85.39-1.83.74-2.95 1.03-1.12.29-2.36.44-3.71.44-2.28 0-4.21-.5-5.79-1.5s-2.79-2.33-3.61-3.97c-.82-1.65-1.24-3.43-1.24-5.35 0-2.32.51-4.36 1.53-6.12 1.02-1.76 2.38-3.13 4.1-4.11s3.62-1.47 5.71-1.47c2.31 0 4.15.46 5.53 1.36 1.38.91 2.07 2.07 2.07 3.47 0 .99-.34 1.79-1.01 2.4-.67.61-1.52.91-2.54.91-.64 0-1.16-.1-1.54-.29-.38-.19-.71-.4-.98-.63v-4.94c-.16-.03-.3-.04-.42-.04h-.42c-.89 0-1.76.3-2.62.91s-1.57 1.52-2.13 2.73-.84 2.72-.84 4.54c0 2.58.59 4.63 1.78 6.14 1.19 1.52 2.82 2.28 4.9 2.28.9 0 1.79-.15 2.65-.45.87-.3 1.62-.63 2.27-.98s1.06-.6 1.25-.74v3.38zM272.81 420.5h-8.19l-.58-2.19c-.54.39-1.24.79-2.07 1.21s-1.74.78-2.71 1.07c-.97.29-1.92.44-2.87.44-1.59 0-2.95-.52-4.07-1.55s-1.69-2.41-1.69-4.15c0-.99.14-1.87.43-2.63.29-.77.87-1.48 1.76-2.13.89-.65 2.23-1.28 4.03-1.89 1.8-.61 4.21-1.25 7.23-1.92 0-.24 0-.53.01-.87.01-.34.02-.62.03-.85.01-.56-.08-1.15-.28-1.78-.2-.63-.6-1.17-1.19-1.62-.59-.45-1.48-.68-2.65-.68a9.817 9.817 0 0 0-1.89.17v4.17h-4.53c-.43.06-.87-.03-1.31-.25-.44-.22-.67-.66-.67-1.32 0-.82.29-1.55.86-2.19.57-.64 1.33-1.2 2.29-1.65.95-.46 2.01-.81 3.17-1.04s2.32-.35 3.48-.35c1.69 0 3.17.18 4.45.55 1.27.37 2.27 1.08 2.99 2.15.72 1.07 1.07 2.66 1.07 4.78v11.3c0 .27.09.5.28.7.19.19.42.3.69.33l1.93.13v2.06zm-8.77-4.08v-7.26c-1.89.37-3.36.77-4.39 1.2-1.04.43-1.76.94-2.17 1.54s-.61 1.34-.61 2.22c0 .9.29 1.67.88 2.31.59.64 1.34.96 2.26.96.69 0 1.42-.11 2.19-.33s1.39-.44 1.84-.64zM99.89 473.3h-8.66v-2.56c-.57.42-1.24.86-1.99 1.34-.75.48-1.55.89-2.4 1.24-.85.34-1.7.52-2.58.52-1.79 0-3.33-.47-4.62-1.41s-2.28-2.22-2.96-3.85c-.69-1.62-1.03-3.47-1.03-5.53 0-2.52.49-4.65 1.48-6.4s2.35-3.08 4.08-3.99c1.73-.91 3.7-1.36 5.91-1.36.62 0 1.32.06 2.12.18.79.12 1.46.24 1.99.35v-7.09h-3.27v-1.8l6.85-2.21h2.26v29.35c0 .27.09.5.28.7.19.19.42.3.69.33l1.85.13v2.06zm-8.65-4.36v-14.2c-.39-.17-.88-.35-1.49-.53-.61-.18-1.16-.27-1.64-.27-1.36 0-2.49.36-3.37 1.08-.89.72-1.55 1.69-1.99 2.91-.44 1.22-.66 2.59-.66 4.1 0 2.31.48 4.17 1.43 5.6.95 1.43 2.38 2.14 4.29 2.14.59 0 1.21-.09 1.86-.28.64-.18 1.16-.37 1.57-.55zM122.95 471.24c-1.55.87-3.02 1.53-4.4 1.96-1.39.43-3.02.64-4.88.64-2.49 0-4.57-.49-6.23-1.48-1.66-.99-2.91-2.31-3.74-3.97-.83-1.66-1.25-3.51-1.25-5.54 0-2.22.46-4.2 1.38-5.94.92-1.74 2.21-3.11 3.87-4.1 1.66-1 3.61-1.49 5.84-1.49 2.31 0 4.15.48 5.52 1.44 1.38.96 2.37 2.21 2.98 3.74.61 1.53.91 3.15.91 4.86v1.05h-14.44c0 2.39.59 4.29 1.77 5.69 1.18 1.4 2.85 2.11 5.02 2.11 1.48 0 2.79-.21 3.94-.62 1.15-.42 2.39-1.03 3.71-1.85v3.5zm-6.3-11.33v-.97c0-1.4-.28-2.6-.83-3.58-.55-.98-1.48-1.47-2.78-1.47-1.07 0-1.93.31-2.56.92-.63.62-1.08 1.39-1.35 2.31a9.85 9.85 0 0 0-.41 2.78h7.93zM160.61 451.3h-3.18l-.62-4a1.19 1.19 0 0 0-.27-.59c-.14-.16-.3-.25-.5-.25h-7.97v10.83h5.46c.2 0 .37-.1.52-.29.14-.19.22-.36.24-.5l.43-3.01h2.73v10.4h-2.73l-.43-3.01c-.01-.16-.1-.33-.26-.5-.16-.18-.32-.27-.49-.27h-5.46v9.75c0 .29.09.51.28.68.19.17.42.26.69.29l2.86.24v2.23H138.4v-2.23l2.38-.24c.26-.03.49-.12.7-.29.21-.16.31-.39.31-.68v-22.64c0-.29-.1-.52-.31-.69a1.33 1.33 0 0 0-.7-.3l-2.51-.21v-2.23h22.37v7.51zM186.13 462.68c0 2.19-.46 4.12-1.39 5.8s-2.25 2.99-3.99 3.93c-1.73.95-3.82 1.42-6.25 1.42-2.22 0-4.18-.45-5.89-1.35a9.82 9.82 0 0 1-3.99-3.86c-.95-1.67-1.43-3.66-1.43-5.98 0-2.41.49-4.45 1.48-6.14a9.868 9.868 0 0 1 4.1-3.87c1.75-.89 3.75-1.33 6.02-1.33 2.42 0 4.47.48 6.16 1.45 1.68.97 2.96 2.31 3.85 4.02.89 1.71 1.33 3.68 1.33 5.91zm-6.57-.04c0-.93-.07-1.91-.2-2.93-.14-1.02-.38-1.98-.74-2.88-.36-.89-.86-1.62-1.49-2.18-.64-.56-1.46-.84-2.48-.84-.99 0-1.8.27-2.43.81-.63.54-1.12 1.24-1.47 2.11-.35.87-.59 1.8-.73 2.81s-.2 1.99-.2 2.93.06 1.93.19 2.96.37 2 .71 2.9.84 1.63 1.48 2.19 1.48.84 2.49.84c1 0 1.82-.26 2.46-.79.64-.53 1.13-1.23 1.48-2.09.35-.87.59-1.81.73-2.83.13-1.02.2-2.02.2-3.01zM213.4 473.3h-10.83v-2.06l1.63-.13c.27-.03.5-.14.69-.33.19-.19.28-.43.28-.7v-10.33c0-1.12-.27-2.13-.82-3.04-.54-.91-1.48-1.36-2.79-1.36-.87 0-1.7.06-2.47.19s-1.35.26-1.74.39v14.16c0 .27.1.5.3.7.2.19.44.3.71.33l1.31.13v2.06H188.9v-2.06l1.57-.13c.27-.03.5-.14.69-.33.19-.19.28-.43.28-.7v-14.74h-3.03v-1.8l6.64-2.23h2.3v2.69c.56-.39 1.26-.79 2.12-1.2.85-.42 1.77-.77 2.74-1.05.97-.29 1.92-.43 2.84-.43 1.69 0 2.96.37 3.82 1.12.86.75 1.44 1.7 1.73 2.87.29 1.17.44 2.39.44 3.66v11.13c0 .27.1.5.3.7.2.19.44.3.71.33l1.35.13v2.03zM236.9 471.24c-1.55.87-3.02 1.53-4.4 1.96-1.39.43-3.02.64-4.88.64-2.49 0-4.57-.49-6.23-1.48-1.66-.99-2.91-2.31-3.74-3.97-.83-1.66-1.25-3.51-1.25-5.54 0-2.22.46-4.2 1.38-5.94.92-1.74 2.21-3.11 3.87-4.1 1.66-1 3.61-1.49 5.84-1.49 2.31 0 4.15.48 5.52 1.44 1.38.96 2.37 2.21 2.98 3.74.61 1.53.91 3.15.91 4.86v1.05h-14.44c0 2.39.59 4.29 1.77 5.69 1.18 1.4 2.85 2.11 5.02 2.11 1.48 0 2.79-.21 3.94-.62 1.15-.42 2.39-1.03 3.71-1.85v3.5zm-6.3-11.33v-.97c0-1.4-.28-2.6-.83-3.58-.55-.98-1.48-1.47-2.78-1.47-1.07 0-1.93.31-2.56.92-.63.62-1.08 1.39-1.35 2.31a9.85 9.85 0 0 0-.41 2.78h7.93zm3.72-16.58c0 .29-.11.62-.33 1.01-.22.39-.49.67-.81.84l-7.13 3.89h-3.07l6.02-6.66c.5-.54.94-.91 1.32-1.11.38-.19.86-.29 1.45-.29.95 0 1.61.25 1.99.76.37.51.56 1.03.56 1.56zM254.58 472.33c-.75.32-1.78.64-3.1.99-1.33.34-2.64.52-3.94.52-1.95 0-3.32-.44-4.12-1.32-.8-.88-1.2-2.25-1.2-4.09v-13.77h-2.9v-1.76l3.39-2.02 2.36-4.68h3.05v5.65h6.1v2.81h-6.1v11.97c0 1.4.31 2.39.92 2.96.62.57 1.51.86 2.69.86.5 0 1.02-.04 1.57-.11.54-.07.97-.14 1.29-.19v2.18zM268.14 473.3h-11.97v-2.06l2.02-.13c.26-.03.48-.14.68-.33s.29-.43.29-.7V455.3h-2.81v-1.8l6.42-2.19H265v18.78c0 .27.1.5.31.7.21.19.44.3.7.33l2.13.13v2.05zm-2.52-29.18c0 .95-.34 1.75-1.01 2.43-.67.67-1.48 1.01-2.43 1.01s-1.75-.34-2.41-1.01c-.66-.67-.99-1.48-.99-2.43s.33-1.75.99-2.41c.66-.66 1.46-.99 2.41-.99s1.75.33 2.43.99c.68.67 1.01 1.47 1.01 2.41zM290.14 471.36c-.5.27-1.17.61-2.02 1-.85.39-1.83.74-2.95 1.03-1.12.29-2.36.44-3.71.44-2.28 0-4.21-.5-5.79-1.5s-2.79-2.33-3.61-3.97c-.82-1.65-1.24-3.43-1.24-5.35 0-2.32.51-4.36 1.53-6.12 1.02-1.76 2.38-3.13 4.1-4.11 1.72-.98 3.62-1.47 5.71-1.47 2.31 0 4.15.46 5.53 1.36 1.38.91 2.07 2.07 2.07 3.47 0 .99-.34 1.79-1.01 2.4-.67.61-1.52.91-2.54.91-.64 0-1.16-.1-1.54-.29-.38-.19-.71-.4-.98-.63v-4.94c-.16-.03-.3-.04-.42-.04h-.42c-.89 0-1.76.3-2.62.91-.86.61-1.57 1.52-2.13 2.73-.56 1.21-.84 2.73-.84 4.54 0 2.58.59 4.63 1.78 6.14 1.19 1.52 2.82 2.28 4.9 2.28.9 0 1.79-.15 2.65-.45.87-.3 1.62-.63 2.27-.98.64-.35 1.06-.6 1.25-.74v3.38zM315.08 473.3h-8.19l-.58-2.19c-.54.39-1.24.79-2.07 1.21-.84.42-1.74.78-2.71 1.07-.97.29-1.92.44-2.87.44-1.59 0-2.95-.52-4.07-1.55s-1.69-2.41-1.69-4.15c0-.99.14-1.87.43-2.63.29-.77.87-1.47 1.76-2.13.89-.65 2.23-1.28 4.03-1.89 1.8-.61 4.21-1.25 7.23-1.92 0-.24 0-.53.01-.87.01-.34.02-.62.03-.85.01-.56-.08-1.15-.28-1.78-.2-.63-.6-1.17-1.19-1.62-.59-.45-1.48-.68-2.65-.68a9.817 9.817 0 0 0-1.89.17v4.17h-4.53c-.43.06-.87-.02-1.31-.25-.44-.22-.67-.66-.67-1.32 0-.82.29-1.55.86-2.19.57-.64 1.33-1.2 2.29-1.65.95-.46 2.01-.81 3.17-1.04s2.32-.35 3.48-.35c1.69 0 3.17.18 4.45.55 1.27.37 2.27 1.08 2.99 2.15.72 1.07 1.07 2.66 1.07 4.78v11.3c0 .27.09.5.28.7.19.19.42.3.69.33l1.93.13v2.06zm-8.76-4.08v-7.26c-1.89.37-3.36.77-4.39 1.2-1.04.43-1.76.94-2.17 1.54-.41.59-.61 1.34-.61 2.22 0 .9.29 1.67.88 2.31.59.64 1.34.96 2.26.96.69 0 1.42-.11 2.19-.33.76-.23 1.38-.44 1.84-.64z" class="st0"/><g><path d="M274.89 138.32c0 38.96-.15 76.64.12 114.31.05 7.47-2.78 9.23-9.81 9.14-13.53-.18-27.26-.55-40.54 1.53-9.3 1.46-18.2 6.4-26.84 10.69-3.96 1.97-6.17 2.74-10.38.02-14.71-9.5-30.69-15.25-48.7-14.17-9.46.57-18.98.1-28.84.1 0-18.89-.12-36.42.04-53.95.12-12.33.57-24.65.99-36.97.21-6.11-2.13-10.18-8.51-10.85-6.63-.69-9.72 3.26-10.33 9.24-.5 4.98-.39 10.03-.46 15.06-.39 26.9-.75 53.8-1.15 80.69-.17 11.46 1.71 13.51 13.41 13.84 11.81.33 23.62.4 35.43.75 16.44.49 31.21 5.53 43.89 16.3 8.12 6.89 10.53 6.66 18.38-.1 10.7-9.2 23.35-13.99 37.33-14.47 14.32-.49 28.66-.12 43-.18 8.85-.03 11.76-2.8 11.88-11.62.64-45.28 1.23-90.56 1.8-135.84.11-8.81-3.63-13.42-12.38-13.4-18.57.04-37.28-.38-55.65 1.76-9.66 1.12-18.64 7.51-28.14 10.94-2.97 1.07-7.44 1.54-9.85.06-16.46-10.1-34.1-15.21-53.42-14.49-7.58.28-12.69 4.08-12.91 9.77-.22 5.8 4.51 9.86 12.5 9.94 15.19.14 30.9.21 42.6 11.09 11.82 11 20.94 9.72 32.48-.31 5.63-4.9 14.37-7.78 21.99-8.5 14.12-1.33 28.43-.38 42.07-.38z" class="st0"/><path d="M77.65 15.02c9.73-.01 21.02-.56 30.65.43 14.47 1.5 25 9.46 31.39 22.71 6.27 13 5.44 26.9 3.78 40.4-1.74 14.14-8.65 25.88-22.53 32.07-4.69 2.09-12.21 2.98-13.47 6.3-1.56 4.1 2.35 10.11 3.37 15.39 1.08 5.57 1.08 12.61-8.51 12.09-3.62-.19-8.94-2.29-11.9-4.39-4.64-3.29-8.9-7.23-13.59-10.5-10.16-7.08-18.83-15.27-33.36-15.77-14.53-.49-26.32-11-29.81-25.73-2.71-11.47-1.89-23.85-2.05-35.83-.19-14.63 14.79-33.39 29.15-35.4 12.24-1.69 36.88-1.77 36.88-1.77zm20.04 81.3c10.17.3 18.83-1.88 23.8-11.73.97-1.93 1.87-4.11 1.98-6.21.42-7.77.61-15.56.68-23.34.1-11.19-8.43-19.91-19.59-20.06-17.02-.23-34.04-.39-51.07-.5-13.07-.09-19.9 5.76-21.12 18.72-.75 7.89-.61 15.86-.88 23.8-.34 10.01 6.33 17.49 16.81 18.28 12.27.92 23.4 2.91 32.56 13.95a.4.4 0 0 0 .7-.18c2.23-11.12 4.93-13.06 16.13-12.73zM124.79 163c-4.99 5.05-.69 13.01 6.88 13.36 13.05.61 25.23 3.93 36.84 9.73 6.28 3.14 10.96.14 13.6-5.08 2.79-5.52-1-9.64-5.63-12.02-11.25-5.78-22.81-10.83-35.94-10.18-6.98-.24-12.23.62-15.75 4.19zM136.59 188.3c-8.08-.12-14.35 3.82-14.44 8.6-.13 7.01 5.01 9.28 10.67 10.41 7.53 1.51 15.18 2.37 22.67 4.04 3.53.79 6.85 2.68 10.16 4.28 6.37 3.08 12.33 2.02 14.97-2.82 3.01-5.52 1.18-9.52-5.69-13.68-12.26-7.43-25.94-9.46-38.34-10.83zM211.92 199.69c-6.92 2.68-9.14 8.89-6.34 13.58 3.58 5.98 9.65 5.58 14.57 3.21 9.66-4.65 19.47-7.45 30.22-7.1 2.18.07 4.43-.74 6.58-1.39 4.61-1.39 6.67-4.24 6.7-9.42.04-5.78-3.85-7.12-7.77-8.51-2.04-.72-4.47-.33-6.73-.44-.17-.58-25.26 5.44-37.23 10.07zM134.75 219.35c-6.54-.7-11.76.94-12.88 8.19-.84 5.47 4.29 8.59 12.21 10.23 11.56 2.4 23.07 5.41 34.21 9.27 6.2 2.15 9.71.07 12.52-4.46 3-4.86.2-8.79-3.72-11.38-12.82-8.48-27.3-11.36-42.34-11.85zM213.88 168.21c-4.46 1.62-9.08 4.41-8.77 10.81.31 6.53 6.95 10.03 13.2 8.06 11.26-3.54 22.73-6.71 34.34-8.71 8.14-1.4 11.44-3.02 11.29-9.64-.15-6.61-3.2-8.89-11.85-8.79-1.75.02-3.5.15-5.26.23-.19-.64-22.35 4.2-32.95 8.04zM204.38 237.91c.27 7.98 6.25 12.55 11.61 10.12 12.45-5.64 25.2-8.94 39-8.92 5.83.01 8.41-4.91 8.14-10.57-.25-5.25-3.86-7.32-8.64-7.58-16.1-.87-31.38 2.18-45.26 10.53-2.57 1.57-4.65 4.15-4.85 6.42z" class="st0"/><path d="M48.31 95.28C37.83 94.49 31.16 87.01 31.5 77c.27-7.94.13-15.91.88-23.8 1.22-12.96 8.05-18.8 21.12-18.72 17.02.11 34.04.28 51.07.5 11.16.15 19.69 8.87 19.59 20.06-.07 7.78-.26 15.57-.68 23.34-.11 2.11-1.01 4.29-1.98 6.21-4.97 9.84-13.63 12.02-23.8 11.73-11.48-.34-14.02 1.7-16.29 13.56-9.27-11.61-20.59-13.66-33.1-14.6z" class="st1"/><path d="M59.9 58.18c0 .96-.22 1.89-.66 2.81s-1.05 1.73-1.82 2.46c-.78.73-1.67 1.31-2.69 1.74s-2.1.64-3.25.64c-1.3 0-2.47-.21-3.52-.64s-1.88-.96-2.49-1.6-.92-1.3-.92-1.96c0-.56.12-.99.35-1.3s.52-.52.86-.64.66-.18.97-.18c.27 0 .52.04.73.12s.4.16.56.24l1 3.35c.31.09.74.22 1.3.41.55.19 1.03.28 1.43.28.57 0 1.08-.18 1.54-.55s.85-.84 1.19-1.42.59-1.2.76-1.86.26-1.28.26-1.87c0-1.14-.25-2.07-.75-2.79s-1.33-1.08-2.49-1.08c-.53 0-.92.08-1.17.23l-.81-.78 4.56-6.12h-6.21c-.15 0-.28.07-.4.21s-.19.28-.21.42l-.21 2.67h-2.12v-6.71h13.37v1.38l-5.46 7.22c1.23 0 2.32.26 3.27.79s1.69 1.2 2.23 2.01.8 1.67.8 2.52zM80.38 76.25c0 1.04-.18 1.91-.53 2.64s-.79 1.32-1.31 1.79-1.04.84-1.57 1.11c-.52.27-1.14.51-1.84.73v6.27c0 .41.22.63.66.66l1.92.16v1.55h-9.18v-1.55l1.92-.16c.44-.03.66-.25.66-.66v-6.72c.7-.26 1.31-.54 1.82-.83.51-.29 1.03-.66 1.54-1.12s.95-1.01 1.3-1.66.53-1.4.53-2.26c0-.57-.09-1.15-.29-1.74-.19-.59-.48-1.09-.88-1.49-.39-.41-.91-.61-1.54-.61-.3 0-.55.02-.73.05s-.4.12-.64.27l-1.04 2.56c-.54.18-.98.26-1.33.26-.33 0-.69-.1-1.07-.31s-.57-.64-.57-1.28c0-.87.28-1.55.83-2.04s1.25-.83 2.07-1.03c.82-.2 1.64-.29 2.45-.29 1.31 0 2.48.23 3.5.7s1.83 1.13 2.42 1.98c.61.86.9 1.86.9 3.02zM105.5 50.23c0 .6-.21 1.09-.63 1.49s-.83.67-1.23.81l-2.58-2.75c-.26.12-.47.3-.63.55s-.23.7-.23 1.34c0 .29.04.85.13 1.67s.2 1.81.34 2.96.3 2.38.48 3.69.35 2.61.52 3.9.33 2.49.47 3.59.26 2.01.34 2.74.13 1.18.13 1.35c0 1.01-.24 1.91-.71 2.7s-1.14 1.42-2.01 1.88-1.9.68-3.09.68c-.66 0-1.25-.13-1.76-.4s-.9-.59-1.18-.98c-.28-.39-.42-.78-.42-1.17 0-.61.21-1.11.63-1.5s.83-.66 1.23-.78l2.61 2.77c.25-.13.46-.31.61-.56.15-.25.23-.69.23-1.33 0-.29-.04-.85-.13-1.68s-.21-1.81-.35-2.97-.31-2.38-.48-3.69a1988.438 1988.438 0 0 0-.99-7.5c-.15-1.11-.26-2.02-.35-2.75s-.13-1.18-.13-1.35c0-1.52.52-2.78 1.57-3.76s2.47-1.48 4.26-1.48c.67 0 1.26.13 1.77.39.5.26.89.58 1.17.97.27.39.41.78.41 1.17z" class="st2"/></g></svg>