<svg xmlns="http://www.w3.org/2000/svg" id="Capa_1" x="0" y="0" enable-background="new 0 0 267.7 303.2" version="1.1" viewBox="0 0 267.7 303.2" xml:space="preserve"><style>.st0{fill:#007EAB;}
	.st1{font-family:&apos;Arial-BoldMT&apos;;}
	.st2{font-size:17.8968px;}
	.st3{fill:url(#SVGID_1_);}
	.st4{fill:url(#SVGID_2_);}
	.st5{fill:url(#SVGID_3_);}
	.st6{fill:url(#SVGID_4_);}
	.st7{fill:url(#SVGID_5_);}
	.st8{opacity:0.31;}</style><g id="Capa_2_1_"><g id="Capa_1-2"><text class="st0 st1 st2" transform="rotate(-52.3 320.745 84.38)">Laboratorio de Estudios Fónicos</text><radialGradient id="SVGID_1_" cx="-323.154" cy="1005.652" r="15.176" gradientTransform="rotate(-52.3 -961.228 152.54)" gradientUnits="userSpaceOnUse"><stop offset="0" stop-color="#CCE0F4"/><stop offset=".06" stop-color="#C3DCF2"/><stop offset=".17" stop-color="#A9D2EE"/><stop offset=".31" stop-color="#80C2E7"/><stop offset=".46" stop-color="#47ACDE"/><stop offset=".57" stop-color="#1E9CD7"/><stop offset=".87" stop-color="#0075BE"/><stop offset=".99" stop-color="#005B97"/></radialGradient><path d="M94.8 180.2c.6-.8 1.2-1.5 1.8-2.3.1-.2.2-.4.2-.6-.1-.7.1-1.4.7-1.9.4-.3 1.3.2 2 .3h.6c-.1-.2-.1-.3-.2-.5-.4-.7-.7-1.4-1.1-2-.2-.3-.2-.5.1-.7.3-.2.5-.2.8 0 1.3.9 2.7 1.8 4 2.6 1 .6 1.9 1.3 2.9 1.8l-.3-.3c-3.4-2.9-6.8-5.7-10.2-8.6-2-1.7-4.1-3.5-6.1-5.2-.1-.1-.2-.1-.2-.2-.3-.2-.4-.5-.2-.8.2-.3.5-.2.8 0 1.2.7 2.4 1.5 3.7 2.2l9 5.4c.1.1.2.1.4.2-.1-.2-.1-.3-.2-.5-.2-.4-.5-.9-.7-1.3-.2-.2-.1-.6.2-.7.1-.1.2-.1.4-.1.5 0 1 0 1.4.1.3 0 .6-.1.7-.3 3-3.9 2-2.7 5-6.6l1.2-1.6c.3-.4 1.2-.6 1.5-.3s-4.7 6.5-7.1 9.7c-.1.1-.3.2-.4.2h-.9c-.4 0-.5.1-.3.5l1.2 2.1c.2.3.3.5 0 .8s-.5.1-.8 0c-2.9-1.7-5.8-3.5-8.7-5.2-.1-.1-.2-.1-.4-.1.7.6 1.5 1.2 2.2 1.9 5.4 4.6 10.8 9.1 16.2 13.7.1.1.2.2.3.2.3.3.4.5.2.8-.2.3-.5.2-.8 0-2-1.3-3.9-2.6-5.9-3.9-2.2-1.4-4.3-2.8-6.5-4.3-.1-.1-.1-.1-.3-.2 0 .1.1.3.1.4l.6 1.2c.3.5 0 .9-.6.9-.8-.1-1.7-.2-2.5-.4-.5-.1-.9.2-.5.5.3.1-.2.8-.6 1.3-.5.7-.9 1.9-1.4 2.6" class="st3"/><radialGradient id="SVGID_2_" cx="-295.766" cy="987.5" r="26.009" gradientTransform="rotate(-52.3 -961.228 152.54)" gradientUnits="userSpaceOnUse"><stop offset="0" stop-color="#CCE0F4"/><stop offset=".06" stop-color="#C3DCF2"/><stop offset=".17" stop-color="#A9D2EE"/><stop offset=".31" stop-color="#80C2E7"/><stop offset=".46" stop-color="#47ACDE"/><stop offset=".57" stop-color="#1E9CD7"/><stop offset=".87" stop-color="#0075BE"/><stop offset=".99" stop-color="#005B97"/></radialGradient><path d="M103.9 102.7c-3 4.7-6.1 9.3-9.1 14.1-2.5 3.9-5 7.9-7.4 11.9-5.3 9.3-5 10.3 5.3 16.5l24.2-31.3 1.6 1c-4.1 13.3-14.5 23.2-20.8 35.7 4.1 5.7 10.4 9 16.4 6.8 4.1-1.5 7.5-7.3 9.4-11.9 1.8-4.3 1.3-9.7 1.8-14.6.2-2 .5-4 1.8-5.8 3.3 12.2 4.5 24.4-4.9 34.4-2.7 2.9-9 5.3-12.4 4.2-7.9-2.6-15.1-7.4-22.4-11.5-3.8-2.1-4.8-8.7-11.2-6.9-.4.1-2.5-3-2.2-3.8 6.5-15.3 15.9-28.6 27.4-40.4l2.5 1.6z" class="st4"/><radialGradient id="SVGID_3_" cx="-230.711" cy="986.138" r="27.474" gradientTransform="rotate(-52.3 -961.228 152.54)" gradientUnits="userSpaceOnUse"><stop offset="0" stop-color="#CCE0F4"/><stop offset=".06" stop-color="#C3DCF2"/><stop offset=".17" stop-color="#A9D2EE"/><stop offset=".31" stop-color="#80C2E7"/><stop offset=".46" stop-color="#47ACDE"/><stop offset=".57" stop-color="#1E9CD7"/><stop offset=".87" stop-color="#0075BE"/><stop offset=".99" stop-color="#005B97"/></radialGradient><path d="M156.1 114.6c-3.4-2.7-7.2-5-10.2-8.1-5.2-5.4-9.9-11.6-18-1.4l-1-2.5 2.9-9.8c-4.5-2.2-6.9-10.6-15.3-5-.8.5-3.1-.2-3.8-1-.7-.9-.6-3 .1-3.9 9.3-12.3 18.8-24.5 28.3-36.8l2.2 1.3c-1.9 3.2-3.9 6.4-5.8 9.6-2 3.4-3.9 6.9-6.1 10.2-2.2 3.5-4.7 6.8-7.2 10.5 3.7 2.9 6.5 5.8 9.9 7.3 1.6.7 5.2-.3 6.4-1.7 5.1-6.1 9.6-12.6 14.4-19 1-1.3 2.1-2.5 3.2-3.7.7.3 2 .9 2.7 1.2-1.9 4.1-4.2 8-6.5 11.9-3.5 5.9-10.3 11.7-10.2 17.4 0 5 7.7 9.9 11.8 15 1.7 2.1 2.9 4.5 4.3 6.7l-2.1 1.8z" class="st5"/><radialGradient id="SVGID_4_" cx="-361.474" cy="987.461" r="27.236" gradientTransform="rotate(-52.3 -961.228 152.54)" gradientUnits="userSpaceOnUse"><stop offset="0" stop-color="#CCE0F4"/><stop offset=".06" stop-color="#C3DCF2"/><stop offset=".17" stop-color="#A9D2EE"/><stop offset=".31" stop-color="#80C2E7"/><stop offset=".46" stop-color="#47ACDE"/><stop offset=".57" stop-color="#1E9CD7"/><stop offset=".87" stop-color="#0075BE"/><stop offset=".99" stop-color="#005B97"/></radialGradient><path d="M97.9 177.1c-.4 1.7-.4 3.6-1.2 5.2-4.2 8.4-8.4 16.7-12.9 24.9-10.7 19.6-22.5 15.9-33.9 4.2-4.6-4.8-9.6-9.3-13.9-14.4-1.7-2.1-2-5.4-2.9-8.1 2.6 1.1 5.7 1.6 7.6 3.4 6 5.6 11 12.1 17.2 17.4 9.2 7.9 12.3 7.4 19.1-2.3 5.4-7.7 10-15.9 14.9-23.9 1.5-2.4 2.9-4.8 4.4-7.2l1.6.8z" class="st6"/><radialGradient id="SVGID_5_" cx="-266.7" cy="983.343" r="16.656" gradientTransform="rotate(-52.3 -961.228 152.54)" gradientUnits="userSpaceOnUse"><stop offset="0" stop-color="#CCE0F4"/><stop offset=".06" stop-color="#C3DCF2"/><stop offset=".17" stop-color="#A9D2EE"/><stop offset=".31" stop-color="#80C2E7"/><stop offset=".46" stop-color="#47ACDE"/><stop offset=".57" stop-color="#1E9CD7"/><stop offset=".87" stop-color="#0075BE"/><stop offset=".99" stop-color="#005B97"/></radialGradient><path d="M110.1 125.9c1-1.3 8.8-11.4 9.8-12.7.2-.1.4-.2.6-.2.4 0 .8.1 1.2.1.6.1.9-.3.6-.9-.2-.5-.4-.9-.7-1.4-.1-.1-.1-.3-.2-.5.2.1.3.2.4.2 2.4 1.4 4.8 2.9 7.1 4.3 1.6 1 3.2 1.9 4.7 2.9.4.3.6.2.8-.1.2-.4-.1-.5-.3-.7l-4.2-3.6c-2.9-2.5-5.8-5-8.8-7.5-.5-.4-1-.9-1.6-1.4.1.1.2.1.3.2 1.7 1.1 3.4 2.3 5.1 3.4.2.2.4.2.6 0 .2-.1.3-.3.2-.6v-.1c-.2-.5-.4-.9-.6-1.4s-.2-.5.3-.6l.8-.1c1.4-.2 1.3-.1 1.4-1.5 0-.5.2-1 .5-1.4l3.3-4.2.6-.8c.2-.2.1-.4-.1-.6-.4-.3-.5-.3-.8.1-1.2 1.5-2.3 3.1-3.5 4.6-.6.6-.9 1.5-.9 2.4 0 .3-.1.4-.4.4-.6.1-1.2.2-1.9.3-.6.1-.7.4-.5.9l.3.8-.1.1c-.1-.1-.2-.1-.3-.2-1.4-.9-2.7-1.8-4.1-2.7-2.5-1.7-4.9-3.4-7.4-5.1-.3-.2-.5-.2-.7.1-.2.3-.2.5.1.7l3.6 3c4 3.5 8.1 6.9 12.1 10.4.5.4 1 .9 1.5 1.3-.2 0-.3-.1-.5-.2-2.7-1.6-5.3-3.3-8-4.9-.2-.1-.4-.3-.6-.1-.2.2-.3.5-.2.7.3.7.6 1.3 1 2 .3.7.3.7-.4.6-.5-.1-1 .1-1.2.5-1 1.3-8.9 11.5-9.9 12.8" class="st7"/><path d="M96 181.1c.6-.8 1.2-1.5 1.8-2.3.1-.2.2-.4.2-.6-.1-.7.1-1.4.7-1.9.4-.3 1.3.2 2 .3h.6c-.1-.2-.1-.3-.2-.5-.4-.7-.7-1.4-1.1-2-.2-.3-.2-.5.1-.7.3-.2.5-.2.8 0 1.3.9 2.7 1.8 4 2.6 1 .6 1.9 1.3 2.9 1.8l-.3-.3c-3.4-2.9-6.8-5.7-10.2-8.6-2-1.7-4.1-3.5-6.1-5.2-.1-.1-.2-.1-.2-.2-.3-.2-.4-.5-.2-.8.2-.3.5-.2.8 0 1.2.7 2.4 1.5 3.7 2.2l9 5.4c.1.1.2.1.4.2-.1-.2-.1-.3-.2-.5-.2-.4-.5-.9-.7-1.3-.2-.2-.1-.6.2-.7.1-.1.2-.1.4-.1.5 0 1 0 1.4.1.3 0 .6-.1.7-.3 3-3.9 2-2.7 5-6.6l1.2-1.6c.3-.4 1.2-.6 1.5-.3s-4.7 6.5-7.1 9.7c-.1.1-.3.2-.4.2h-.9c-.4 0-.5.1-.3.5l1.2 2.1c.2.3.3.5 0 .8s-.5.1-.8 0c-2.9-1.7-5.8-3.5-8.7-5.2-.1-.1-.2-.1-.4-.1.7.6 1.5 1.2 2.2 1.9 5.4 4.6 10.8 9.1 16.2 13.7.1.1.2.2.3.2.3.3.4.5.2.8-.2.3-.5.2-.8 0-2-1.3-3.9-2.6-5.9-3.9-2.2-1.4-4.3-2.8-6.5-4.3-.1-.1-.1-.1-.3-.2 0 .1.1.3.1.4l.6 1.2c.3.5 0 .9-.6.9-.8-.1-1.7-.2-2.5-.4-.5-.1-.9.2-.5.5.3.1-.2.8-.6 1.3-.5.7-.9 1.9-1.4 2.6" class="st0"/><path d="M105.1 103.6c-3 4.7-6.1 9.3-9.1 14.1-2.5 3.9-5 7.9-7.4 11.9-5.3 9.3-5 10.3 5.3 16.5l24.2-31.3 1.6 1c-4.1 13.3-14.5 23.2-20.8 35.7 4.1 5.7 10.4 9 16.4 6.8 4.1-1.5 7.5-7.3 9.4-11.9 1.8-4.3 1.3-9.7 1.8-14.6.2-2 .5-4 1.8-5.8 3.3 12.2 4.5 24.4-4.9 34.4-2.7 2.9-9 5.3-12.4 4.2-7.9-2.6-15.1-7.4-22.4-11.5-3.8-2.1-4.8-8.7-11.2-6.9-.4.1-2.5-3-2.2-3.8 6.5-15.3 15.9-28.6 27.4-40.4l2.5 1.6zM157.3 115.5c-3.4-2.7-7.2-5-10.2-8.1-5.2-5.4-9.9-11.6-18-1.4l-1-2.5 2.9-9.8c-4.5-2.2-6.9-10.7-15.2-5-.8.5-3.1-.2-3.8-1-.7-.9-.6-3 .1-3.9 9.3-12.3 18.8-24.5 28.3-36.8l2.2 1.3c-1.9 3.2-3.9 6.4-5.8 9.6-2 3.4-3.9 6.9-6.1 10.2-2.2 3.5-4.7 6.8-7.2 10.5 3.7 2.9 6.5 5.8 9.9 7.3 1.6.7 5.2-.3 6.4-1.7 5.1-6.1 9.6-12.6 14.4-19 1-1.3 2.1-2.5 3.2-3.7.7.3 2 .9 2.7 1.2-1.9 4.1-4.2 8-6.5 11.9-3.5 5.9-10.3 11.7-10.2 17.4 0 5 7.7 9.9 11.9 15 1.7 2.1 2.9 4.5 4.3 6.7l-2.3 1.8zM99.1 178.1c-.4 1.7-.4 3.6-1.2 5.2-4.2 8.4-8.4 16.7-12.9 24.9-10.7 19.6-22.5 15.9-33.9 4.2-4.6-4.8-9.6-9.3-13.9-14.4-1.7-2.1-2-5.4-2.9-8.1 2.6 1.1 5.7 1.6 7.6 3.4 6 5.6 11 12.1 17.2 17.4 9.2 7.9 12.3 7.4 19.1-2.3 5.4-7.7 10-15.9 14.9-23.9 1.5-2.4 2.9-4.8 4.4-7.2l1.6.8z" class="st0"/><path d="M111.3 126.8c1-1.3 8.8-11.4 9.8-12.7.2-.1.4-.2.6-.2.4 0 .8.1 1.2.1.6.1.9-.3.6-.9-.2-.5-.4-.9-.7-1.4-.1-.1-.1-.3-.2-.5.2.1.3.2.4.2 2.4 1.4 4.8 2.9 7.1 4.3 1.6 1 3.2 1.9 4.7 2.9.4.3.6.2.8-.1.2-.4-.1-.5-.3-.7l-4.2-3.6c-2.9-2.5-5.8-5-8.8-7.5-.5-.4-1-.9-1.6-1.4.1.1.2.1.3.2 1.7 1.1 3.4 2.3 5.1 3.4.2.2.4.2.6 0 .2-.1.3-.3.2-.6v-.1c-.2-.5-.4-.9-.6-1.4-.2-.5-.2-.5.3-.6l.8-.1c1.4-.2 1.3-.1 1.4-1.5 0-.5.2-1 .5-1.4l3.3-4.2.6-.8c.2-.2.1-.4-.1-.6-.4-.3-.5-.3-.8.1-1.2 1.5-2.3 3.1-3.5 4.6-.6.6-.9 1.5-.9 2.4 0 .3-.1.4-.4.4-.6.1-1.2.2-1.9.3-.6.1-.7.4-.5.9l.3.7-.1.1c-.1-.1-.2-.1-.3-.2-1.4-.9-2.7-1.8-4.1-2.7-2.5-1.7-4.9-3.4-7.4-5.1-.3-.2-.5-.2-.7.1-.2.3-.2.5.1.7l3.6 3c4 3.5 8.1 6.9 12.1 10.4.5.4 1 .9 1.5 1.3-.2 0-.3-.1-.5-.2-2.7-1.6-5.3-3.3-8-4.9-.2-.1-.4-.3-.6-.1-.2.2-.3.5-.2.7.3.7.6 1.3 1 2 .3.7.3.7-.4.6-.5-.1-1 .1-1.2.5-1 1.3-8.9 11.5-9.9 12.8" class="st0"/><g class="st8"><path d="M95.8 180.2c.6-.8 1.2-1.5 1.8-2.3.1-.2.2-.4.2-.6-.1-.7.1-1.4.7-1.9.4-.3 1.3.2 2 .3h.6c-.1-.2-.1-.3-.2-.5-.4-.7-.7-1.4-1.1-2-.2-.3-.2-.5.1-.7.3-.2.5-.2.8 0 1.3.9 2.7 1.8 4 2.6 1 .6 1.9 1.3 2.9 1.8l-.3-.3c-3.4-2.9-6.8-5.7-10.2-8.6-2-1.7-4.1-3.5-6.1-5.2-.1-.1-.2-.1-.2-.2-.3-.2-.4-.5-.2-.8s.5-.2.8 0c1.2.7 2.4 1.5 3.7 2.2l9 5.4c.1.1.2.1.4.2-.1-.2-.1-.3-.2-.5-.2-.4-.5-.9-.7-1.3-.2-.2-.1-.6.2-.7.1-.1.2-.1.4-.1.5 0 1 0 1.4.1.3 0 .6-.1.7-.3 3-3.9 2-2.7 5-6.6l1.2-1.6c.3-.4 1.2-.6 1.5-.3s-4.7 6.5-7.1 9.7c-.1.1-.3.2-.4.2h-.9c-.4 0-.5.1-.3.5l1.2 2.1c.2.3.3.5 0 .8s-.5.1-.8 0c-2.9-1.7-5.8-3.5-8.7-5.2-.1-.1-.2-.1-.4-.1.7.6 1.5 1.2 2.2 1.9 5.4 4.6 10.8 9.1 16.2 13.7.1.1.2.2.3.2.3.3.4.5.2.8s-.5.2-.8 0c-2-1.3-3.9-2.6-5.9-3.9-2.2-1.4-4.3-2.8-6.5-4.3-.1-.1-.1-.1-.3-.2 0 .1.1.3.1.4l.6 1.2c.3.5 0 .9-.6.9-.8-.1-1.7-.2-2.5-.4-.5-.1-.9.2-.5.5.3.1-.2.8-.6 1.3-.5.7-.9 1.9-1.4 2.6" class="st0"/><path d="M104.8 102.6c-3 4.7-6.1 9.3-9.1 14.1-2.5 3.9-5 7.9-7.4 11.9-5.3 9.3-5 10.3 5.3 16.5l24.2-31.3 1.6 1c-4.1 13.3-14.5 23.2-20.8 35.7 4.1 5.7 10.4 9 16.4 6.8 4.1-1.5 7.5-7.3 9.4-11.9 1.8-4.3 1.3-9.7 1.8-14.6.2-2 .5-4 1.8-5.8 3.3 12.2 4.5 24.4-4.9 34.4-2.7 2.9-9 5.3-12.4 4.2-7.9-2.6-15.1-7.4-22.4-11.5-3.8-2.1-4.8-8.7-11.2-6.9-.4.1-2.5-3-2.2-3.8 6.5-15.3 15.9-28.6 27.4-40.4l2.5 1.6zM157 114.5c-3.4-2.7-7.2-5-10.2-8.1-5.2-5.4-9.9-11.6-18-1.4l-1-2.5 2.9-9.8c-4.5-2.2-7-10.7-15.3-5-.8.5-3.1-.2-3.8-1-.7-.9-.6-3 .1-3.9C121 70.5 130.5 58.3 140 46l2.2 1.3c-1.9 3.2-3.9 6.4-5.8 9.6-2 3.4-3.9 6.9-6.1 10.2-2.2 3.5-4.7 6.8-7.2 10.5 3.7 2.9 6.5 5.8 9.9 7.3 1.6.7 5.2-.3 6.4-1.7 5.1-6.1 9.6-12.6 14.4-19 1-1.3 2.1-2.5 3.2-3.7.7.3 2 .9 2.7 1.2-1.9 4.1-4.2 8.1-6.5 11.9-3.5 5.9-10.3 11.7-10.2 17.4 0 5 7.7 9.9 11.9 15 1.7 2.1 2.9 4.5 4.3 6.7l-2.2 1.8zM98.8 177.1c-.4 1.7-.4 3.6-1.2 5.2-4.2 8.4-8.4 16.7-12.9 24.9-10.7 19.6-22.5 15.9-33.9 4.2-4.7-4.8-9.6-9.3-13.9-14.3-1.7-2.1-2-5.4-2.9-8.1 2.6 1.1 5.7 1.6 7.6 3.4 6 5.6 11 12.1 17.2 17.4 9.2 7.9 12.3 7.4 19.1-2.3 5.4-7.7 10-15.9 14.9-23.9 1.5-2.4 2.9-4.8 4.4-7.2l1.6.7z" class="st0"/><path d="M111.1 125.9c1-1.3 8.8-11.4 9.8-12.7.2-.1.4-.2.6-.2.4 0 .8.1 1.2.1.6.1.9-.3.6-.9-.2-.5-.4-.9-.7-1.4-.1-.1-.1-.3-.2-.5.2.1.3.2.4.2 2.4 1.4 4.8 2.9 7.1 4.3 1.6 1 3.2 1.9 4.7 2.9.4.3.6.2.8-.1.2-.4-.1-.5-.3-.7l-4.2-3.6c-2.9-2.5-5.8-5-8.8-7.5-.5-.4-1-.9-1.6-1.4.1.1.2.1.3.2 1.7 1.1 3.4 2.3 5.1 3.4.2.2.4.2.6 0 .2-.1.3-.3.2-.6v-.1c-.2-.5-.4-.9-.6-1.4s-.2-.5.3-.6l.8-.1c1.4-.2 1.3-.1 1.4-1.5 0-.5.2-1 .5-1.4l3.3-4.2.6-.8c.2-.2.1-.4-.1-.6-.4-.3-.5-.3-.8.1-1.2 1.5-2.3 3.1-3.5 4.6-.6.6-.9 1.5-.9 2.4 0 .3-.1.4-.4.4-.6.1-1.2.2-1.9.3-.6.1-.7.4-.5.9l.3.7-.1.1c-.1-.1-.2-.1-.3-.2-1.4-.9-2.7-1.8-4.1-2.7-2.5-1.7-4.9-3.4-7.4-5.1-.3-.2-.5-.2-.7.1-.2.3-.2.5.1.7l3.6 3c4 3.5 8.1 6.9 12.1 10.4.5.4 1 .9 1.5 1.3-.2 0-.3-.1-.5-.2-2.7-1.6-5.3-3.3-8-4.9-.2-.1-.4-.3-.6-.1-.2.2-.3.5-.2.7.3.7.6 1.3 1 2 .3.7.3.7-.4.6-.5-.1-1 .1-1.2.5-1 1.3-8.9 11.5-9.9 12.8" class="st0"/></g></g></g></svg>