<?xml version="1.0" encoding="utf-8"?>
<!-- Generator: Adobe Illustrator 25.2.1, SVG Export Plug-In . SVG Version: 6.00 Build 0)  -->
<svg version="1.1" id="Capa_1" xmlns="http://www.w3.org/2000/svg" xmlns:xlink="http://www.w3.org/1999/xlink" x="0px" y="0px"
	 viewBox="0 0 267.7 303.2" style="enable-background:new 0 0 267.7 303.2;" xml:space="preserve">
<style type="text/css">
	.st0{fill:#007EAB;}
	.st1{font-family:'Arial-BoldMT';}
	.st2{font-size:17.8968px;}
	.st3{fill:url(#SVGID_1_);}
	.st4{fill:url(#SVGID_2_);}
	.st5{fill:url(#SVGID_3_);}
	.st6{fill:url(#SVGID_4_);}
	.st7{fill:url(#SVGID_5_);}
	.st8{opacity:0.31;}
</style>
<g id="Capa_2_1_">
	<g id="Capa_1-2">
		<text transform="matrix(0.6115 -0.7912 0.7912 0.6115 57.836 286.5522)" class="st0 st1 st2">Laboratorio de Estudios Fónicos</text>
		
			<radialGradient id="SVGID_1_" cx="-323.1539" cy="1005.652" r="15.1763" gradientTransform="matrix(0.6115 -0.7912 0.7912 0.6115 -494.0931 -701.2672)" gradientUnits="userSpaceOnUse">
			<stop  offset="0" style="stop-color:#CCE0F4"/>
			<stop  offset="6.000000e-02" style="stop-color:#C3DCF2"/>
			<stop  offset="0.17" style="stop-color:#A9D2EE"/>
			<stop  offset="0.31" style="stop-color:#80C2E7"/>
			<stop  offset="0.46" style="stop-color:#47ACDE"/>
			<stop  offset="0.57" style="stop-color:#1E9CD7"/>
			<stop  offset="0.87" style="stop-color:#0075BE"/>
			<stop  offset="0.99" style="stop-color:#005B97"/>
		</radialGradient>
		<path class="st3" d="M94.8,180.2c0.6-0.8,1.2-1.5,1.8-2.3c0.1-0.2,0.2-0.4,0.2-0.6c-0.1-0.7,0.1-1.4,0.7-1.9
			c0.4-0.3,1.3,0.2,2,0.3c0.2,0,0.3,0,0.6,0c-0.1-0.2-0.1-0.3-0.2-0.5c-0.4-0.7-0.7-1.4-1.1-2c-0.2-0.3-0.2-0.5,0.1-0.7
			c0.3-0.2,0.5-0.2,0.8,0c1.3,0.9,2.7,1.8,4,2.6c1,0.6,1.9,1.3,2.9,1.8c-0.1-0.1-0.2-0.2-0.3-0.3c-3.4-2.9-6.8-5.7-10.2-8.6
			c-2-1.7-4.1-3.5-6.1-5.2c-0.1-0.1-0.2-0.1-0.2-0.2c-0.3-0.2-0.4-0.5-0.2-0.8c0.2-0.3,0.5-0.2,0.8,0c1.2,0.7,2.4,1.5,3.7,2.2
			c3,1.8,6,3.6,9,5.4c0.1,0.1,0.2,0.1,0.4,0.2c-0.1-0.2-0.1-0.3-0.2-0.5c-0.2-0.4-0.5-0.9-0.7-1.3c-0.2-0.2-0.1-0.6,0.2-0.7
			c0.1-0.1,0.2-0.1,0.4-0.1c0.5,0,1,0,1.4,0.1c0.3,0,0.6-0.1,0.7-0.3c3-3.9,2-2.7,5-6.6l1.2-1.6c0.3-0.4,1.2-0.6,1.5-0.3
			s-4.7,6.5-7.1,9.7c-0.1,0.1-0.3,0.2-0.4,0.2c-0.3,0-0.6,0-0.9,0c-0.4,0-0.5,0.1-0.3,0.5c0.4,0.7,0.8,1.4,1.2,2.1
			c0.2,0.3,0.3,0.5,0,0.8s-0.5,0.1-0.8,0c-2.9-1.7-5.8-3.5-8.7-5.2c-0.1-0.1-0.2-0.1-0.4-0.1c0.7,0.6,1.5,1.2,2.2,1.9
			c5.4,4.6,10.8,9.1,16.2,13.7c0.1,0.1,0.2,0.2,0.3,0.2c0.3,0.3,0.4,0.5,0.2,0.8c-0.2,0.3-0.5,0.2-0.8,0c-2-1.3-3.9-2.6-5.9-3.9
			c-2.2-1.4-4.3-2.8-6.5-4.3c-0.1-0.1-0.1-0.1-0.3-0.2c0,0.1,0.1,0.3,0.1,0.4c0.2,0.4,0.4,0.8,0.6,1.2c0.3,0.5,0,0.9-0.6,0.9
			c-0.8-0.1-1.7-0.2-2.5-0.4c-0.5-0.1-0.9,0.2-0.5,0.5c0.3,0.1-0.2,0.8-0.6,1.3c-0.5,0.7-0.9,1.9-1.4,2.6"/>
		
			<radialGradient id="SVGID_2_" cx="-295.7656" cy="987.5004" r="26.0086" gradientTransform="matrix(0.6115 -0.7912 0.7912 0.6115 -494.0931 -701.2672)" gradientUnits="userSpaceOnUse">
			<stop  offset="0" style="stop-color:#CCE0F4"/>
			<stop  offset="6.000000e-02" style="stop-color:#C3DCF2"/>
			<stop  offset="0.17" style="stop-color:#A9D2EE"/>
			<stop  offset="0.31" style="stop-color:#80C2E7"/>
			<stop  offset="0.46" style="stop-color:#47ACDE"/>
			<stop  offset="0.57" style="stop-color:#1E9CD7"/>
			<stop  offset="0.87" style="stop-color:#0075BE"/>
			<stop  offset="0.99" style="stop-color:#005B97"/>
		</radialGradient>
		<path class="st4" d="M103.9,102.7c-3,4.7-6.1,9.3-9.1,14.1c-2.5,3.9-5,7.9-7.4,11.9c-5.3,9.3-5,10.3,5.3,16.5l24.2-31.3l1.6,1
			c-4.1,13.3-14.5,23.2-20.8,35.7c4.1,5.7,10.4,9,16.4,6.8c4.1-1.5,7.5-7.3,9.4-11.9c1.8-4.3,1.3-9.7,1.8-14.6c0.2-2,0.5-4,1.8-5.8
			c3.3,12.2,4.5,24.4-4.9,34.4c-2.7,2.9-9,5.3-12.4,4.2c-7.9-2.6-15.1-7.4-22.4-11.5c-3.8-2.1-4.8-8.7-11.2-6.9
			c-0.4,0.1-2.5-3-2.2-3.8c6.5-15.3,15.9-28.6,27.4-40.4L103.9,102.7z"/>
		
			<radialGradient id="SVGID_3_" cx="-230.7113" cy="986.1383" r="27.4736" gradientTransform="matrix(0.6115 -0.7912 0.7912 0.6115 -494.0931 -701.2672)" gradientUnits="userSpaceOnUse">
			<stop  offset="0" style="stop-color:#CCE0F4"/>
			<stop  offset="6.000000e-02" style="stop-color:#C3DCF2"/>
			<stop  offset="0.17" style="stop-color:#A9D2EE"/>
			<stop  offset="0.31" style="stop-color:#80C2E7"/>
			<stop  offset="0.46" style="stop-color:#47ACDE"/>
			<stop  offset="0.57" style="stop-color:#1E9CD7"/>
			<stop  offset="0.87" style="stop-color:#0075BE"/>
			<stop  offset="0.99" style="stop-color:#005B97"/>
		</radialGradient>
		<path class="st5" d="M156.1,114.6c-3.4-2.7-7.2-5-10.2-8.1c-5.2-5.4-9.9-11.6-18-1.4l-1-2.5l2.9-9.8c-4.5-2.2-6.9-10.6-15.3-5
			c-0.8,0.5-3.1-0.2-3.8-1c-0.7-0.9-0.6-3,0.1-3.9c9.3-12.3,18.8-24.5,28.3-36.8l2.2,1.3c-1.9,3.2-3.9,6.4-5.8,9.6
			c-2,3.4-3.9,6.9-6.1,10.2c-2.2,3.5-4.7,6.8-7.2,10.5c3.7,2.9,6.5,5.8,9.9,7.3c1.6,0.7,5.2-0.3,6.4-1.7c5.1-6.1,9.6-12.6,14.4-19
			c1-1.3,2.1-2.5,3.2-3.7c0.7,0.3,2,0.9,2.7,1.2c-1.9,4.1-4.2,8-6.5,11.9c-3.5,5.9-10.3,11.7-10.2,17.4c0,5,7.7,9.9,11.8,15
			c1.7,2.1,2.9,4.5,4.3,6.7L156.1,114.6z"/>
		
			<radialGradient id="SVGID_4_" cx="-361.4738" cy="987.4613" r="27.2364" gradientTransform="matrix(0.6115 -0.7912 0.7912 0.6115 -494.0931 -701.2672)" gradientUnits="userSpaceOnUse">
			<stop  offset="0" style="stop-color:#CCE0F4"/>
			<stop  offset="6.000000e-02" style="stop-color:#C3DCF2"/>
			<stop  offset="0.17" style="stop-color:#A9D2EE"/>
			<stop  offset="0.31" style="stop-color:#80C2E7"/>
			<stop  offset="0.46" style="stop-color:#47ACDE"/>
			<stop  offset="0.57" style="stop-color:#1E9CD7"/>
			<stop  offset="0.87" style="stop-color:#0075BE"/>
			<stop  offset="0.99" style="stop-color:#005B97"/>
		</radialGradient>
		<path class="st6" d="M97.9,177.1c-0.4,1.7-0.4,3.6-1.2,5.2c-4.2,8.4-8.4,16.7-12.9,24.9c-10.7,19.6-22.5,15.9-33.9,4.2
			c-4.6-4.8-9.6-9.3-13.9-14.4c-1.7-2.1-2-5.4-2.9-8.1c2.6,1.1,5.7,1.6,7.6,3.4c6,5.6,11,12.1,17.2,17.4c9.2,7.9,12.3,7.4,19.1-2.3
			c5.4-7.7,10-15.9,14.9-23.9c1.5-2.4,2.9-4.8,4.4-7.2L97.9,177.1z"/>
		
			<radialGradient id="SVGID_5_" cx="-266.7002" cy="983.3433" r="16.6558" gradientTransform="matrix(0.6115 -0.7912 0.7912 0.6115 -494.0931 -701.2672)" gradientUnits="userSpaceOnUse">
			<stop  offset="0" style="stop-color:#CCE0F4"/>
			<stop  offset="6.000000e-02" style="stop-color:#C3DCF2"/>
			<stop  offset="0.17" style="stop-color:#A9D2EE"/>
			<stop  offset="0.31" style="stop-color:#80C2E7"/>
			<stop  offset="0.46" style="stop-color:#47ACDE"/>
			<stop  offset="0.57" style="stop-color:#1E9CD7"/>
			<stop  offset="0.87" style="stop-color:#0075BE"/>
			<stop  offset="0.99" style="stop-color:#005B97"/>
		</radialGradient>
		<path class="st7" d="M110.1,125.9c1-1.3,8.8-11.4,9.8-12.7c0.2-0.1,0.4-0.2,0.6-0.2c0.4,0,0.8,0.1,1.2,0.1
			c0.6,0.1,0.9-0.3,0.6-0.9c-0.2-0.5-0.4-0.9-0.7-1.4c-0.1-0.1-0.1-0.3-0.2-0.5c0.2,0.1,0.3,0.2,0.4,0.2c2.4,1.4,4.8,2.9,7.1,4.3
			c1.6,1,3.2,1.9,4.7,2.9c0.4,0.3,0.6,0.2,0.8-0.1c0.2-0.4-0.1-0.5-0.3-0.7c-1.4-1.2-2.8-2.4-4.2-3.6c-2.9-2.5-5.8-5-8.8-7.5
			c-0.5-0.4-1-0.9-1.6-1.4l0,0c0.1,0.1,0.2,0.1,0.3,0.2c1.7,1.1,3.4,2.3,5.1,3.4c0.2,0.2,0.4,0.2,0.6,0c0.2-0.1,0.3-0.3,0.2-0.6
			c0,0,0,0,0-0.1c-0.2-0.5-0.4-0.9-0.6-1.4s-0.2-0.5,0.3-0.6l0.8-0.1c1.4-0.2,1.3-0.1,1.4-1.5c0-0.5,0.2-1,0.5-1.4
			c1.1-1.4,2.2-2.8,3.3-4.2l0.6-0.8c0.2-0.2,0.1-0.4-0.1-0.6c-0.4-0.3-0.5-0.3-0.8,0.1c-1.2,1.5-2.3,3.1-3.5,4.6
			c-0.6,0.6-0.9,1.5-0.9,2.4c0,0.3-0.1,0.4-0.4,0.4c-0.6,0.1-1.2,0.2-1.9,0.3c-0.6,0.1-0.7,0.4-0.5,0.9l0.3,0.8l-0.1,0.1
			c-0.1-0.1-0.2-0.1-0.3-0.2c-1.4-0.9-2.7-1.8-4.1-2.7c-2.5-1.7-4.9-3.4-7.4-5.1c-0.3-0.2-0.5-0.2-0.7,0.1c-0.2,0.3-0.2,0.5,0.1,0.7
			c1.2,1,2.4,2,3.6,3c4,3.5,8.1,6.9,12.1,10.4c0.5,0.4,1,0.9,1.5,1.3c-0.2,0-0.3-0.1-0.5-0.2c-2.7-1.6-5.3-3.3-8-4.9
			c-0.2-0.1-0.4-0.3-0.6-0.1c-0.2,0.2-0.3,0.5-0.2,0.7c0.3,0.7,0.6,1.3,1,2c0.3,0.7,0.3,0.7-0.4,0.6c-0.5-0.1-1,0.1-1.2,0.5
			c-1,1.3-8.9,11.5-9.9,12.8"/>
		<path class="st0" d="M96,181.1c0.6-0.8,1.2-1.5,1.8-2.3c0.1-0.2,0.2-0.4,0.2-0.6c-0.1-0.7,0.1-1.4,0.7-1.9c0.4-0.3,1.3,0.2,2,0.3
			c0.2,0,0.3,0,0.6,0c-0.1-0.2-0.1-0.3-0.2-0.5c-0.4-0.7-0.7-1.4-1.1-2c-0.2-0.3-0.2-0.5,0.1-0.7c0.3-0.2,0.5-0.2,0.8,0
			c1.3,0.9,2.7,1.8,4,2.6c1,0.6,1.9,1.3,2.9,1.8c-0.1-0.1-0.2-0.2-0.3-0.3c-3.4-2.9-6.8-5.7-10.2-8.6c-2-1.7-4.1-3.5-6.1-5.2
			c-0.1-0.1-0.2-0.1-0.2-0.2c-0.3-0.2-0.4-0.5-0.2-0.8c0.2-0.3,0.5-0.2,0.8,0c1.2,0.7,2.4,1.5,3.7,2.2c3,1.8,6,3.6,9,5.4
			c0.1,0.1,0.2,0.1,0.4,0.2c-0.1-0.2-0.1-0.3-0.2-0.5c-0.2-0.4-0.5-0.9-0.7-1.3c-0.2-0.2-0.1-0.6,0.2-0.7c0.1-0.1,0.2-0.1,0.4-0.1
			c0.5,0,1,0,1.4,0.1c0.3,0,0.6-0.1,0.7-0.3c3-3.9,2-2.7,5-6.6l1.2-1.6c0.3-0.4,1.2-0.6,1.5-0.3s-4.7,6.5-7.1,9.7
			c-0.1,0.1-0.3,0.2-0.4,0.2c-0.3,0-0.6,0-0.9,0c-0.4,0-0.5,0.1-0.3,0.5c0.4,0.7,0.8,1.4,1.2,2.1c0.2,0.3,0.3,0.5,0,0.8
			s-0.5,0.1-0.8,0c-2.9-1.7-5.8-3.5-8.7-5.2c-0.1-0.1-0.2-0.1-0.4-0.1c0.7,0.6,1.5,1.2,2.2,1.9c5.4,4.6,10.8,9.1,16.2,13.7
			c0.1,0.1,0.2,0.2,0.3,0.2c0.3,0.3,0.4,0.5,0.2,0.8c-0.2,0.3-0.5,0.2-0.8,0c-2-1.3-3.9-2.6-5.9-3.9c-2.2-1.4-4.3-2.8-6.5-4.3
			c-0.1-0.1-0.1-0.1-0.3-0.2c0,0.1,0.1,0.3,0.1,0.4c0.2,0.4,0.4,0.8,0.6,1.2c0.3,0.5,0,0.9-0.6,0.9c-0.8-0.1-1.7-0.2-2.5-0.4
			c-0.5-0.1-0.9,0.2-0.5,0.5c0.3,0.1-0.2,0.8-0.6,1.3c-0.5,0.7-0.9,1.9-1.4,2.6"/>
		<path class="st0" d="M105.1,103.6c-3,4.7-6.1,9.3-9.1,14.1c-2.5,3.9-5,7.9-7.4,11.9c-5.3,9.3-5,10.3,5.3,16.5l24.2-31.3l1.6,1
			c-4.1,13.3-14.5,23.2-20.8,35.7c4.1,5.7,10.4,9,16.4,6.8c4.1-1.5,7.5-7.3,9.4-11.9c1.8-4.3,1.3-9.7,1.8-14.6c0.2-2,0.5-4,1.8-5.8
			c3.3,12.2,4.5,24.4-4.9,34.4c-2.7,2.9-9,5.3-12.4,4.2c-7.9-2.6-15.1-7.4-22.4-11.5c-3.8-2.1-4.8-8.7-11.2-6.9
			c-0.4,0.1-2.5-3-2.2-3.8c6.5-15.3,15.9-28.6,27.4-40.4L105.1,103.6z"/>
		<path class="st0" d="M157.3,115.5c-3.4-2.7-7.2-5-10.2-8.1c-5.2-5.4-9.9-11.6-18-1.4l-1-2.5l2.9-9.8c-4.5-2.2-6.9-10.7-15.2-5
			c-0.8,0.5-3.1-0.2-3.8-1c-0.7-0.9-0.6-3,0.1-3.9c9.3-12.3,18.8-24.5,28.3-36.8l2.2,1.3c-1.9,3.2-3.9,6.4-5.8,9.6
			c-2,3.4-3.9,6.9-6.1,10.2c-2.2,3.5-4.7,6.8-7.2,10.5c3.7,2.9,6.5,5.8,9.9,7.3c1.6,0.7,5.2-0.3,6.4-1.7c5.1-6.1,9.6-12.6,14.4-19
			c1-1.3,2.1-2.5,3.2-3.7c0.7,0.3,2,0.9,2.7,1.2c-1.9,4.1-4.2,8-6.5,11.9c-3.5,5.9-10.3,11.7-10.2,17.4c0,5,7.7,9.9,11.9,15
			c1.7,2.1,2.9,4.5,4.3,6.7L157.3,115.5z"/>
		<path class="st0" d="M99.1,178.1c-0.4,1.7-0.4,3.6-1.2,5.2c-4.2,8.4-8.4,16.7-12.9,24.9c-10.7,19.6-22.5,15.9-33.9,4.2
			c-4.6-4.8-9.6-9.3-13.9-14.4c-1.7-2.1-2-5.4-2.9-8.1c2.6,1.1,5.7,1.6,7.6,3.4c6,5.6,11,12.1,17.2,17.4c9.2,7.9,12.3,7.4,19.1-2.3
			c5.4-7.7,10-15.9,14.9-23.9c1.5-2.4,2.9-4.8,4.4-7.2L99.1,178.1z"/>
		<path class="st0" d="M111.3,126.8c1-1.3,8.8-11.4,9.8-12.7c0.2-0.1,0.4-0.2,0.6-0.2c0.4,0,0.8,0.1,1.2,0.1
			c0.6,0.1,0.9-0.3,0.6-0.9c-0.2-0.5-0.4-0.9-0.7-1.4c-0.1-0.1-0.1-0.3-0.2-0.5c0.2,0.1,0.3,0.2,0.4,0.2c2.4,1.4,4.8,2.9,7.1,4.3
			c1.6,1,3.2,1.9,4.7,2.9c0.4,0.3,0.6,0.2,0.8-0.1c0.2-0.4-0.1-0.5-0.3-0.7c-1.4-1.2-2.8-2.4-4.2-3.6c-2.9-2.5-5.8-5-8.8-7.5
			c-0.5-0.4-1-0.9-1.6-1.4l0,0c0.1,0.1,0.2,0.1,0.3,0.2c1.7,1.1,3.4,2.3,5.1,3.4c0.2,0.2,0.4,0.2,0.6,0c0.2-0.1,0.3-0.3,0.2-0.6
			c0,0,0,0,0-0.1c-0.2-0.5-0.4-0.9-0.6-1.4c-0.2-0.5-0.2-0.5,0.3-0.6l0.8-0.1c1.4-0.2,1.3-0.1,1.4-1.5c0-0.5,0.2-1,0.5-1.4
			c1.1-1.4,2.2-2.8,3.3-4.2l0.6-0.8c0.2-0.2,0.1-0.4-0.1-0.6c-0.4-0.3-0.5-0.3-0.8,0.1c-1.2,1.5-2.3,3.1-3.5,4.6
			c-0.6,0.6-0.9,1.5-0.9,2.4c0,0.3-0.1,0.4-0.4,0.4c-0.6,0.1-1.2,0.2-1.9,0.3c-0.6,0.1-0.7,0.4-0.5,0.9l0.3,0.7l-0.1,0.1
			c-0.1-0.1-0.2-0.1-0.3-0.2c-1.4-0.9-2.7-1.8-4.1-2.7c-2.5-1.7-4.9-3.4-7.4-5.1c-0.3-0.2-0.5-0.2-0.7,0.1c-0.2,0.3-0.2,0.5,0.1,0.7
			c1.2,1,2.4,2,3.6,3c4,3.5,8.1,6.9,12.1,10.4c0.5,0.4,1,0.9,1.5,1.3c-0.2,0-0.3-0.1-0.5-0.2c-2.7-1.6-5.3-3.3-8-4.9
			c-0.2-0.1-0.4-0.3-0.6-0.1c-0.2,0.2-0.3,0.5-0.2,0.7c0.3,0.7,0.6,1.3,1,2c0.3,0.7,0.3,0.7-0.4,0.6c-0.5-0.1-1,0.1-1.2,0.5
			c-1,1.3-8.9,11.5-9.9,12.8"/>
		<g class="st8">
			<path class="st0" d="M95.8,180.2c0.6-0.8,1.2-1.5,1.8-2.3c0.1-0.2,0.2-0.4,0.2-0.6c-0.1-0.7,0.1-1.4,0.7-1.9
				c0.4-0.3,1.3,0.2,2,0.3c0.2,0,0.3,0,0.6,0c-0.1-0.2-0.1-0.3-0.2-0.5c-0.4-0.7-0.7-1.4-1.1-2c-0.2-0.3-0.2-0.5,0.1-0.7
				c0.3-0.2,0.5-0.2,0.8,0c1.3,0.9,2.7,1.8,4,2.6c1,0.6,1.9,1.3,2.9,1.8c-0.1-0.1-0.2-0.2-0.3-0.3c-3.4-2.9-6.8-5.7-10.2-8.6
				c-2-1.7-4.1-3.5-6.1-5.2c-0.1-0.1-0.2-0.1-0.2-0.2c-0.3-0.2-0.4-0.5-0.2-0.8s0.5-0.2,0.8,0c1.2,0.7,2.4,1.5,3.7,2.2
				c3,1.8,6,3.6,9,5.4c0.1,0.1,0.2,0.1,0.4,0.2c-0.1-0.2-0.1-0.3-0.2-0.5c-0.2-0.4-0.5-0.9-0.7-1.3c-0.2-0.2-0.1-0.6,0.2-0.7
				c0.1-0.1,0.2-0.1,0.4-0.1c0.5,0,1,0,1.4,0.1c0.3,0,0.6-0.1,0.7-0.3c3-3.9,2-2.7,5-6.6l1.2-1.6c0.3-0.4,1.2-0.6,1.5-0.3
				s-4.7,6.5-7.1,9.7c-0.1,0.1-0.3,0.2-0.4,0.2c-0.3,0-0.6,0-0.9,0c-0.4,0-0.5,0.1-0.3,0.5c0.4,0.7,0.8,1.4,1.2,2.1
				c0.2,0.3,0.3,0.5,0,0.8s-0.5,0.1-0.8,0c-2.9-1.7-5.8-3.5-8.7-5.2c-0.1-0.1-0.2-0.1-0.4-0.1c0.7,0.6,1.5,1.2,2.2,1.9
				c5.4,4.6,10.8,9.1,16.2,13.7c0.1,0.1,0.2,0.2,0.3,0.2c0.3,0.3,0.4,0.5,0.2,0.8s-0.5,0.2-0.8,0c-2-1.3-3.9-2.6-5.9-3.9
				c-2.2-1.4-4.3-2.8-6.5-4.3c-0.1-0.1-0.1-0.1-0.3-0.2c0,0.1,0.1,0.3,0.1,0.4c0.2,0.4,0.4,0.8,0.6,1.2c0.3,0.5,0,0.9-0.6,0.9
				c-0.8-0.1-1.7-0.2-2.5-0.4c-0.5-0.1-0.9,0.2-0.5,0.5c0.3,0.1-0.2,0.8-0.6,1.3c-0.5,0.7-0.9,1.9-1.4,2.6"/>
			<path class="st0" d="M104.8,102.6c-3,4.7-6.1,9.3-9.1,14.1c-2.5,3.9-5,7.9-7.4,11.9c-5.3,9.3-5,10.3,5.3,16.5l24.2-31.3l1.6,1
				c-4.1,13.3-14.5,23.2-20.8,35.7c4.1,5.7,10.4,9,16.4,6.8c4.1-1.5,7.5-7.3,9.4-11.9c1.8-4.3,1.3-9.7,1.8-14.6c0.2-2,0.5-4,1.8-5.8
				c3.3,12.2,4.5,24.4-4.9,34.4c-2.7,2.9-9,5.3-12.4,4.2c-7.9-2.6-15.1-7.4-22.4-11.5c-3.8-2.1-4.8-8.7-11.2-6.9
				c-0.4,0.1-2.5-3-2.2-3.8c6.5-15.3,15.9-28.6,27.4-40.4L104.8,102.6z"/>
			<path class="st0" d="M157,114.5c-3.4-2.7-7.2-5-10.2-8.1c-5.2-5.4-9.9-11.6-18-1.4l-1-2.5l2.9-9.8c-4.5-2.2-7-10.7-15.3-5
				c-0.8,0.5-3.1-0.2-3.8-1c-0.7-0.9-0.6-3,0.1-3.9C121,70.5,130.5,58.3,140,46l2.2,1.3c-1.9,3.2-3.9,6.4-5.8,9.6
				c-2,3.4-3.9,6.9-6.1,10.2c-2.2,3.5-4.7,6.8-7.2,10.5c3.7,2.9,6.5,5.8,9.9,7.3c1.6,0.7,5.2-0.3,6.4-1.7c5.1-6.1,9.6-12.6,14.4-19
				c1-1.3,2.1-2.5,3.2-3.7c0.7,0.3,2,0.9,2.7,1.2c-1.9,4.1-4.2,8.1-6.5,11.9c-3.5,5.9-10.3,11.7-10.2,17.4c0,5,7.7,9.9,11.9,15
				c1.7,2.1,2.9,4.5,4.3,6.7L157,114.5z"/>
			<path class="st0" d="M98.8,177.1c-0.4,1.7-0.4,3.6-1.2,5.2c-4.2,8.4-8.4,16.7-12.9,24.9c-10.7,19.6-22.5,15.9-33.9,4.2
				c-4.7-4.8-9.6-9.3-13.9-14.3c-1.7-2.1-2-5.4-2.9-8.1c2.6,1.1,5.7,1.6,7.6,3.4c6,5.6,11,12.1,17.2,17.4c9.2,7.9,12.3,7.4,19.1-2.3
				c5.4-7.7,10-15.9,14.9-23.9c1.5-2.4,2.9-4.8,4.4-7.2L98.8,177.1z"/>
			<path class="st0" d="M111.1,125.9c1-1.3,8.8-11.4,9.8-12.7c0.2-0.1,0.4-0.2,0.6-0.2c0.4,0,0.8,0.1,1.2,0.1
				c0.6,0.1,0.9-0.3,0.6-0.9c-0.2-0.5-0.4-0.9-0.7-1.4c-0.1-0.1-0.1-0.3-0.2-0.5c0.2,0.1,0.3,0.2,0.4,0.2c2.4,1.4,4.8,2.9,7.1,4.3
				c1.6,1,3.2,1.9,4.7,2.9c0.4,0.3,0.6,0.2,0.8-0.1c0.2-0.4-0.1-0.5-0.3-0.7c-1.4-1.2-2.8-2.4-4.2-3.6c-2.9-2.5-5.8-5-8.8-7.5
				c-0.5-0.4-1-0.9-1.6-1.4l0,0c0.1,0.1,0.2,0.1,0.3,0.2c1.7,1.1,3.4,2.3,5.1,3.4c0.2,0.2,0.4,0.2,0.6,0c0.2-0.1,0.3-0.3,0.2-0.6
				c0,0,0,0,0-0.1c-0.2-0.5-0.4-0.9-0.6-1.4s-0.2-0.5,0.3-0.6l0.8-0.1c1.4-0.2,1.3-0.1,1.4-1.5c0-0.5,0.2-1,0.5-1.4
				c1.1-1.4,2.2-2.8,3.3-4.2l0.6-0.8c0.2-0.2,0.1-0.4-0.1-0.6c-0.4-0.3-0.5-0.3-0.8,0.1c-1.2,1.5-2.3,3.1-3.5,4.6
				c-0.6,0.6-0.9,1.5-0.9,2.4c0,0.3-0.1,0.4-0.4,0.4c-0.6,0.1-1.2,0.2-1.9,0.3c-0.6,0.1-0.7,0.4-0.5,0.9l0.3,0.7l-0.1,0.1
				c-0.1-0.1-0.2-0.1-0.3-0.2c-1.4-0.9-2.7-1.8-4.1-2.7c-2.5-1.7-4.9-3.4-7.4-5.1c-0.3-0.2-0.5-0.2-0.7,0.1
				c-0.2,0.3-0.2,0.5,0.1,0.7c1.2,1,2.4,2,3.6,3c4,3.5,8.1,6.9,12.1,10.4c0.5,0.4,1,0.9,1.5,1.3c-0.2,0-0.3-0.1-0.5-0.2
				c-2.7-1.6-5.3-3.3-8-4.9c-0.2-0.1-0.4-0.3-0.6-0.1c-0.2,0.2-0.3,0.5-0.2,0.7c0.3,0.7,0.6,1.3,1,2c0.3,0.7,0.3,0.7-0.4,0.6
				c-0.5-0.1-1,0.1-1.2,0.5c-1,1.3-8.9,11.5-9.9,12.8"/>
		</g>
	</g>
</g>
</svg>
