<svg xmlns="http://www.w3.org/2000/svg" xmlns:xlink="http://www.w3.org/1999/xlink" viewBox="0 0 506.19 146.04"><defs><style>.cls-1{font-size:29.23px;font-family:Arial-BoldMT, Arial;font-weight:700;letter-spacing:0.06em;}.cls-1,.cls-7{fill:#007eab;}.cls-2{fill:url(#Degradado_sin_nombre_2);}.cls-3{fill:url(#Degradado_sin_nombre_2-2);}.cls-4{fill:url(#Degradado_sin_nombre_2-3);}.cls-5{fill:url(#Degradado_sin_nombre_2-4);}.cls-6{fill:url(#Degradado_sin_nombre_2-5);}.cls-8{opacity:0.31;}</style><radialGradient id="Degradado_sin_nombre_2" cx="197.48" cy="77.62" r="24.8" gradientUnits="userSpaceOnUse"><stop offset="0" stop-color="#cce0f4"/><stop offset="0.06" stop-color="#c3dcf2"/><stop offset="0.17" stop-color="#a9d2ee"/><stop offset="0.31" stop-color="#80c2e7"/><stop offset="0.46" stop-color="#47acde"/><stop offset="0.57" stop-color="#1e9cd7"/><stop offset="0.87" stop-color="#0075be"/><stop offset="0.99" stop-color="#005b97"/></radialGradient><radialGradient id="Degradado_sin_nombre_2-2" cx="242.2" cy="47.94" r="42.48" xlink:href="#Degradado_sin_nombre_2"/><radialGradient id="Degradado_sin_nombre_2-3" cx="348.4" cy="45.75" r="44.91" xlink:href="#Degradado_sin_nombre_2"/><radialGradient id="Degradado_sin_nombre_2-4" cx="134.89" cy="47.83" r="44.53" xlink:href="#Degradado_sin_nombre_2"/><radialGradient id="Degradado_sin_nombre_2-5" cx="289.69" cy="41.18" r="27.21" xlink:href="#Degradado_sin_nombre_2"/></defs><title>Recurso 1</title><g id="Capa_2" data-name="Capa 2"><g id="Capa_1-2" data-name="Capa 1"><text class="cls-1" transform="translate(0 135.04)">Laboratorio de Estudios Fónicos</text><path class="cls-2" d="M174.41,76.62c1.56,0,3.12,0,4.68,0a1.73,1.73,0,0,0,1-.43,3.32,3.32,0,0,1,3.12-1.06c.83.23,1.05,1.89,1.58,2.83.13.24.3.45.52.77a8.15,8.15,0,0,0,.46-.77q.77-1.72,1.52-3.45c.2-.47.43-.76,1-.64s.73.48.77,1q.28,3.89.57,7.79c.14,1.87.28,3.73.55,5.62,0-.24.06-.47.07-.71q.49-10.87,1-21.74.29-6.57.59-13.13c0-.17,0-.34,0-.51,0-.64.22-1,.83-1s.79.4.85,1q.41,3.47.82,6.95,1,8.54,2,17.08a5.58,5.58,0,0,0,.17.64,7.23,7.23,0,0,0,.42-.7c.33-.73.63-1.49,1-2.21a.88.88,0,0,1,1.58-.18c.47.63.92,1.28,1.35,1.94a1.23,1.23,0,0,0,1.15.62c8-.09,5.45-.11,13.49-.19l3.21,0c.74,0,1.89.93,1.89,1.65s-13.16.39-19.59.43a1.06,1.06,0,0,1-.7-.37c-.33-.37-.59-.83-.89-1.24-.43-.59-.58-.57-.89.15-.52,1.2-1,2.4-1.54,3.6-.22.51-.43.88-1.06.75s-.68-.51-.75-1.06q-1-8.21-1.95-16.43a.9.9,0,0,0-.25-.58c-.08,1.56-.16,3.12-.23,4.68q-.77,17.29-1.54,34.58c0,.22-.05.44,0,.65,0,.72-.23,1.07-.89,1.09s-.74-.51-.78-1.05q-.43-5.75-.85-11.5-.47-6.3-.94-12.59c0-.14-.05-.27-.11-.59a4.92,4.92,0,0,0-.39.58c-.31.67-.59,1.35-.9,2-.42.89-1.22.95-1.7.11-.68-1.18-1.33-2.38-2-3.56-.4-.71-1.2-1-1.07-.16.09.5-1.17.52-2.35.5-1.36,0-3.35.73-4.72.73"/><path class="cls-3" d="M283.63,10.87c-9.08.76-18.16,1.45-27.24,2.29-7.61.7-15.23,1.35-22.79,2.41-17.4,2.45-18.31,3.8-16,23.24h64.56l.26,3.13c-21.26,8-44.4,4.4-66.9,8.73-3.33,11-1.31,22.41,7.67,28,6.08,3.79,16.89,2.37,24.77.24,7.43-2,13.77-8,20.61-12.22,2.8-1.72,5.67-3.3,9.28-3.48-12.49,16.53-27.13,30.16-49.36,28-6.48-.64-15.83-6.31-17.78-11.82-4.52-12.78-5.51-26.84-7.57-40.44-1.05-7,6.41-14.85-2.29-21.29-.52-.38,1.29-6.26,2.78-6.65,26.26-6.81,52.83-8,79.54-5Z"/><path class="cls-4" d="M320.39,90.22c0-7.1-.81-14.32.18-21.29,1.73-12.13,5.09-24.36-16.23-24.66l2.22-3.68,15.6-6C320.58,26.54,329,15,313.4,9.88c-1.43-.47-2.94-4.22-2.49-5.93S314.27.2,316.12.18C341.38-.07,366.63,0,391.89,0l.56,4.11c-6.1.69-12.2,1.36-18.29,2.09C367.75,7,361.37,8,354.94,8.55c-6.72.59-13.47.76-20.78,1.15,0,7.7-.92,14.18.41,20.16.62,2.79,5.51,6.45,8.6,6.57,12.92.51,25.88-.2,38.83-.38,2.65,0,5.31.28,8,.43.24,1.2.87,3.55,1.1,4.76-7.15,1.58-14.62,2.54-21.86,3.48-11.16,1.45-25.36-1.63-32.76,4.2C330,54,331.34,68.79,328.9,79.21c-1,4.2-2.85,8.2-4.32,12.29Z"/><path class="cls-5" d="M181.44,77.49c-2.63,1.23-5.15,3.06-7.91,3.6-15,2.91-30,5.76-45,8.15-36,5.69-43-13.25-39.25-39.59,1.53-10.78,2.37-21.69,4.67-32.3.94-4.32,5-8,7.57-11.92,1.15,4.43,3.6,9,3.2,13.26-1.24,13.24-4.56,26.32-5.24,39.56-1,19.73,2.72,23.38,22,22.44,15.28-.74,30.49-3,45.72-4.55,4.54-.47,9.07-1,13.6-1.53Z"/><path class="cls-6" d="M259.86,42.11c2.65,0,23.56,0,26.21,0a1.31,1.31,0,0,1,.86.54,18.17,18.17,0,0,1,1,1.66c.52.87,1.22.84,1.71-.08.39-.75.76-1.51,1.15-2.26.1-.2.24-.37.45-.7.07.38.12.56.15.75q.77,6.78,1.53,13.57c.33,3,.66,6,1,8.94.1.85.31,1,1,.94s.59-.63.61-1.1q.26-4.49.49-9,.5-9.43,1-18.85c.06-1.12.13-2.24.2-3.36h.1c0,.21.06.43.07.64q.33,5,.64,10a.78.78,0,0,0,.6.84.7.7,0,0,0,1-.39c.4-.74.81-1.48,1.22-2.21s.5-.79,1.11-.21l.94.92c1.63,1.62,1.47,1.63,3.34.33a3.86,3.86,0,0,1,2.36-.73c2.92,0,5.84,0,8.77,0l1.55,0c.43,0,.65-.25.66-.75,0-.75-.15-1-.89-1-3.16,0-6.32.09-9.48,0a5.43,5.43,0,0,0-4,1.18c-.36.32-.68.22-1-.11-.72-.73-1.46-1.45-2.2-2.16s-1.19-.56-1.67.27L299.59,41l-.18-.08c0-.21-.06-.41-.07-.62-.17-2.66-.36-5.32-.51-8Q298.41,25,298,17.71c0-.63-.22-.84-.83-.83s-.8.21-.82.84c-.09,2.53-.15,5.07-.29,7.6q-.68,13-1.4,26c-.06,1.08-.13,2.16-.19,3.24a1.67,1.67,0,0,1-.26-.81q-.85-7.61-1.7-15.22c0-.36,0-.81-.5-.86a.91.91,0,0,0-1.11.51c-.52,1.1-1.09,2.17-1.64,3.25s-.61,1.11-1.19,0a1.83,1.83,0,0,0-1.84-1.12c-2.72,0-23.69,0-26.4,0"/><path class="cls-7" d="M174.41,79.05c1.56,0,3.12,0,4.68,0a1.73,1.73,0,0,0,1-.43,3.32,3.32,0,0,1,3.12-1.06c.83.23,1.05,1.89,1.58,2.83.13.24.3.45.52.77a8.15,8.15,0,0,0,.46-.77q.77-1.72,1.52-3.45c.2-.47.43-.76,1-.64s.73.48.77,1q.28,3.89.57,7.79c.14,1.87.28,3.73.55,5.62,0-.24.06-.47.07-.71q.49-10.87,1-21.74.29-6.57.59-13.13c0-.17,0-.34,0-.51,0-.64.22-1,.83-1s.79.4.85,1q.41,3.47.82,6.95,1,8.54,2,17.08a5.58,5.58,0,0,0,.17.64,7.23,7.23,0,0,0,.42-.7c.33-.73.63-1.49,1-2.21a.88.88,0,0,1,1.58-.18c.47.63.92,1.28,1.35,1.94a1.23,1.23,0,0,0,1.15.62c8-.09,5.45-.11,13.49-.19l3.21,0c.74,0,1.89.93,1.89,1.65s-13.16.39-19.59.43a1.06,1.06,0,0,1-.7-.37c-.33-.37-.59-.83-.89-1.24-.43-.59-.58-.57-.89.15-.52,1.2-1,2.4-1.54,3.6-.22.51-.43.88-1.06.75s-.68-.51-.75-1.06q-1-8.21-1.95-16.43a.9.9,0,0,0-.25-.58c-.08,1.56-.16,3.12-.23,4.68q-.77,17.29-1.54,34.58c0,.22-.05.44,0,.65,0,.72-.23,1.07-.89,1.09s-.74-.51-.78-1.05q-.43-5.75-.85-11.5-.47-6.3-.94-12.59c0-.14-.05-.27-.11-.59a4.92,4.92,0,0,0-.39.58c-.31.67-.59,1.35-.9,2-.42.89-1.22.95-1.7.11-.68-1.18-1.33-2.38-2-3.56-.4-.71-1.2-1-1.07-.16.09.5-1.17.52-2.35.5-1.36,0-3.35.73-4.72.73"/><path class="cls-7" d="M283.63,13.31c-9.08.76-18.16,1.45-27.24,2.29-7.61.7-15.23,1.35-22.79,2.41-17.4,2.45-18.31,3.8-16,23.24h64.56l.26,3.13c-21.26,8-44.4,4.4-66.9,8.73-3.33,11-1.31,22.41,7.67,28,6.08,3.79,16.89,2.37,24.77.24,7.43-2,13.77-8,20.61-12.22,2.8-1.72,5.67-3.3,9.28-3.48-12.49,16.53-27.13,30.16-49.36,28C222,93,212.68,87.33,210.72,81.82,206.2,69,205.21,55,203.16,41.37c-1.05-7,6.41-14.85-2.29-21.29-.52-.38,1.29-6.26,2.78-6.65,26.26-6.81,52.83-8,79.54-5Z"/><path class="cls-7" d="M320.39,92.66c0-7.1-.81-14.32.18-21.29,1.73-12.13,5.09-24.36-16.23-24.66L306.56,43l15.6-6C320.58,29,329,17.39,313.4,12.31c-1.43-.47-2.94-4.22-2.49-5.93s3.36-3.74,5.21-3.76c25.25-.25,50.51-.17,75.76-.17l.56,4.11c-6.1.69-12.2,1.36-18.29,2.09-6.41.77-12.79,1.78-19.22,2.34-6.72.59-13.47.76-20.78,1.15,0,7.7-.92,14.18.41,20.16.62,2.79,5.51,6.45,8.6,6.57,12.92.51,25.88-.2,38.83-.38,2.65,0,5.31.28,8,.43.24,1.2.87,3.55,1.1,4.76-7.15,1.58-14.62,2.54-21.86,3.48-11.16,1.45-25.36-1.63-32.76,4.2-6.45,5.08-5.1,19.87-7.54,30.29-1,4.2-2.85,8.2-4.32,12.29Z"/><path class="cls-7" d="M181.44,79.92c-2.63,1.23-5.15,3.06-7.91,3.6-15,2.91-30,5.76-45,8.15-36,5.69-43-13.25-39.25-39.59,1.53-10.78,2.37-21.69,4.67-32.3.94-4.32,5-8,7.57-11.92,1.15,4.43,3.6,9,3.2,13.26-1.24,13.24-4.56,26.32-5.24,39.56-1,19.73,2.72,23.38,22,22.44,15.28-.74,30.49-3,45.72-4.55,4.54-.47,9.07-1,13.6-1.53Z"/><path class="cls-7" d="M259.86,44.54c2.65,0,23.56,0,26.21,0a1.31,1.31,0,0,1,.86.54,18.17,18.17,0,0,1,1,1.66c.52.87,1.22.84,1.71-.08.39-.75.76-1.51,1.15-2.26.1-.2.24-.37.45-.7.07.38.12.56.15.75q.77,6.78,1.53,13.57c.33,3,.66,6,1,8.94.1.85.31,1,1,.94s.59-.63.61-1.1q.26-4.49.49-9,.5-9.43,1-18.85c.06-1.12.13-2.24.2-3.36h.1c0,.21.06.43.07.64q.33,5,.64,10a.78.78,0,0,0,.6.84.7.7,0,0,0,1-.39c.4-.74.81-1.48,1.22-2.21s.5-.79,1.11-.21l.94.92c1.63,1.62,1.47,1.63,3.34.33a3.86,3.86,0,0,1,2.36-.73c2.92,0,5.84,0,8.77,0l1.55,0c.43,0,.65-.25.66-.75,0-.75-.15-1-.89-1-3.16,0-6.32.09-9.48,0a5.43,5.43,0,0,0-4,1.18c-.36.32-.68.22-1-.11-.72-.73-1.46-1.45-2.2-2.16s-1.19-.56-1.67.27l-.65,1.11-.18-.08c0-.21-.06-.41-.07-.62-.17-2.66-.36-5.32-.51-8q-.41-7.29-.79-14.58c0-.63-.22-.84-.83-.83s-.8.21-.82.84c-.09,2.53-.15,5.07-.29,7.6q-.68,13-1.4,26c-.06,1.08-.13,2.16-.19,3.24a1.67,1.67,0,0,1-.26-.81q-.85-7.61-1.7-15.22c0-.36,0-.81-.5-.86a.91.91,0,0,0-1.11.51c-.52,1.1-1.09,2.17-1.64,3.25s-.61,1.11-1.19,0a1.83,1.83,0,0,0-1.84-1.12c-2.72,0-23.69,0-26.4,0"/><g class="cls-8"><path class="cls-7" d="M175.41,77.79c1.56,0,3.12,0,4.68,0a1.73,1.73,0,0,0,1-.43,3.32,3.32,0,0,1,3.12-1.06c.83.23,1.05,1.89,1.58,2.83.13.24.3.45.52.77a8.15,8.15,0,0,0,.46-.77q.77-1.72,1.52-3.45c.2-.47.43-.76,1-.64s.73.48.77,1q.28,3.89.57,7.79c.14,1.87.28,3.73.55,5.62,0-.24.06-.47.07-.71q.49-10.87,1-21.74.29-6.57.59-13.13c0-.17,0-.34,0-.51,0-.64.22-1,.83-1s.79.4.85,1q.41,3.47.82,6.95,1,8.54,2,17.08a5.58,5.58,0,0,0,.17.64,7.23,7.23,0,0,0,.42-.7c.33-.73.63-1.49,1-2.21a.88.88,0,0,1,1.58-.18c.47.63.92,1.28,1.35,1.94a1.23,1.23,0,0,0,1.15.62c8-.09,5.45-.11,13.49-.19l3.21,0c.74,0,1.89.93,1.89,1.65s-13.16.39-19.59.43a1.06,1.06,0,0,1-.7-.37c-.33-.37-.59-.83-.89-1.24-.43-.59-.58-.57-.89.15-.52,1.2-1,2.4-1.54,3.6-.22.51-.43.88-1.06.75s-.68-.51-.75-1.06q-1-8.21-1.95-16.43a.9.9,0,0,0-.25-.58c-.08,1.56-.16,3.12-.23,4.68q-.77,17.29-1.54,34.58c0,.22-.05.44,0,.65,0,.72-.23,1.07-.89,1.09s-.74-.51-.78-1.05q-.43-5.75-.85-11.5-.47-6.3-.94-12.59c0-.14-.05-.27-.11-.59a4.92,4.92,0,0,0-.39.58c-.31.67-.59,1.35-.9,2-.42.89-1.22.95-1.7.11-.68-1.18-1.33-2.38-2-3.56-.4-.71-1.2-1-1.07-.16.09.5-1.17.52-2.35.5-1.36,0-3.35.73-4.72.73"/><path class="cls-7" d="M284.63,12c-9.08.76-18.16,1.45-27.24,2.29-7.61.7-15.23,1.35-22.79,2.41-17.4,2.45-18.31,3.8-16,23.24h64.56l.26,3.13c-21.26,8-44.4,4.4-66.9,8.73-3.33,11-1.31,22.41,7.67,28,6.08,3.79,16.89,2.37,24.77.24,7.43-2,13.77-8,20.61-12.22,2.8-1.72,5.67-3.3,9.28-3.48-12.49,16.53-27.13,30.16-49.36,28-6.48-.64-15.83-6.31-17.78-11.82-4.52-12.78-5.51-26.84-7.57-40.44-1.05-7,6.41-14.85-2.29-21.29-.52-.38,1.29-6.26,2.78-6.65,26.26-6.81,52.83-8,79.54-5Z"/><path class="cls-7" d="M321.39,91.39c0-7.1-.81-14.32.18-21.29,1.73-12.13,5.09-24.36-16.23-24.66l2.22-3.68,15.6-6C321.58,27.71,330,16.12,314.4,11c-1.43-.47-2.94-4.22-2.49-5.93s3.36-3.74,5.21-3.76c25.25-.25,50.51-.17,75.76-.17l.56,4.11c-6.1.69-12.2,1.36-18.29,2.09-6.41.77-12.79,1.78-19.22,2.34-6.72.59-13.47.76-20.78,1.15,0,7.7-.92,14.18.41,20.16.62,2.79,5.51,6.45,8.6,6.57,12.92.51,25.88-.2,38.83-.38,2.65,0,5.31.28,8,.43.24,1.2.87,3.55,1.1,4.76C384.91,44,377.44,45,370.2,45.89c-11.16,1.45-25.36-1.63-32.76,4.2C331,55.17,332.34,70,329.9,80.38c-1,4.2-2.85,8.2-4.32,12.29Z"/><path class="cls-7" d="M182.44,78.66c-2.63,1.23-5.15,3.06-7.91,3.6-15,2.91-30,5.76-45,8.15-36,5.69-43-13.25-39.25-39.59C91.77,40,92.6,29.11,94.91,18.51c.94-4.32,5-8,7.57-11.92,1.15,4.43,3.6,9,3.2,13.26-1.24,13.24-4.56,26.32-5.24,39.56-1,19.73,2.72,23.38,22,22.44,15.28-.74,30.49-3,45.72-4.55,4.54-.47,9.07-1,13.6-1.53Z"/><path class="cls-7" d="M260.86,43.28c2.65,0,23.56,0,26.21,0a1.31,1.31,0,0,1,.86.54,18.17,18.17,0,0,1,1,1.66c.52.87,1.22.84,1.71-.08.39-.75.76-1.51,1.15-2.26.1-.2.24-.37.45-.7.07.38.12.56.15.75q.77,6.78,1.53,13.57c.33,3,.66,6,1,8.94.1.85.31,1,1,.94s.59-.63.61-1.1q.26-4.49.49-9,.5-9.43,1-18.85c.06-1.12.13-2.24.2-3.36h.1c0,.21.06.43.07.64q.33,5,.64,10a.78.78,0,0,0,.6.84.7.7,0,0,0,1-.39c.4-.74.81-1.48,1.22-2.21s.5-.79,1.11-.21l.94.92c1.63,1.62,1.47,1.63,3.34.33a3.86,3.86,0,0,1,2.36-.73c2.92,0,5.84,0,8.77,0l1.55,0c.43,0,.65-.25.66-.75,0-.75-.15-1-.89-1-3.16,0-6.32.09-9.48,0a5.43,5.43,0,0,0-4,1.18c-.36.32-.68.22-1-.11-.72-.73-1.46-1.45-2.2-2.16s-1.19-.56-1.67.27l-.65,1.11-.18-.08c0-.21-.06-.41-.07-.62-.17-2.66-.36-5.32-.51-8q-.41-7.29-.79-14.58c0-.63-.22-.84-.83-.83s-.8.21-.82.84c-.09,2.53-.15,5.07-.29,7.6q-.68,13-1.4,26c-.06,1.08-.13,2.16-.19,3.24a1.67,1.67,0,0,1-.26-.81q-.85-7.61-1.7-15.22c0-.36,0-.81-.5-.86a.91.91,0,0,0-1.11.51c-.52,1.1-1.09,2.17-1.64,3.25s-.61,1.11-1.19,0a1.83,1.83,0,0,0-1.84-1.12c-2.72,0-23.69,0-26.4,0"/></g></g></g></svg>