<svg xmlns="http://www.w3.org/2000/svg" id="Capa_1" data-name="Capa 1" viewBox="0 0 471 451"><defs><style>.cls-1{font-size:21.08px;font-family:CharisSIL, Charis SIL;}.cls-2{fill:#069;stroke:#069;}.cls-2,.cls-20,.cls-21,.cls-22,.cls-24,.cls-3{stroke-miterlimit:10;}.cls-3{fill:#f2d459;}.cls-20,.cls-22,.cls-24,.cls-3{stroke:#c96;stroke-width:0.25px;}.cls-4{fill:#d36f60;}.cls-24,.cls-5{fill:#f7d3b9;}.cls-6{fill:#cc6360;}.cls-7{fill:#eda88b;}.cls-8{fill:#e7a88e;}.cls-9{fill:#e8a78c;}.cls-10{fill:#e7a48d;}.cls-11{fill:#eca88a;}.cls-12{fill:#e7a48c;}.cls-13{fill:#deab96;}.cls-14{fill:#e1a790;}.cls-15{fill:#dfa78d;}.cls-16{fill:#e6a487;}.cls-17{fill:#d5a78e;}.cls-18{fill:#d3a78f;}.cls-19{fill:#d5a790;}.cls-20{fill:#f3d356;}.cls-21{fill:#f5d3b6;stroke:#c99;}.cls-22{fill:#fceabd;}.cls-23{fill:#ec7f4b;}.cls-25{fill:#cd9765;}</style></defs><g id="oclusivas"><text class="cls-1" transform="translate(295.1 36.61)">p</text><text class="cls-1" transform="translate(77.3 61.64)">t</text><text class="cls-1" transform="translate(58.56 260.7)">d</text><text class="cls-1" transform="translate(394.62 383.65)">ʈ</text><text class="cls-1" transform="translate(158.58 418.18)">ɢ</text><text class="cls-1" transform="translate(401.65 196.3)">ʔ</text></g><path d="M-.27-.14v451h471v-451zM461 421.85a19.5 19.5 0 0 1-19.5 19.5H29a19.5 19.5 0 0 1-19.51-19.5v-393A19.5 19.5 0 0 1 29 9.36h412.51A19.5 19.5 0 0 1 461 28.87z" class="cls-2"/><path d="M213 215.08c8-.47 13.65-.47 25 1.89 12.3 2.56 18.83 7.53 23.07 12.24s7.54 11.79 5.18 19.79-6.59 10.84-8.48 14.13-1.41 4.24 2.83 4.24 3.76 1.41 2.35 3.3-2.83 6.59-1.41 8.94 2.93 5.66 8.06 0a128.12 128.12 0 0 0 8.4-10.36c1.88-2.36 3.77 1.41 3.3 4.24s-1.89 11.77-5.19 18.83-9.89 21.66-11.3 25.43-7.54 25.43-7.07 31.08 3.29 26.85 6.12 39.09 5.65 26.85 5.65 26.85H247.1s-7.24-21.71-8.18-29.46-1.41-13.39-2.35-24.7-2.36-17.42-6.12-20.25c-3.56-2.66-5.17-3.16-14.13-3.3-5.67-.08-8.48-.94-20.25-4.24-8.48-2.82-16-8.48-21.66-10.36s-12.25-4.71-19.78-6.13S133 314 130.61 298.9s5.18-23.55 9.42-29.67 4.71-9.89 3.77-15.54-5.28-14.4-2.82-19.31c1.88-3.77 9-5.65 13.19-1.41 3.14 3.14.47 14.6.47 17.42s1.16 8.72 4.23 5.65c3.3-3.29 3.77-5.18 5.66-4.7s7.53-1.89 7.53-1.89 3.21-4.06 7.54 1.89c3.76 5.18 6.12 9 8.94 8s.94-2.35 1.42-4.7 3.84.27 5.18.94c1.88.94 4.71 1.88 3.29-3.3s-6.12-8.95-11.3-13.66-6.68-15.39 3.77-19.31c7.54-2.82 16.88-3.92 22.1-4.23z" class="cls-3"/><path d="M177.72 213.66c5.77-3.85 10.3-7.06 26.84-7.06a213.77 213.77 0 0 1 36.26 2.83c4.71.94 17.9 4.24 23.08 8.95a45.18 45.18 0 0 1 9 11.31c1.41 2.35 5.18 4.71 5.18-.95 0-7.06-.94-12.71-6.59-18.83s-15.07-11.31-15.07-11.31L192.79 184s-17.89-3.29-18.37-3.29h-15.55l-14.59 6.12-1.41 2.36s.47 10.83-.94 16.48c-1.09 4.34-4.24 8-4.24 14.6 0 5.18 1.41 7.54 5.65 8.95 5.52 1.84 6.74 2.11 10.36-.47 3.29-2.36 1.41-6.59 1.41-12.25 0-4.23 0-6.43 3.3-5.65 3.17.75 2.82 1.89 3.29 3.3.34 1 1.35 1.17 2.36.47s7.53-1.88 7.53-1.88.74 1.64.95 2.35a18.73 18.73 0 0 0 .47 2.36c.25.61.62.89.94.47 1.41-1.92 2.35-3.32 3.77-4.26z" class="cls-3"/><path d="M200.81 111.47s21.66 1.42 28.72 2.36c6.69.89 15.54 3.77 18.37 5.65s8 5.65 9 9.89a142.78 142.78 0 0 0 4.7 16c1.89 4.71 7.54 8.94 12.72 12.24s10.36 6.13 14.6 11.78a41.65 41.65 0 0 1 8.47 20.25c1.41 9 2.35 21.66 1.88 29.67s-1.89 18.84-2.36 19.31-1.41.94-1.41-2.36-1.5-14.11-9.5-20.7-14.59-9.89-26.37-13.66a237.74 237.74 0 0 0-32-7.54c-10.36-1.89-29.2-5.18-35.32-6.6s-22.13-4.24-26.37-4.71-7.07-.94-11.78.94-11.3 6.59-14.6 7.06-8.95 1.41-12.24 0-3-3.54-1.88-6.12c1.88-4.24 1.41-3.77 1.41-7.54s0-6.59 4.24-11.77 17.43-17.89 18.37-19.31 8.48-8 13.66-16c2.63-4.07 8.33-13.34 13.66-16 5.66-2.84 9.43-3.78 24.03-2.84z" class="cls-4"/><path d="M118.38 182.1a2.65 2.65 0 0 0 2.36 1.89c1.41 0 1.88-1 1.88-2.83a48.63 48.63 0 0 1 .47-8 19.47 19.47 0 0 1 3.3-7.06 38.6 38.6 0 0 1 3.77-4.24 13.27 13.27 0 0 0 2.82-4.24c.48-1.41.48-2.82-.94-2.35a13.23 13.23 0 0 0-3.77 2.35 43.87 43.87 0 0 0-3.76 4.24 44.88 44.88 0 0 0-3.3 4.71 23.86 23.86 0 0 0-2.36 5.69c-.47 2.31-1.41 7.02-.47 9.84zM147.11 143l4.71-5.65s3.3-4.24 4.24-5.18 3.77-4.71 4.24-5.18.47-2.83-1.88-1.89a15 15 0 0 0-4.71 3.3c-.47.47-2.83 3.29-3.77 4.24s-3.77 4.7-4.71 5.65-2.35 2.82-3.3 3.76a33.23 33.23 0 0 0-3.76 5.18c-.42 1-1.89 2.83 0 3.3a3.41 3.41 0 0 0 3.76-.94c.95-.92 5.18-6.59 5.18-6.59z" class="cls-3"/><path d="M234.71 148.21a14.6 14.6 0 0 1 5.18.94 53.77 53.77 0 0 1 9 4.24c.55.37 4.24 2.83 5.18 3.3s3.76 2.35 3.76.94c0-1.94-4.23-5.18-5.65-6.12a80.2 80.2 0 0 0-8.94-4.71c-1.42-.48-6.13-2.36-7.54-2.83a32.93 32.93 0 0 1-4.71-1.88c-1.88-1-3.29-1.89-5.65-1.89s-4.6.44-4.24 1.88c.47 1.89 2.83 4.24 6.6 5.19a27.12 27.12 0 0 0 7.01.94zM217.28 167s13.45 5.55 17.43 7.54c3.76 1.89 10.36 4.24 14.12 5.65 2.25.85 8 1.89 11.31 1.42 2.83-.41 9.42-3.3 9.42-4.71s-.47-2.83-2.81-1.89a51.7 51.7 0 0 1-5.2 1.89c-3.3.94-7.54.94-17.14-2.55a100 100 0 0 1-19.12-10.17 126.08 126.08 0 0 0-14.13-8.48c-2.82-1.41-7.76-3.87-9.77-5s-7.74-2.51-9.54-1.12-2.82 6.12.47 8c4 2.3 9.89 3.77 12.72 4.71s12.24 4.71 12.24 4.71zM294 212.73s1.41 2.83 1.41.48-1.41-7.54-1.88-9.42c-.36-1.45-1.88-8-2.82-9.89-.76-1.52-3.3-8-4.24-9.42s-1.88-3.3-3.3-3.3-1.77 1.38-1.41 2.83a29.08 29.08 0 0 0 2.35 5.65c.94 1.88 2.36 4.24 2.83 5.18a62.53 62.53 0 0 1 3.29 7.53l1.89 5.66c.51 1.41 1.88 4.7 1.88 4.7zM287.45 209s.94 1.41 1.41.47-.47-3.3-.94-4.71-1.41-4.24-1.88-5.18-1.42-3.3-2.36-4.24c-1.2-1.2-3.29-1.41-4.24-.47a2.89 2.89 0 0 0-.47 3.29 6.41 6.41 0 0 0 2.36 2.36 26.17 26.17 0 0 1 3.29 2.35 9.42 9.42 0 0 1 1.42 2.83 31.89 31.89 0 0 0 1.41 3.3z" class="cls-5"/><path d="M164.06 214.6v12.72s.47 2.82 1.88.47 4.24-7.54 4.24-7.54 1.47-2.44 1.88-3.29c.69-1.42.95-2.39 1.42-6.12s-.47-7.55-.47-8.55c0-1.34-.47-3.7-2.36-2.76-2.1 1.06-1.88 2.83-1.88 5.18a13.91 13.91 0 0 1-.94 4.71 14.83 14.83 0 0 1-1.42 2.83 9.6 9.6 0 0 1-2.35 2.35M170.18 254.16a6.25 6.25 0 0 0 1.41-3.29 13.67 13.67 0 0 0 0-4.71 10.83 10.83 0 0 0-1.88-5.18c-.94-1.42-.94-3.77-1.42-4.71s-1.41-2.83-2.35-2.36-1.41 2.36-1.41 3.77a13.72 13.72 0 0 1-.95 4.71 9.74 9.74 0 0 0-.94 2.82c0 .47-.47.95.94 1.89s2.36 1.41 2.36 2.35-.47 2.36-.47 2.83.75 1.41.94 2.35.94 2.83 1.88 1.89c.47-.47 1.42-1.89 1.89-2.36z" class="cls-6"/><path d="M321.82 264.07s2.35-1.41 2.35-3.29 0-4.24-.94-4.71-1.88-.95-.94-1.42 1.89.47 2.36.94a3.64 3.64 0 0 1 .94 2.36 11.77 11.77 0 0 1-.47 3.77c-.47 1.41-1.89 3.76-2.36 3.76s-.94-1.41-.94-1.41z" class="cls-7"/><path d="M303.76 265.48c-.31-.47-1.72-1.41-2.19-2.35a4.29 4.29 0 0 1-.47-3.3 4 4 0 0 1 1.41-2.35 7.93 7.93 0 0 1 1.89-1.42l-1.89-.47a3.54 3.54 0 0 0-1.63 1.33 4.58 4.58 0 0 0-1.19 3.38c0 1.88 0 2.36.47 3.3a6.49 6.49 0 0 0 1.41 1.88l.94.94c.49.47 1.25-.94 1.25-.94z" class="cls-8"/><path d="M322.29 290.92a7 7 0 0 1 2.82 2.82 7.15 7.15 0 0 1 .94 3.77 18 18 0 0 1-1.41 4.71c-.47.94-1.41-.38-.94-1.6s1.1-2.32.78-3.89-1.25-4.15-2.66-4.51.47-1.3.47-1.3z" class="cls-9"/><path d="M302.51 292.8a8.44 8.44 0 0 0-1.89 3.29 10.76 10.76 0 0 0 .47 5.65c.64 1.65 1.42 3.3 1.42 3.3s2.35.47 1.41-1.41a15.67 15.67 0 0 1-1.41-3.3 8 8 0 0 1 0-4.71c.47-1.41.47-1.41.94-1.88s-.94-.94-.94-.94z" class="cls-10"/><path d="M326.05 328.12a17.62 17.62 0 0 1 2.35 2.88 9.18 9.18 0 0 1 .47 3.29c0 1.42 0 4.24-.94 5.18s-1.41 0-1.41-.47.94-2.35.94-3.77a8 8 0 0 0-.47-3.29c-.54-1.61-.94-2.36-1.88-2.83s.94-.99.94-.99z" class="cls-11"/><path d="M307.68 333.3a7.25 7.25 0 0 0-1.47 2 5.22 5.22 0 0 0 .06 3.65 6.49 6.49 0 0 0 1.41 1.88c.75.75.94 1.42.47 1.42s-1.15-.22-2.35-1.42a4.28 4.28 0 0 1-1.42-3.29 5.94 5.94 0 0 1 .95-3.3c.94-1.41 1.41-1.41 1.41-1.41z" class="cls-12"/><path d="M332.64 361.56a5.29 5.29 0 0 1 1.88 2.35 9.57 9.57 0 0 1 0 3.77c-.15.84-.47 2.83-.94 3.3s-1.39.87-.94-.47a16.09 16.09 0 0 0 .47-4.71 9.3 9.3 0 0 0-.92-2.93.94.94 0 0 1 .45-1.31z" class="cls-13"/><path d="M312.39 365.79a3.32 3.32 0 0 0-.94 1.89 14.68 14.68 0 0 0 0 2.82 4.45 4.45 0 0 0 1.42 2.36l.94.94a1.8 1.8 0 0 1-1.7.29c-1.13-.29-2.07-2.64-2.07-3.59a12.66 12.66 0 0 1 0-2.82c.21-.85 1-2.55 1.7-2.45s.65.56.65.56z" class="cls-14"/><path d="M338.76 389.82a6.7 6.7 0 0 1 1.88.94 5.37 5.37 0 0 1 1.41 3.29 16.22 16.22 0 0 1-.47 4.24 5.65 5.65 0 0 1-.94 1.89 1 1 0 0 1-.94-.94c-.06-.79.7-2.1.94-3.3a5 5 0 0 0-.47-3.3 5.5 5.5 0 0 0-2.83-2.35c-.47 0 1.42-.47 1.42-.47z" class="cls-15"/><path d="M320.86 402.53a8.11 8.11 0 0 1-1.88-1.41 6.29 6.29 0 0 1-1.65-2.55 9.16 9.16 0 0 1 0-3.58c.23-.94-1.18-.47-1.18-.47s-.47.47-.47 2.36a7.28 7.28 0 0 0 .94 3.76c.47.95 2.36 1.89 2.83 2.36s1.41-.47 1.41-.47z" class="cls-16"/><path d="M116.5 186.81s-2.55-7.08-2-11.78a27.08 27.08 0 0 1 7.52-16.9c8.12-9 18-18.88 21.78-24.06s13.21-17.38 16.73-22.35 11.06-14.38 10.12-21-1.72-15 .08-21.63 6.05-15.57 8.4-20.28 8.65-17.42 8.65-17.42h-3.66s-8.49 15.92-10.51 20S167.9 63.6 167.17 68a50.84 50.84 0 0 0 .38 17.15c1.23 6.08-3.65 16.44-9.45 24s-15.22 19.94-20.4 25.75-10.84 13.33-16 18.51-9.42 10.36-9.89 18.37.32 12.24 1.57 15.07 5 6.55 3.12-.04z" class="cls-17"/><path d="M315.68 414.3s-7.23-28.27-8.56-35.56-5.94-33.67-6.69-39.79-2.93-34.75-2.78-44.45-.79-33.26.62-42.21 4.28-36.42 4-44.11 1.16-24.64 2.11-27.47 3.55-5.2 2-5.66-3.86-.93-4.12 6.13-1.64 7-1.42 15.26.79 14-.44 25.26-5 36.2-5 46.35 0 32.28 1.4 50.18 4.71 38 6.36 48.88 6.91 29.66 8.51 38.19 2.07 9.47 2.07 9.47z" class="cls-18"/><path d="M359 414.31s-12.73-33.47-15.3-47.82-7.23-48.15-7.95-61.39-4.1-52.3-1.66-65.52c3.3-17.89 7.54-25.43 1.89-47.09-3.61-13.82-10.36-17.43-15.07-28.6-2.82-8.61-3.87-21 .42-28.69S309 118 306.24 120.86c-2.3 4.75-1.33 10.16-5.35 10.52s-13 1.76-7.31-8.6c5.65-5.65 5.91-9-3.4-11.82s-12.61-1.84-34.74-4.66-35-3.85-43.42-17-6-29.79-3.89-34.42 9.72-23.47 9.72-23.47l-9.72.35S197.05 59.67 200.81 70s8.95 26.84 12.71 30.61 30.14 16.49 51.33 14.61 24.36.87 23.72 1.61-4 5.8-3.71 8.92 3.54 10.19 6.84 11.6 12.24 2.36 14.59-2.35 2.36-8 2.83-8 4.61 1.22 5.37 4.85-.93 9.06-.8 17.18a61 61 0 0 0 6.26 24.6 108.73 108.73 0 0 0 9.41 13.66s7.07 15.54 4.71 33.44-5.18 14.59-4.71 34.85 2.63 45.5 4.23 63.57 7.52 54.63 9.88 61.7 9.53 32 11.83 33.44 3.7.02 3.7.02z" class="cls-19"/><path d="M162.66 120.88c.47-.47 9.46-6.88 11-8.11 3.25-2.64 4.61-3.33 11.17-4.13 11.23-1.37 28.26 1 30.62 1s23.24 3.2 27.63 4.9 14.87 7.85 15.52 10.42 3.4 11.04 3.9 13.83 4.45 11 9.88 15.07c5.66 4.24 21.67 13.66 27.32 18.37 4.6 3.84 11.94 13.41 15.06 17.43 3.3 4.24 9.89 6.6 11.78 5.65 2.7-1.34 2.82-5.18 2.82-8 0-2.4-3.05-8.16-7.53-15.07-5.18-8-6.86-15.5-6.49-23.06a58.23 58.23 0 0 1 2.26-14.62c.47-1.88.94-3.77-2.36-5.65-3.85-2.21-4.23-4.24-5.65-4.24-1.88 0-1.88 2.83-2.82 5.65s-2.12 4.9-5.18 6.12c-2.36.94-6.13.47-8.95-1.88s-4.71-4.71-5.18-6.13a6.92 6.92 0 0 1 .94-5.18c.94-1.41 3.3-3.29 3.77-5.65.21-1-.94-3.29-6.12-4.24s-9.42-.94-13.19-1.41-10.86-.95-15.54-1.41-13.66-1.89-18.84-2.83-15.54-3.77-19.78-6.6c-3.61-2.41-9.12-9.71-11.77-15.54-2.35-5.18-5.18-11.78-4.71-20.25s1.42-13.19 3.77-18.84c2-4.86 7.07-14.6 7.07-14.6l-19.78-.47-8.95 17.89c-.94 1.89-3.77 9-5.18 12.72s-3.3 8.47-2.83 14.6.47 13.65 0 16a19.45 19.45 0 0 1-3.77 8c-1.88 2.36-4.24 5.66-5.65 7.54s-3.77 4.71-5.18 6.59-2.83 4.71-2.36 6.12 3.3.01 3.3.01z" class="cls-20"/><path d="M319.92 414.3h26.84s-3.3-4.71-3.3-8 .48-5.18-.94-6.12-7.53-1.42-10.36-.95-5.2 1.58-7.06 1.89c-2.83.47-7.09 1-7.54 2.35s-.47 4.24 2.36 10.83zM327.93 393.58a9.35 9.35 0 0 1 6.12-2.82c3.29 0 5.18 0 5.18-.94a8.56 8.56 0 0 0-1.41-5.18c-1.42-1.89-1.42-6.13-1.42-7.54a12.94 12.94 0 0 0-.94-5.65c-.94-1.89-5.18-2.36-6.59-1.89s-3.77 2.83-6.12 3.3-6.12 0-7.54 0-4.24.47-3.29 3.77 2.82 5.65 3.29 7.06a9.69 9.69 0 0 1 0 5.18c-.47 1.41-.47 4.24.47 5.65s4.71 1.42 6.59 1 3.73-.05 5.66-1.94zM319.92 364.85a39.55 39.55 0 0 1 6.13-1.41c3.76-.47 5.18.47 6.59-.94s1.41-3.3.47-5.18-3.3-4.24-2.82-7.06a40.8 40.8 0 0 0 .47-7.07 4.21 4.21 0 0 0-4.24-4.24c-2.83 0-5.65.94-8.48.94a40.63 40.63 0 0 0-8 .47c-1.89.47-4.24 1.89-3.77 6.12s.94 4.71 1.88 6.6a10.16 10.16 0 0 1 .94 5.18c0 1.88-.47 5.65.94 7.06a5.71 5.71 0 0 0 6.12 1.42 21.81 21.81 0 0 0 3.77-1.89zM316.16 330.94a8.44 8.44 0 0 1 4.71-1.41c2.82 0 5.65.47 6.12-.94a17.15 17.15 0 0 0 0-8.61 23.39 23.39 0 0 1-.47-9.76c.47-2.82.47-6.12-.47-7.53s-3.76-2.36-7.06-.94a13.72 13.72 0 0 1-6.59 1.41 31.22 31.22 0 0 1-6.6-.47c-1.88-.47-5.65.47-4.24 6.12s2 6.63 2.36 8.48a20.19 20.19 0 0 1-.48 7.53 12.92 12.92 0 0 0 0 6.12c.49 1.42 1 3.3 4.73 2.83a26.61 26.61 0 0 0 7.99-2.83zM307.22 294.21a49.52 49.52 0 0 1 8.94-1.41c3.3 0 5 .47 6 0s2.44-3.3 2-7.06c-.41-3.31-1.41-6.6-1.41-9.42a33.27 33.27 0 0 1 1.41-8c.47-1.88-.94-4.71-2.82-5.18s-5.18.47-7.54 1.88c-2.58 1.55-6.12.94-8.94.47s-5.19.94-5.19 4.71 1.89 6.12 2.36 8a11.94 11.94 0 0 1 0 7.06c-.81 2.41-1.42 4.71-1 6.12.82 2.28.97 3.77 6.19 2.83zM320.88 255.59s5.18.48 4.24-4.23a101.13 101.13 0 0 1-1.88-15.07 76.29 76.29 0 0 1 2-14.33c.82-2.63 2.24-8.75 2.71-11.1s-.47-5.18-2.36-6.13-5.18-1.88-8.47 3.3a37.83 37.83 0 0 0-5.18 12.71 96.54 96.54 0 0 1-3.3 10.83c-1.42 3.77-2.83 6.6-4.24 9.89s-2.83 5.18-3.3 8-.47 6.59 2.82 7.06 5.18-.94 8.48-.94z" class="cls-21"/><path d="M281.85 152.59c.47.47 2.35 2.83 4.24 2.83s2.82-1.42 4.23-1.89 4.24-.47 3.77-2.82 0-5.65-1.88-7.54-4.24-2.82-5.65-5.65-1.88-5.18-2.83-7.06-1.41-4.24-4.71-4.71-7.06-1-9.41 3.29-2.36 3.3-3.3 6.12-1.42 5.18.47 6.6 5.18 1.88 6.59 2.35 4.24 1.42 5.18 3.77a17.22 17.22 0 0 0 3.3 4.71zM202.32 104.72s3.77-.47 5.18-2.83.47-6.12-.47-8-5.18-6.13-6.59-8a9.62 9.62 0 0 1-1.88-7.54 6.9 6.9 0 0 0-4.24-7.06 8.26 8.26 0 0 0-8 .94c-2.35 1.88-3.76 4.24-3.29 7.06a27.43 27.43 0 0 0 2.43 8.41c1.33 2.43 1.33 5.25.86 8.08s-2.83 6.12 2.35 8 13.65.94 13.65.94z" class="cls-22"/><ellipse cx="270.28" cy="361.77" class="cls-23" rx="10.13" ry="2.83" transform="rotate(-3.71 270.029 361.415)"/><path d="M211.86 186.7a171.86 171.86 0 0 0 18.14 3.93c3.71.46 9.66 1.81 15.11 1.81s8.16-.6 9.06-1.21c.56-.37 3.63-2.08 0-2.11s-6.64.3-10.27 0c-5.49-.46-6.65-2.12-14.2-3.33s-10.63-1.95-16-3.93a147.28 147.28 0 0 1-18.73-8.76c-3-1.51-6.92-1.21-7.39 0s-1.37 3.32 3.76 5.74 16.53 6.86 20.52 7.86z" class="cls-5"/><path d="m287 413.83 20.17.94s-4.63-20.25-6-27.31-4.23-29.2-4.7-32.5-1.41-12.72-8.48-12.25-8 7.54-7.54 13.66a116.73 116.73 0 0 0 4.73 22.36c1.86 5.43 4.22 19.09 3.75 24.27a84.49 84.49 0 0 1-1.93 10.83z" class="cls-24"/><path d="M319.94 235.74a.75.75 0 0 0 0-1.5.75.75 0 0 0 0 1.5zM322.34 226a.75.75 0 0 0 0-1.5.75.75 0 0 0 0 1.5zM325 216.3a.75.75 0 0 0 0-1.5.75.75 0 0 0 0 1.5zM324 208.27a.75.75 0 0 0 0-1.5.75.75 0 0 0 0 1.5zM319.38 208.41a.75.75 0 0 0 0-1.5.75.75 0 0 0 0 1.5zM316.56 213.2a.75.75 0 0 0 0-1.5.75.75 0 0 0 0 1.5zM315.86 221.65a.75.75 0 0 0 0-1.5.75.75 0 0 0 0 1.5zM305.3 253.77a.75.75 0 0 0 0-1.5.75.75 0 0 0 0 1.5zM309.66 253.91a.75.75 0 0 0 0-1.5.75.75 0 0 0 0 1.5zM317.27 254.47a.75.75 0 0 0 0-1.5.75.75 0 0 0 0 1.5zM323.09 253.44v-.28a.57.57 0 0 0-.07-.29.49.49 0 0 0-.15-.24.54.54 0 0 0-.24-.16.49.49 0 0 0-.29-.06h-.2a.7.7 0 0 0-.33.2l-.12.15a.7.7 0 0 0-.1.38v.28a.58.58 0 0 0 .06.29.54.54 0 0 0 .16.24.61.61 0 0 0 .24.15.57.57 0 0 0 .29.07h.2a.79.79 0 0 0 .33-.19l.12-.15a.86.86 0 0 0 .1-.38zM321.44 249.17l.28-.42a.49.49 0 0 0 .09-.28.51.51 0 0 0 0-.3.55.55 0 0 0-.13-.25.7.7 0 0 0-.22-.2l-.17-.07a.68.68 0 0 0-.4 0l-.18.07a.78.78 0 0 0-.27.27l-.28.43a.44.44 0 0 0-.09.27.61.61 0 0 0 0 .3.51.51 0 0 0 .14.26.55.55 0 0 0 .21.19l.18.08a.86.86 0 0 0 .39 0l.18-.08a.64.64 0 0 0 .27-.27zM321.35 241.65a.75.75 0 0 0 0-1.5.75.75 0 0 0 0 1.5zM316.14 244.47a.75.75 0 0 0 0-1.5.75.75 0 0 0 0 1.5zM305.44 249.68a.75.75 0 0 0 0-1.5.75.75 0 0 0 0 1.5zM307.27 244.33a.75.75 0 0 0 0-1.5.75.75 0 0 0 0 1.5zM311.07 236.58a.75.75 0 0 0 0-1.5.75.75 0 0 0 0 1.5zM311.07 230.1a.75.75 0 0 0 0-1.5.75.75 0 0 0 0 1.5zM314.31 227.29a.75.75 0 0 0 0-1.5.75.75 0 0 0 0 1.5zM321.63 222.78a.75.75 0 0 0 0-1.5.75.75 0 0 0 0 1.5zM322.34 213.2a.75.75 0 0 0 0-1.5.75.75 0 0 0 0 1.5zM325 212.36a.75.75 0 0 0 0-1.5.75.75 0 0 0 0 1.5zM321.21 217a.75.75 0 0 0 0-1.5.75.75 0 0 0 0 1.5zM315 217.71a.75.75 0 0 0 0-1.5.75.75 0 0 0 0 1.5zM318.11 225.6a.75.75 0 0 0 0-1.5.75.75 0 0 0 0 1.5zM320.93 229.26a.75.75 0 0 0 0-1.5.75.75 0 0 0 0 1.5zM316 232.22a.75.75 0 0 0 0-1.5.75.75 0 0 0 0 1.5zM316 238.41a.75.75 0 0 0 0-1.5.75.75 0 0 0 0 1.5zM312.62 243.34a.75.75 0 0 0 0-1.5.75.75 0 0 0 0 1.5zM312.9 250.1a.75.75 0 0 0 0-1.5.75.75 0 0 0 0 1.5zM316.42 250.39a.75.75 0 0 0 0-1.5.75.75 0 0 0 0 1.5zM318.39 246.86a.75.75 0 0 0 0-1.5.75.75 0 0 0 0 1.5zM318.11 241.37a.75.75 0 0 0 0-1.5.75.75 0 0 0 0 1.5zM313.32 241.23a.75.75 0 0 0 0-1.5.75.75 0 0 0 0 1.5zM310.22 240.38a.75.75 0 0 0 0-1.5.75.75 0 0 0 0 1.5zM309.38 245.6a.75.75 0 0 0 0-1.5.75.75 0 0 0 0 1.5zM304.25 269.53a.75.75 0 0 0 0-1.5.75.75 0 0 0 0 1.5zM307.64 270.53a.75.75 0 0 0 0-1.5.75.75 0 0 0 0 1.5zM306.64 275.51a.75.75 0 0 0 0-1.5.75.75 0 0 0 0 1.5zM305.25 288.66a.75.75 0 0 0 0-1.5.75.75 0 0 0 0 1.5zM320.78 289.45a.75.75 0 0 0 0-1.5.75.75 0 0 0 0 1.5zM320.38 283.08a.75.75 0 0 0 0-1.5.75.75 0 0 0 0 1.5zM316.8 277.9a.75.75 0 0 0 0-1.5.75.75 0 0 0 0 1.5zM320 268.14a.75.75 0 0 0 0-1.5.75.75 0 0 0 0 1.5zM319.39 272.92a.75.75 0 0 0 0-1.5.75.75 0 0 0 0 1.5zM313 269.93a.75.75 0 0 0 0-1.5.75.75 0 0 0 0 1.5zM311 275.51a.75.75 0 0 0 0-1.5.75.75 0 0 0 0 1.5zM306.64 281.68a.75.75 0 0 0 0-1.5.75.75 0 0 0 0 1.5zM309.83 288.66a.75.75 0 0 0 0-1.5.75.75 0 0 0 0 1.5zM305.64 291.44a.75.75 0 0 0 0-1.5.75.75 0 0 0 0 1.5zM312.22 291.84a.75.75 0 0 0 0-1.5.75.75 0 0 0 0 1.5zM317.55 288.7v-.2a.59.59 0 0 0-.07-.29.63.63 0 0 0-.39-.39.59.59 0 0 0-.29-.07h-.2a.78.78 0 0 0-.33.19l-.12.16a.69.69 0 0 0-.1.37v.2a.77.77 0 0 0 .22.53.54.54 0 0 0 .24.16.49.49 0 0 0 .29.06h.2a.7.7 0 0 0 .33-.2l.12-.15a.83.83 0 0 0 .1-.38zM316.2 284.47a.75.75 0 0 0 0-1.5.75.75 0 0 0 0 1.5zM311.22 282.48a.75.75 0 0 0 0-1.5.75.75 0 0 0 0 1.5zM306.84 285.07a.75.75 0 0 0 0-1.5.75.75 0 0 0 0 1.5zM310.82 278.1a.75.75 0 0 0 0-1.5.75.75 0 0 0 0 1.5zM321.18 308.38a.75.75 0 0 0 0-1.5.75.75 0 0 0 0 1.5zM324.17 319.53a.75.75 0 0 0 0-1.5.75.75 0 0 0 0 1.5zM324.17 327.1a.75.75 0 0 0 0-1.5.75.75 0 0 0 0 1.5zM314.41 326.7a.75.75 0 0 0 0-1.5.75.75 0 0 0 0 1.5zM310.42 331.08a.75.75 0 0 0 0-1.5.75.75 0 0 0 0 1.5zM306.64 327.9a.75.75 0 0 0 0-1.5.75.75 0 0 0 0 1.5zM307.24 321.32a.75.75 0 0 0 0-1.5.75.75 0 0 0 0 1.5zM304.85 313.55a.75.75 0 0 0 0-1.5.75.75 0 0 0 0 1.5zM305.05 307.38a.75.75 0 0 0 0-1.5.75.75 0 0 0 0 1.5zM309.63 307.58a.75.75 0 0 0 0-1.5.75.75 0 0 0 0 1.5zM314.21 307.78a.75.75 0 0 0 0-1.5.75.75 0 0 0 0 1.5zM321.78 305.39a.75.75 0 0 0 0-1.5.75.75 0 0 0 0 1.5zM318.79 312.56a.75.75 0 0 0 0-1.5.75.75 0 0 0 0 1.5zM312.22 314a.75.75 0 0 0 0-1.5.75.75 0 0 0 0 1.5zM315.6 318.14a.75.75 0 0 0 0-1.5.75.75 0 0 0 0 1.5zM321.38 315.75a.75.75 0 0 0 0-1.5.75.75 0 0 0 0 1.5zM323 310.37a.75.75 0 0 0 0-1.5.75.75 0 0 0 0 1.5zM319 327.1a.75.75 0 0 0 0-1.5.75.75 0 0 0 0 1.5zM319 320.33a.75.75 0 0 0 0-1.5.75.75 0 0 0 0 1.5zM312.81 322.52a.75.75 0 0 0 0-1.5.75.75 0 0 0 0 1.5zM309.43 316.34a.75.75 0 0 0 0-1.5.75.75 0 0 0 0 1.5zM311.42 344.43a.75.75 0 0 0 0-1.5.75.75 0 0 0 0 1.5zM311.82 348a.75.75 0 0 0 0-1.5.75.75 0 0 0 0 1.5zM312 357.58a.75.75 0 0 0 0-1.5.75.75 0 0 0 0 1.5zM314.21 363.15h.2a.49.49 0 0 0 .29-.06.54.54 0 0 0 .24-.16.55.55 0 0 0 .15-.24.57.57 0 0 0 .07-.29v-.2a.79.79 0 0 0-.19-.33l-.15-.11a.76.76 0 0 0-.38-.11h-.2a.59.59 0 0 0-.29.07.61.61 0 0 0-.24.15.63.63 0 0 0-.16.24.72.72 0 0 0-.06.29v.2a.69.69 0 0 0 .19.33l.15.12a.72.72 0 0 0 .38.1zM330 361.56a.75.75 0 0 0 0-1.5.75.75 0 0 0 0 1.5zM327.89 356.89l-.2-.2a.61.61 0 0 0-.24-.15.59.59 0 0 0-.29-.07.57.57 0 0 0-.29.07.49.49 0 0 0-.24.15l-.12.16a.69.69 0 0 0-.1.37v.2a.7.7 0 0 0 .2.33l.2.2a.45.45 0 0 0 .24.16.48.48 0 0 0 .29.06.45.45 0 0 0 .28-.06.51.51 0 0 0 .25-.16l.11-.15a.73.73 0 0 0 .11-.38v-.2a.92.92 0 0 0-.19-.33zM326.36 349.21a.75.75 0 0 0 0-1.5.75.75 0 0 0 0 1.5zM326.76 343.83a.75.75 0 0 0 0-1.5.75.75 0 0 0 0 1.5zM318.39 343.43a.75.75 0 0 0 0-1.5.75.75 0 0 0 0 1.5zM318 350.8a.75.75 0 0 0 0-1.5.75.75 0 0 0 0 1.5zM312.62 353a.75.75 0 0 0 0-1.5.75.75 0 0 0 0 1.5zM316.6 358.77a.75.75 0 0 0 0-1.5.75.75 0 0 0 0 1.5zM320.18 361.56a.75.75 0 0 0 0-1.5.75.75 0 0 0 0 1.5zM322.18 355.58a.75.75 0 0 0 0-1.5.75.75 0 0 0 0 1.5zM321.58 348.21a.75.75 0 0 0 0-1.5.75.75 0 0 0 0 1.5zM316.2 347a.75.75 0 0 0 0-1.5.75.75 0 0 0 0 1.5zM324.17 353a.75.75 0 0 0 0-1.5.75.75 0 0 0 0 1.5zM331.54 375.3a.75.75 0 0 0 0-1.5.75.75 0 0 0 0 1.5zM332.73 382.87a.75.75 0 0 0 0-1.5.75.75 0 0 0 0 1.5zM329.35 389.25a.75.75 0 0 0 0-1.5.75.75 0 0 0 0 1.5zM319.39 393.63a.75.75 0 0 0 0-1.5.75.75 0 0 0 0 1.5zM318.39 389.45a.75.75 0 0 0 0-1.5.75.75 0 0 0 0 1.5zM318.19 381.08a.75.75 0 0 0 0-1.5.75.75 0 0 0 0 1.5zM314.61 376.5a.75.75 0 0 0 0-1.5.75.75 0 0 0 0 1.5zM324.17 376.3a.75.75 0 0 0 0-1.5.75.75 0 0 0 0 1.5zM325.16 380.88a.75.75 0 0 0 0-1.5.75.75 0 0 0 0 1.5zM322.58 388.25a.75.75 0 0 0 0-1.5.75.75 0 0 0 0 1.5zM322.38 392.43a.75.75 0 0 0 0-1.5.75.75 0 0 0 0 1.5zM335.92 389.84a.75.75 0 0 0 0-1.5.75.75 0 0 0 0 1.5zM327.36 383.67a.75.75 0 0 0 0-1.5.75.75 0 0 0 0 1.5zM321.58 384.86a.75.75 0 0 0 0-1.5.75.75 0 0 0 0 1.5zM321.18 378.69a.75.75 0 0 0 0-1.5.75.75 0 0 0 0 1.5zM318.59 376.3a.75.75 0 0 0 0-1.5.75.75 0 0 0 0 1.5zM330.74 378.89a.75.75 0 0 0 0-1.5.75.75 0 0 0 0 1.5zM331.54 387.06a.75.75 0 0 0 0-1.5.75.75 0 0 0 0 1.5zM339.71 402.39a.75.75 0 0 0 0-1.5.75.75 0 0 0 0 1.5zM341.3 409a.75.75 0 0 0 0-1.5.75.75 0 0 0 0 1.5zM339.71 412.75a.75.75 0 0 0 0-1.5.75.75 0 0 0 0 1.5zM332.53 412.35a.75.75 0 0 0 0-1.5.75.75 0 0 0 0 1.5zM323.57 412.35a.75.75 0 0 0 0-1.5.75.75 0 0 0 0 1.5zM321.91 407.89l-.2-.2a.54.54 0 0 0-.24-.16.73.73 0 0 0-.58 0 .54.54 0 0 0-.24.16l-.12.15a.8.8 0 0 0-.1.38v.2a.79.79 0 0 0 .19.33l.2.2a.61.61 0 0 0 .24.15.64.64 0 0 0 .58 0 .61.61 0 0 0 .24-.15l.12-.16a.69.69 0 0 0 .1-.37v-.2a.69.69 0 0 0-.19-.33zM321.58 405.38a.75.75 0 0 0 0-1.5.75.75 0 0 0 0 1.5zM327.55 404.58h.2a.48.48 0 0 0 .29-.06.74.74 0 0 0 .4-.4.48.48 0 0 0 .06-.29v-.2a.82.82 0 0 0-.2-.33l-.15-.11a.7.7 0 0 0-.38-.11h-.2a.55.55 0 0 0-.28.07.6.6 0 0 0-.4.4.53.53 0 0 0-.07.28v.2a.78.78 0 0 0 .19.33l.16.12a.69.69 0 0 0 .37.1zM333.13 403.59a.75.75 0 0 0 0-1.5.75.75 0 0 0 0 1.5zM335.32 406.18a.75.75 0 0 0 0-1.5.75.75 0 0 0 0 1.5zM327.36 408.57a.75.75 0 0 0 0-1.5.75.75 0 0 0 0 1.5zM327.16 412.15a.75.75 0 0 0 0-1.5.75.75 0 0 0 0 1.5zM332.53 409a.75.75 0 0 0 0-1.5.75.75 0 0 0 0 1.5zM318.26 218.41a.38.38 0 0 0 0-.75.38.38 0 0 0 0 .75zM319.19 210.55a.38.38 0 0 0 0-.75.38.38 0 0 0 0 .75zM322.27 210.55a.38.38 0 0 0 0-.75.38.38 0 0 0 0 .75zM324 218.1a.38.38 0 0 0 0-.75.38.38 0 0 0 0 .75zM318.26 222.57a.38.38 0 0 0 0-.75.38.38 0 0 0 0 .75zM313.18 225.19a.38.38 0 0 0 0-.75.38.38 0 0 0 0 .75zM320.27 232.74a.38.38 0 0 0 0-.75.38.38 0 0 0 0 .75zM315.65 235.82a.38.38 0 0 0 0-.75.38.38 0 0 0 0 .75zM310.87 233.05a.38.38 0 0 0 0-.75.38.38 0 0 0 0 .75zM308.1 240.44a.38.38 0 0 0 0-.75.38.38 0 0 0 0 .75zM310.56 245.37a.38.38 0 0 0 0-.75.38.38 0 0 0 0 .75zM308.71 250.3a.38.38 0 0 0 0-.75.38.38 0 0 0 0 .75zM312.56 253.69a.38.38 0 0 0 0-.75.38.38 0 0 0 0 .75zM314.88 247.07a.38.38 0 0 0 0-.75.38.38 0 0 0 0 .75zM320 244.29a.38.38 0 0 0 0-.75.38.38 0 0 0 0 .75zM322.89 246.91a.38.38 0 0 0 0-.75.38.38 0 0 0 0 .75zM320.27 252.46a.38.38 0 0 0 0-.75.38.38 0 0 0 0 .75zM321 270.33a.38.38 0 0 0 0-.75.38.38 0 0 0 0 .75zM316.88 270.64a.38.38 0 0 0 0-.75.38.38 0 0 0 0 .75zM316.57 268a.38.38 0 0 0 0-.75.38.38 0 0 0 0 .75zM310.25 268.48a.38.38 0 0 0 0-.75.38.38 0 0 0 0 .75zM310.41 272a.38.38 0 0 0 0-.75.38.38 0 0 0 0 .75zM305 272.18a.38.38 0 0 0 0-.75.38.38 0 0 0 0 .75zM305.32 278a.38.38 0 0 0 0-.75.38.38 0 0 0 0 .75zM303.94 284a.38.38 0 0 0 0-.75.38.38 0 0 0 0 .75zM309.64 285.58a.38.38 0 0 0 0-.75.38.38 0 0 0 0 .75zM309.48 279.88a.38.38 0 0 0 0-.75.38.38 0 0 0 0 .75zM315 279.26a.38.38 0 0 0 0-.75.38.38 0 0 0 0 .75zM320 279.88a.38.38 0 0 0 0-.75.38.38 0 0 0 0 .75zM319.65 275.72a.38.38 0 0 0 0-.75.38.38 0 0 0 0 .75zM315.65 274.33a.38.38 0 0 0 0-.75.38.38 0 0 0 0 .75zM313.8 287.28a.38.38 0 0 0 0-.75.38.38 0 0 0 0 .75zM320.27 287a.38.38 0 0 0 0-.75.38.38 0 0 0 0 .75zM318.88 290.82a.38.38 0 0 0 0-.75.38.38 0 0 0 0 .75zM317.65 281.11a.38.38 0 0 0 0-.75.38.38 0 0 0 0 .75zM324.89 306.84a.38.38 0 0 0 0-.75.38.38 0 0 0 0 .75zM318 305.61a.38.38 0 0 0 0-.75.38.38 0 0 0 0 .75zM317.34 309.77a.38.38 0 0 0 0-.75.38.38 0 0 0 0 .75zM314.72 313.31a.38.38 0 0 0 0-.75.38.38 0 0 0 0 .75zM311.33 310.85a.38.38 0 0 0 0-.75.38.38 0 0 0 0 .75zM306.4 310.23a.38.38 0 0 0 0-.75.38.38 0 0 0 0 .75zM309 312.7a.38.38 0 0 0 0-.75.38.38 0 0 0 0 .75zM306.4 316.55a.38.38 0 0 0 0-.75.38.38 0 0 0 0 .75zM310.41 319.94a.38.38 0 0 0 0-.75.38.38 0 0 0 0 .75zM306.71 324.1a.38.38 0 0 0 0-.75.38.38 0 0 0 0 .75zM306.4 330.11a.38.38 0 0 0 0-.75.38.38 0 0 0 0 .75zM310.56 328.1a.38.38 0 0 0 0-.75.38.38 0 0 0 0 .75zM310.25 324.71a.38.38 0 0 0 0-.75.38.38 0 0 0 0 .75zM321 324.1a.38.38 0 0 0 0-.75.38.38 0 0 0 0 .75zM316.26 329a.38.38 0 0 0 0-.75.38.38 0 0 0 0 .75zM317.19 324.87a.38.38 0 0 0 0-.75.38.38 0 0 0 0 .75zM319 316.7a.38.38 0 0 0 0-.75.38.38 0 0 0 0 .75zM323 321.63a.38.38 0 0 0 0-.75.38.38 0 0 0 0 .75zM325.81 324.87a.38.38 0 0 0 0-.75.38.38 0 0 0 0 .75zM323.81 313.93a.38.38 0 0 0 0-.75.38.38 0 0 0 0 .75zM328.59 346a.38.38 0 0 0 0-.75.38.38 0 0 0 0 .75zM323.81 346.13a.38.38 0 0 0 0-.75.38.38 0 0 0 0 .75zM322.27 342.89a.38.38 0 0 0 0-.75.38.38 0 0 0 0 .75zM320.42 345.67a.38.38 0 0 0 0-.75.38.38 0 0 0 0 .75zM314.57 344a.38.38 0 0 0 0-.75.38.38 0 0 0 0 .75zM309 347.21a.38.38 0 0 0 0-.75.38.38 0 0 0 0 .75zM310.56 350.75a.38.38 0 0 0 0-.75.38.38 0 0 0 0 .75zM317 353.83a.38.38 0 0 0 0-.75.38.38 0 0 0 0 .75zM326.12 361.38a.38.38 0 0 0 0-.75.38.38 0 0 0 0 .75zM322.42 362.46a.38.38 0 0 0 0-.75.38.38 0 0 0 0 .75zM318.11 364.46a.38.38 0 0 0 0-.75.38.38 0 0 0 0 .75zM312 362a.38.38 0 0 0 0-.75.38.38 0 0 0 0 .75zM314.88 360.76a.38.38 0 0 0 0-.75.38.38 0 0 0 0 .75zM320.58 358.76a.38.38 0 0 0 0-.75.38.38 0 0 0 0 .75zM327.51 354.91a.38.38 0 0 0 0-.75.38.38 0 0 0 0 .75zM327.82 351.06a.38.38 0 0 0 0-.75.38.38 0 0 0 0 .75zM330.13 358.3a.38.38 0 0 0 0-.75.38.38 0 0 0 0 .75zM321.19 352.75a.38.38 0 0 0 0-.75.38.38 0 0 0 0 .75zM318.42 347.21a.38.38 0 0 0 0-.75.38.38 0 0 0 0 .75zM315.18 350.6a.38.38 0 0 0 0-.75.38.38 0 0 0 0 .75zM330.9 373.24a.38.38 0 0 0 0-.75.38.38 0 0 0 0 .75zM328.74 374.48a.38.38 0 0 0 0-.75.38.38 0 0 0 0 .75zM334.29 379.41a.38.38 0 0 0 0-.75.38.38 0 0 0 0 .75zM336 386.19a.38.38 0 0 0 0-.75.38.38 0 0 0 0 .75zM329.36 390.19a.38.38 0 0 0 0-.75.38.38 0 0 0 0 .75zM326.28 388a.38.38 0 0 0 0-.75.38.38 0 0 0 0 .75zM329.82 384a.38.38 0 0 0 0-.75.38.38 0 0 0 0 .75zM329.05 380.64a.38.38 0 0 0 0-.75.38.38 0 0 0 0 .75zM327.66 376.79a.38.38 0 0 0 0-.75.38.38 0 0 0 0 .75zM323.19 380a.38.38 0 0 0 0-.75.38.38 0 0 0 0 .75zM319.5 383.57a.38.38 0 0 0 0-.75.38.38 0 0 0 0 .75zM315.49 378.94a.38.38 0 0 0 0-.75.38.38 0 0 0 0 .75zM324.74 385.57a.38.38 0 0 0 0-.75.38.38 0 0 0 0 .75zM324 383a.38.38 0 0 0 0-.75.38.38 0 0 0 0 .75zM326.43 391.89a.38.38 0 0 0 0-.75.38.38 0 0 0 0 .75zM321.35 390.19a.38.38 0 0 0 0-.75.38.38 0 0 0 0 .75zM317.65 392a.38.38 0 0 0 0-.75.38.38 0 0 0 0 .75zM340.45 405.44a.38.38 0 0 0 0-.75.38.38 0 0 0 0 .75zM338.29 409a.38.38 0 0 0 0-.75.38.38 0 0 0 0 .75zM336.29 411.91a.38.38 0 0 0 0-.75.38.38 0 0 0 0 .75zM344 412.84a.38.38 0 0 0 0-.75.38.38 0 0 0 0 .75zM336.6 403a.38.38 0 0 0 0-.75.38.38 0 0 0 0 .75zM331.05 407.29a.38.38 0 0 0 0-.75.38.38 0 0 0 0 .75zM330.59 403.13a.38.38 0 0 0 0-.75.38.38 0 0 0 0 .75zM324.89 404.83a.38.38 0 0 0 0-.75.38.38 0 0 0 0 .75zM324.43 408.52a.38.38 0 0 0 0-.75.38.38 0 0 0 0 .75zM320.42 411.61a.38.38 0 0 0 0-.75.38.38 0 0 0 0 .75zM329.67 412.53a.38.38 0 0 0 0-.75.38.38 0 0 0 0 .75zM329.36 409.91a.38.38 0 0 0 0-.75.38.38 0 0 0 0 .75zM334.9 409.45a.38.38 0 0 0 0-.75.38.38 0 0 0 0 .75zM338.6 406.52a.38.38 0 0 0 0-.75.38.38 0 0 0 0 .75zM322 189.54a.75.75 0 0 0 0-1.5.75.75 0 0 0 0 1.5zM326.6 188.8a.75.75 0 0 0 0-1.5.75.75 0 0 0 0 1.5zM319.74 178.75a.75.75 0 0 0 0-1.5.75.75 0 0 0 0 1.5zM315.57 170.17a.75.75 0 0 0 0-1.5.75.75 0 0 0 0 1.5zM312.14 158.41a.75.75 0 0 0 0-1.5.75.75 0 0 0 0 1.5zM311.89 142.23a.75.75 0 0 0 0-1.5.75.75 0 0 0 0 1.5zM312.14 130.46a.75.75 0 0 0 0-1.5.75.75 0 0 0 0 1.5zM313.61 133.4a.75.75 0 0 0 0-1.5.75.75 0 0 0 0 1.5zM304.79 143.94a.75.75 0 0 0 0-1.5.75.75 0 0 0 0 1.5zM301.35 158.9a.75.75 0 0 0 0-1.5.75.75 0 0 0 0 1.5zM311.4 181.2a.75.75 0 0 0 0-1.5.75.75 0 0 0 0 1.5zM315.57 185.86a.75.75 0 0 0 0-1.5.75.75 0 0 0 0 1.5zM324.4 183.66a.75.75 0 0 0 0-1.5.75.75 0 0 0 0 1.5zM310.18 173.61a.75.75 0 0 0 0-1.5.75.75 0 0 0 0 1.5zM308 165.52a.75.75 0 0 0 0-1.5.75.75 0 0 0 0 1.5zM299.64 169.19a.75.75 0 0 0 0-1.5.75.75 0 0 0 0 1.5zM290.08 162.33a.75.75 0 0 0 0-1.5.75.75 0 0 0 0 1.5zM297.19 150.07a.75.75 0 0 0 0-1.5.75.75 0 0 0 0 1.5zM294.25 141.74a.75.75 0 0 0 0-1.5.75.75 0 0 0 0 1.5zM309 150.56a.75.75 0 0 0 0-1.5.75.75 0 0 0 0 1.5zM286.65 158.65a.75.75 0 0 0 0-1.5.75.75 0 0 0 0 1.5zM276.6 155.22a.75.75 0 0 0 0-1.5.75.75 0 0 0 0 1.5zM264.34 134.38a.75.75 0 0 0 0-1.5.75.75 0 0 0 0 1.5zM268.26 122.13a.75.75 0 0 0 0-1.5.75.75 0 0 0 0 1.5zM286.16 118a.75.75 0 0 0 0-1.5.75.75 0 0 0 0 1.5zM279.29 118.21a.75.75 0 0 0 0-1.5.75.75 0 0 0 0 1.5zM284.2 124.58a.75.75 0 0 0 0-1.5.75.75 0 0 0 0 1.5zM288.12 135.12a.75.75 0 0 0 0-1.5.75.75 0 0 0 0 1.5zM300.13 140.51a.75.75 0 0 0 0-1.5.75.75 0 0 0 0 1.5zM266.55 116.49a.75.75 0 0 0 0-1.5.75.75 0 0 0 0 1.5zM254.54 115.51a.75.75 0 0 0 0-1.5.75.75 0 0 0 0 1.5zM259.44 121.39a.75.75 0 0 0 0-1.5.75.75 0 0 0 0 1.5zM262.87 130.46a.75.75 0 0 0 0-1.5.75.75 0 0 0 0 1.5zM261.89 116.25a.75.75 0 0 0 0-1.5.75.75 0 0 0 0 1.5zM245.22 112.81a.75.75 0 0 0 0-1.5.75.75 0 0 0 0 1.5zM236.64 111.59a.75.75 0 0 0 0-1.5.75.75 0 0 0 0 1.5zM220.46 109.14a.75.75 0 0 0 0-1.5.75.75 0 0 0 0 1.5zM214.33 103a.75.75 0 0 0 0-1.5.75.75 0 0 0 0 1.5zM209.19 104.23a.75.75 0 0 0 0-1.5.75.75 0 0 0 0 1.5zM197.67 107.67a.75.75 0 0 0 0-1.5.75.75 0 0 0 0 1.5zM179.28 106a.75.75 0 0 0 0-1.5.75.75 0 0 0 0 1.5zM165.8 116.25a.75.75 0 0 0 0-1.5.75.75 0 0 0 0 1.5zM166.78 110.61a.75.75 0 0 0 0-1.5.75.75 0 0 0 0 1.5zM170.21 111.59a.75.75 0 0 0 0-1.5.75.75 0 0 0 0 1.5zM171.68 106a.75.75 0 0 0 0-1.5.75.75 0 0 0 0 1.5zM180.26 99.09a.75.75 0 0 0 0-1.5.75.75 0 0 0 0 1.5zM179.53 88.79a.75.75 0 0 0 0-1.5.75.75 0 0 0 0 1.5zM178.55 72.37a.75.75 0 0 0 0-1.5.75.75 0 0 0 0 1.5zM183 62.32a.75.75 0 0 0 0-1.5.75.75 0 0 0 0 1.5zM186.39 53a.75.75 0 0 0 0-1.5.75.75 0 0 0 0 1.5zM190.07 46.63a.75.75 0 0 0 0-1.5.75.75 0 0 0 0 1.5zM199.38 35.35a.75.75 0 0 0 0-1.5.75.75 0 0 0 0 1.5zM203.06 39a.75.75 0 0 0 0-1.5.75.75 0 0 0 0 1.5zM198.4 51a.75.75 0 0 0 0-1.5.75.75 0 0 0 0 1.5zM198.4 65a.75.75 0 0 0 0-1.5.75.75 0 0 0 0 1.5zM201.83 82.66a.75.75 0 0 0 0-1.5.75.75 0 0 0 0 1.5zM200.12 73.84a.75.75 0 0 0 0-1.5.75.75 0 0 0 0 1.5zM194.23 69.67a.75.75 0 0 0 0-1.5.75.75 0 0 0 0 1.5zM186.39 68.69a.75.75 0 0 0 0-1.5.75.75 0 0 0 0 1.5zM189.58 61.09a.75.75 0 0 0 0-1.5.75.75 0 0 0 0 1.5zM197.18 58.89a.75.75 0 0 0 0-1.5.75.75 0 0 0 0 1.5zM201.1 45.16a.75.75 0 0 0 0-1.5.75.75 0 0 0 0 1.5zM196.44 41.24a.75.75 0 0 0 0-1.5.75.75 0 0 0 0 1.5zM193.74 38.05a.75.75 0 0 0 0-1.5.75.75 0 0 0 0 1.5zM192.76 54.23a.75.75 0 0 0 0-1.5.75.75 0 0 0 0 1.5zM194.72 47.36a.75.75 0 0 0 0-1.5.75.75 0 0 0 0 1.5zM206 89a.75.75 0 0 0 0-1.5.75.75 0 0 0 0 1.5zM210.17 97.62a.75.75 0 0 0 0-1.5.75.75 0 0 0 0 1.5zM226.59 108.4a.75.75 0 0 0 0-1.5.75.75 0 0 0 0 1.5zM264.59 125.32a.75.75 0 0 0 0-1.5.75.75 0 0 0 0 1.5zM274.39 123.35a.75.75 0 0 0 0-1.5.75.75 0 0 0 0 1.5zM294.49 156.69a.75.75 0 0 0 0-1.5.75.75 0 0 0 0 1.5zM318.76 183.77a.38.38 0 0 0 0-.75.38.38 0 0 0 0 .75zM317.29 180.34a.38.38 0 0 0 0-.75.38.38 0 0 0 0 .75zM319.25 172.49a.38.38 0 0 0 0-.75.38.38 0 0 0 0 .75zM313.12 176.66a.38.38 0 0 0 0-.75.38.38 0 0 0 0 .75zM306.52 173.82l-.24-.25a.42.42 0 0 0-.12-.08.4.4 0 0 0-.15 0 .32.32 0 0 0-.14 0 .25.25 0 0 0-.12.08l-.06.08a.3.3 0 0 0-.05.19v.1a.39.39 0 0 0 .1.16l.24.25a.37.37 0 0 0 .12.07.28.28 0 0 0 .15 0 .23.23 0 0 0 .14 0 .24.24 0 0 0 .12-.07l.06-.08a.41.41 0 0 0 .05-.19V174a.34.34 0 0 0-.1-.16zM304.54 161.22a.38.38 0 0 0 0-.75.38.38 0 0 0 0 .75zM296.7 165.14a.38.38 0 0 0 0-.75.38.38 0 0 0 0 .75zM302.58 153.62a.38.38 0 0 0 0-.75.38.38 0 0 0 0 .75zM301.11 148.47a.38.38 0 0 0 0-.75.38.38 0 0 0 0 .75zM306.75 138.67a.38.38 0 0 0 0-.75.38.38 0 0 0 0 .75zM309.2 131.31a.38.38 0 0 0 0-.75.38.38 0 0 0 0 .75zM312.88 137.2a.38.38 0 0 0 0-.75.38.38 0 0 0 0 .75zM312.14 147.49a.38.38 0 0 0 0-.75.38.38 0 0 0 0 .75zM311.4 154.6a.38.38 0 0 0 0-.75.38.38 0 0 0 0 .75zM308.46 157.05a.38.38 0 0 0 0-.75.38.38 0 0 0 0 .75zM297.92 145.53a.38.38 0 0 0 0-.75.38.38 0 0 0 0 .75zM292.53 138.67a.38.38 0 0 0 0-.75.38.38 0 0 0 0 .75zM285.18 129.11a.38.38 0 0 0 0-.75.38.38 0 0 0 0 .75zM286.4 122.24a.38.38 0 0 0 0-.75.38.38 0 0 0 0 .75zM280.27 120.28a.38.38 0 0 0 0-.75.38.38 0 0 0 0 .75zM278.56 123.71a.38.38 0 0 0 0-.75.38.38 0 0 0 0 .75zM274.39 117.1a.38.38 0 0 0 0-.75.38.38 0 0 0 0 .75zM265.81 119.55a.38.38 0 0 0 0-.75.38.38 0 0 0 0 .75zM267.77 126.66a.38.38 0 0 0 0-.75.38.38 0 0 0 0 .75zM266.79 145.29a.38.38 0 0 0 0-.75.38.38 0 0 0 0 .75zM274.15 148a.38.38 0 0 0 0-.75.38.38 0 0 0 0 .75zM278.56 152.64a.38.38 0 0 0 0-.75.38.38 0 0 0 0 .75zM282.48 158.28a.38.38 0 0 0 0-.75.38.38 0 0 0 0 .75zM271.69 149.94a.38.38 0 0 0 0-.75.38.38 0 0 0 0 .75zM261.64 125.92a.38.38 0 0 0 0-.75.38.38 0 0 0 0 .75zM257.23 118.08a.38.38 0 0 0 0-.75.38.38 0 0 0 0 .75zM250.37 115.87a.38.38 0 0 0 0-.75.38.38 0 0 0 0 .75zM239.34 111.21a.38.38 0 0 0 0-.75.38.38 0 0 0 0 .75zM231.25 110.72a.38.38 0 0 0 0-.75.38.38 0 0 0 0 .75zM222.42 107.29a.38.38 0 0 0 0-.75.38.38 0 0 0 0 .75zM213.6 108a.38.38 0 0 0 0-.75.38.38 0 0 0 0 .75zM205.26 107.29a.38.38 0 0 0 0-.75.38.38 0 0 0 0 .75zM210.9 100.92a.38.38 0 0 0 0-.75.38.38 0 0 0 0 .75zM208 93.56a.38.38 0 0 0 0-.75.38.38 0 0 0 0 .75zM203.3 86a.38.38 0 0 0 0-.75.38.38 0 0 0 0 .75zM201.34 77.88a.38.38 0 0 0 0-.75.38.38 0 0 0 0 .75zM197.67 69.54a.38.38 0 0 0 0-.75.38.38 0 0 0 0 .75zM194 65.62a.38.38 0 0 0 0-.75.38.38 0 0 0 0 .75zM200.36 61.21a.38.38 0 0 0 0-.75.38.38 0 0 0 0 .75zM200.12 54.83a.38.38 0 0 0 0-.75.38.38 0 0 0 0 .75zM202.32 49.69a.38.38 0 0 0 0-.75.38.38 0 0 0 0 .75zM205.26 44.54a.38.38 0 0 0 0-.75.38.38 0 0 0 0 .75zM209.43 36.2a.38.38 0 0 0 0-.75.38.38 0 0 0 0 .75zM203.3 35.22a.38.38 0 0 0 0-.75.38.38 0 0 0 0 .75zM198.4 39.15a.38.38 0 0 0 0-.75.38.38 0 0 0 0 .75zM196.19 35.47a.38.38 0 0 0 0-.75.38.38 0 0 0 0 .75zM192.27 42.58a.38.38 0 0 0 0-.75.38.38 0 0 0 0 .75zM192 50.42a.38.38 0 0 0 0-.75.38.38 0 0 0 0 .75zM188.11 56.3a.38.38 0 0 0 0-.75.38.38 0 0 0 0 .75zM184.43 57.53a.38.38 0 0 0 0-.75.38.38 0 0 0 0 .75zM185.41 63.9a.38.38 0 0 0 0-.75.38.38 0 0 0 0 .75zM180.51 66.84a.38.38 0 0 0 0-.75.38.38 0 0 0 0 .75zM181.73 73.71a.38.38 0 0 0 0-.75.38.38 0 0 0 0 .75zM178.79 79.1a.38.38 0 0 0 0-.75.38.38 0 0 0 0 .75zM182.2 88.31l.25.24a.25.25 0 0 0 .12.08.32.32 0 0 0 .14 0 .4.4 0 0 0 .15 0 .42.42 0 0 0 .12-.08l.06-.07a.45.45 0 0 0 .05-.19v-.1A.35.35 0 0 0 183 88l-.25-.24a.2.2 0 0 0-.12-.08.17.17 0 0 0-.14 0 .21.21 0 0 0-.15 0 .28.28 0 0 0-.12.08l-.06.07a.41.41 0 0 0 0 .19v.1a.4.4 0 0 0 .09.17zM186.88 106.56a.38.38 0 0 0 0-.75.38.38 0 0 0 0 .75zM182.71 105.33a.38.38 0 0 0 0-.75.38.38 0 0 0 0 .75zM176.83 108.76a.38.38 0 0 0 0-.75.38.38 0 0 0 0 .75zM160.65 119.55a.38.38 0 0 0 0-.75.38.38 0 0 0 0 .75zM165.06 113.91a.38.38 0 0 0 0-.75.38.38 0 0 0 0 .75zM168.5 115.13a.38.38 0 0 0 0-.75.38.38 0 0 0 0 .75zM172.17 108.76a.38.38 0 0 0 0-.75.38.38 0 0 0 0 .75zM176.83 102.63a.38.38 0 0 0 0-.75.38.38 0 0 0 0 .75zM174.38 101.65a.38.38 0 0 0 0-.75.38.38 0 0 0 0 .75zM178.3 95a.38.38 0 0 0 0-.75.38.38 0 0 0 0 .75zM183 93.07a.38.38 0 0 0 0-.75.38.38 0 0 0 0 .75zM183.69 99.45a.38.38 0 0 0 0-.75.38.38 0 0 0 0 .75zM181.73 82.78a.38.38 0 0 0 0-.75.38.38 0 0 0 0 .75zM181 80.08a.38.38 0 0 0 0-.75.38.38 0 0 0 0 .75zM179.53 84.74a.38.38 0 0 0 0-.75.38.38 0 0 0 0 .75zM232.47 109a.38.38 0 0 0 0-.75.38.38 0 0 0 0 .75zM221.44 105.57a.38.38 0 0 0 0-.75.38.38 0 0 0 0 .75zM216.54 106.8a.38.38 0 0 0 0-.75.38.38 0 0 0 0 .75zM318.62 230.73a.75.75 0 0 0 0-1.5.75.75 0 0 0 0 1.5zM271.69 114.89a.38.38 0 0 0 0-.75.38.38 0 0 0 0 .75z" class="cls-25"/></svg>