<svg xmlns="http://www.w3.org/2000/svg" id="Capa_1" x="0" y="0" enable-background="new 0 0 251 212" version="1.1" viewBox="0 0 251 212" xml:space="preserve"><style>.st0{fill:none;stroke:#000000;stroke-width:0.25;stroke-miterlimit:10;}
	.st1{font-family:&apos;Times-Roman&apos;;}
	.st2{font-size:5px;}
	.st3{stroke:#000000;stroke-width:0.25;stroke-miterlimit:10;}
	.st4{font-size:7px;}
	.st5{fill:#ffff;}
	.st6{font-size:8px;}</style><path d="M16 30 216 30" class="st0"/><path d="M216 30 216 33" class="st0"/><path d="M202 27 202 33" class="st0"/><path d="M213 49 219 49" class="st0"/><path d="M213 68 219 68" class="st0"/><path d="M213 86 219 86" class="st0"/><path d="M213 104 219 104" class="st0"/><path d="M213 120 219 120" class="st0"/><path d="M213 136 219 136" class="st0"/><path d="M213 150 219 150" class="st0"/><path d="M213 164 219 164" class="st0"/><path d="M213 177 219 177" class="st0"/><path d="M213 189 219 189" class="st0"/><path d="M213 200 219 200" class="st0"/><path d="M189 29 189 31" class="st0"/><path d="M176 29 176 31" class="st0"/><path d="M164 29 164 31" class="st0"/><path d="M153 29 153 31" class="st0"/><path d="M142 27 142 33" class="st0"/><path d="M132 29 132 31" class="st0"/><path d="M123 29 123 31" class="st0"/><path d="M115 29 115 31" class="st0"/><path d="M107 29 107 31" class="st0"/><path d="M100 27 100 33" class="st0"/><path d="M93 29 93 31" class="st0"/><path d="M87 29 87 31" class="st0"/><path d="M81 29 81 31" class="st0"/><path d="M75 29 75 31" class="st0"/><path d="M70 27 70 33" class="st0"/><path d="M65 29 65 31" class="st0"/><path d="M60 29 60 31" class="st0"/><path d="M56 29 56 31" class="st0"/><path d="M52 29 52 31" class="st0"/><path d="M48 27 48 33" class="st0"/><path d="M44 29 44 31" class="st0"/><path d="M40 29 40 31" class="st0"/><path d="M37 29 37 31" class="st0"/><path d="M34 29 34 31" class="st0"/><path d="M31 27 31 33" class="st0"/><path d="M28 29 28 31" class="st0"/><path d="M25 29 25 31" class="st0"/><path d="M22 29 22 31" class="st0"/><path d="M19 29 19 31" class="st0"/><path d="M16 27 16 33" class="st0"/><text class="st1 st2" transform="translate(198.877 24.822)">500</text><text class="st1 st2" transform="translate(221.877 30.822)">200</text><text class="st1 st2" transform="translate(220.877 49.822)">300</text><text class="st1 st2" transform="translate(220.877 69.822)">400</text><text class="st1 st2" transform="translate(220.877 87.822)">500</text><text class="st1 st2" transform="translate(220.877 105.822)">600</text><text class="st1 st2" transform="translate(219.877 121.822)">700</text><text class="st1 st2" transform="translate(219.877 136.822)">800</text><text class="st1 st2" transform="translate(219.877 151.822)">900</text><text class="st1 st2" transform="translate(219.595 164.822)">1000</text><text class="st1 st2" transform="translate(219.595 177.822)">1100</text><text class="st1 st2" transform="translate(219.595 189.822)">1200</text><text class="st1 st2" transform="translate(219.595 201.822)">1300</text><text class="st1 st2" transform="translate(136.595 24.822)">1000</text><text class="st1 st2" transform="translate(94.595 24.822)">1500</text><text class="st1 st2" transform="translate(64.595 24.822)">2000</text><text class="st1 st2" transform="translate(42.595 24.822)">2500</text><text class="st1 st2" transform="translate(25.595 24.822)">3000</text><text class="st1 st2" transform="translate(12.595 24.822)">3500</text><path d="M216 30 216 200" class="st0"/><path d="M149 8 67 8" class="st0"/><path d="M67 6.4 67 9 63.3 7.7z" class="st3"/><path d="M238 73 238.5 135.1" class="st0"/><path d="M236.9 135.1 239.5 135.1 238.2 138.8z" class="st3"/><text class="st1 st4" transform="translate(233.985 69.887)">F1</text><text class="st1 st4" transform="translate(153.985 10.887)">F2 </text><circle cx="117.2" cy="129" r="1.6" class="st5"/><circle cx="61.6" cy="36.3" r="1.6" class="st5"/><circle cx="187.5" cy="39.3" r="1.6" class="st5"/><circle cx="182.6" cy="66.5" r="1.6" class="st5"/><circle cx="68.4" cy="56.1" r="1.6" class="st5"/><text class="st5 st1 st6 textVocales" transform="translate(118.493 127.385)">a</text><text class="st5 st1 st6 vocali" transform="translate(64.349 38.242)">i</text><text class="st5 st1 st6 vocale" transform="translate(71.05 56.19)">e</text><text class="st5 st1 st6 vocalu" transform="translate(188.704 38.242)">u</text><text class="st5 st1 st6 vocalo" transform="translate(183.718 65.573)">o</text></svg>