<?xml version="1.0" encoding="utf-8"?>
<!-- Generator: Adobe Illustrator 27.5.0, SVG Export Plug-In . SVG Version: 6.00 Build 0)  -->
<svg version="1.1" id="Capa_1" xmlns="http://www.w3.org/2000/svg" xmlns:xlink="http://www.w3.org/1999/xlink" x="0px" y="0px"
	 viewBox="0 0 251 212" style="enable-background:new 0 0 251 212;" xml:space="preserve">
<style type="text/css">
	.st0{fill:none;stroke:#000000;stroke-width:0.25;stroke-miterlimit:10;}
	.st1{font-family:'Times-Roman';}
	.st2{font-size:5px;}
	.st3{stroke:#000000;stroke-width:0.25;stroke-miterlimit:10;}
	.st4{font-size:7px;}
	.st5{fill:#ffff;}
	.st6{font-size:8px;}
</style>
<line class="st0" x1="16" y1="30" x2="216" y2="30"/>
<line class="st0" x1="216" y1="30" x2="216" y2="33"/>
<line class="st0" x1="202" y1="27" x2="202" y2="33"/>
<line class="st0" x1="213" y1="49" x2="219" y2="49"/>
<line class="st0" x1="213" y1="68" x2="219" y2="68"/>
<line class="st0" x1="213" y1="86" x2="219" y2="86"/>
<line class="st0" x1="213" y1="104" x2="219" y2="104"/>
<line class="st0" x1="213" y1="120" x2="219" y2="120"/>
<line class="st0" x1="213" y1="136" x2="219" y2="136"/>
<line class="st0" x1="213" y1="150" x2="219" y2="150"/>
<line class="st0" x1="213" y1="164" x2="219" y2="164"/>
<line class="st0" x1="213" y1="177" x2="219" y2="177"/>
<line class="st0" x1="213" y1="189" x2="219" y2="189"/>
<line class="st0" x1="213" y1="200" x2="219" y2="200"/>
<line class="st0" x1="189" y1="29" x2="189" y2="31"/>
<line class="st0" x1="176" y1="29" x2="176" y2="31"/>
<line class="st0" x1="164" y1="29" x2="164" y2="31"/>
<line class="st0" x1="153" y1="29" x2="153" y2="31"/>
<line class="st0" x1="142" y1="27" x2="142" y2="33"/>
<line class="st0" x1="132" y1="29" x2="132" y2="31"/>
<line class="st0" x1="123" y1="29" x2="123" y2="31"/>
<line class="st0" x1="115" y1="29" x2="115" y2="31"/>
<line class="st0" x1="107" y1="29" x2="107" y2="31"/>
<line class="st0" x1="100" y1="27" x2="100" y2="33"/>
<line class="st0" x1="93" y1="29" x2="93" y2="31"/>
<line class="st0" x1="87" y1="29" x2="87" y2="31"/>
<line class="st0" x1="81" y1="29" x2="81" y2="31"/>
<line class="st0" x1="75" y1="29" x2="75" y2="31"/>
<line class="st0" x1="70" y1="27" x2="70" y2="33"/>
<line class="st0" x1="65" y1="29" x2="65" y2="31"/>
<line class="st0" x1="60" y1="29" x2="60" y2="31"/>
<line class="st0" x1="56" y1="29" x2="56" y2="31"/>
<line class="st0" x1="52" y1="29" x2="52" y2="31"/>
<line class="st0" x1="48" y1="27" x2="48" y2="33"/>
<line class="st0" x1="44" y1="29" x2="44" y2="31"/>
<line class="st0" x1="40" y1="29" x2="40" y2="31"/>
<line class="st0" x1="37" y1="29" x2="37" y2="31"/>
<line class="st0" x1="34" y1="29" x2="34" y2="31"/>
<line class="st0" x1="31" y1="27" x2="31" y2="33"/>
<line class="st0" x1="28" y1="29" x2="28" y2="31"/>
<line class="st0" x1="25" y1="29" x2="25" y2="31"/>
<line class="st0" x1="22" y1="29" x2="22" y2="31"/>
<line class="st0" x1="19" y1="29" x2="19" y2="31"/>
<line class="st0" x1="16" y1="27" x2="16" y2="33"/>
<text transform="matrix(1 0 0 1 198.877 24.8218)" class="st1 st2">500</text>
<text transform="matrix(1 0 0 1 221.877 30.8218)" class="st1 st2">200</text>
<text transform="matrix(1 0 0 1 220.877 49.8218)" class="st1 st2">300</text>
<text transform="matrix(1 0 0 1 220.877 69.8218)" class="st1 st2">400</text>
<text transform="matrix(1 0 0 1 220.877 87.8218)" class="st1 st2">500</text>
<text transform="matrix(1 0 0 1 220.877 105.8218)" class="st1 st2">600</text>
<text transform="matrix(1 0 0 1 219.877 121.8218)" class="st1 st2">700</text>
<text transform="matrix(1 0 0 1 219.877 136.8218)" class="st1 st2">800</text>
<text transform="matrix(1 0 0 1 219.877 151.8218)" class="st1 st2">900</text>
<text transform="matrix(1 0 0 1 219.5947 164.8218)" class="st1 st2">1000</text>
<text transform="matrix(1 0 0 1 219.5947 177.8218)" class="st1 st2">1100</text>
<text transform="matrix(1 0 0 1 219.5947 189.8218)" class="st1 st2">1200</text>
<text transform="matrix(1 0 0 1 219.5947 201.8218)" class="st1 st2">1300</text>
<text transform="matrix(1 0 0 1 136.5947 24.8218)" class="st1 st2">1000</text>
<text transform="matrix(1 0 0 1 94.5947 24.8218)" class="st1 st2">1500</text>
<text transform="matrix(1 0 0 1 64.5947 24.8218)" class="st1 st2">2000</text>
<text transform="matrix(1 0 0 1 42.5947 24.8218)" class="st1 st2">2500</text>
<text transform="matrix(1 0 0 1 25.5947 24.8218)" class="st1 st2">3000</text>
<text transform="matrix(1 0 0 1 12.5947 24.8218)" class="st1 st2">3500</text>
<line class="st0" x1="216" y1="30" x2="216" y2="200"/>
<line class="st0" x1="149" y1="8" x2="67" y2="8"/>
<polygon class="st3" points="67,6.4 67,9 63.3,7.7 "/>
<line class="st0" x1="238" y1="73" x2="238.5" y2="135.1"/>
<polygon class="st3" points="236.9,135.1 239.5,135.1 238.2,138.8 "/>
<text transform="matrix(1 0 0 1 233.9854 69.8872)" class="st1 st4">F1</text>
<text transform="matrix(1 0 0 1 153.9854 10.8872)" class="st1 st4">F2 </text>
<circle class="st5" cx="117.2" cy="129" r="1.6"/>
<circle class="st5" cx="61.6" cy="36.3" r="1.6"/>
<circle class="st5" cx="187.5" cy="39.3" r="1.6"/>
<circle class="st5" cx="182.6" cy="66.5" r="1.6"/>
<circle class="st5" cx="68.4" cy="56.1" r="1.6"/>
<text transform="matrix(1 0 0 1 118.4927 127.3854)" class="st5 st1 st6 textVocales">a</text>
<text transform="matrix(1 0 0 1 64.3488 38.2418)" class="st5 st1 st6 vocali">i</text>
<text transform="matrix(1 0 0 1 71.0499 56.1894)" class="st5 st1 st6 vocale">e</text>
<text transform="matrix(1 0 0 1 188.7045 38.242)" class="st5 st1 st6 vocalu">u</text>
<text transform="matrix(1 0 0 1 183.7177 65.5734)" class="st5 st1 st6 vocalo">o</text>
</svg>
