<?xml version="1.0" encoding="utf-8"?>
<!-- Generator: Adobe Illustrator 24.2.3, SVG Export Plug-In . SVG Version: 6.00 Build 0)  -->
<svg version="1.1" id="Capa_1" xmlns="http://www.w3.org/2000/svg" xmlns:xlink="http://www.w3.org/1999/xlink" x="0px" y="0px"
	 viewBox="0 0 220.1 176.9" style="enable-background:new 0 0 220.1 176.9;" xml:space="preserve">
<style type="text/css">
	.st0{fill:#006699;}
	.st1{fill:#FFFFFF;}
</style>
<path class="st0" d="M136.3,148.3c12.1,0,24.2,0,36.4,0c0.4,5.4-0.3,10.4-3.3,14.9c-4.4,6.6-10.7,9.9-18.7,9.9
	c-22.2,0-44.4,0-66.6,0c-7.4,0-14.9,0-22.3,0c-13.4,0-23.9-10.5-24-23.9c0-26.5,0-53.1,0-79.6c0-9.8,0-19.6,0-29.4
	c0-0.4,0-0.8,0-1.4c-0.3,0.3-0.6,0.5-0.8,0.7c-9.5,10.5-25.6,8.1-31.7-4.7C0.6,24.5,4.2,12.5,13.8,7c2.8-1.6,5.7-2.4,8.9-2.4
	c29.8,0,59.5,0,89.3,0c11.3,0,20.4,6.8,23.3,17.7c0.5,1.8,0.7,3.8,0.8,5.7c0.1,4.9,0,9.8,0,14.7c0,5,0.1,10,0.1,15
	c0,0.1,0,0.3,0.1,0.5c1.6-1.2,3-2.4,4.5-3.5c6.1-4.5,12.7-8,20.2-9.4c4.1-0.8,8.1-0.4,12.2,0.4c5.4,1,10.8,1.7,16.3,0.4
	c4.7-1.1,9.1-3,13.4-5.2c2.1-1.1,4.3-2.2,6.6-2.9c4.8-1.6,8.5,1.8,7.8,6.7c-0.7,4.4-2.7,8.2-5,12C202.9,71.8,189.6,82,173,88
	c-4.8,1.7-9.8,3.1-14.9,3.4c-3.9,0.2-7,2.1-9.6,4.8c-2.3,2.4-4.3,5.1-6.6,7.4c-1.5,1.5-3.3,2.7-4.9,4.1c-0.3,0.3-0.7,0.7-0.7,1.1
	c0,13.1,0,26.1,0,39.2C136.2,148,136.2,148.1,136.3,148.3z M124,109.7c-0.1,0.2-0.3,0.6-0.4,0.9c-1.4,4.7-2.8,9.4-4.2,14.1
	c-0.6,2.1-2.2,3.2-4.2,2.8c-1.8-0.4-2.8-2.2-2.4-4.2c1.3-6.2,3.1-12.3,5.7-18.1c0.4-1,0.6-1.9,0.2-2.9c-0.4-1.6-0.7-3.2-0.8-4.8
	c-0.4-11.6,3.5-21.7,10.4-30.8c0.7-0.9,1-1.7,1-2.8c-0.1-5.2,0-10.5,0-15.7c0-6.6,0-13.3,0-19.9c-0.1-9.5-7.6-16.8-17-16.8
	c-24.5,0-49,0-73.5,0c-0.3,0-0.7,0.1-1,0.1c0.1,0.2,0.1,0.3,0.2,0.3c4.8,5,6.8,10.9,6.8,17.8c-0.1,11.8,0,23.5,0,35.2
	c0,12.1,0,24.2,0,36.3c0,15.9,0,31.9,0,47.8c0,6.1,2.5,11,7.5,14.4c2.7,1.8,5.6,3.1,8.9,2.7c7.9-0.8,13.1-6.9,13.2-14.9
	c0-0.9,0-1.9,0-2.9c18.4,0,36.7,0,55,0c0-12.7,0-25.4,0-37.9C127.5,110.2,125.8,110,124,109.7z M210.4,45.2
	c-0.1-0.1-0.3-0.2-0.4-0.3c-2.4,1.2-4.7,2.3-7.1,3.4c-4.5,2.1-9.1,3.9-14,4.7c-6.3,1-12.4,0.2-18.6-1c-3.2-0.6-6.3-0.6-9.4,0.2
	c-5.9,1.4-11.2,4.2-16.1,7.8c-9.2,6.7-16.1,15.2-18.9,26.4c-0.5,2-0.9,4.1-1.3,6.2c0.1,0,0.3,0.1,0.4,0.1c0.2-0.3,0.5-0.7,0.7-1.1
	c1.6-2.3,3-4.6,4.7-6.8c10.3-13.1,23.8-20.3,40.2-22.4c1.2-0.2,2.2,0.2,3,1.1c0.9,1,1.1,2.2,0.6,3.5c-0.6,1.6-1.8,2.1-3.4,2.3
	c-11.5,1.5-21.6,6-30.1,14c-5.8,5.5-9.8,12.2-13.6,19c-0.1,0.3-0.2,0.6-0.4,0.9c0.5,0,0.9,0.1,1.3,0.1c0.4,0,0.7-0.1,1.1-0.1
	c3.9-0.7,6.7-3.2,9.1-6.2c1.8-2.2,3.7-4.4,5.8-6.4c3.1-3,6.7-5.3,11.1-5.9c1.9-0.3,3.8-0.4,5.7-0.7c5.5-0.9,10.7-2.8,15.8-5.1
	c12.8-5.8,22.8-14.6,29.9-26.7C208.2,50.1,209.2,47.6,210.4,45.2z M165.6,155.1c-0.6,0-1,0-1.5,0c-11.3,0-22.6,0-33.9,0
	c-16,0-32,0-47.9,0c-1.1,0-1.5,0.2-1.7,1.3c-0.7,3.4-2.3,6.4-4.5,9.1c-0.2,0.2-0.3,0.4-0.5,0.8c0.5,0,0.7,0,1,0
	c24.9,0,49.9,0,74.8,0c4.6,0,8.5-1.8,11.4-5.3C164.1,159.3,165,157.4,165.6,155.1z M21,11.4c-1.3,0.5-2.4,0.8-3.5,1.3
	c-7.3,3.8-9.7,13.6-5.1,20.6c3.2,4.9,8.7,7.1,13.9,5.3c4.9-1.6,7.7-5.3,8.9-10.3c0.6-2.3,0-4.3-1.4-6.1c-2.2-2.8-5.2-4.2-8.5-5
	C24,17,22.5,16.9,21,16.7C21,15,21,13.4,21,11.4z"/>
<path class="st1" d="M124,109.7c1.8,0.2,3.5,0.4,5.3,0.7c0,12.6,0,25.2,0,37.9c-18.4,0-36.6,0-55,0c0,1,0,2,0,2.9
	c0,8-5.3,14.1-13.2,14.9c-3.2,0.4-6.2-0.9-8.9-2.7c-5-3.5-7.5-8.3-7.5-14.4c0-15.9,0-31.9,0-47.8c0-12.1,0-24.2,0-36.3
	c0-11.8,0-23.5,0-35.2c0-6.8-2-12.8-6.8-17.8c0-0.1-0.1-0.1-0.2-0.3c0.4,0,0.7-0.1,1-0.1c24.5,0,49,0,73.5,0c9.4,0,16.9,7.4,17,16.8
	c0.1,6.6,0,13.3,0,19.9c0,5.2,0,10.5,0,15.7c0,1.1-0.3,1.9-1,2.8c-6.9,9.1-10.8,19.2-10.4,30.8c0.1,1.6,0.3,3.3,0.8,4.8
	c0.3,1.1,0.2,2-0.2,2.9c-2.6,5.8-4.4,11.9-5.7,18.1c-0.4,2,0.7,3.8,2.4,4.2c2,0.4,3.6-0.7,4.2-2.8c1.3-4.7,2.8-9.4,4.2-14.1
	C123.7,110.3,123.9,110,124,109.7z M88.2,56.5C88.2,56.6,88.2,56.6,88.2,56.5c-0.5,0-1,0-1.4,0c-8.3,0-16.5,0-24.8,0
	c-1.3,0-2.3,0.5-3,1.6c-0.7,1.1-0.7,2.3-0.1,3.4c0.7,1.3,1.9,1.8,3.3,1.8c6.7,0,13.3,0,20,0c10.4,0,20.9,0,31.3,0
	c0.6,0,1.1,0,1.7-0.1c1.4-0.2,2.6-1.4,2.8-2.7c0.2-1.4-0.4-2.9-1.7-3.5c-0.7-0.3-1.5-0.4-2.3-0.4C105.3,56.5,96.8,56.5,88.2,56.5z
	 M91.6,40.5c7.3,0,14.5,0,21.8,0c0.6,0,1.3,0,1.9-0.1c2.4-0.5,3.5-3.3,2-5.3c-0.9-1.1-2.1-1.4-3.4-1.4c-11.6,0-23.2,0-34.9,0
	c-2.4,0-4.9,0.1-7.3,0.1c-3.2,0-6.5-0.1-9.7,0c-0.9,0-1.9,0.5-2.6,1.1c-1.1,0.9-1.2,2.2-0.7,3.5c0.6,1.5,1.8,2.1,3.3,2.1
	c2.5,0,5,0,7.5,0C76.9,40.6,84.2,40.6,91.6,40.5z M82,86.2c6.6,0,13.2,0,19.9,0c2.4,0,3.9-1.4,3.8-3.5c0-2-1.6-3.3-3.9-3.3
	c-9,0-18,0-27.1,0c-4.2,0-8.4,0-12.6,0c-1.5,0-2.8,0.5-3.4,1.9c-1.2,2.4,0.6,4.9,3.5,4.9C68.8,86.2,75.4,86.2,82,86.2z M77.6,102.2
	L77.6,102.2c-5.2,0-10.4,0-15.6,0c-2.2,0-3.6,1.4-3.6,3.4c0,2,1.5,3.4,3.7,3.4c10.3,0,20.5,0,30.8,0c2.3,0,3.8-1.4,3.7-3.5
	c0-2-1.5-3.3-3.7-3.3C87.8,102.1,82.7,102.2,77.6,102.2z M77.7,125c0,0,0,0.1,0,0.1c-5.2,0-10.5,0-15.7,0c-2.2,0-3.5,1.3-3.5,3.2
	c0,1.9,1.4,3.4,3.5,3.4c10.4,0,20.8,0,31.2,0c1.2,0,2.2-0.5,2.9-1.5c0.8-1.1,0.9-2.3,0.3-3.5c-0.7-1.3-1.8-1.8-3.3-1.8
	C87.9,125,82.8,125,77.7,125z"/>
<path class="st1" d="M210.4,45.2c-1.2,2.4-2.2,4.8-3.6,7.1c-7.1,12.1-17.2,20.9-29.9,26.7c-5.1,2.3-10.2,4.3-15.8,5.1
	c-1.9,0.3-3.8,0.4-5.7,0.7c-4.4,0.6-8,2.9-11.1,5.9c-2.1,2-4,4.2-5.8,6.4c-2.4,3-5.2,5.5-9.1,6.2c-0.4,0.1-0.7,0.1-1.1,0.1
	c-0.4,0-0.8,0-1.3-0.1c0.1-0.4,0.2-0.7,0.4-0.9c3.8-6.9,7.8-13.6,13.6-19c8.4-8,18.6-12.6,30.1-14c1.5-0.2,2.8-0.7,3.4-2.3
	c0.4-1.2,0.3-2.4-0.6-3.5c-0.8-0.9-1.8-1.2-3-1.1c-16.4,2.1-30,9.3-40.2,22.4c-1.7,2.2-3.2,4.5-4.7,6.8c-0.2,0.3-0.5,0.7-0.7,1.1
	c-0.1,0-0.3-0.1-0.4-0.1c0.4-2.1,0.8-4.2,1.3-6.2c2.9-11.3,9.8-19.7,18.9-26.4c4.9-3.6,10.1-6.4,16.1-7.8c3.1-0.8,6.2-0.8,9.4-0.2
	c6.1,1.2,12.3,2,18.6,1c4.9-0.8,9.5-2.6,14-4.7c2.4-1.1,4.7-2.3,7.1-3.4C210.1,45,210.2,45.1,210.4,45.2z"/>
<path class="st1" d="M165.6,155.1c-0.6,2.3-1.5,4.2-2.9,5.9c-3,3.5-6.9,5.3-11.4,5.3c-24.9,0-49.9,0-74.8,0c-0.3,0-0.5,0-1,0
	c0.2-0.4,0.4-0.6,0.5-0.8c2.2-2.7,3.9-5.7,4.5-9.1c0.2-1.1,0.7-1.3,1.7-1.3c16,0,32,0,48,0c11.3,0,22.6,0,33.9,0
	C164.5,155.1,165,155.1,165.6,155.1z"/>
<path class="st1" d="M21,11.4c0,1.9,0,3.6,0,5.3c1.5,0.2,2.9,0.3,4.3,0.6c3.4,0.7,6.3,2.2,8.5,5c1.4,1.8,2,3.8,1.4,6
	c-1.2,5-4,8.6-8.9,10.3c-5.2,1.7-10.7-0.5-13.9-5.3c-4.6-7-2.2-16.8,5.1-20.6C18.6,12.2,19.8,11.9,21,11.4z"/>
<path class="st0" d="M88.2,56.5c8.6,0,17.1,0,25.7,0c0.8,0,1.6,0.1,2.3,0.4c1.3,0.6,2,2.1,1.7,3.5c-0.2,1.4-1.4,2.5-2.8,2.7
	c-0.6,0.1-1.1,0.1-1.7,0.1c-10.4,0-20.9,0-31.3,0c-6.7,0-13.3,0-20,0c-1.4,0-2.6-0.5-3.3-1.8c-0.6-1.1-0.6-2.3,0.1-3.4
	c0.7-1.1,1.7-1.6,3-1.6c8.3,0,16.5,0,24.8,0C87.3,56.6,87.8,56.6,88.2,56.5C88.2,56.6,88.2,56.5,88.2,56.5z"/>
<path class="st0" d="M91.6,40.6c-7.3,0-14.7,0-22.1,0c-2.5,0-5,0-7.5,0c-1.5,0-2.7-0.7-3.3-2.1c-0.5-1.3-0.4-2.6,0.7-3.5
	c0.7-0.6,1.7-1.1,2.6-1.1c3.2-0.1,6.5,0,9.7,0c2.4,0,4.9-0.1,7.3-0.1c11.6,0,23.2,0,34.9,0c1.3,0,2.5,0.2,3.4,1.4
	c1.5,2,0.5,4.8-2,5.3c-0.6,0.1-1.3,0.1-1.9,0.1C106.1,40.6,98.8,40.5,91.6,40.6z"/>
<path class="st0" d="M82,86.2c-6.6,0-13.2,0-19.8,0c-2.9,0-4.6-2.5-3.5-4.9c0.7-1.4,1.9-1.9,3.4-1.9c4.2,0,8.4,0,12.6,0
	c9,0,18.1,0,27.1,0c2.3,0,3.8,1.3,3.9,3.3c0,2.1-1.5,3.5-3.8,3.5C95.3,86.2,88.6,86.2,82,86.2z"/>
<path class="st0" d="M77.6,102.2c5.1,0,10.2,0,15.3,0c2.2,0,3.7,1.3,3.7,3.3c0,2.1-1.5,3.4-3.7,3.5c-10.3,0-20.5,0-30.8,0
	c-2.2,0-3.7-1.4-3.7-3.4c0-1.9,1.4-3.3,3.6-3.4C67.2,102.1,72.4,102.2,77.6,102.2C77.6,102.2,77.6,102.2,77.6,102.2z"/>
<path class="st0" d="M77.7,125c5.1,0,10.2,0,15.3,0c1.5,0,2.6,0.6,3.3,1.8c0.6,1.2,0.5,2.4-0.3,3.5c-0.7,1-1.7,1.5-2.9,1.5
	c-10.4,0-20.8,0-31.2,0c-2.1,0-3.5-1.5-3.5-3.4c0-2,1.3-3.2,3.5-3.2C67.2,125,72.4,125.1,77.7,125C77.7,125,77.7,125,77.7,125z"/>
</svg>
