<?xml version="1.0" encoding="UTF-8"?><svg id="Capa_1" xmlns="http://www.w3.org/2000/svg" viewBox="0 0 471 451"><defs><style>.cls-1{font-family:CharisSIL, 'Charis SIL';font-size:18px;}.cls-2,.cls-3{fill:#f7d3b9;}.cls-4{fill:#eca88a;}.cls-5{fill:#e7a88e;}.cls-6{fill:#e7a48c;}.cls-7{fill:#e7a48d;}.cls-8{fill:#e8a78c;}.cls-9{fill:#ec7f4b;}.cls-10{fill:#eda88b;}.cls-11{fill:#e6a487;}.cls-12{fill:#cd9765;}.cls-13{fill:#deab96;}.cls-14{fill:#d36f60;}.cls-15{fill:#d3a78f;}.cls-16{fill:#cc6360;}.cls-17{fill:#e1a790;}.cls-18{fill:#dfa78d;}.cls-19{fill:#d5a78e;}.cls-20{fill:#d5a790;}.cls-21{fill:#f2d459;}.cls-21,.cls-22,.cls-23,.cls-3{stroke:#c96;stroke-width:.25px;}.cls-21,.cls-22,.cls-23,.cls-3,.cls-24,.cls-25{stroke-miterlimit:10;}.cls-22{fill:#fceabd;}.cls-23{fill:#f3d356;}.cls-24{fill:#069;stroke:#069;}.cls-25{fill:#f5d3b6;stroke:#c99;}</style></defs><path class="cls-24" d="M-.27-.14V450.86H470.73V-.14H-.27ZM461.01,421.85c0,10.77-8.73,19.51-19.51,19.51H28.95c-10.77,0-19.51-8.73-19.51-19.51V28.87c0-10.77,8.73-19.51,19.51-19.51H441.51c10.77,0,19.51,8.73,19.51,19.51V421.85Z"/><g><g><path class="cls-21" d="M214.04,215.08c8.01-.47,13.66-.47,24.96,1.88,12.3,2.56,18.84,7.54,23.08,12.24s7.54,11.77,5.18,19.78c-2.35,8.01-6.59,10.83-8.48,14.13s-1.41,4.24,2.83,4.24,3.77,1.41,2.35,3.3-2.83,6.59-1.41,8.95c1.41,2.35,2.94,5.65,8.06,0s6.54-8.01,8.42-10.36c1.88-2.35,3.77,1.41,3.3,4.24-.47,2.83-1.88,11.77-5.18,18.84-3.3,7.06-9.89,21.66-11.3,25.43-1.41,3.77-7.54,25.43-7.06,31.08,.47,5.65,3.3,26.84,6.12,39.09,2.83,12.24,5.65,26.84,5.65,26.84h-22.42s-7.25-21.71-8.19-29.46c-.94-7.75-1.41-13.4-2.35-24.7s-2.35-17.42-6.12-20.25c-3.55-2.67-5.17-3.16-14.13-3.3-5.67-.09-8.48-.94-20.25-4.24-8.48-2.83-16.01-8.48-21.66-10.36-5.65-1.88-12.24-4.71-19.78-6.12-7.54-1.41-21.66-2.35-24.02-17.42-2.35-15.07,5.18-23.55,9.42-29.67,4.24-6.12,4.71-9.89,3.77-15.54-.94-5.65-5.28-14.4-2.83-19.31,1.88-3.77,8.95-5.65,13.19-1.41,3.14,3.14,.47,14.6,.47,17.42s1.17,8.72,4.24,5.65c3.3-3.3,3.77-5.18,5.65-4.71s7.54-1.88,7.54-1.88c0,0,3.21-4.07,7.54,1.88,3.77,5.18,6.12,8.95,8.95,8.01,2.83-.94,.94-2.35,1.41-4.71,.47-2.35,3.85,.28,5.18,.94,1.88,.94,4.71,1.88,3.3-3.3s-6.12-8.95-11.3-13.66-6.69-15.39,3.77-19.31c7.54-2.83,16.88-3.93,22.13-4.24Z"/><path class="cls-21" d="M178.72,213.67c5.77-3.85,10.3-7.06,26.84-7.06,17.42,0,31.55,1.88,36.26,2.83s17.9,4.24,23.08,8.95c5.18,4.71,7.64,9.13,8.95,11.3,1.41,2.35,5.18,4.71,5.18-.94,0-7.06-.94-12.72-6.59-18.84-5.65-6.12-15.07-11.3-15.07-11.3l-63.58-14.6s-17.9-3.3-18.37-3.3-15.55,0-15.55,0l-14.59,6.12-1.41,2.35s.47,10.83-.94,16.48c-1.08,4.33-4.24,8.01-4.24,14.6,0,5.18,1.41,7.54,5.65,8.95,5.53,1.84,6.75,2.11,10.36-.47,3.3-2.35,1.41-6.59,1.41-12.24,0-4.24-.04-6.44,3.3-5.65,3.17,.75,2.83,1.88,3.3,3.3,.33,1,1.34,1.17,2.35,.47s7.54-1.88,7.54-1.88c0,0,.74,1.64,.94,2.35,.1,.33,.22,1.74,.47,2.35s.63,.89,.94,.47c1.41-1.88,2.35-3.3,3.77-4.24Z"/><path class="cls-14" d="M201.79,111.47s21.66,1.41,28.73,2.35c6.68,.89,15.54,3.77,18.37,5.65,2.83,1.88,8.01,5.65,8.95,9.89s3.3,12.49,4.71,16.01c1.88,4.71,7.54,8.95,12.72,12.24s10.36,6.12,14.6,11.77,7.06,11.3,8.48,20.25c1.41,8.95,2.35,21.66,1.88,29.67-.47,8.01-1.88,18.84-2.35,19.31s-1.41,.94-1.41-2.35-1.41-14.13-9.42-20.72c-8.01-6.59-14.6-9.89-26.37-13.66-11.77-3.77-21.66-5.65-32.02-7.54-10.36-1.88-29.2-5.18-35.32-6.59-6.12-1.41-22.13-4.24-26.37-4.71s-7.06-.94-11.77,.94c-4.71,1.88-11.3,6.59-14.6,7.06s-8.95,1.41-12.24,0-3.03-3.54-1.88-6.12c1.88-4.24,1.41-3.77,1.41-7.54s0-6.59,4.24-11.77c4.24-5.18,17.42-17.9,18.37-19.31s8.48-8.01,13.66-16.01c2.63-4.07,8.33-13.35,13.66-16.01,5.65-2.83,9.42-3.77,24.02-2.83Z"/><path class="cls-21" d="M119.38,182.12c.21,.63,.94,1.88,2.35,1.88s1.88-.94,1.88-2.83,0-5.65,.47-8.01c.47-2.35,1.88-5.18,3.3-7.06,1.41-1.88,2.83-3.3,3.77-4.24s2.35-2.83,2.83-4.24c.47-1.41,.47-2.83-.94-2.35s-3.3,1.88-3.77,2.35-2.35,2.35-3.77,4.24-2.83,3.77-3.3,4.71-1.88,3.37-2.35,5.69c-.47,2.32-1.41,7.03-.47,9.85Z"/><path class="cls-21" d="M148.1,143.03l4.71-5.65s3.3-4.24,4.24-5.18,3.77-4.71,4.24-5.18,.47-2.83-1.88-1.88-4.24,2.83-4.71,3.3-2.83,3.3-3.77,4.24c-.94,.94-3.77,4.71-4.71,5.65s-2.35,2.83-3.3,3.77-3.39,4.3-3.77,5.18c-.42,.97-1.88,2.83,0,3.3s2.83,0,3.77-.94,5.18-6.59,5.18-6.59Z"/><path class="cls-2" d="M235.7,148.21c1.3,.05,2.35,0,5.18,.94s7.54,3.3,8.95,4.24c.55,.37,4.24,2.83,5.18,3.3s3.77,2.35,3.77,.94c0-1.94-4.24-5.18-5.65-6.12s-7.54-4.24-8.95-4.71-6.12-2.35-7.54-2.83-2.83-.94-4.71-1.88-3.3-1.88-5.65-1.88-4.6,.44-4.24,1.88c.47,1.88,2.83,4.24,6.59,5.18,3.77,.94,5.24,.87,7.06,.94Z"/><path class="cls-2" d="M218.27,167.05s13.45,5.55,17.42,7.54c3.77,1.88,10.36,4.24,14.13,5.65,2.25,.84,8.01,1.88,11.3,1.41,2.84-.41,9.42-3.3,9.42-4.71s-.47-2.83-2.81-1.89c-1.97,.79-3.33,1.36-5.2,1.89-3.3,.94-7.54,.94-17.14-2.54-5.7-2.07-15.12-7.24-19.13-10.17-4.11-3.01-11.3-7.06-14.13-8.48-2.83-1.41-7.77-3.87-9.77-5s-7.75-2.52-9.54-1.13-2.83,6.12,.47,8.01c4.03,2.3,9.89,3.77,12.72,4.71,2.83,.94,12.24,4.71,12.24,4.71Z"/><path class="cls-2" d="M295.04,212.73s1.41,2.83,1.41,.47-1.41-7.54-1.88-9.42c-.36-1.44-1.88-8.01-2.83-9.89-.76-1.52-3.3-8.01-4.24-9.42s-1.88-3.3-3.3-3.3-1.77,1.38-1.41,2.83c.47,1.88,1.41,3.77,2.35,5.65s2.35,4.24,2.83,5.18c.76,1.52,2.35,4.71,3.3,7.54,.6,1.79,1.41,4.24,1.88,5.65s1.88,4.71,1.88,4.71Z"/><path class="cls-2" d="M288.45,208.96s.94,1.41,1.41,.47-.47-3.3-.94-4.71c-.47-1.41-1.41-4.24-1.88-5.18-.47-.94-1.41-3.3-2.35-4.24-1.2-1.2-3.3-1.41-4.24-.47s-.94,2.35-.47,3.3c.47,.94,1.28,1.63,2.35,2.35s2.55,1.61,3.3,2.35c.47,.47,1.08,1.83,1.41,2.83,.47,1.41,1.41,3.3,1.41,3.3Z"/><path class="cls-16" d="M165.06,214.61v12.72s.47,2.83,1.88,.47,4.24-7.54,4.24-7.54c0,0,1.47-2.44,1.88-3.3,.68-1.42,.95-2.38,1.41-6.12,.47-3.77-.47-7.54-.47-8.54,0-1.35-.47-3.7-2.35-2.76-2.11,1.05-1.88,2.83-1.88,5.18,0,1.88-.47,3.3-.94,4.71-.33,1-1.04,2.27-1.41,2.83-.94,1.41-2.35,2.35-2.35,2.35"/><path class="cls-16" d="M171.18,254.17c.94-.94,1.41-2.83,1.41-3.3s.47-1.88,0-4.71-.94-3.77-1.88-5.18-.94-3.77-1.41-4.71-1.41-2.83-2.35-2.35-1.41,2.35-1.41,3.77-.47,3.77-.94,4.71-.94,2.35-.94,2.83-.47,.94,.94,1.88,2.35,1.41,2.35,2.35-.47,2.35-.47,2.83,.75,1.41,.94,2.35c.19,.94,.94,2.83,1.88,1.88,.47-.47,1.41-1.88,1.88-2.35Z"/><path class="cls-10" d="M322.82,264.06s2.35-1.41,2.35-3.3,0-4.24-.94-4.71-1.88-.94-.94-1.41,1.88,.47,2.35,.94,.94,1.41,.94,2.35,0,2.35-.47,3.77c-.47,1.41-1.88,3.77-2.35,3.77s-.94-1.41-.94-1.41Z"/><path class="cls-5" d="M304.76,265.47c-.31-.47-1.72-1.41-2.19-2.35-.3-.6-.94-1.88-.47-3.3s.47-1.41,1.41-2.35,1.88-1.41,1.88-1.41l-1.88-.47s-.92,.3-1.64,1.33-1.19,1.5-1.19,3.38,0,2.35,.47,3.3,.94,1.41,1.41,1.88l.94,.94c.47,.47,1.25-.94,1.25-.94Z"/><path class="cls-8" d="M323.3,290.9s1.88,.94,2.83,2.83c.94,1.88,.94,2.83,.94,3.77s-.94,3.77-1.41,4.71c-.47,.94-1.41-.38-.94-1.6,.47-1.22,1.1-2.32,.78-3.89s-1.26-4.14-2.67-4.51,.47-1.3,.47-1.3Z"/><path class="cls-7" d="M303.52,292.79s-1.51,1.61-1.88,3.3c-.38,1.72-.17,4.01,.47,5.65s1.41,3.3,1.41,3.3c0,0,2.35,.47,1.41-1.41-.94-1.88-.94-1.82-1.41-3.3-.47-1.47-.47-3.3,0-4.71q.47-1.41,.94-1.88c.47-.47-.94-.94-.94-.94Z"/><path class="cls-4" d="M327.06,328.11s1.88,1.88,2.35,2.83c.47,.94,.47,2.83,.47,3.3,0,1.41,0,4.24-.94,5.18s-1.41,0-1.41-.47,.94-2.35,.94-3.77,0-1.88-.47-3.3c-.54-1.61-.94-2.35-1.88-2.83s.94-.94,.94-.94Z"/><path class="cls-6" d="M308.7,333.29s-.87,.78-1.47,2c-.41,.82-.41,2.71,.06,3.65,.47,.94,.94,1.41,1.41,1.88,.74,.74,.94,1.41,.47,1.41s-1.15-.21-2.35-1.41c-.94-.94-1.41-1.88-1.41-3.3,0-.47,0-1.88,.94-3.3s1.41-1.41,1.41-1.41l.94,.47Z"/><path class="cls-13" d="M333.66,361.55s1.41,.94,1.88,2.35c.33,1,.17,2.84,0,3.77-.15,.84-.47,2.83-.94,3.3s-1.39,.87-.94-.47c.47-1.41,.47-3.3,.47-4.71,0-.73-.47-1.88-.92-2.92-.41-.95,.45-1.31,.45-1.31Z"/><path class="cls-17" d="M313.41,365.78s-.94,.94-.94,1.88-.19,1.71,0,2.83c.19,1.12,.94,1.88,1.41,2.35l.94,.94s-.57,.57-1.7,.29-2.07-2.64-2.07-3.58-.21-1.98,0-2.83,1.04-2.54,1.7-2.45,.66,.57,.66,.57Z"/><path class="cls-18" d="M339.78,389.8s1.41,.47,1.88,.94,1.41,1.88,1.41,3.3c0,.94,0,2.35-.47,4.24-.26,1.02-.94,1.88-.94,1.88,0,0-.88,0-.94-.94-.05-.78,.7-2.09,.94-3.3,.19-.92,.11-2.42-.47-3.3-.94-1.41-2.35-2.35-2.83-2.35s1.41-.47,1.41-.47Z"/><path class="cls-11" d="M321.88,402.52s-.94-.47-1.88-1.41-1.41-1.79-1.65-2.55-.23-2.64,0-3.58-1.18-.47-1.18-.47c0,0-.47,.47-.47,2.35s.47,2.83,.94,3.77,2.35,1.88,2.83,2.35,1.41-.47,1.41-.47Z"/><path class="cls-19" d="M117.49,186.83s-2.55-7.08-1.98-11.78,1.41-10.14,7.52-16.9c8.12-8.99,18.01-18.88,21.78-24.06s13.21-17.38,16.73-22.35,11.06-14.39,10.11-20.98-1.72-15,.08-21.63,6.04-15.58,8.4-20.28c2.35-4.71,8.65-17.42,8.65-17.42h-3.66s-8.49,15.93-10.51,19.97c-2.02,4.05-5.73,12.23-6.46,16.61-.73,4.39-.85,11.07,.39,17.15,1.23,6.08-3.65,16.44-9.45,23.97-5.8,7.54-15.22,19.95-20.4,25.75-5.18,5.8-10.83,13.34-16.01,18.52-5.18,5.18-9.42,10.36-9.89,18.37-.47,8.01,.32,12.24,1.57,15.07,1.25,2.83,5.02,6.59,3.14,0Z"/><path class="cls-15" d="M316.7,414.29s-7.24-28.27-8.56-35.56-5.94-33.66-6.7-39.79-2.94-34.75-2.79-44.45c.15-9.71-.79-33.25,.62-42.2,1.41-8.95,4.27-36.43,4.02-44.12-.25-7.69,1.16-24.64,2.1-27.47s3.55-5.2,2.01-5.66-3.86-.93-4.11,6.13c-.25,7.06-1.64,6.97-1.42,15.26,.22,8.29,.79,13.98-.44,25.26-1.22,11.28-4.99,36.2-4.99,46.35s0,32.28,1.41,50.18c1.41,17.9,4.72,37.96,6.36,48.89,1.64,10.92,6.92,29.66,8.52,38.19,1.6,8.53,2.07,9.47,2.07,9.47l1.88-.47Z"/><path class="cls-20" d="M360,414.29s-12.73-33.46-15.3-47.81-7.24-48.15-7.97-61.39c-.72-13.24-4.1-52.3-1.67-65.51,3.3-17.9,7.54-25.43,1.88-47.09-3.6-13.82-10.36-17.42-15.07-28.6-2.83-8.6-3.88-20.97,.42-28.68s-12.31-17.21-15.08-14.34c-2.29,4.75-1.33,10.16-5.34,10.52s-12.96,1.77-7.31-8.59c5.65-5.65,5.91-9.05-3.4-11.83s-12.61-1.83-34.74-4.66c-22.13-2.83-35.04-3.84-43.42-16.99-8.38-13.15-6-29.78-3.89-34.42,2.11-4.63,9.72-23.47,9.72-23.47l-9.72,.35s-11.08,27.9-7.31,38.26c3.77,10.36,8.95,26.84,12.72,30.61,3.77,3.77,30.14,16.48,51.33,14.6,21.19-1.88,24.36,.87,23.72,1.61s-3.96,5.8-3.71,8.92,3.54,10.19,6.84,11.6c3.3,1.41,12.24,2.35,14.6-2.35s2.35-8.01,2.83-8.01,4.61,1.22,5.36,4.85c.76,3.63-.93,9.06-.79,17.18,.14,8.12,2.96,18.48,6.26,24.6s9.42,13.66,9.42,13.66c0,0,7.06,15.54,4.71,33.44-2.35,17.9-5.18,14.6-4.71,34.85,.47,20.25,2.64,45.51,4.24,63.58s7.54,54.63,9.89,61.69,9.54,32.02,11.83,33.44,3.68,0,3.68,0Z"/><path class="cls-23" d="M163.65,120.89c.47-.47,9.46-6.89,10.96-8.11,3.25-2.64,4.61-3.33,11.17-4.13,11.23-1.38,28.26,.94,30.61,.94s23.24,3.2,27.63,4.9c4.39,1.7,14.88,7.85,15.52,10.42,.64,2.57,3.47,11.05,3.94,13.88,.47,2.83,4.46,11,9.89,15.07s21.66,13.66,27.31,18.37c4.6,3.84,11.94,13.4,15.07,17.42,3.3,4.24,9.89,6.59,11.77,5.65,2.7-1.35,2.83-5.18,2.83-8.01,0-2.4-3.06-8.15-7.54-15.07-5.18-8.01-6.86-15.5-6.49-23.05,.37-7.56,1.09-9.96,2.25-14.62,.47-1.88,.94-3.77-2.35-5.65-3.86-2.2-4.24-4.24-5.65-4.24-1.88,0-1.88,2.83-2.83,5.65s-2.12,4.9-5.18,6.12c-2.35,.94-6.12,.47-8.95-1.88-2.83-2.35-4.71-4.71-5.18-6.12-.47-1.41,0-3.77,.94-5.18s3.3-3.3,3.77-5.65c.21-1.03-.94-3.3-6.12-4.24-5.18-.94-9.42-.94-13.19-1.41s-10.83-.94-15.54-1.41-13.66-1.88-18.84-2.83-15.54-3.77-19.78-6.59c-3.61-2.41-9.12-9.71-11.77-15.54-2.35-5.18-5.18-11.77-4.71-20.25,.47-8.48,1.41-13.19,3.77-18.84,2.03-4.86,7.06-14.6,7.06-14.6l-19.78-.47s-8.01,16.01-8.95,17.9-3.77,8.95-5.18,12.72-3.3,8.48-2.83,14.6,.47,13.66,0,16.01-1.69,5.41-3.77,8.01c-1.88,2.35-4.24,5.65-5.65,7.54-1.41,1.88-3.77,4.71-5.18,6.59s-2.83,4.71-2.35,6.12,3.3,0,3.3,0Z"/><path class="cls-25" d="M320.94,414.29h26.84s-3.3-4.71-3.3-8.01,.47-5.18-.94-6.12-7.54-1.41-10.36-.94-5.21,1.57-7.06,1.88c-2.83,.47-7.09,1.01-7.54,2.35-.47,1.41-.47,4.24,2.35,10.83Z"/><path class="cls-25" d="M328.95,393.57c.33-.33,2.83-2.83,6.12-2.83s5.18,0,5.18-.94,0-3.3-1.41-5.18-1.41-6.12-1.41-7.54,0-3.77-.94-5.65-5.18-2.35-6.59-1.88-3.77,2.83-6.12,3.3-6.12,0-7.54,0-4.24,.47-3.3,3.77,2.83,5.65,3.3,7.06c.47,1.41,.47,3.77,0,5.18s-.47,4.24,.47,5.65,4.71,1.41,6.59,.94,3.77,0,5.65-1.88Z"/><path class="cls-25" d="M320.94,364.84c.47,0,2.35-.94,6.12-1.41s5.18,.47,6.59-.94c1.41-1.41,1.41-3.3,.47-5.18s-3.3-4.24-2.83-7.06c.47-2.83,.47-5.18,.47-7.06s-1.41-4.24-4.24-4.24-5.65,.94-8.48,.94-6.12,0-8.01,.47-4.24,1.88-3.77,6.12c.47,4.24,.94,4.71,1.88,6.59,.94,1.88,.94,3.3,.94,5.18s-.47,5.65,.94,7.06,3.77,2.35,6.12,1.41c2.35-.94,3.77-1.88,3.77-1.88Z"/><path class="cls-25" d="M317.17,330.93s1.88-1.41,4.71-1.41,5.65,.47,6.12-.94c.47-1.41,.94-4.98,0-8.61s-.94-6.93-.47-9.76c.47-2.83,.47-6.12-.47-7.54-.94-1.41-3.77-2.35-7.06-.94s-4.71,1.41-6.59,1.41-4.71,0-6.59-.47-5.65,.47-4.24,6.12c1.41,5.65,1.99,6.63,2.35,8.48,.47,2.35,0,5.18-.47,7.54-.47,2.35-.53,4.71-.03,6.12,.5,1.41,.97,3.3,4.74,2.83s8.01-2.83,8.01-2.83Z"/><path class="cls-25" d="M308.23,294.2s5.65-1.41,8.95-1.41,5.01,.47,6.04,0,2.44-3.3,1.97-7.06c-.41-3.3-1.41-6.59-1.41-9.42s.8-5.55,1.41-8.01c.47-1.88-.94-4.71-2.83-5.18s-5.18,.47-7.54,1.88c-2.59,1.55-6.12,.94-8.95,.47s-5.18,.94-5.18,4.71,1.88,6.12,2.35,8.01c.47,1.88,.94,4.24,0,7.06-.8,2.41-1.41,4.71-.94,6.12,.76,2.28,.94,3.77,6.12,2.83Z"/><path class="cls-25" d="M321.88,255.58s5.18,.47,4.24-4.24c-.94-4.71-1.88-11.77-1.88-15.07s1.17-11.7,2-14.33c.83-2.62,2.24-8.75,2.71-11.1,.47-2.35-.47-5.18-2.35-6.12s-5.18-1.88-8.48,3.3-4.24,8.95-5.18,12.72-1.88,7.06-3.3,10.83-2.83,6.59-4.24,9.89-2.83,5.18-3.3,8.01-.47,6.59,2.83,7.06,5.18-.94,8.48-.94h8.48Z"/><path class="cls-22" d="M282.84,152.58c.47,.47,2.35,2.83,4.24,2.83s2.83-1.41,4.24-1.88,4.24-.47,3.77-2.83c-.47-2.35,0-5.65-1.88-7.54-1.88-1.88-4.24-2.83-5.65-5.65s-1.88-5.18-2.83-7.06-1.41-4.24-4.71-4.71-7.06-.94-9.42,3.3-2.35,3.3-3.3,6.12-1.41,5.18,.47,6.59,5.18,1.88,6.59,2.35,4.24,1.41,5.18,3.77c.94,2.35,3.3,4.71,3.3,4.71Z"/><path class="cls-22" d="M203.31,104.72s3.77-.47,5.18-2.83,.47-6.12-.47-8.01c-.94-1.88-5.18-6.12-6.59-8.01-1.41-1.88-2.35-4.24-1.88-7.54,.47-3.3-1.88-6.12-4.24-7.06s-5.65-.94-8.01,.94-3.77,4.24-3.3,7.06,1.1,5.97,2.43,8.4,1.33,5.25,.86,8.08-2.83,6.12,2.35,8.01,13.66,.94,13.66,.94Z"/><ellipse class="cls-9" cx="271.3" cy="361.76" rx="10.13" ry="2.83" transform="translate(-22.86 18.33) rotate(-3.71)"/><path class="cls-2" d="M212.85,186.7c7.25,1.81,13.29,3.32,18.13,3.93,3.71,.46,9.66,1.81,15.11,1.81s8.16-.6,9.06-1.21c.56-.37,3.63-2.08,0-2.11s-6.65,.3-10.27,0c-5.49-.46-6.65-2.11-14.2-3.32-7.55-1.21-10.63-1.95-16.01-3.93-9.06-3.32-15.71-7.25-18.73-8.76-3.02-1.51-6.92-1.21-7.39,0s-1.38,3.32,3.76,5.74c5.14,2.42,16.56,6.86,20.54,7.86Z"/><path class="cls-3" d="M287.97,413.82l20.17,.94s-4.62-20.25-6.04-27.31c-1.41-7.06-4.24-29.2-4.71-32.5-.47-3.3-1.41-12.72-8.48-12.24-7.06,.47-8.01,7.54-7.54,13.66,.47,6.12,2.87,16.94,4.73,22.36,1.86,5.42,4.21,19.08,3.74,24.26-.47,5.18-1.88,10.83-1.88,10.83Z"/></g><path class="cls-12" d="M320.94,235.74c.97,0,.97-1.5,0-1.5s-.97,1.5,0,1.5h0Z"/><path class="cls-12" d="M323.34,226.02c.97,0,.97-1.5,0-1.5s-.97,1.5,0,1.5h0Z"/><path class="cls-12" d="M326.01,216.3c.97,0,.97-1.5,0-1.5s-.97,1.5,0,1.5h0Z"/><path class="cls-12" d="M325.03,208.27c.97,0,.97-1.5,0-1.5s-.97,1.5,0,1.5h0Z"/><path class="cls-12" d="M320.38,208.41c.97,0,.97-1.5,0-1.5s-.97,1.5,0,1.5h0Z"/><path class="cls-12" d="M317.56,213.2c.97,0,.97-1.5,0-1.5s-.97,1.5,0,1.5h0Z"/><path class="cls-12" d="M316.86,221.65c.97,0,.97-1.5,0-1.5s-.97,1.5,0,1.5h0Z"/><path class="cls-12" d="M306.3,253.77c.97,0,.97-1.5,0-1.5s-.97,1.5,0,1.5h0Z"/><path class="cls-12" d="M310.66,253.91c.97,0,.97-1.5,0-1.5s-.97,1.5,0,1.5h0Z"/><path class="cls-12" d="M318.27,254.47c.97,0,.97-1.5,0-1.5s-.97,1.5,0,1.5h0Z"/><path class="cls-12" d="M324.09,253.44v-.28c0-.1-.02-.2-.06-.29-.03-.09-.08-.17-.16-.24-.07-.07-.15-.12-.24-.16-.09-.05-.19-.07-.29-.06l-.2,.03c-.13,.04-.24,.1-.33,.19l-.12,.15c-.07,.12-.1,.24-.1,.38v.28c0,.1,.02,.2,.06,.29,.03,.09,.08,.17,.16,.24,.07,.07,.15,.12,.24,.16,.09,.05,.19,.07,.29,.06l.2-.03c.13-.04,.24-.1,.33-.19l.12-.15c.07-.12,.1-.24,.1-.38h0Z"/><path class="cls-12" d="M322.44,249.17l.28-.42c.05-.09,.08-.18,.09-.28,.02-.1,.02-.2-.01-.3-.02-.1-.07-.18-.13-.26-.05-.08-.12-.15-.21-.19l-.18-.08c-.13-.04-.27-.04-.4,0l-.18,.08c-.11,.07-.2,.16-.27,.27l-.28,.42c-.05,.09-.08,.18-.09,.28-.02,.1-.02,.2,.01,.3,.02,.1,.07,.18,.13,.26,.05,.08,.12,.15,.21,.19l.18,.08c.13,.04,.27,.04,.4,0l.18-.08c.11-.07,.2-.16,.27-.27h0Z"/><path class="cls-12" d="M322.35,241.65c.97,0,.97-1.5,0-1.5s-.97,1.5,0,1.5h0Z"/><path class="cls-12" d="M317.14,244.47c.97,0,.97-1.5,0-1.5s-.97,1.5,0,1.5h0Z"/><path class="cls-12" d="M306.44,249.68c.97,0,.97-1.5,0-1.5s-.97,1.5,0,1.5h0Z"/><path class="cls-12" d="M308.27,244.33c.97,0,.97-1.5,0-1.5s-.97,1.5,0,1.5h0Z"/><path class="cls-12" d="M312.07,236.58c.97,0,.97-1.5,0-1.5s-.97,1.5,0,1.5h0Z"/><path class="cls-12" d="M312.07,230.1c.97,0,.97-1.5,0-1.5s-.97,1.5,0,1.5h0Z"/><path class="cls-12" d="M315.31,227.29c.97,0,.97-1.5,0-1.5s-.97,1.5,0,1.5h0Z"/><path class="cls-12" d="M322.63,222.78c.97,0,.97-1.5,0-1.5s-.97,1.5,0,1.5h0Z"/><path class="cls-12" d="M323.34,213.2c.97,0,.97-1.5,0-1.5s-.97,1.5,0,1.5h0Z"/><path class="cls-12" d="M326.01,212.36c.97,0,.97-1.5,0-1.5s-.97,1.5,0,1.5h0Z"/><path class="cls-12" d="M322.21,217c.97,0,.97-1.5,0-1.5s-.97,1.5,0,1.5h0Z"/><path class="cls-12" d="M316.01,217.71c.97,0,.97-1.5,0-1.5s-.97,1.5,0,1.5h0Z"/><path class="cls-12" d="M319.11,225.6c.97,0,.97-1.5,0-1.5s-.97,1.5,0,1.5h0Z"/><path class="cls-12" d="M321.93,229.26c.97,0,.97-1.5,0-1.5s-.97,1.5,0,1.5h0Z"/><path class="cls-12" d="M317,232.22c.97,0,.97-1.5,0-1.5s-.97,1.5,0,1.5h0Z"/><path class="cls-12" d="M317,238.41c.97,0,.97-1.5,0-1.5s-.97,1.5,0,1.5h0Z"/><path class="cls-12" d="M313.62,243.34c.97,0,.97-1.5,0-1.5s-.97,1.5,0,1.5h0Z"/><path class="cls-12" d="M313.9,250.1c.97,0,.97-1.5,0-1.5s-.97,1.5,0,1.5h0Z"/><path class="cls-12" d="M317.42,250.39c.97,0,.97-1.5,0-1.5s-.97,1.5,0,1.5h0Z"/><path class="cls-12" d="M319.39,246.86c.97,0,.97-1.5,0-1.5s-.97,1.5,0,1.5h0Z"/><path class="cls-12" d="M319.11,241.37c.97,0,.97-1.5,0-1.5s-.97,1.5,0,1.5h0Z"/><path class="cls-12" d="M314.32,241.23c.97,0,.97-1.5,0-1.5s-.97,1.5,0,1.5h0Z"/><path class="cls-12" d="M311.22,240.38c.97,0,.97-1.5,0-1.5s-.97,1.5,0,1.5h0Z"/><path class="cls-12" d="M310.38,245.6c.97,0,.97-1.5,0-1.5s-.97,1.5,0,1.5h0Z"/><path class="cls-12" d="M305.25,269.53c.97,0,.97-1.5,0-1.5s-.97,1.5,0,1.5h0Z"/><path class="cls-12" d="M308.64,270.53c.97,0,.97-1.5,0-1.5s-.97,1.5,0,1.5h0Z"/><path class="cls-12" d="M307.64,275.51c.97,0,.97-1.5,0-1.5s-.97,1.5,0,1.5h0Z"/><path class="cls-12" d="M306.25,288.66c.97,0,.97-1.5,0-1.5s-.97,1.5,0,1.5h0Z"/><path class="cls-12" d="M321.78,289.45c.97,0,.97-1.5,0-1.5s-.97,1.5,0,1.5h0Z"/><path class="cls-12" d="M321.38,283.08c.97,0,.97-1.5,0-1.5s-.97,1.5,0,1.5h0Z"/><path class="cls-12" d="M317.8,277.9c.97,0,.97-1.5,0-1.5s-.97,1.5,0,1.5h0Z"/><path class="cls-12" d="M320.99,268.14c.97,0,.97-1.5,0-1.5s-.97,1.5,0,1.5h0Z"/><path class="cls-12" d="M320.39,272.92c.97,0,.97-1.5,0-1.5s-.97,1.5,0,1.5h0Z"/><path class="cls-12" d="M314.01,269.93c.97,0,.97-1.5,0-1.5s-.97,1.5,0,1.5h0Z"/><path class="cls-12" d="M312.02,275.51c.97,0,.97-1.5,0-1.5s-.97,1.5,0,1.5h0Z"/><path class="cls-12" d="M307.64,281.68c.97,0,.97-1.5,0-1.5s-.97,1.5,0,1.5h0Z"/><path class="cls-12" d="M310.83,288.66c.97,0,.97-1.5,0-1.5s-.97,1.5,0,1.5h0Z"/><path class="cls-12" d="M306.64,291.44c.97,0,.97-1.5,0-1.5s-.97,1.5,0,1.5h0Z"/><path class="cls-12" d="M313.22,291.84c.97,0,.97-1.5,0-1.5s-.97,1.5,0,1.5h0Z"/><path class="cls-12" d="M318.55,288.7v-.2c0-.1-.02-.2-.06-.29-.03-.09-.08-.17-.16-.24-.07-.07-.15-.12-.24-.16-.09-.05-.19-.07-.29-.06l-.2,.03c-.13,.04-.24,.1-.33,.19l-.12,.15c-.07,.12-.1,.24-.1,.38v.2c0,.1,.02,.2,.06,.29,.03,.09,.08,.17,.16,.24,.07,.07,.15,.12,.24,.16,.09,.05,.19,.07,.29,.06l.2-.03c.13-.04,.24-.1,.33-.19l.12-.15c.07-.12,.1-.24,.1-.38h0Z"/><path class="cls-12" d="M317.2,284.47c.97,0,.97-1.5,0-1.5s-.97,1.5,0,1.5h0Z"/><path class="cls-12" d="M312.22,282.48c.97,0,.97-1.5,0-1.5s-.97,1.5,0,1.5h0Z"/><path class="cls-12" d="M307.84,285.07c.97,0,.97-1.5,0-1.5s-.97,1.5,0,1.5h0Z"/><path class="cls-12" d="M311.82,278.1c.97,0,.97-1.5,0-1.5s-.97,1.5,0,1.5h0Z"/><path class="cls-12" d="M322.18,308.38c.97,0,.97-1.5,0-1.5s-.97,1.5,0,1.5h0Z"/><path class="cls-12" d="M325.17,319.53c.97,0,.97-1.5,0-1.5s-.97,1.5,0,1.5h0Z"/><path class="cls-12" d="M325.17,327.1c.97,0,.97-1.5,0-1.5s-.97,1.5,0,1.5h0Z"/><path class="cls-12" d="M315.41,326.7c.97,0,.97-1.5,0-1.5s-.97,1.5,0,1.5h0Z"/><path class="cls-12" d="M311.42,331.08c.97,0,.97-1.5,0-1.5s-.97,1.5,0,1.5h0Z"/><path class="cls-12" d="M307.64,327.9c.97,0,.97-1.5,0-1.5s-.97,1.5,0,1.5h0Z"/><path class="cls-12" d="M308.24,321.32c.97,0,.97-1.5,0-1.5s-.97,1.5,0,1.5h0Z"/><path class="cls-12" d="M305.85,313.55c.97,0,.97-1.5,0-1.5s-.97,1.5,0,1.5h0Z"/><path class="cls-12" d="M306.05,307.38c.97,0,.97-1.5,0-1.5s-.97,1.5,0,1.5h0Z"/><path class="cls-12" d="M310.63,307.58c.97,0,.97-1.5,0-1.5s-.97,1.5,0,1.5h0Z"/><path class="cls-12" d="M315.21,307.78c.97,0,.97-1.5,0-1.5s-.97,1.5,0,1.5h0Z"/><path class="cls-12" d="M322.78,305.39c.97,0,.97-1.5,0-1.5s-.97,1.5,0,1.5h0Z"/><path class="cls-12" d="M319.79,312.56c.97,0,.97-1.5,0-1.5s-.97,1.5,0,1.5h0Z"/><path class="cls-12" d="M313.22,313.95c.97,0,.97-1.5,0-1.5s-.97,1.5,0,1.5h0Z"/><path class="cls-12" d="M316.6,318.14c.97,0,.97-1.5,0-1.5s-.97,1.5,0,1.5h0Z"/><path class="cls-12" d="M322.38,315.75c.97,0,.97-1.5,0-1.5s-.97,1.5,0,1.5h0Z"/><path class="cls-12" d="M323.97,310.37c.97,0,.97-1.5,0-1.5s-.97,1.5,0,1.5h0Z"/><path class="cls-12" d="M319.99,327.1c.97,0,.97-1.5,0-1.5s-.97,1.5,0,1.5h0Z"/><path class="cls-12" d="M319.99,320.33c.97,0,.97-1.5,0-1.5s-.97,1.5,0,1.5h0Z"/><path class="cls-12" d="M313.81,322.52c.97,0,.97-1.5,0-1.5s-.97,1.5,0,1.5h0Z"/><path class="cls-12" d="M310.43,316.34c.97,0,.97-1.5,0-1.5s-.97,1.5,0,1.5h0Z"/><path class="cls-12" d="M312.42,344.43c.97,0,.97-1.5,0-1.5s-.97,1.5,0,1.5h0Z"/><path class="cls-12" d="M312.82,348.01c.97,0,.97-1.5,0-1.5s-.97,1.5,0,1.5h0Z"/><path class="cls-12" d="M313.02,357.58c.97,0,.97-1.5,0-1.5s-.97,1.5,0,1.5h0Z"/><path class="cls-12" d="M315.21,363.15h.2c.1,0,.2-.02,.29-.06,.09-.03,.17-.08,.24-.16,.07-.07,.12-.15,.16-.24,.05-.09,.07-.19,.06-.29l-.03-.2c-.04-.13-.1-.24-.19-.33l-.15-.12c-.12-.07-.24-.1-.38-.1h-.2c-.1,0-.2,.02-.29,.06-.09,.03-.17,.08-.24,.16-.07,.07-.12,.15-.16,.24-.05,.09-.07,.19-.06,.29l.03,.2c.04,.13,.1,.24,.19,.33l.15,.12c.12,.07,.24,.1,.38,.1h0Z"/><path class="cls-12" d="M330.95,361.56c.97,0,.97-1.5,0-1.5s-.97,1.5,0,1.5h0Z"/><path class="cls-12" d="M328.89,356.89l-.2-.2c-.07-.07-.15-.12-.24-.16-.09-.05-.19-.07-.29-.06-.1,0-.2,.02-.29,.06-.09,.03-.17,.08-.24,.16l-.12,.15c-.07,.12-.1,.24-.1,.38l.03,.2c.04,.13,.1,.24,.19,.33l.2,.2c.07,.07,.15,.12,.24,.16,.09,.05,.19,.07,.29,.06,.1,0,.2-.02,.29-.06,.09-.03,.17-.08,.24-.16l.12-.15c.07-.12,.1-.24,.1-.38l-.03-.2c-.04-.13-.1-.24-.19-.33h0Z"/><path class="cls-12" d="M327.36,349.21c.97,0,.97-1.5,0-1.5s-.97,1.5,0,1.5h0Z"/><path class="cls-12" d="M327.76,343.83c.97,0,.97-1.5,0-1.5s-.97,1.5,0,1.5h0Z"/><path class="cls-12" d="M319.39,343.43c.97,0,.97-1.5,0-1.5s-.97,1.5,0,1.5h0Z"/><path class="cls-12" d="M318.99,350.8c.97,0,.97-1.5,0-1.5s-.97,1.5,0,1.5h0Z"/><path class="cls-12" d="M313.62,352.99c.97,0,.97-1.5,0-1.5s-.97,1.5,0,1.5h0Z"/><path class="cls-12" d="M317.6,358.77c.97,0,.97-1.5,0-1.5s-.97,1.5,0,1.5h0Z"/><path class="cls-12" d="M321.18,361.56c.97,0,.97-1.5,0-1.5s-.97,1.5,0,1.5h0Z"/><path class="cls-12" d="M323.18,355.58c.97,0,.97-1.5,0-1.5s-.97,1.5,0,1.5h0Z"/><path class="cls-12" d="M322.58,348.21c.97,0,.97-1.5,0-1.5s-.97,1.5,0,1.5h0Z"/><path class="cls-12" d="M317.2,347.02c.97,0,.97-1.5,0-1.5s-.97,1.5,0,1.5h0Z"/><path class="cls-12" d="M325.17,352.99c.97,0,.97-1.5,0-1.5s-.97,1.5,0,1.5h0Z"/><path class="cls-12" d="M332.54,375.3c.97,0,.97-1.5,0-1.5s-.97,1.5,0,1.5h0Z"/><path class="cls-12" d="M333.73,382.87c.97,0,.97-1.5,0-1.5s-.97,1.5,0,1.5h0Z"/><path class="cls-12" d="M330.35,389.25c.97,0,.97-1.5,0-1.5s-.97,1.5,0,1.5h0Z"/><path class="cls-12" d="M320.39,393.63c.97,0,.97-1.5,0-1.5s-.97,1.5,0,1.5h0Z"/><path class="cls-12" d="M319.39,389.45c.97,0,.97-1.5,0-1.5s-.97,1.5,0,1.5h0Z"/><path class="cls-12" d="M319.19,381.08c.97,0,.97-1.5,0-1.5s-.97,1.5,0,1.5h0Z"/><path class="cls-12" d="M315.61,376.5c.97,0,.97-1.5,0-1.5s-.97,1.5,0,1.5h0Z"/><path class="cls-12" d="M325.17,376.3c.97,0,.97-1.5,0-1.5s-.97,1.5,0,1.5h0Z"/><path class="cls-12" d="M326.16,380.88c.97,0,.97-1.5,0-1.5s-.97,1.5,0,1.5h0Z"/><path class="cls-12" d="M323.58,388.25c.97,0,.97-1.5,0-1.5s-.97,1.5,0,1.5h0Z"/><path class="cls-12" d="M323.38,392.43c.97,0,.97-1.5,0-1.5s-.97,1.5,0,1.5h0Z"/><path class="cls-12" d="M336.92,389.84c.97,0,.97-1.5,0-1.5s-.97,1.5,0,1.5h0Z"/><path class="cls-12" d="M328.36,383.67c.97,0,.97-1.5,0-1.5s-.97,1.5,0,1.5h0Z"/><path class="cls-12" d="M322.58,384.86c.97,0,.97-1.5,0-1.5s-.97,1.5,0,1.5h0Z"/><path class="cls-12" d="M322.18,378.69c.97,0,.97-1.5,0-1.5s-.97,1.5,0,1.5h0Z"/><path class="cls-12" d="M319.59,376.3c.97,0,.97-1.5,0-1.5s-.97,1.5,0,1.5h0Z"/><path class="cls-12" d="M331.74,378.89c.97,0,.97-1.5,0-1.5s-.97,1.5,0,1.5h0Z"/><path class="cls-12" d="M332.54,387.06c.97,0,.97-1.5,0-1.5s-.97,1.5,0,1.5h0Z"/><path class="cls-12" d="M340.71,402.39c.97,0,.97-1.5,0-1.5s-.97,1.5,0,1.5h0Z"/><path class="cls-12" d="M342.3,408.97c.97,0,.97-1.5,0-1.5s-.97,1.5,0,1.5h0Z"/><path class="cls-12" d="M340.71,412.75c.97,0,.97-1.5,0-1.5s-.97,1.5,0,1.5h0Z"/><path class="cls-12" d="M333.53,412.35c.97,0,.97-1.5,0-1.5s-.97,1.5,0,1.5h0Z"/><path class="cls-12" d="M324.57,412.35c.97,0,.97-1.5,0-1.5s-.97,1.5,0,1.5h0Z"/><path class="cls-12" d="M322.91,407.89l-.2-.2c-.07-.07-.15-.12-.24-.16-.09-.05-.19-.07-.29-.06-.1,0-.2,.02-.29,.06-.09,.03-.17,.08-.24,.16l-.12,.15c-.07,.12-.1,.24-.1,.38l.03,.2c.04,.13,.1,.24,.19,.33l.2,.2c.07,.07,.15,.12,.24,.16,.09,.05,.19,.07,.29,.06,.1,0,.2-.02,.29-.06,.09-.03,.17-.08,.24-.16l.12-.15c.07-.12,.1-.24,.1-.38l-.03-.2c-.04-.13-.1-.24-.19-.33h0Z"/><path class="cls-12" d="M322.58,405.38c.97,0,.97-1.5,0-1.5s-.97,1.5,0,1.5h0Z"/><path class="cls-12" d="M328.55,404.58h.2c.1,0,.2-.02,.29-.06,.09-.03,.17-.08,.24-.16,.07-.07,.12-.15,.16-.24,.05-.09,.07-.19,.06-.29l-.03-.2c-.04-.13-.1-.24-.19-.33l-.15-.12c-.12-.07-.24-.1-.38-.1h-.2c-.1,0-.2,.02-.29,.06-.09,.03-.17,.08-.24,.16-.07,.07-.12,.15-.16,.24-.05,.09-.07,.19-.06,.29l.03,.2c.04,.13,.1,.24,.19,.33l.15,.12c.12,.07,.24,.1,.38,.1h0Z"/><path class="cls-12" d="M334.13,403.59c.97,0,.97-1.5,0-1.5s-.97,1.5,0,1.5h0Z"/><path class="cls-12" d="M336.32,406.18c.97,0,.97-1.5,0-1.5s-.97,1.5,0,1.5h0Z"/><path class="cls-12" d="M328.36,408.57c.97,0,.97-1.5,0-1.5s-.97,1.5,0,1.5h0Z"/><path class="cls-12" d="M328.16,412.15c.97,0,.97-1.5,0-1.5s-.97,1.5,0,1.5h0Z"/><path class="cls-12" d="M333.53,408.97c.97,0,.97-1.5,0-1.5s-.97,1.5,0,1.5h0Z"/><path class="cls-12" d="M319.26,218.41c.48,0,.48-.75,0-.75s-.48,.75,0,.75h0Z"/><path class="cls-12" d="M320.19,210.55c.48,0,.48-.75,0-.75s-.48,.75,0,.75h0Z"/><path class="cls-12" d="M323.27,210.55c.48,0,.48-.75,0-.75s-.48,.75,0,.75h0Z"/><path class="cls-12" d="M324.97,218.1c.48,0,.48-.75,0-.75s-.48,.75,0,.75h0Z"/><path class="cls-12" d="M319.26,222.57c.48,0,.48-.75,0-.75s-.48,.75,0,.75h0Z"/><path class="cls-12" d="M314.18,225.19c.48,0,.48-.75,0-.75s-.48,.75,0,.75h0Z"/><path class="cls-12" d="M321.27,232.74c.48,0,.48-.75,0-.75s-.48,.75,0,.75h0Z"/><path class="cls-12" d="M316.65,235.82c.48,0,.48-.75,0-.75s-.48,.75,0,.75h0Z"/><path class="cls-12" d="M311.87,233.05c.48,0,.48-.75,0-.75s-.48,.75,0,.75h0Z"/><path class="cls-12" d="M309.1,240.44c.48,0,.48-.75,0-.75s-.48,.75,0,.75h0Z"/><path class="cls-12" d="M311.56,245.37c.48,0,.48-.75,0-.75s-.48,.75,0,.75h0Z"/><path class="cls-12" d="M309.71,250.3c.48,0,.48-.75,0-.75s-.48,.75,0,.75h0Z"/><path class="cls-12" d="M313.56,253.69c.48,0,.48-.75,0-.75s-.48,.75,0,.75h0Z"/><path class="cls-12" d="M315.88,247.07c.48,0,.48-.75,0-.75s-.48,.75,0,.75h0Z"/><path class="cls-12" d="M320.96,244.29c.48,0,.48-.75,0-.75s-.48,.75,0,.75h0Z"/><path class="cls-12" d="M323.89,246.91c.48,0,.48-.75,0-.75s-.48,.75,0,.75h0Z"/><path class="cls-12" d="M321.27,252.46c.48,0,.48-.75,0-.75s-.48,.75,0,.75h0Z"/><path class="cls-12" d="M322.04,270.33c.48,0,.48-.75,0-.75s-.48,.75,0,.75h0Z"/><path class="cls-12" d="M317.88,270.64c.48,0,.48-.75,0-.75s-.48,.75,0,.75h0Z"/><path class="cls-12" d="M317.57,268.02c.48,0,.48-.75,0-.75s-.48,.75,0,.75h0Z"/><path class="cls-12" d="M311.25,268.48c.48,0,.48-.75,0-.75s-.48,.75,0,.75h0Z"/><path class="cls-12" d="M311.41,272.02c.48,0,.48-.75,0-.75s-.48,.75,0,.75h0Z"/><path class="cls-12" d="M306.02,272.18c.48,0,.48-.75,0-.75s-.48,.75,0,.75h0Z"/><path class="cls-12" d="M306.32,278.03c.48,0,.48-.75,0-.75s-.48,.75,0,.75h0Z"/><path class="cls-12" d="M304.94,284.04c.48,0,.48-.75,0-.75s-.48,.75,0,.75h0Z"/><path class="cls-12" d="M310.64,285.58c.48,0,.48-.75,0-.75s-.48,.75,0,.75h0Z"/><path class="cls-12" d="M310.48,279.88c.48,0,.48-.75,0-.75s-.48,.75,0,.75h0Z"/><path class="cls-12" d="M316.03,279.26c.48,0,.48-.75,0-.75s-.48,.75,0,.75h0Z"/><path class="cls-12" d="M320.96,279.88c.48,0,.48-.75,0-.75s-.48,.75,0,.75h0Z"/><path class="cls-12" d="M320.65,275.72c.48,0,.48-.75,0-.75s-.48,.75,0,.75h0Z"/><path class="cls-12" d="M316.65,274.33c.48,0,.48-.75,0-.75s-.48,.75,0,.75h0Z"/><path class="cls-12" d="M314.8,287.28c.48,0,.48-.75,0-.75s-.48,.75,0,.75h0Z"/><path class="cls-12" d="M321.27,286.97c.48,0,.48-.75,0-.75s-.48,.75,0,.75h0Z"/><path class="cls-12" d="M319.88,290.82c.48,0,.48-.75,0-.75s-.48,.75,0,.75h0Z"/><path class="cls-12" d="M318.65,281.11c.48,0,.48-.75,0-.75s-.48,.75,0,.75h0Z"/><path class="cls-12" d="M325.89,306.84c.48,0,.48-.75,0-.75s-.48,.75,0,.75h0Z"/><path class="cls-12" d="M318.96,305.61c.48,0,.48-.75,0-.75s-.48,.75,0,.75h0Z"/><path class="cls-12" d="M318.34,309.77c.48,0,.48-.75,0-.75s-.48,.75,0,.75h0Z"/><path class="cls-12" d="M315.72,313.31c.48,0,.48-.75,0-.75s-.48,.75,0,.75h0Z"/><path class="cls-12" d="M312.33,310.85c.48,0,.48-.75,0-.75s-.48,.75,0,.75h0Z"/><path class="cls-12" d="M307.4,310.23c.48,0,.48-.75,0-.75s-.48,.75,0,.75h0Z"/><path class="cls-12" d="M310.02,312.7c.48,0,.48-.75,0-.75s-.48,.75,0,.75h0Z"/><path class="cls-12" d="M307.4,316.55c.48,0,.48-.75,0-.75s-.48,.75,0,.75h0Z"/><path class="cls-12" d="M311.41,319.94c.48,0,.48-.75,0-.75s-.48,.75,0,.75h0Z"/><path class="cls-12" d="M307.71,324.1c.48,0,.48-.75,0-.75s-.48,.75,0,.75h0Z"/><path class="cls-12" d="M307.4,330.11c.48,0,.48-.75,0-.75s-.48,.75,0,.75h0Z"/><path class="cls-12" d="M311.56,328.1c.48,0,.48-.75,0-.75s-.48,.75,0,.75h0Z"/><path class="cls-12" d="M311.25,324.71c.48,0,.48-.75,0-.75s-.48,.75,0,.75h0Z"/><path class="cls-12" d="M322.04,324.1c.48,0,.48-.75,0-.75s-.48,.75,0,.75h0Z"/><path class="cls-12" d="M317.26,329.03c.48,0,.48-.75,0-.75s-.48,.75,0,.75h0Z"/><path class="cls-12" d="M318.19,324.87c.48,0,.48-.75,0-.75s-.48,.75,0,.75h0Z"/><path class="cls-12" d="M320.04,316.7c.48,0,.48-.75,0-.75s-.48,.75,0,.75h0Z"/><path class="cls-12" d="M324.04,321.63c.48,0,.48-.75,0-.75s-.48,.75,0,.75h0Z"/><path class="cls-12" d="M326.81,324.87c.48,0,.48-.75,0-.75s-.48,.75,0,.75h0Z"/><path class="cls-12" d="M324.81,313.93c.48,0,.48-.75,0-.75s-.48,.75,0,.75h0Z"/><path class="cls-12" d="M329.59,345.97c.48,0,.48-.75,0-.75s-.48,.75,0,.75h0Z"/><path class="cls-12" d="M324.81,346.13c.48,0,.48-.75,0-.75s-.48,.75,0,.75h0Z"/><path class="cls-12" d="M323.27,342.89c.48,0,.48-.75,0-.75s-.48,.75,0,.75h0Z"/><path class="cls-12" d="M321.42,345.67c.48,0,.48-.75,0-.75s-.48,.75,0,.75h0Z"/><path class="cls-12" d="M315.57,343.97c.48,0,.48-.75,0-.75s-.48,.75,0,.75h0Z"/><path class="cls-12" d="M310.02,347.21c.48,0,.48-.75,0-.75s-.48,.75,0,.75h0Z"/><path class="cls-12" d="M311.56,350.75c.48,0,.48-.75,0-.75s-.48,.75,0,.75h0Z"/><path class="cls-12" d="M318.03,353.83c.48,0,.48-.75,0-.75s-.48,.75,0,.75h0Z"/><path class="cls-12" d="M327.12,361.38c.48,0,.48-.75,0-.75s-.48,.75,0,.75h0Z"/><path class="cls-12" d="M323.42,362.46c.48,0,.48-.75,0-.75s-.48,.75,0,.75h0Z"/><path class="cls-12" d="M319.11,364.46c.48,0,.48-.75,0-.75s-.48,.75,0,.75h0Z"/><path class="cls-12" d="M312.95,362c.48,0,.48-.75,0-.75s-.48,.75,0,.75h0Z"/><path class="cls-12" d="M315.88,360.76c.48,0,.48-.75,0-.75s-.48,.75,0,.75h0Z"/><path class="cls-12" d="M321.58,358.76c.48,0,.48-.75,0-.75s-.48,.75,0,.75h0Z"/><path class="cls-12" d="M328.51,354.91c.48,0,.48-.75,0-.75s-.48,.75,0,.75h0Z"/><path class="cls-12" d="M328.82,351.06c.48,0,.48-.75,0-.75s-.48,.75,0,.75h0Z"/><path class="cls-12" d="M331.13,358.3c.48,0,.48-.75,0-.75s-.48,.75,0,.75h0Z"/><path class="cls-12" d="M322.19,352.75c.48,0,.48-.75,0-.75s-.48,.75,0,.75h0Z"/><path class="cls-12" d="M319.42,347.21c.48,0,.48-.75,0-.75s-.48,.75,0,.75h0Z"/><path class="cls-12" d="M316.18,350.6c.48,0,.48-.75,0-.75s-.48,.75,0,.75h0Z"/><path class="cls-12" d="M331.9,373.24c.48,0,.48-.75,0-.75s-.48,.75,0,.75h0Z"/><path class="cls-12" d="M329.74,374.48c.48,0,.48-.75,0-.75s-.48,.75,0,.75h0Z"/><path class="cls-12" d="M335.29,379.41c.48,0,.48-.75,0-.75s-.48,.75,0,.75h0Z"/><path class="cls-12" d="M336.98,386.19c.48,0,.48-.75,0-.75s-.48,.75,0,.75h0Z"/><path class="cls-12" d="M330.36,390.19c.48,0,.48-.75,0-.75s-.48,.75,0,.75h0Z"/><path class="cls-12" d="M327.28,388.03c.48,0,.48-.75,0-.75s-.48,.75,0,.75h0Z"/><path class="cls-12" d="M330.82,384.03c.48,0,.48-.75,0-.75s-.48,.75,0,.75h0Z"/><path class="cls-12" d="M330.05,380.64c.48,0,.48-.75,0-.75s-.48,.75,0,.75h0Z"/><path class="cls-12" d="M328.66,376.79c.48,0,.48-.75,0-.75s-.48,.75,0,.75h0Z"/><path class="cls-12" d="M324.19,380.02c.48,0,.48-.75,0-.75s-.48,.75,0,.75h0Z"/><path class="cls-12" d="M320.5,383.57c.48,0,.48-.75,0-.75s-.48,.75,0,.75h0Z"/><path class="cls-12" d="M316.49,378.94c.48,0,.48-.75,0-.75s-.48,.75,0,.75h0Z"/><path class="cls-12" d="M325.74,385.57c.48,0,.48-.75,0-.75s-.48,.75,0,.75h0Z"/><path class="cls-12" d="M324.97,382.95c.48,0,.48-.75,0-.75s-.48,.75,0,.75h0Z"/><path class="cls-12" d="M327.43,391.89c.48,0,.48-.75,0-.75s-.48,.75,0,.75h0Z"/><path class="cls-12" d="M322.35,390.19c.48,0,.48-.75,0-.75s-.48,.75,0,.75h0Z"/><path class="cls-12" d="M318.65,392.04c.48,0,.48-.75,0-.75s-.48,.75,0,.75h0Z"/><path class="cls-12" d="M341.45,405.44c.48,0,.48-.75,0-.75s-.48,.75,0,.75h0Z"/><path class="cls-12" d="M339.29,408.99c.48,0,.48-.75,0-.75s-.48,.75,0,.75h0Z"/><path class="cls-12" d="M337.29,411.91c.48,0,.48-.75,0-.75s-.48,.75,0,.75h0Z"/><path class="cls-12" d="M344.99,412.84c.48,0,.48-.75,0-.75s-.48,.75,0,.75h0Z"/><path class="cls-12" d="M337.6,402.98c.48,0,.48-.75,0-.75s-.48,.75,0,.75h0Z"/><path class="cls-12" d="M332.05,407.29c.48,0,.48-.75,0-.75s-.48,.75,0,.75h0Z"/><path class="cls-12" d="M331.59,403.13c.48,0,.48-.75,0-.75s-.48,.75,0,.75h0Z"/><path class="cls-12" d="M325.89,404.83c.48,0,.48-.75,0-.75s-.48,.75,0,.75h0Z"/><path class="cls-12" d="M325.43,408.52c.48,0,.48-.75,0-.75s-.48,.75,0,.75h0Z"/><path class="cls-12" d="M321.42,411.61c.48,0,.48-.75,0-.75s-.48,.75,0,.75h0Z"/><path class="cls-12" d="M330.67,412.53c.48,0,.48-.75,0-.75s-.48,.75,0,.75h0Z"/><path class="cls-12" d="M330.36,409.91c.48,0,.48-.75,0-.75s-.48,.75,0,.75h0Z"/><path class="cls-12" d="M335.9,409.45c.48,0,.48-.75,0-.75s-.48,.75,0,.75h0Z"/><path class="cls-12" d="M339.6,406.52c.48,0,.48-.75,0-.75s-.48,.75,0,.75h0Z"/><path class="cls-12" d="M322.95,189.54c.97,0,.97-1.5,0-1.5s-.97,1.5,0,1.5h0Z"/><path class="cls-12" d="M327.6,188.8c.97,0,.97-1.5,0-1.5s-.97,1.5,0,1.5h0Z"/><path class="cls-12" d="M320.74,178.75c.97,0,.97-1.5,0-1.5s-.97,1.5,0,1.5h0Z"/><path class="cls-12" d="M316.57,170.17c.97,0,.97-1.5,0-1.5s-.97,1.5,0,1.5h0Z"/><path class="cls-12" d="M313.14,158.41c.97,0,.97-1.5,0-1.5s-.97,1.5,0,1.5h0Z"/><path class="cls-12" d="M312.89,142.23c.97,0,.97-1.5,0-1.5s-.97,1.5,0,1.5h0Z"/><path class="cls-12" d="M313.14,130.46c.97,0,.97-1.5,0-1.5s-.97,1.5,0,1.5h0Z"/><path class="cls-12" d="M314.61,133.4c.97,0,.97-1.5,0-1.5s-.97,1.5,0,1.5h0Z"/><path class="cls-12" d="M305.79,143.94c.97,0,.97-1.5,0-1.5s-.97,1.5,0,1.5h0Z"/><path class="cls-12" d="M302.35,158.9c.97,0,.97-1.5,0-1.5s-.97,1.5,0,1.5h0Z"/><path class="cls-12" d="M312.4,181.2c.97,0,.97-1.5,0-1.5s-.97,1.5,0,1.5h0Z"/><path class="cls-12" d="M316.57,185.86c.97,0,.97-1.5,0-1.5s-.97,1.5,0,1.5h0Z"/><path class="cls-12" d="M325.4,183.66c.97,0,.97-1.5,0-1.5s-.97,1.5,0,1.5h0Z"/><path class="cls-12" d="M311.18,173.61c.97,0,.97-1.5,0-1.5s-.97,1.5,0,1.5h0Z"/><path class="cls-12" d="M308.97,165.52c.97,0,.97-1.5,0-1.5s-.97,1.5,0,1.5h0Z"/><path class="cls-12" d="M300.64,169.19c.97,0,.97-1.5,0-1.5s-.97,1.5,0,1.5h0Z"/><path class="cls-12" d="M291.08,162.33c.97,0,.97-1.5,0-1.5s-.97,1.5,0,1.5h0Z"/><path class="cls-12" d="M298.19,150.07c.97,0,.97-1.5,0-1.5s-.97,1.5,0,1.5h0Z"/><path class="cls-12" d="M295.25,141.74c.97,0,.97-1.5,0-1.5s-.97,1.5,0,1.5h0Z"/><path class="cls-12" d="M309.95,150.56c.97,0,.97-1.5,0-1.5s-.97,1.5,0,1.5h0Z"/><path class="cls-12" d="M287.65,158.65c.97,0,.97-1.5,0-1.5s-.97,1.5,0,1.5h0Z"/><path class="cls-12" d="M277.6,155.22c.97,0,.97-1.5,0-1.5s-.97,1.5,0,1.5h0Z"/><path class="cls-12" d="M265.34,134.38c.97,0,.97-1.5,0-1.5s-.97,1.5,0,1.5h0Z"/><path class="cls-12" d="M269.26,122.13c.97,0,.97-1.5,0-1.5s-.97,1.5,0,1.5h0Z"/><path class="cls-12" d="M287.16,117.96c.97,0,.97-1.5,0-1.5s-.97,1.5,0,1.5h0Z"/><path class="cls-12" d="M280.29,118.21c.97,0,.97-1.5,0-1.5s-.97,1.5,0,1.5h0Z"/><path class="cls-12" d="M285.2,124.58c.97,0,.97-1.5,0-1.5s-.97,1.5,0,1.5h0Z"/><path class="cls-12" d="M289.12,135.12c.97,0,.97-1.5,0-1.5s-.97,1.5,0,1.5h0Z"/><path class="cls-12" d="M301.13,140.51c.97,0,.97-1.5,0-1.5s-.97,1.5,0,1.5h0Z"/><path class="cls-12" d="M267.55,116.49c.97,0,.97-1.5,0-1.5s-.97,1.5,0,1.5h0Z"/><path class="cls-12" d="M255.54,115.51c.97,0,.97-1.5,0-1.5s-.97,1.5,0,1.5h0Z"/><path class="cls-12" d="M260.44,121.39c.97,0,.97-1.5,0-1.5s-.97,1.5,0,1.5h0Z"/><path class="cls-12" d="M263.87,130.46c.97,0,.97-1.5,0-1.5s-.97,1.5,0,1.5h0Z"/><path class="cls-12" d="M262.89,116.25c.97,0,.97-1.5,0-1.5s-.97,1.5,0,1.5h0Z"/><path class="cls-12" d="M246.22,112.81c.97,0,.97-1.5,0-1.5s-.97,1.5,0,1.5h0Z"/><path class="cls-12" d="M237.64,111.59c.97,0,.97-1.5,0-1.5s-.97,1.5,0,1.5h0Z"/><path class="cls-12" d="M221.46,109.14c.97,0,.97-1.5,0-1.5s-.97,1.5,0,1.5h0Z"/><path class="cls-12" d="M215.33,103.01c.97,0,.97-1.5,0-1.5s-.97,1.5,0,1.5h0Z"/><path class="cls-12" d="M210.19,104.23c.97,0,.97-1.5,0-1.5s-.97,1.5,0,1.5h0Z"/><path class="cls-12" d="M198.67,107.67c.97,0,.97-1.5,0-1.5s-.97,1.5,0,1.5h0Z"/><path class="cls-12" d="M180.28,105.95c.97,0,.97-1.5,0-1.5s-.97,1.5,0,1.5h0Z"/><path class="cls-12" d="M166.8,116.25c.97,0,.97-1.5,0-1.5s-.97,1.5,0,1.5h0Z"/><path class="cls-12" d="M167.78,110.61c.97,0,.97-1.5,0-1.5s-.97,1.5,0,1.5h0Z"/><path class="cls-12" d="M171.21,111.59c.97,0,.97-1.5,0-1.5s-.97,1.5,0,1.5h0Z"/><path class="cls-12" d="M172.68,105.95c.97,0,.97-1.5,0-1.5s-.97,1.5,0,1.5h0Z"/><path class="cls-12" d="M181.26,99.09c.97,0,.97-1.5,0-1.5s-.97,1.5,0,1.5h0Z"/><path class="cls-12" d="M180.53,88.79c.97,0,.97-1.5,0-1.5s-.97,1.5,0,1.5h0Z"/><path class="cls-12" d="M179.55,72.37c.97,0,.97-1.5,0-1.5s-.97,1.5,0,1.5h0Z"/><path class="cls-12" d="M183.96,62.32c.97,0,.97-1.5,0-1.5s-.97,1.5,0,1.5h0Z"/><path class="cls-12" d="M187.39,53c.97,0,.97-1.5,0-1.5s-.97,1.5,0,1.5h0Z"/><path class="cls-12" d="M191.07,46.63c.97,0,.97-1.5,0-1.5s-.97,1.5,0,1.5h0Z"/><path class="cls-12" d="M200.38,35.35c.97,0,.97-1.5,0-1.5s-.97,1.5,0,1.5h0Z"/><path class="cls-12" d="M204.06,39.03c.97,0,.97-1.5,0-1.5s-.97,1.5,0,1.5h0Z"/><path class="cls-12" d="M199.4,51.04c.97,0,.97-1.5,0-1.5s-.97,1.5,0,1.5h0Z"/><path class="cls-12" d="M199.4,65.01c.97,0,.97-1.5,0-1.5s-.97,1.5,0,1.5h0Z"/><path class="cls-12" d="M202.83,82.66c.97,0,.97-1.5,0-1.5s-.97,1.5,0,1.5h0Z"/><path class="cls-12" d="M201.12,73.84c.97,0,.97-1.5,0-1.5s-.97,1.5,0,1.5h0Z"/><path class="cls-12" d="M195.23,69.67c.97,0,.97-1.5,0-1.5s-.97,1.5,0,1.5h0Z"/><path class="cls-12" d="M187.39,68.69c.97,0,.97-1.5,0-1.5s-.97,1.5,0,1.5h0Z"/><path class="cls-12" d="M190.58,61.09c.97,0,.97-1.5,0-1.5s-.97,1.5,0,1.5h0Z"/><path class="cls-12" d="M198.18,58.89c.97,0,.97-1.5,0-1.5s-.97,1.5,0,1.5h0Z"/><path class="cls-12" d="M202.1,45.16c.97,0,.97-1.5,0-1.5s-.97,1.5,0,1.5h0Z"/><path class="cls-12" d="M197.44,41.24c.97,0,.97-1.5,0-1.5s-.97,1.5,0,1.5h0Z"/><path class="cls-12" d="M194.74,38.05c.97,0,.97-1.5,0-1.5s-.97,1.5,0,1.5h0Z"/><path class="cls-12" d="M193.76,54.23c.97,0,.97-1.5,0-1.5s-.97,1.5,0,1.5h0Z"/><path class="cls-12" d="M195.72,47.36c.97,0,.97-1.5,0-1.5s-.97,1.5,0,1.5h0Z"/><path class="cls-12" d="M207,89.04c.97,0,.97-1.5,0-1.5s-.97,1.5,0,1.5h0Z"/><path class="cls-12" d="M211.17,97.62c.97,0,.97-1.5,0-1.5s-.97,1.5,0,1.5h0Z"/><path class="cls-12" d="M227.59,108.4c.97,0,.97-1.5,0-1.5s-.97,1.5,0,1.5h0Z"/><path class="cls-12" d="M265.59,125.32c.97,0,.97-1.5,0-1.5s-.97,1.5,0,1.5h0Z"/><path class="cls-12" d="M275.39,123.35c.97,0,.97-1.5,0-1.5s-.97,1.5,0,1.5h0Z"/><path class="cls-12" d="M295.49,156.69c.97,0,.97-1.5,0-1.5s-.97,1.5,0,1.5h0Z"/><path class="cls-12" d="M319.76,183.77c.48,0,.48-.75,0-.75s-.48,.75,0,.75h0Z"/><path class="cls-12" d="M318.29,180.34c.48,0,.48-.75,0-.75s-.48,.75,0,.75h0Z"/><path class="cls-12" d="M320.25,172.49c.48,0,.48-.75,0-.75s-.48,.75,0,.75h0Z"/><path class="cls-12" d="M314.12,176.66c.48,0,.48-.75,0-.75s-.48,.75,0,.75h0Z"/><path class="cls-12" d="M307.52,173.82l-.25-.25s-.07-.06-.12-.08c-.04-.02-.09-.03-.14-.03-.05,0-.1,0-.14,.03-.05,.02-.09,.04-.12,.08l-.06,.08c-.03,.06-.05,.12-.05,.19v.1c.03,.06,.06,.12,.11,.17l.25,.25s.07,.06,.12,.08c.04,.02,.09,.03,.14,.03,.05,0,.1,0,.14-.03,.05-.02,.09-.04,.12-.08l.06-.08c.03-.06,.05-.12,.05-.19v-.1c-.03-.06-.06-.12-.11-.17h0Z"/><path class="cls-12" d="M305.54,161.22c.48,0,.48-.75,0-.75s-.48,.75,0,.75h0Z"/><path class="cls-12" d="M297.7,165.14c.48,0,.48-.75,0-.75s-.48,.75,0,.75h0Z"/><path class="cls-12" d="M303.58,153.62c.48,0,.48-.75,0-.75s-.48,.75,0,.75h0Z"/><path class="cls-12" d="M302.11,148.47c.48,0,.48-.75,0-.75s-.48,.75,0,.75h0Z"/><path class="cls-12" d="M307.75,138.67c.48,0,.48-.75,0-.75s-.48,.75,0,.75h0Z"/><path class="cls-12" d="M310.2,131.31c.48,0,.48-.75,0-.75s-.48,.75,0,.75h0Z"/><path class="cls-12" d="M313.88,137.2c.48,0,.48-.75,0-.75s-.48,.75,0,.75h0Z"/><path class="cls-12" d="M313.14,147.49c.48,0,.48-.75,0-.75s-.48,.75,0,.75h0Z"/><path class="cls-12" d="M312.4,154.6c.48,0,.48-.75,0-.75s-.48,.75,0,.75h0Z"/><path class="cls-12" d="M309.46,157.05c.48,0,.48-.75,0-.75s-.48,.75,0,.75h0Z"/><path class="cls-12" d="M298.92,145.53c.48,0,.48-.75,0-.75s-.48,.75,0,.75h0Z"/><path class="cls-12" d="M293.53,138.67c.48,0,.48-.75,0-.75s-.48,.75,0,.75h0Z"/><path class="cls-12" d="M286.18,129.11c.48,0,.48-.75,0-.75s-.48,.75,0,.75h0Z"/><path class="cls-12" d="M287.4,122.24c.48,0,.48-.75,0-.75s-.48,.75,0,.75h0Z"/><path class="cls-12" d="M281.27,120.28c.48,0,.48-.75,0-.75s-.48,.75,0,.75h0Z"/><path class="cls-12" d="M279.56,123.71c.48,0,.48-.75,0-.75s-.48,.75,0,.75h0Z"/><path class="cls-12" d="M275.39,117.1c.48,0,.48-.75,0-.75s-.48,.75,0,.75h0Z"/><path class="cls-12" d="M266.81,119.55c.48,0,.48-.75,0-.75s-.48,.75,0,.75h0Z"/><path class="cls-12" d="M268.77,126.66c.48,0,.48-.75,0-.75s-.48,.75,0,.75h0Z"/><path class="cls-12" d="M267.79,145.29c.48,0,.48-.75,0-.75s-.48,.75,0,.75h0Z"/><path class="cls-12" d="M275.15,147.98c.48,0,.48-.75,0-.75s-.48,.75,0,.75h0Z"/><path class="cls-12" d="M279.56,152.64c.48,0,.48-.75,0-.75s-.48,.75,0,.75h0Z"/><path class="cls-12" d="M283.48,158.28c.48,0,.48-.75,0-.75s-.48,.75,0,.75h0Z"/><path class="cls-12" d="M272.69,149.94c.48,0,.48-.75,0-.75s-.48,.75,0,.75h0Z"/><path class="cls-12" d="M262.64,125.92c.48,0,.48-.75,0-.75s-.48,.75,0,.75h0Z"/><path class="cls-12" d="M258.23,118.08c.48,0,.48-.75,0-.75s-.48,.75,0,.75h0Z"/><path class="cls-12" d="M251.37,115.87c.48,0,.48-.75,0-.75s-.48,.75,0,.75h0Z"/><path class="cls-12" d="M240.34,111.21c.48,0,.48-.75,0-.75s-.48,.75,0,.75h0Z"/><path class="cls-12" d="M232.25,110.72c.48,0,.48-.75,0-.75s-.48,.75,0,.75h0Z"/><path class="cls-12" d="M223.42,107.29c.48,0,.48-.75,0-.75s-.48,.75,0,.75h0Z"/><path class="cls-12" d="M214.6,108.03c.48,0,.48-.75,0-.75s-.48,.75,0,.75h0Z"/><path class="cls-12" d="M206.26,107.29c.48,0,.48-.75,0-.75s-.48,.75,0,.75h0Z"/><path class="cls-12" d="M211.9,100.92c.48,0,.48-.75,0-.75s-.48,.75,0,.75h0Z"/><path class="cls-12" d="M208.96,93.56c.48,0,.48-.75,0-.75s-.48,.75,0,.75h0Z"/><path class="cls-12" d="M204.3,85.96c.48,0,.48-.75,0-.75s-.48,.75,0,.75h0Z"/><path class="cls-12" d="M202.34,77.88c.48,0,.48-.75,0-.75s-.48,.75,0,.75h0Z"/><path class="cls-12" d="M198.67,69.54c.48,0,.48-.75,0-.75s-.48,.75,0,.75h0Z"/><path class="cls-12" d="M194.99,65.62c.48,0,.48-.75,0-.75s-.48,.75,0,.75h0Z"/><path class="cls-12" d="M201.36,61.21c.48,0,.48-.75,0-.75s-.48,.75,0,.75h0Z"/><path class="cls-12" d="M201.12,54.83c.48,0,.48-.75,0-.75s-.48,.75,0,.75h0Z"/><path class="cls-12" d="M203.32,49.69c.48,0,.48-.75,0-.75s-.48,.75,0,.75h0Z"/><path class="cls-12" d="M206.26,44.54c.48,0,.48-.75,0-.75s-.48,.75,0,.75h0Z"/><path class="cls-12" d="M210.43,36.2c.48,0,.48-.75,0-.75s-.48,.75,0,.75h0Z"/><path class="cls-12" d="M204.3,35.22c.48,0,.48-.75,0-.75s-.48,.75,0,.75h0Z"/><path class="cls-12" d="M199.4,39.15c.48,0,.48-.75,0-.75s-.48,.75,0,.75h0Z"/><path class="cls-12" d="M197.19,35.47c.48,0,.48-.75,0-.75s-.48,.75,0,.75h0Z"/><path class="cls-12" d="M193.27,42.58c.48,0,.48-.75,0-.75s-.48,.75,0,.75h0Z"/><path class="cls-12" d="M193.03,50.42c.48,0,.48-.75,0-.75s-.48,.75,0,.75h0Z"/><path class="cls-12" d="M189.11,56.3c.48,0,.48-.75,0-.75s-.48,.75,0,.75h0Z"/><path class="cls-12" d="M185.43,57.53c.48,0,.48-.75,0-.75s-.48,.75,0,.75h0Z"/><path class="cls-12" d="M186.41,63.9c.48,0,.48-.75,0-.75s-.48,.75,0,.75h0Z"/><path class="cls-12" d="M181.51,66.84c.48,0,.48-.75,0-.75s-.48,.75,0,.75h0Z"/><path class="cls-12" d="M182.73,73.71c.48,0,.48-.75,0-.75s-.48,.75,0,.75h0Z"/><path class="cls-12" d="M179.79,79.1c.48,0,.48-.75,0-.75s-.48,.75,0,.75h0Z"/><path class="cls-12" d="M183.2,88.31l.25,.25s.07,.06,.12,.08c.04,.02,.09,.03,.14,.03,.05,0,.1,0,.14-.03,.05-.02,.09-.04,.12-.08l.06-.08c.03-.06,.05-.12,.05-.19v-.1c-.03-.06-.06-.12-.11-.17l-.25-.25s-.07-.06-.12-.08c-.04-.02-.09-.03-.14-.03-.05,0-.1,0-.14,.03-.05,.02-.09,.04-.12,.08l-.06,.08c-.03,.06-.05,.12-.05,.19v.1c.03,.06,.06,.12,.11,.17h0Z"/><path class="cls-12" d="M187.88,106.56c.48,0,.48-.75,0-.75s-.48,.75,0,.75h0Z"/><path class="cls-12" d="M183.71,105.33c.48,0,.48-.75,0-.75s-.48,.75,0,.75h0Z"/><path class="cls-12" d="M177.83,108.76c.48,0,.48-.75,0-.75s-.48,.75,0,.75h0Z"/><path class="cls-12" d="M161.65,119.55c.48,0,.48-.75,0-.75s-.48,.75,0,.75h0Z"/><path class="cls-12" d="M166.06,113.91c.48,0,.48-.75,0-.75s-.48,.75,0,.75h0Z"/><path class="cls-12" d="M169.5,115.13c.48,0,.48-.75,0-.75s-.48,.75,0,.75h0Z"/><path class="cls-12" d="M173.17,108.76c.48,0,.48-.75,0-.75s-.48,.75,0,.75h0Z"/><path class="cls-12" d="M177.83,102.63c.48,0,.48-.75,0-.75s-.48,.75,0,.75h0Z"/><path class="cls-12" d="M175.38,101.65c.48,0,.48-.75,0-.75s-.48,.75,0,.75h0Z"/><path class="cls-12" d="M179.3,95.03c.48,0,.48-.75,0-.75s-.48,.75,0,.75h0Z"/><path class="cls-12" d="M183.96,93.07c.48,0,.48-.75,0-.75s-.48,.75,0,.75h0Z"/><path class="cls-12" d="M184.69,99.45c.48,0,.48-.75,0-.75s-.48,.75,0,.75h0Z"/><path class="cls-12" d="M182.73,82.78c.48,0,.48-.75,0-.75s-.48,.75,0,.75h0Z"/><path class="cls-12" d="M182,80.08c.48,0,.48-.75,0-.75s-.48,.75,0,.75h0Z"/><path class="cls-12" d="M180.53,84.74c.48,0,.48-.75,0-.75s-.48,.75,0,.75h0Z"/><path class="cls-12" d="M233.47,109.01c.48,0,.48-.75,0-.75s-.48,.75,0,.75h0Z"/><path class="cls-12" d="M222.44,105.57c.48,0,.48-.75,0-.75s-.48,.75,0,.75h0Z"/><path class="cls-12" d="M217.54,106.8c.48,0,.48-.75,0-.75s-.48,.75,0,.75h0Z"/><path class="cls-12" d="M319.62,230.73c.97,0,.97-1.5,0-1.5s-.97,1.5,0,1.5h0Z"/><path class="cls-12" d="M272.69,114.89c.48,0,.48-.75,0-.75s-.48,.75,0,.75h0Z"/></g><g><text class="cls-1" transform="translate(112.83 87.84)"><tspan x="0" y="0">a</tspan></text><text class="cls-1" transform="translate(289.83 86.84)"><tspan x="0" y="0">u</tspan></text><text class="cls-1" transform="translate(357.83 234.84)"><tspan x="0" y="0">o</tspan></text><text class="cls-1" transform="translate(206.83 369.84)"><tspan x="0" y="0">a</tspan></text><text class="cls-1" transform="translate(105.83 215.84)"><tspan x="0" y="0">e</tspan></text></g></svg>